<svg id="Layer_1" data-name="Layer 1" xmlns="http://www.w3.org/2000/svg" viewBox="0 0 213.446 83.397">
  <defs>
    <style>
      .cls-1 {
        fill: #b60e1c;
      }
    </style>
  </defs>
  <title>f5146bf3-b7e2-4648-8784-b4a2c251aedf</title>
  <path id="Duckling_font" data-name="Duckling font" class="cls-1" d="M13,60.386l-4.822.524Q0,59.548,0,51.737V50.584q0-8.963,12-14.939h2.411l2.411,2.883v2.307q-10.588,4.4-10.588,10.9v1.153L7.706,54.62H9.593q7.863,0,17.822-17.246A44.477,44.477,0,0,0,29.3,24.741q0-14.624-8.177-18.975L20.653,3.46Q21.282,0,22.121,0h.943Q30.56,0,34.6,24.165,34.6,50.951,13,60.386ZM43.035,37.479,41.1,35.33H39.156a20.489,20.489,0,0,0-4.822,13.839v1.048q0,11.689,10.169,11.689a9.436,9.436,0,0,0,6.291-2.621l3.879,1.049,2.883-2.621-.472-9.068V39.052q-1.258-3.2-3.879-3.2h-.472l-1.939,1.625q0,18.083-7.759,18.084H41.568l-1.416-3.722q0-3.092,2.883-13.314Zm91.941,16.406V52.681l-1.049-1.835q-8.858,4.824-11.584,4.822h-2.1q-4.194,0-4.193-6.6l5.766-7.233q8.963-8.492,8.964-13.262l-1.049-1.835-2.62.629q-22.8,24.113-26.839,24.112h-.523l-.524-3.04q0-4.77,3.145-19.29,4.247-7.181,4.246-13.262-2.2-4.822-5.294-4.822H100.8l-.524.629q-7.339,25.16-7.338,36.169a25.653,25.653,0,0,0,.555,5.679c-.141-.076-.29-.152-.45-.227l-16.3,1.258q-9.907-.472-9.907-3.145V48.906l5.924-3.2q10.9-1.834,10.9-4.4a4.762,4.762,0,0,0-4.979-3.826H77.212Q59.389,42.2,59.39,47.6q0,13.315,15.358,13.314,13.015,0,19.492-5.055a6.175,6.175,0,0,0,6.036,4.059q3.25,0,8.964-4.822h1.049q3.353,8.388,12.056,8.387l2.674-.576Q132.564,60.28,134.977,53.886Zm11.27,6.4q-5.556-17.246-5.556-28.83,0-8.754,3.722-22.592Q143.154,3.2,141.319,3.2H137.6q-2.2,0-4.3,28.253a69.106,69.106,0,0,0,2.464,18.189q1.992,11.271,8.02,11.27h1.835Zm4.613-54.986h-1.888q-1.206,0-1.834,3.826,2.306,4.4,4.3,4.4,3.092,0,3.722-1.888V9.75Q155.157,5.3,150.859,5.295Zm37.06,55.144v-2.1l-1.783-1.572-1.834.523q-2.883,0-4.979-4.717-2.988-14.625-6.29-14.625-4.194,0-9.487,12.527h-.472L162.6,41.1l.473-2.1q0-2.462-2.727-4.717h-1.782L157.2,35.854V51.527q.366,9.384,3.616,9.383,2.726,0,8.125-8.858,2.464-5.713,3.146-5.714,1.625,7.444,3.2,10.432a15.243,15.243,0,0,0,5.871,6.237h1.782Q187.918,62.22,187.919,60.438Zm25.527-13.682v1.206q-7.182,7.548-14.52,7.548l-4.193-.576a27.458,27.458,0,0,0,4.036,14.887l1.992,6.237q.051,4.455-1.521,6.028a6.089,6.089,0,0,1-2.726,1.311l-2.045-.21-2.62-1.048q-2.517-.524-5.714-4.718-1.834-5.243,3.093-3.3,9.226,9.122.367-11.637l-.944-8.7q0-19.236,14.992-19.237Q213.446,38.632,213.446,46.757Zm-6.08-2.306q-1.049-2.936-4.665-2.936-6.554,1.153-6.553,6.447l1.835,1.153Q202.962,49.116,207.366,44.451Zm-55.773-9.54H148.92q-1.573,0-1.573,8.229v5.084q0,12.687,6.343,12.686h1.625l1.573-1.887V57.765a18.3,18.3,0,0,1-3.2-9.54l.524-8.858Q152.85,35.278,151.593,34.911Z"/>
</svg>
