<svg id="Layer_1" data-name="Layer 1" xmlns="http://www.w3.org/2000/svg" xmlns:xlink="http://www.w3.org/1999/xlink" viewBox="0 0 340.07 281.86"><defs><style>.cls-1,.cls-10,.cls-11,.cls-13,.cls-3,.cls-8,.cls-9{fill:none;}.cls-12,.cls-2{fill:#fff;}.cls-3{stroke:#f09d28;stroke-width:5px;}.cls-4{clip-path:url(#clip-path);}.cls-5{fill:#c62322;}.cls-24,.cls-6{fill:#f1f2f2;}.cls-7{fill:#475563;}.cls-10,.cls-11,.cls-8,.cls-9{stroke:#bcbec0;stroke-width:4px;}.cls-10,.cls-11,.cls-12,.cls-13,.cls-8,.cls-9{stroke-linecap:round;stroke-linejoin:round;}.cls-9{stroke-dasharray:11.33 11.33;}.cls-10{stroke-dasharray:11.57 11.57;}.cls-11{stroke-dasharray:13.25 13.25;}.cls-12,.cls-13{stroke:#c62527;stroke-width:2px;}.cls-14{fill:#231f20;}.cls-15{fill:#d1d3d4;}.cls-16{fill:#ddd7cb;}.cls-17{fill:#f09d28;}.cls-18{fill:gray;}.cls-19{fill:#bcbec0;}.cls-20{fill:#dadde0;}.cls-21{clip-path:url(#clip-path-2);}.cls-22{fill:#5a8b67;}.cls-23{fill:#657b8e;}.cls-24{opacity:0.26;}.cls-24,.cls-25,.cls-26{isolation:isolate;}.cls-26{font-size:18px;font-family:HurmeGeometricSans3-Bold, "Hurme Geometric Sans 3";font-weight:700;}.cls-27{letter-spacing:0em;}.cls-28{letter-spacing:-0.09em;}.cls-29{letter-spacing:0.01em;}.cls-30{letter-spacing:-0.02em;}</style><clipPath id="clip-path"><rect class="cls-1" x="0.07" y="0.09" width="301.85" height="271.75"/></clipPath><clipPath id="clip-path-2"><path class="cls-1" d="M100.56,151.5s16.13,4.17,24.88,11c16.67,13,40.44,14.59,45.1,12.38,7.17-3.4-.94-18.53,8.1-20.7s54.87,40.78,65.47,31.2-8.72-36.14,6.55-42.63,35.65-.66,39.59-16.68c1.33-5.38-10.73-17.78-38.23-30.55-2.08-1-2.68-.48-5.05-4.31l-1.07-4.38c.06-.64,0-2.45-2.68-1.92L96.4,141.52l2.65,1.1a5.77,5.77,0,0,1,2.43,7.58Z"/></clipPath></defs><title>features</title><g id="Group_362" data-name="Group 362"><g id="Group_361" data-name="Group 361"><path id="Exclusion_2" data-name="Exclusion 2" class="cls-2" d="M340.07,279.36H.07V104.43h0c-.9-.92-1.75-1.85-2.54-2.78a120.51,120.51,0,0,1-24.92-3.43c-10.2-2.73-16.87-6.88-19.83-12.35a15.17,15.17,0,0,1-1.67-9.09,30.69,30.69,0,0,1,4.47-12,13.9,13.9,0,0,1,4-4.6,7.08,7.08,0,0,1,4-1.27,12.24,12.24,0,0,1,6.42,2.36c.56.37,1.08.74,1.55,1.07a6.12,6.12,0,0,0,2.27,1.29.34.34,0,0,0,.35-.22c3-6.71,5.85-11.45,8.62-14.49,2.42-2.67,4.77-4,7.16-4a8.92,8.92,0,0,1,5,1.8,109,109,0,0,1,5-12.32v70c5.56,5.67,13.25,11,22.86,15.83-.65,1.07-1.4,3.11-1.34,6.75a6.74,6.74,0,0,0,4.53,6.25l61.3,23.2a25.12,25.12,0,0,0,8.5,1.94,10.46,10.46,0,0,0,2.43-.26l1-.37c.66.18,16.33,4.34,24.86,11l.12.1,0,0,0,0h0l0,0,.07.06,0,0h0l0,0,.05,0,.06,0,.06,0,.07,0h0l0,0,0,0,0,0,.08.06.09.06h0l.07.06.08.06,0,0h0l.09.06,0,0,0,0,0,0,.07.05,0,0,.07,0h0l.11.08h0l0,0,.17.12h0l.13.09,0,0h0l0,0,.12.08.07,0,0,0,.06.05.06,0,.07,0h0l.06,0h0l0,0,.13.1,0,0,0,0,.08.05.08.05,0,0,.1.06,0,0,.06,0,.06,0h0l0,0,0,0h0l.08.06h0l0,0h0v0l.18.11h0l.1.07.06,0h0l0,0h0l.13.08.05,0,.13.09h0l0,0,.09.05h0l.06,0h0l.19.11.18.11h0l0,0h0l.08,0,.07,0,0,0,.1.07,0,0h0l.56.33h0l0,0,.11.07h0l.13.08,0,0h0l.07,0h0l.49.28h0l.09.05.08.05h0l0,0,.14.07h0l.57.31h0l.06,0,.13.07h0A68.63,68.63,0,0,0,144.69,179h0l.12,0h.08l.12,0,.07,0,.18.06h0l.19,0h0l.05,0,.1,0h.06l.11,0,.08,0,.1,0,.08,0,.11,0,.1,0h.18l.07,0h.13l0,0h.05l.06,0,.07,0h0c.76.2,1.51.39,2.24.56.89.21,1.81.4,2.76.59,1.54.3,3.08.54,4.58.73h0l.13,0h.44l.08,0h1l.16,0h0c1.7.16,3.32.24,4.8.24a16.1,16.1,0,0,0,6.08-.82,5.49,5.49,0,0,0,2.95-4,27.41,27.41,0,0,0,.4-6,24.5,24.5,0,0,1,.53-6.51,5.42,5.42,0,0,1,3.81-4.05l.41-.11a3.65,3.65,0,0,1,.74-.08h.36c2,.16,5.09,1.53,9.73,4.32,4.14,2.48,9,5.78,14.14,9.28h0l3.35,2.27.66.45.33.22.06,0,.55.37.26.21.08,0h0c10.06,6.76,20.36,13.25,27.57,15a15.14,15.14,0,0,0,3.42.46,6,6,0,0,0,4.19-1.4,9.17,9.17,0,0,0,2.57-3.93,15.63,15.63,0,0,0,.78-5.3,64.12,64.12,0,0,0-1.48-11.39,63.71,63.71,0,0,1-1.47-11.26c0-5.55,1.95-9,6.15-10.74,5.37-2.28,11.31-3,17.05-3.76a66.26,66.26,0,0,0,12.26-2.3c4.07-1.36,6.78-3.36,8.55-6.32a15.51,15.51,0,0,0,1.73-4.31,3.1,3.1,0,0,0,.08-.42c.33-2.94-2.9-7.5-8.87-12.49-7-5.83-17.14-11.92-29.44-17.63-.42-.19-.77-.33-1.08-.45s-.49-.18-.73-.29c-.84-.39-1.58-1-2.86-3l1.89-.75c2.55-1,4-2.79,3.85-4.9,0-.31,0-.66,0-1a22.31,22.31,0,0,0-.46-4.68,4.81,4.81,0,0,0-.95-2.58l0-.08,0,0a.89.89,0,0,0-.29-.32,6,6,0,0,0-1.89-1.46c-3.21-1.58-9.92-4.7-20-9.27a60.92,60.92,0,0,1-5.22-9.59,108.62,108.62,0,0,1-4.1-10.92c-2.47-7.76-4.42-16-6.49-24.8C210.19,18.38,208,9,205.09.09h135V279.36ZM161.79,186.52s-4.06,1.31-3.93,3.19c.07,1,1.29,2,3.62,2.92a70.05,70.05,0,0,0,13.64,3.27,51.29,51.29,0,0,0,8.11.76c5,0,8.15-1.2,9.33-3.56.6-1.2,1-3.36-.54-6.87a21.3,21.3,0,0,0-2.12-3.71c-2.16-1.74-3.88-2.59-5.26-2.59s-2.36.81-3.1,2.48a5.77,5.77,0,0,0-.48,2.84,4.94,4.94,0,0,1-.7,3.07c-.3.52-1.29.78-3,.78C172.18,189.1,161.9,186.54,161.79,186.52Zm107.47-36.13a14.21,14.21,0,0,0-5.94,1.05,2.28,2.28,0,0,0-1.56,2.11c.06,1.95,2.87,4.49,6.52,5.91a8.83,8.83,0,0,1,1.67.8c.77.46,1.2.72,8,2.11a7,7,0,0,0,1.29.12c2.49,0,6.06-1,7.75-2.93,1.33-1.48,1.73-2.83,1.2-4-.4-.88-1.54-2.14-4.78-3.13a20.33,20.33,0,0,0-4.51-.87.25.25,0,0,0-.12,0h0a8.15,8.15,0,0,1-1.08-.19l-2.18-.4a37.58,37.58,0,0,0-6.25-.6ZM.07,34.41h0V.09H26a119.94,119.94,0,0,0-14.65,16A108.47,108.47,0,0,0,.07,34.41ZM205.09.09H26a143.19,143.19,0,0,1,16.58-13A179.14,179.14,0,0,1,61.68-24a230.89,230.89,0,0,1,21.5-9.46c7.4-2.82,15.36-5.48,23.67-7.88a180.63,180.63,0,0,1,21.31-4.89,113.92,113.92,0,0,1,18-1.55,76.76,76.76,0,0,1,12.58,1A58.26,58.26,0,0,1,169.42-44a49.26,49.26,0,0,1,9,4.45A48.78,48.78,0,0,1,186-33.66C194-26,200.1-15.3,205.09.09Z"/><line id="Line_11" data-name="Line 11" class="cls-3" x1="0.07" y1="279.36" x2="340.07" y2="279.36"/><g class="cls-4"><g id="Mask_Group_8" data-name="Mask Group 8"><g id="Group_326" data-name="Group 326"><path id="Path_1065" data-name="Path 1065" class="cls-5" d="M232.15,74.69c42.94,48.29,15.49,68.2-54.52,68.2s-191.32-19-187.42-67.53C-5,15.94,40.6-17.71,108.11-36.06,227.38-68.47,199.68,38.18,232.15,74.69Z"/><path id="Path_1066" data-name="Path 1066" class="cls-6" d="M8,95.48s-74.63,2.74-51.13-37c8-13.48,17.68.79,18.65-1.37C-8.88,22.61-1.23,46.22,8.66,51c22.8,11,22.8,0,38.7,9.58,6,3.61,8.65,21.94,1.84,24.32S8,95.48,8,95.48Z"/><path id="Path_1067" data-name="Path 1067" class="cls-6" d="M35.6,48.67c8.29,2.88,9.23,2.39,16.18,2,17.75-1,37.33-14.65.6-15.18-6-.09-.19-11.9-20.23-7.11-7.24,1.73-9.67-6.85-18.65,5.47C.63,51.51,28,46.05,35.6,48.67Z"/><g id="Group_325" data-name="Group 325"><path id="Path_1069" data-name="Path 1069" class="cls-7" d="M191.16,176.26s13.45,18-14.78,13.38-13.32-9.39-13.32-9.39,17.13,4.3,18.56,1.81.06-3.37,1.19-5.91C184.18,173.07,186.62,172.6,191.16,176.26Z"/><path id="Path_1070" data-name="Path 1070" class="cls-7" d="M279.25,156.11c2.36.48,7-.57,9-2.81,5.84-6.56-8.23-8.21-8.21-8s-10-2.67-15.49-.12c-3.79,1.77-.15,6,5,8C272.76,154.44,269.52,154.12,279.25,156.11Z"/><g id="Group_310" data-name="Group 310"><g id="Group_309" data-name="Group 309"><line id="Line_14" data-name="Line 14" class="cls-8" x1="79.73" y1="83.9" x2="77.52" y2="83.86"/><line id="Line_15" data-name="Line 15" class="cls-9" x1="73.35" y1="83.78" x2="25.34" y2="82.9"/><line id="Line_16" data-name="Line 16" class="cls-8" x1="23.25" y1="82.86" x2="21.04" y2="82.82"/></g></g><g id="Group_312" data-name="Group 312"><g id="Group_311" data-name="Group 311"><line id="Line_17" data-name="Line 17" class="cls-8" x1="99.51" y1="95.33" x2="97.3" y2="95.33"/><line id="Line_18" data-name="Line 18" class="cls-10" x1="93.04" y1="95.33" x2="44.02" y2="95.28"/><line id="Line_19" data-name="Line 19" class="cls-8" x1="41.89" y1="95.28" x2="39.68" y2="95.27"/></g></g><g id="Group_314" data-name="Group 314"><g id="Group_313" data-name="Group 313"><line id="Line_20" data-name="Line 20" class="cls-8" x1="100.17" y1="72.52" x2="97.96" y2="72.51"/><line id="Line_21" data-name="Line 21" class="cls-11" x1="93.08" y1="72.47" x2="56.48" y2="72.19"/><line id="Line_22" data-name="Line 22" class="cls-8" x1="54.04" y1="72.17" x2="51.83" y2="72.15"/></g></g><g id="Group_315" data-name="Group 315"><ellipse id="Ellipse_234" data-name="Ellipse 234" class="cls-2" cx="31.32" cy="94.26" rx="7.93" ry="7.85"/><path id="Path_1071" data-name="Path 1071" class="cls-12" d="M27.23,94.82l2.32,2.66L35.41,91"/></g><g id="Group_316" data-name="Group 316"><ellipse id="Ellipse_235" data-name="Ellipse 235" class="cls-2" cx="43.97" cy="72.21" rx="7.93" ry="7.85"/><path id="Path_1072" data-name="Path 1072" class="cls-13" d="M39.87,72.77l2.32,2.66L48.06,69"/></g><g id="Group_317" data-name="Group 317"><ellipse id="Ellipse_236" data-name="Ellipse 236" class="cls-2" cx="14.23" cy="83.03" rx="7.93" ry="7.85"/><path id="Path_1073" data-name="Path 1073" class="cls-13" d="M10.13,83.59l2.32,2.67,5.87-6.45"/></g><g id="phon"><path id="Path_1074" data-name="Path 1074" class="cls-14" d="M27.38,127l61.3,23.19c3.39,1.28,7.4,2.49,10.94,1.68,1-.23,128.37-52.44,149.62-60.82,2.21-.87,4-2.55,3.85-4.9-.1-2,.12-5.45-1.51-8.42-4.13-7.52-126.43,36-126.43,36l-99.95-.89s-2.46,1.46-2.34,7.93A6.74,6.74,0,0,0,27.38,127Z"/><g id="Group_318" data-name="Group 318"><path id="Path_1075" data-name="Path 1075" class="cls-15" d="M97.69,144a15.11,15.11,0,0,1-5-.92c-6.46-2.27-64.79-25.3-65.38-25.53S25.07,116.32,25,115s1.14-2.64,3.54-4.11c2.1-1.3,16.88-7.26,75.31-28.3C140.48,69.41,179.06,55.76,190,51.9a7.15,7.15,0,0,1,5.34.22c10.34,4.63,44.78,20.08,53.72,24.48,1.81.89,3.29,3,2.65,5a3.83,3.83,0,0,1-1.23,1.78c-3.13,2.31-128.89,52.28-145.19,58.69l-.8.31A17.45,17.45,0,0,1,97.69,144Z"/><path id="Path_1076" data-name="Path 1076" class="cls-14" d="M192.4,52.21h0a6.33,6.33,0,0,1,2.64.57c10.34,4.62,44.77,20.07,53.7,24.47,1.5.74,2.78,2.52,2.27,4.12a2.92,2.92,0,0,1-1,1.4c-4.41,2.81-128.92,52.28-145,58.6-.27.1-.54.22-.8.33a16.87,16.87,0,0,1-6.54,1.6,14.44,14.44,0,0,1-4.78-.88c-6.39-2.25-63.66-24.85-65.32-25.51-.6-.27-1.82-1.1-1.88-1.94,0-.43.22-1.62,3.19-3.44,2.07-1.28,16.81-7.21,75.17-28.24,36.72-13.22,75.25-26.85,86.18-30.71a6.31,6.31,0,0,1,2.15-.37m0-1.46a7.92,7.92,0,0,0-2.64.45C178.91,55,140.35,68.67,103.57,81.92S31.81,108,28.12,110.29c-8,4.94-1.11,8-1.11,8S85.87,141.5,92.42,143.8a16,16,0,0,0,5.27,1c3.25,0,5.7-1.17,7.88-2,6.75-2.65,142.49-56.46,145.38-58.8a4.37,4.37,0,0,0,1.46-2.11c.75-2.3-.83-4.8-3-5.87-9-4.42-43.49-19.91-53.75-24.5a7.91,7.91,0,0,0-3.25-.7Z"/></g><path id="Path_1077" data-name="Path 1077" class="cls-14" d="M199,53.54l-3.12,1.39a3.21,3.21,0,0,0-1.69,1.71c-.38,1-.36,2,.49,2.43l32.9,14.79c1.15.53,4.45,2.51,6.86,1.38l4.16-1.83c2.62-1.13-1.37-2.08-4-3.28L199,53.68C198.46,53.43,199.56,53.32,199,53.54Z"/></g><g id="kackavpravo"><path id="Path_1078" data-name="Path 1078" class="cls-6" d="M161.13,58.76s3.13,2.78,3.05,3.5a1.62,1.62,0,0,0,.64,1.27l.08-1.59s.8,2.15.89,2.46-.56,1.12.32,1.83,3.69,5.33,3.37,7-.89,4.69-1.77,5.48-3.69,4.93-4.81,4.85-42.85,12.91-50.46-9.12c0,0-1.43-6.72.24-8.84a6.56,6.56,0,0,0,1.06-5.54c-.24-.83,1.55-3.66,2.26-3.42s2.14,3.42,2.14,3.42,1.55,3.44,2,3.55,16.28,2.6,16.28,2.6Z"/><path id="Path_1079" data-name="Path 1079" class="cls-16" d="M140.81,57.26s-2.22,3.32-4.32,2.93-4.57-1.56-6.41-.65-6.28,3.76-7.71,3.88a27.29,27.29,0,0,0-5.24.78l-2.87,1.43s3,8.82,12.69,8c0,0,5.88,6.22,11.77,1.3,0,0,7.59,2.85,10.47-3.24S153,64.6,153,64.6l-.39-3.92Z"/><path id="Path_1080" data-name="Path 1080" class="cls-1" d="M152.63,55.18s1.68.48,1.36,1.27-1.44,2.07-1.93,2.07a16.8,16.8,0,0,0-2.88,1.27L145.25,58l-.49-3.26,1.93-2.78,3-2Z"/><path id="Path_1081" data-name="Path 1081" class="cls-16" d="M160,47.08l-.72,10.72-10.75,1.52-5.62-4s4.1-9,4.1-9.3S160,47.08,160,47.08Z"/><path id="Path_1082" data-name="Path 1082" class="cls-16" d="M164.82,63.53s-.72,1.74-2.2-.23-2.78-3.24-2.48-1.18-1,4.13-2,2.75-2.48-1.67-2.78-.49-1.88,2.65-2.67.69-2.09-.5-2.68.59-2.28,1.67-2.38.78-1.09-.59-1.09-.59l.4-4.23,4.16-2.35h4.16l3.53-2.1,2.33,1.59s2.92,2.55,3.05,3.5A1.74,1.74,0,0,0,164.82,63.53Z"/><path id="Path_1083" data-name="Path 1083" class="cls-15" d="M160.57,57.33s1,2.31-.24,2.7-2.8-1.83-3.45-1-.48,2.94-1.6,2.7-1.93-2-2.73-1.59-1.44,3.18-2.72,2.46-3-1.83-2.89-3-1.69,1.43-2.25,1.43a1.7,1.7,0,0,1-1.47-1.9.51.51,0,0,1,0-.17c.4-1.19-2,.72-2.33.16a2.16,2.16,0,0,1,.24-2.7c1-1.19-1.45.56-1.69-.47s-.08-1.67.24-1.91S142,51.52,142,51.52c-.31-.55,5.17,6.09,4.43,5.78.56.24,5.36,1.38,6.16,1.22s4.57-.4,5.05-1.11a3.85,3.85,0,0,1,1.61-1.12Z"/><path id="Path_1084" data-name="Path 1084" class="cls-17" d="M161.22,50.89s2.64,3.82,6.1,4.77.48,2,.48,2-8-.16-9-.48-1.28-1.35-.32-1.51.64-1.43.16-1.59-1.36-1.51-.64-1.75,1.05-1.27,1.05-1.27Z"/><path id="Path_1085" data-name="Path 1085" class="cls-2" d="M155.44,46.6a8.06,8.06,0,0,0,1,2.87c.72,1,.88,2.14-.32,3.65s-3.85,2.87-5.54,1.67-1.61-2.62-1.93-2.46-1-.64-.8.87,2,1.75,2.09,2.31.16,1.51-.4,1.11-2.25-2.14-2.81-2.14-.08,1.35-.64,1.67-1.28,1-1.61.31-1.6-2.14-1.28-2.94,2.33-4.85,2.33-4.85l6.26-4.29Z"/><path id="Path_1086" data-name="Path 1086" class="cls-7" d="M151.93,50.16a1.47,1.47,0,0,1,2.17,1.58l0,.11c-.32,1-2.33.87-2.33.47s-.64-1.66.17-2.14Z"/><path id="Path_1087" data-name="Path 1087" class="cls-16" d="M161.77,48.9s.16,2.63-.89,2.63-2.4.16-3-1.83a5.38,5.38,0,0,0-4.1-3.26c-.8.08-2.72-.8-5,2.23s-5.46,5.16-6.74,5-3.93-1.59-3.61-2.3.8.71,2.49-.4,2.88-4.85,4.41-5.8,1.52-3,8-3.18S161.77,48.9,161.77,48.9Z"/><path id="Path_1088" data-name="Path 1088" class="cls-18" d="M138.27,61.2l-6.55,2.16,2.58.59-1.09,3.34,6.55.88,3.67-1.67-2,2.46a1.72,1.72,0,0,0,2.3.73l.08,0c1.49-.88,3.08-3.93,2.78-4.81a2.08,2.08,0,0,0-2.78-1c-1,.59-2.77,1.17-3,.1s1.19-3.54.2-3.15-2.48,1.87-2.58,1.48a1,1,0,0,1,.19-.63.33.33,0,0,0-.14-.44A.31.31,0,0,0,138.27,61.2Z"/><path id="Path_1089" data-name="Path 1089" class="cls-19" d="M144.21,66.51s-1,3.4-4.21,3.22-5.41,1.49-6.7-.08A4.09,4.09,0,0,0,129,68.37c-.6.4-1.59-.78-1.59-.78s.89-3.94,2.08-3.94c.46,0,1.67-.2,3-.38,2.15-.29,4.63-.54,4.82.19.3,1.18-3.77,1.67-3.08,2.95s4.17,1.47,4.76.59,3.08-2.16,3.57-2S144,64.54,144.21,66.51Z"/><path id="Path_1090" data-name="Path 1090" class="cls-20" d="M130.23,66.8s-4.66,2-6.15.3l-1.49-1.67s5.46-.4,7-.59,3.37-.59,2.67.3A8.36,8.36,0,0,1,130.23,66.8Z"/><path id="Path_1091" data-name="Path 1091" class="cls-20" d="M159.54,72.13a.7.7,0,0,1,.47.73c-.11,1-.5,3.63-1.85,4.1-1.69.59-3.28-.69-2.18-1.57s2.87-.89,2.87-2C158.85,72.58,159,72,159.54,72.13Z"/><path id="Path_1092" data-name="Path 1092" class="cls-20" d="M160.34,69.2c.66.66.3,1.57-.7,1.86s-1.39-.88-1.19-1.57S160,68.9,160.34,69.2Z"/><path id="Path_1093" data-name="Path 1093" class="cls-20" d="M161.92,76.87c-.71.4-1.28.3-1.38.88s1.19,1.37,1.88,1.28.69-1.58.69-1.58S162.62,76.47,161.92,76.87Z"/><path id="Path_1094" data-name="Path 1094" class="cls-20" d="M165.79,70.57s.69,3.94-.4,4.62-2.48.69-2.08-.39a7.7,7.7,0,0,0,.79-3c0-.31.07-2.58,0-3s.4-.34.77,0a3.17,3.17,0,0,0,.35.29Z"/></g><g id="voda"><g id="Group_319" data-name="Group 319"><path id="Path_1095" data-name="Path 1095" class="cls-7" d="M242.42,84.83c-3.68.44-2.67.73-4,1-4.38.69-6.61-.43-8.53-.91-9.24-2.28-10.5.27-12.71.29-10.62.12-6.93-2.76-11.55-2.76-4.32,0-5.46,1.1-8.33,1.81S192,81.61,187.1,82c-6.75.6-4.67,1-8.54,1.7-11.74,2.05-11.51-2.68-19,.18-3.28,1.26-4.35.26-6.81.72-7.18,1.35-5.06-2.16-9.36-2-2.93.08-3.13,2.37-6.59,2.6-2.8.18-5.83-4.43-9.9-4.9S126.15,83.76,122,84c-2.56.11-4.06-3.92-6.9-3.58-2.63.32-4.06,1.27-7,2.3-36.8,13.14-69.9,25.67-74.9,28.08-8.5,4.12-3.56,5.26-3.56,5.26S90,140,96.55,142.26A13,13,0,0,0,104,143a33.72,33.72,0,0,0,5-1.95c5.65-2.22,101.32-39.64,134.22-53.38,2.14-.89,2.41-1.63,2.41-1.63S246.84,84.3,242.42,84.83Z"/></g><g id="Group_320" data-name="Group 320"><path id="Path_1096" data-name="Path 1096" class="cls-7" d="M100.56,151.5s16.13,4.17,24.88,11c16.67,13,40.44,14.59,45.1,12.38,7.17-3.4-.94-18.53,8.1-20.7s54.87,40.78,65.47,31.2-8.72-36.14,6.55-42.63,35.65-.66,39.59-16.68c1.33-5.38-10.73-17.78-38.23-30.55-2.08-1-2.68-.48-5.05-4.31l-1.07-4.38c.06-.64,0-2.45-2.68-1.92L96.4,141.52l2.65,1.1a5.77,5.77,0,0,1,2.43,7.58Z"/></g><g id="Group_322" data-name="Group 322"><path id="Path_1097" data-name="Path 1097" class="cls-7" d="M100.56,151.5s16.13,4.17,24.88,11c16.67,13,40.44,14.59,45.1,12.38,7.17-3.4-.94-18.53,8.1-20.7s54.87,40.78,65.47,31.2-8.72-36.14,6.55-42.63,35.65-.66,39.59-16.68c1.33-5.38-10.73-17.78-38.23-30.55-2.08-1-2.68-.48-5.05-4.31l-1.07-4.38c.06-.64,0-2.45-2.68-1.92L96.4,141.52l2.65,1.1a5.77,5.77,0,0,1,2.43,7.58Z"/><g class="cls-21"><g id="Group_321" data-name="Group 321"><path id="Path_1098" data-name="Path 1098" class="cls-17" d="M131.39,153.22l1.81,5.42s4.4-.43,5.24.56,5.83,2.55,6.81,1.63-.76,1.44,4.61.71,6.47.41,7.07-.72,2.42,1.18,3.71-.63-9.18-6.05-9.18-6.05Z"/><path id="Path_1099" data-name="Path 1099" class="cls-22" d="M159.18,159.83s10.08,2.31,9.91-5.5a4.08,4.08,0,0,0-2.48-3.68,13.54,13.54,0,0,1-2.41-1.2,6.33,6.33,0,0,1-1.66-1.48c-1.34-1.7-4.6-5.5-6.6-5.11-2.57.5-9.63,4.83-12.37,1.8s-5.28-6.27-7.89-3.39-2.38,2.28-4.31,1.76-8.56-5.33-9.6-1.39,3.35,8.22,3.35,8.22,1.33.29,3,3.55,2,6,5.12,5.22,3.15-4.36,7-3.95,4.41,3.42,7.17,3.33,4.57-2.74,7.87-.7S159.18,159.83,159.18,159.83Z"/><path id="Path_1100" data-name="Path 1100" class="cls-22" d="M153.74,175s-8.07-7.16-6.23-12.68c0,0,1.93-2,2.7-1.8a31.88,31.88,0,0,0,3.91,0s.74-.57-2.75-.78S152.5,158,152.5,158s1.26-1.67-.95-.57-2.47,3.43-4.19,3.81-2.53-4.11-2.53-4.11-1.57-2.17-.67.29,1.66,3.75,1.1,3.37-2.4-4-3.23-3.43-1.67.73-2.13-.31-1.6-2-1.31-1.17,1.07,2.64,2,2.87,1.05-1.46,1.81-.42.94,1.45.08,1.32-2.94-.33-3.21-.71-2.53-.75-.8.23c0,0,4.4.69,5.79,1.57s2.14,1.43,2.16,2.16a31.74,31.74,0,0,0,1.4,5.85c.31.24-1,1.07-1.39.24s-3.73-2.1-3.91-1.4-2.45-1.91-3.88-2.65-10-4.18-11.5,2.66c0,0,0,2.24.59.86s1.53-3.28,2.13-3.29,3.51-.42,4.6.47,2.75-.33,5.61,2.52,5.26,3.3,5.67,3.11,2.2-1.58,2.56-1,2.5,4.5,3.23,4.8,2,1.22,2.28.86S153.74,175,153.74,175Z"/><path id="Path_1101" data-name="Path 1101" class="cls-23" d="M131.71,150.63c-1.7-1.81-3.83-6.47-2.45-4.9.7.78,1,2.42,1.45,2.59l2.5,3.08L135.9,153c.26.15.48-.15.31-.43l-3.15-5.07-1.53-.95c-.79-.25.07-.48.94,0,.3.15-.44-1.18-.45-1.55s.35-.4.52-.1l2.14,3.71-.26-1.67c-.09-.26.11-1.06.24-.83l.44,2,.73-2.17c.09-.26.45-.1.42.19l-.16,1.8L135,149.82l1.25,2c.26.41.75.47,1,.12l1.16-2,1-1.84c.12-.2.42,0,.38.23l-1,2.09,1.16.29c.25.06.28.48,0,.49l-1.57.07-.66,1.06c-.28.46,1,2.39,1,2.39l-.39.1C138,155,133.88,152.92,131.71,150.63Z"/><path id="Path_1102" data-name="Path 1102" class="cls-23" d="M151.6,150.36c.19-.07.09-.56.13-1.28,0-.23-.88-2.59-.55-2.66.52-.11.46,1.59.88,2.14.3.4.39-2.43.56-2.51s.25,2.25,0,2.44l.94-.46c.07,0,.16.08.11.16a4.15,4.15,0,0,1-1.23.78s-.18,1.14-.26,1.88l-.11,1c-.05.49.45.91.8.67l1.17-1s.12,0,.09.1a2.5,2.5,0,0,0-.29.5c0,.23,1.19.61,1,.8s-1.23-.59-1.32-.43l-.45.87a.61.61,0,0,0,.19.85.56.56,0,0,0,.31.09l1.93-.25a1.2,1.2,0,0,0,1-1l.68-4a2.22,2.22,0,0,1,.09-.37c.72-2.12,1.33-2.46.3.24l.95,0s.07.08,0,.1l-1,.35-.52,3.46c-.07.6.07,1.78.6,1.77l1.53.36c.26.1,2.91-1.78,3.1-1.7s-2.42,2-2.08,2.13c4.4,2-1.79-.26-1.89-.24l-2.58-.3a.61.61,0,0,0-.6.3c-.07.12-.13.24-.19.36a.61.61,0,0,0,.23.69l.87.57c.14.12,1.84.72,1.36.75-1.88.11-3.78-2.4-4.1-2.26l-2.11,1.53-1.49.61,2.39-2.08a1.07,1.07,0,0,0,.27-1.37c-.83-1.82-2.71-7-2.13-7.21C150.46,146.67,150.77,150.66,151.6,150.36Z"/><path id="Path_1103" data-name="Path 1103" class="cls-23" d="M146.2,157.86c.67-.29,2.75-4.36,2.75-4.36s0-.43-.11-.32l-2.28,3.2c-.08.11-.25,0-.25-.14l.22-8.27c0-.15-.18-.2-.21-.07l-.87,4.38a.23.23,0,0,1-.27.2.21.21,0,0,1-.13-.07l-1.13-.92-.46-1.75c0-.11-.17-.1-.15,0l.25,1.48-1.27-.88c-.13-.09-.24.1-.11.22l2.89,2.73a.62.62,0,0,1,.2.43l.16,3.74S146.11,157.9,146.2,157.86Z"/></g></g></g><g id="Group_324" data-name="Group 324"><g id="Group_323" data-name="Group 323"><path id="Path_1105" data-name="Path 1105" class="cls-17" d="M227.45,152.14s-14.34,6-18.5,4.45-5.36-1.71-7.16-1.72c-2.28,0-11.53,3.38-13.93.62s2.58-6.93,2.58-6.93L203,142.35l11.54,4.12,12.88.33Z"/></g><path id="Path_1106" data-name="Path 1106" class="cls-22" d="M213.28,150.32a.14.14,0,0,0-.14-.14.14.14,0,0,0-.13.1,22.55,22.55,0,0,1-1.42,3.32c-3.39,6.61-4.28-.48-4.28-.48l-3.17-1a.34.34,0,0,0-.43.22.36.36,0,0,0,.15.4l1.49.85s-6.57-.39-7.18.11,6.63,0,8.18,1a6.09,6.09,0,0,1,2.37,5.07,15.44,15.44,0,0,1-3.6,8.87s2.83,1.93,3.71,2.66c.57.47-.72-3.12,3.64-6.23s13.82,3.84,17.83,4.76,6.6-3.27,6.6-3.27-6.15,3.54-10.55.27-13.91-2.85-13.91-2.85l-3.14,1.29.78-8.5s3-4,4.73-3.9a4.43,4.43,0,0,0,1.45-.16.35.35,0,0,0,.25-.41.33.33,0,0,0-.41-.24l-2.88.57Z"/><path id="Path_1107" data-name="Path 1107" class="cls-22" d="M222.56,150.53c-2.22-1.82-6.56-1.25-9-1.8a3.34,3.34,0,0,0-2.45.58c-1.45.85-2.78,2.22-4,1.89-1.83-.5-5.78-3.5-9-4.24s-5.56,7.52-8.62,9-14.48-4.24-14.44-8.76,4.42-5.18,8.21-4.4,2.19-5,7.54-8.74,13.56,2.77,16.74,2.57,7.63-9.9,8.62-5.06,7.21,3.16,7.21,3.16c5.94-5.17,11.83-4.32,14.8-2.63s-.08,5.5-3.54,7.64-3,8.79-3.67,11.39A7.17,7.17,0,0,1,222.56,150.53Z"/><path id="Path_1108" data-name="Path 1108" class="cls-23" d="M219.86,149.11s7.26-3.48,9.79-6.23c1.62-1.76,3.24-6.29,1.93-4.77-.65.77-.72,2.36-1.2,2.52l-2.32,3-2.78,1.61a.3.3,0,0,1-.42-.11.32.32,0,0,1,0-.3l2.71-4.94,1.58-.93c.86-.25-.17-.47-1.08,0-.32.16.29-1.14.24-1.5a.33.33,0,0,0-.38-.27.36.36,0,0,0-.24.18L225.89,141v-1.63c.07-.24-.31-1-.41-.8l-.14,2-1.23-2.09a.23.23,0,0,0-.33-.09.24.24,0,0,0-.11.28l.5,1.73,1.55,1.76-1.07,1.94a.68.68,0,0,1-.92.26l-.17-.14-1.66-1.86-1.52-1.76a.22.22,0,0,0-.32,0,.22.22,0,0,0-.07.24l1.5,2-1.27.29a.24.24,0,0,0,.05.48l1.81,0,.93,1a1,1,0,0,1,0,1.38l-.1.08-4.15,3Z"/><path id="Path_1109" data-name="Path 1109" class="cls-23" d="M196.93,141.47c0-.24-.09-1-.06-2.07,0-.24-3-.86-3-1.11-.06-.65,2.31.49,3,.36.5-.09.21-2.78.23-3a.29.29,0,0,1,.32-.26.28.28,0,0,1,.26.25l.37,6.25a.43.43,0,0,0,.48.37.55.55,0,0,0,.24-.12l.79-2.46c.25-.23.22-.1.3.33l-.59,2.56a1.62,1.62,0,0,0,.37,1.88l.82.74a.59.59,0,0,0,.84,0,.57.57,0,0,0,.15-.42l-.42-2.1a.17.17,0,0,1,.13-.2.17.17,0,0,1,.15,0,2.23,2.23,0,0,1,.29,1,2.18,2.18,0,0,0,.2.61l.5,1a.56.56,0,0,0,.71.37.55.55,0,0,0,.36-.34l.8-2.24a1.71,1.71,0,0,0-.31-1.67L200.8,138a3,3,0,0,1-.28-.33c-1.44-2.05-1.41-2.92.36-.17l0,0,3,2.88a1,1,0,0,0,1.35-.05,1.19,1.19,0,0,0,.16-.23l.21-.45a.12.12,0,0,1,.17-.06.13.13,0,0,1,.07.15l-1.13,3.59a.3.3,0,0,0,.19.36.22.22,0,0,0,.16,0l6.21-2.11c.3-.08,1,.21.18.48l-6.74,2.78a1.34,1.34,0,0,0-.74,1.05l0,.27c0,.33,2.73.16,3,0,0,0,2.56-.29,2.33,0l-4.45,1.14a1.31,1.31,0,0,0-.2,1.22l.46,1.33a6.47,6.47,0,0,1,.39.59l-.79-.43-.85-.49h0l-4.66-3.75,0,0C199,145.52,196.75,142.55,196.93,141.47Z"/><path id="Path_1110" data-name="Path 1110" class="cls-23" d="M185.72,152.67c-.09-.23-4-2.6-4.58-3.55-.12-.21-1.74,0-1.88-.22-.39-.53,1,0,1.5-.43s-.8-2.14-.9-2.35-.22-.93,0-.66l3.6,5.14a.43.43,0,0,0,.6.06.45.45,0,0,0,.15-.21l-.62-2.51c.1-.33.13-.2.42.13l.84,2.48c.24.77.53,1.27,1.31,1.41l1.09.2a.58.58,0,0,0,.69-.46.56.56,0,0,0-.09-.45l-1.46-1.57a.15.15,0,0,1,0-.23.14.14,0,0,1,.15,0,2.15,2.15,0,0,1,.76.68,2.41,2.41,0,0,0,.48.42l1,.6a.56.56,0,0,0,.79-.05.53.53,0,0,0,.13-.48l-.5-2.33a1.68,1.68,0,0,0-1.14-1.25l-4.29-1.09a3.17,3.17,0,0,1-.4-.14c-2.31-1-2.74-1.75.21-.33,0,0-.08-.69-.14-1.14a.06.06,0,0,1,0-.07.05.05,0,0,1,.06,0h0l.49,1.23,3.68.85c.63.13,1.85,0,1.79-.6l.19-1.8c.95-3.7.38-.45.42-.3l-.13,4.77a2.21,2.21,0,0,0,.79.63.5.5,0,0,0,.67-.21v0l.5-1c.11-.17.53-2.15.62-1.58.35,2.26-2.05,4.36-1.86,4.74l1.54,2.18-.46.68-.89-1.41a1.15,1.15,0,0,0-1.47-.41c-1.8.87-5.62,2.64-5.47,2C184,153.68,186.14,153.68,185.72,152.67Z"/></g><path id="Path_1111" data-name="Path 1111" class="cls-24" d="M145.11,80.63c-2.92-.75-13.32-3.35-18.88-2.88,0,0,.06,4.19-6,1.7,0,0-4.59-.37-6.54,3.25,0,0-5.55-.5-4.88,1.77s10.73-1.72,11,1.46-7.14,2.2-8.17,4.48-8.92,2.69-8.34,5.67,5.65-.22,6.71.89,4.8-3,6.08-1.61-5.45,2.42-6.59,5.41-3.44,5.6-1.09,4.46,5.31-3.17,6.51-3,5.09-1.5,4.9-.08-5.42,2.19-3.57,2.92,7.31-1.7,8.86-.52-2.65,1.58-3.21,3.93-3.8,4.57-1.85,4.6,2.89-3.25,5.38-3.65,9.77-1.84,11-3.86S140.09,101,142,101s1.07-2.52,4.28-4.52,5.66-4.74,6.51-3c.76,1.57,1.49,2-.16,4.82s-5.55,3.13-8.13,5.93-13,10.23-16.68,11.34c-3.56,1.07-5,2.75-5,5.38,0,1.94,3.15,3.6,6.77,3.33s11.71.1,13.3-.9,8.7.67,9.2-1.2a6.47,6.47,0,0,1,2.23-3.82c1.09-.82,3.89-1.66,3.57-2.91s-9.94,3.82-9.94,3.82-14.5,3.58-16.64,1.36,8.06-5.46,10.2-6.87,7.28-5.08,9.49-7,6.38-6.2,8.8-7.3c3.44-1.56,5.63-6.36,5.5-9.92-.07-1.87.87-5.5-7.38-8-4.88-1.45-2.92-.74-4.11-.48C149.85,82,149.06,81.64,145.11,80.63Z"/><path id="Path_1112" data-name="Path 1112" class="cls-22" d="M90.72,127a7.33,7.33,0,0,0,6.07-1.47c1.42-1.17,3.34-2.16,5.37-1.59,4.12,1.16,7.37,4.43,13,4.25,3.16-.1,6.7-1,6.75,1.32s-7.23,7.3-15.8,7.22c-3.43,0-12.91-2-17.44-1.18-2.2.4-13.21-3.91-10.47-6s7.58-2.83,9.21-2.89A14.89,14.89,0,0,1,90.72,127Z"/></g></g></g></g></g></g><g id="FEATURES" class="cls-25"><text class="cls-26" transform="translate(22.69 246.83)">F<tspan class="cls-27" x="10.19" y="0">E</tspan><tspan class="cls-28" x="20.84" y="0">A</tspan><tspan x="32.63" y="0">TUR</tspan><tspan class="cls-29" x="67.3" y="0">E</tspan><tspan class="cls-30" x="78.17" y="0">S</tspan></text></g></g></svg>