<svg id="Layer_1" data-name="Layer 1" xmlns="http://www.w3.org/2000/svg" xmlns:xlink="http://www.w3.org/1999/xlink" viewBox="0 0 340.14 283.05"><defs><style>.cls-1,.cls-14,.cls-19,.cls-20,.cls-21,.cls-22{fill:none;}.cls-2{fill:#fff;}.cls-3{clip-path:url(#clip-path);}.cls-4{opacity:1;}.cls-5{fill:#ddd7cb;}.cls-6{fill:#f9d8a9;}.cls-7{fill:#f09d28;}.cls-8{fill:#5a8b67;}.cls-12,.cls-9{fill:#475563;}.cls-19,.cls-9{stroke:#475563;}.cls-14,.cls-21,.cls-9{stroke-miterlimit:10;}.cls-9{stroke-width:3.03px;}.cls-10{clip-path:url(#clip-path-2);}.cls-11{fill:#c62527;}.cls-13{clip-path:url(#clip-path-3);}.cls-14{stroke:#fff;stroke-width:0.61px;}.cls-15{fill:#262626;}.cls-16{fill:#f6c47e;}.cls-17{clip-path:url(#clip-path-6);}.cls-18{clip-path:url(#clip-path-7);}.cls-19{stroke-width:14.56px;}.cls-20,.cls-21{stroke:#c62527;}.cls-20{stroke-width:1.82px;}.cls-21{stroke-width:1.21px;}.cls-22{stroke:#f09d28;stroke-width:5px;}.cls-23,.cls-24{isolation:isolate;}.cls-24{font-size:18px;font-family:HurmeGeometricSans3-Bold, "Hurme Geometric Sans 3";font-weight:700;}.cls-25{letter-spacing:-0.04em;}.cls-26{letter-spacing:0em;}.cls-27{letter-spacing:-0.01em;}</style><clipPath id="clip-path"><rect class="cls-1" x="0.07" y="-0.24" width="292.85" height="255.27"/></clipPath><clipPath id="clip-path-2"><path class="cls-1" d="M36.94,75.94c25.18-8.59,52.43,4.1,60.85,28.34s-5.16,50.86-30.34,59.45S15,159.64,6.59,135.4,11.75,84.54,36.94,75.94Z"/></clipPath><clipPath id="clip-path-3"><path class="cls-1" d="M148.46,70.32l-4.82,5c-.38.39-1,.1-1.08-.52l-1.7-11.28a.8.8,0,0,1,.34-.83c.77-.38,1.35.47,1.52.77a.67.67,0,0,0,.14.19l5.55,5.43A.9.9,0,0,1,148.46,70.32Z"/></clipPath><clipPath id="clip-path-6"><path class="cls-1" d="M153.32,33.72A46.7,46.7,0,0,1,212.5,62.45a46.06,46.06,0,0,1-28.43,58.62l-.35.12a46.7,46.7,0,0,1-59.18-28.73A46.06,46.06,0,0,1,153,33.84Z"/></clipPath><clipPath id="clip-path-7"><path class="cls-1" d="M148.36,70.36l-4.82,5c-.38.39-1,.11-1.08-.52l-1.7-11.28a.8.8,0,0,1,.34-.83c.77-.38,1.35.47,1.52.78a.85.85,0,0,0,.14.19l5.55,5.42A.9.9,0,0,1,148.36,70.36Z"/></clipPath></defs><title>showroom</title><g id="Group_363" data-name="Group 363"><g id="Group_359" data-name="Group 359"><path id="Exclusion_3" data-name="Exclusion 3" class="cls-2" d="M340,280.55H0V159.9c2.38,4.2,4.41,6.88,6,8H6a1.67,1.67,0,0,0,.68.23l.19.07a51.1,51.1,0,0,0,7.75,6.25,52.29,52.29,0,0,0,8.79,4.63A51.06,51.06,0,0,0,43,182.93a51.91,51.91,0,0,0,5.29-.27l2.11.74L52.83,182a52.58,52.58,0,0,0,6.86-1.84,51.42,51.42,0,0,0,12.51-6.26,50.85,50.85,0,0,0,10-9l3.71-2.17,1.7-5.57a51,51,0,0,0,4.1-9.22,5.78,5.78,0,0,0,1.83-.68c1.38-.83,2.08-2.67,2.1-5.47a37.26,37.26,0,0,0-1.4-9.08,50.24,50.24,0,0,0-2.8-17,50.44,50.44,0,0,0-15.08-22,69.63,69.63,0,0,1,9.1,7.59.07.07,0,0,0,0,0c-.13-.88-.58-4-.81-7.16a37.22,37.22,0,0,1-.05-5.28c.15-1.7.5-2.73,1.05-3.08A16,16,0,0,1,92,83.87c.35.36,8.63,8.7,7.91,10.37s3.92,5.29,4,5.32l2.82-4.33c0,.53.11,1.1.19,1.67l-3,2.67c0,.07,3.87,8.2,8.42,16.24A104.53,104.53,0,0,0,119.39,127c2.55,3.37,4.55,5.07,6,5.07h.27a19.22,19.22,0,0,1,3.37.45,52,52,0,0,0,13.38,6.42l-.72.24,1.41,2.4,2.07-1.87c1.4.36,2.82.65,4.25.89l8.56,4.93,6.22-2.33,1.17.4,1.67-1.46,28.74-10.74,5.7-14.4a49.84,49.84,0,0,0,4.33-8.83l.84-.73-.16-1.2a49.9,49.9,0,0,0,1.54-5.76l2.91-7.38a.21.21,0,0,1-.06.08c-.65.79-1.36,1.65-2.12,2.54a50.69,50.69,0,0,0-26.8-50c-2.18-2.17-3.69-3.62-3.85-3.77h0q-2-6.15-4.64-12.07A215.3,215.3,0,0,0,157.69.39H340V280.55ZM0,159.9H0c-.22-.4-.46-.82-.69-1.25a51,51,0,0,1-4.2-8.51c-.59-1.31-.93-2.12-.94-2.13l0-.08.07-.11A50.13,50.13,0,0,1-5,114.46a51.41,51.41,0,0,1,5-9.87V159.9Zm0-55.31V94.73l2.85.44q-.19.43-.39.93l0,0c.35-.24.75-.5,1.19-.78l2.05.28,2-2.67a85.53,85.53,0,0,1,8.38-4A50.58,50.58,0,0,0,9.55,93.7l-.2.06c-1.21.31-2.57,1.66-4,4A51.34,51.34,0,0,0,0,104.58Zm0-9.86H0a247.54,247.54,0,0,1-34.43-7.84A94.91,94.91,0,0,1-52.25,79.5c-5.49-3.11-9.17-6.47-10.91-10a11,11,0,0,1-1.22-5.25,13,13,0,0,1,1.65-5.8,38.39,38.39,0,0,0,3.46-9.1,36.63,36.63,0,0,0,1-8.91,46.42,46.42,0,0,0-3.55-16.76A79.35,79.35,0,0,0-69.65,9.16C-72.55,4.78-75.58.9-78-2.22c-1-1.22-1.86-2.38-2.62-3.4-1.36-1.82-4.2-5-7.79-9.13-7.69-8.74-19.3-22-28.25-34.8a104.14,104.14,0,0,1-10.69-18.54,35.39,35.39,0,0,1-2.41-8.07,14.68,14.68,0,0,1,.33-6.72,9.5,9.5,0,0,1,3.12-4.53,15.44,15.44,0,0,1,6.24-2.78,32.79,32.79,0,0,1,7.33-.79c6.81,0,14.83,1.79,24.53,5.48,8.65,3.28,17.77,7.75,26.36,12l2.7,1.35c16.63,8.31,32.33,16.16,44,16.16a17.16,17.16,0,0,0,9.71-2.59c5.26-3.44,8-7.58,8.38-12.65.32-4.35-1.13-8.56-2.4-12.28s-2.29-6.65-1-8.39C.27-93,2-93.5,4.67-93.5a31.63,31.63,0,0,1,3.64.24A224.84,224.84,0,0,1,37.08-88a203.12,203.12,0,0,1,25.56,8.28A193.29,193.29,0,0,1,85.16-69,195.71,195.71,0,0,1,104.8-56.47a201.81,201.81,0,0,1,31.26,28.3A218.38,218.38,0,0,1,157.7.4h-8c18.38,17.69,20.54,28.65,19.12,34.74a4.79,4.79,0,0,0,.84,4.18,7.23,7.23,0,0,0,5.61,2.52l2.82.11-4.59.22a52.26,52.26,0,0,0-9.59-2.1c1.8-.17,3.14-.35,3.15-.36s-1.38-1.4-6-2.79a60.51,60.51,0,0,0-9.7-1.91,133.42,133.42,0,0,0-16.1-.88,279.12,279.12,0,0,0-27.88,1.6L95.78,48.64l1.94,18.22c-.06,0-5.51,1.72-6,2.3a.11.11,0,0,1-.09,0c-.28,0-1-.76-1.83-1.71h0c-.3-.33-.61-.68-.94-1-1.2-1.29-2.73-2.76-3.85-2.76a1.27,1.27,0,0,0-.34.05c-2.17.68-9,3.3-9.56,4.18a17,17,0,0,0-.64,3.82,20.76,20.76,0,0,1-.59,3.75c-.19.44-.88.54-1.43.54a7.76,7.76,0,0,1-4.22-1.32,63,63,0,0,1-4.75-5.58c-1.43-1.85-3.79-5.07-3.52-5.87.48-1.41-4.73-5-4.78-5l-19.58.87s-3.41,2.49-8,6.45a137.82,137.82,0,0,0-15.71,15.7C9.16,80.81,4.94,80,0,79V.39H149.66c-11.33-10.9-27.57-23.12-48.27-36.31C77-51.45,46.09-68.57,9.44-86.8l-1.3-.67a15.9,15.9,0,0,0-5.7-2.11H2.36a.74.74,0,0,0-.59.28A.36.36,0,0,0,1.7-89c.46,1.54,4.47,15.15,3.77,18.58A24.09,24.09,0,0,1,2-61.83,24.8,24.8,0,0,1-10.4-52.26a37,37,0,0,1-13.07,2.18,52.83,52.83,0,0,1-14.19-2l-86.2-30.7a2.14,2.14,0,0,0-.67-.11,2.29,2.29,0,0,0-2.11,1.29,12,12,0,0,0-.45,6,26.9,26.9,0,0,0,4.41,10.35c3.35,5.1,14.69,20.12,26.69,36h0c17.2,22.8,36.7,48.64,38.57,53,1.52,3.58,2.38,9,2.36,14.92S-56,49.84-57.52,53.06a4.85,4.85,0,0,0,.06,4.46c2.08,4.18,9.8,8.48,22.93,12.78A310.3,310.3,0,0,0,0,79ZM110,68.45h0c.9-4.25,1.84-6.58,2.81-6.91h0a31.85,31.85,0,0,0,4.37-2.09,50.33,50.33,0,0,0-4.2,6.33l-3,2.68Zm43.88-28.61h0a2.35,2.35,0,0,1,.6-.1.36.36,0,0,1,.22,0l-.83.05Z"/><g class="cls-3"><g id="Mask_Group_9" data-name="Mask Group 9" class="cls-4"><g id="Group_354" data-name="Group 354"><path id="Path_1151" data-name="Path 1151" class="cls-5" d="M12,137,2.79,122.18s10.1-39.52,17.48-41.42,44.8-17.13,49.3-11.31S95.85,88.08,97,93.21s7.35,31.84,7.35,31.84l-7.53,24.64L61.33,170.4,16.94,154.88Z"/><path id="Path_1152" data-name="Path 1152" class="cls-6" d="M5.08,135s16.58-27.12,26.61-23.18,44.81,2.49,50.5-2.51,16-9.07,16-9.07,13.44,29.69,6.27,34-26.19-9.47-36.71-5.88-46,29.79-50.82,26.54S5.08,135,5.08,135Z"/><path id="Path_1153" data-name="Path 1153" class="cls-6" d="M114.82,86.57s15.4,32.73,21.51,32.48,39.91,11.53,39.91,11.53l41.28-36.16L212.1,52.11l-54.45-3.5Z"/><path id="Path_1154" data-name="Path 1154" class="cls-5" d="M117.22,58.72l.86,31s46.64-36.77,59.5-28.27,38.55,5.86,37.19-1.65S189,28.94,189,28.94l-40.57,2Z"/><path id="Path_1155" data-name="Path 1155" class="cls-5" d="M221.82,80.08s-28.52,35.48-41.55,28.28S141,116.47,141,116.47l27.87,16,37.8-14.12Z"/><g id="labutvstky"><g id="labut"><path id="Path_1156" data-name="Path 1156" class="cls-7" d="M84.75,134.19l4.82-.43-5.39,2.61Z"/><path id="Path_1157" data-name="Path 1157" class="cls-2" d="M51.87,147.71s1.77-1.19,5.54-4.05,8.88-3,10.59-3.22,10.47-4.16,13.36-5.54,4.63.19,4.63.19.85,1.28-5.85,2.58S62.63,148.38,62,149.56s-7,3.95-11.63,5.93-7.91-1-8.16-2.32,4.2-1.63,5.38-2.23.19-4.59-.94-5c-.74-.27-3.83-5-5.85-8.25a7.66,7.66,0,0,0-5.46-3.51,19,19,0,0,0-3.29-.1,5.58,5.58,0,0,1-5.16-3c-.89-1.74-1.63-3.5-.9-3.44,1.42.1,9.71-1.59,11.74-1.06,3,.77,7.34-2.31,10.41,2s6.23,12.23,9.61,12.26S61,141.93,61,141.93"/><path id="Path_1158" data-name="Path 1158" class="cls-2" d="M64.17,143.12l-2.88,3.15s2.82,8.09,3.94,7.9-1.35-4.45-1.35-4.45,5.66,7.71,6.06,6.58S66,148.4,66,148.4s4.5,5.54,5,4.6-2.13-5.57-2.13-5.57,2.46,3.09,2.82,2.38-2.22-8.1-2.22-8.1"/><path id="Path_1159" data-name="Path 1159" class="cls-7" d="M47.17,153.18l-9.51,2.54,2.42,2.21,1.68-2S48.31,153.73,47.17,153.18Z"/><path id="Path_1160" data-name="Path 1160" class="cls-7" d="M50.14,153.57,44.4,158.1l-.72-1.39Z"/></g><g id="labut-2" data-name="labut"><path id="Path_1161" data-name="Path 1161" class="cls-7" d="M186.81,99.81l-4.07,3L181.67,101Z"/><path id="Path_1162" data-name="Path 1162" class="cls-2" d="M141,116.47c-1.58.25-1-2.73.5-3.29h.05c1.73-.59,13.6-5.37,13.6-5.37s7.62,3.87,8.72,4.93,5-7.2,7.29-7.51c3.22-.43,3.55,1.18,2,1.7s-5,5-5,5c.24,2.07.59,1.71,2.38-.09,1-1,8.42-9.82,10.15-10.41l0,0c1.19-.4,3.21-.49,2.56.56L182,103.88s-12.52,12.65-16.21,18.7c0,0-7.55,3.3-8.93,3.52-.67.11-.08-1.12.7-2.4,1-1.67.85-4.42-1-5-3-.85-6.92-4.62-8.74-4.16S142.64,116.19,141,116.47Z"/><path id="Path_1163" data-name="Path 1163" class="cls-7" d="M157.81,125.09,154,128.54l-1.41-2.39,4.54-1.55C157.79,124.37,158.25,124.68,157.81,125.09Z"/></g></g><path id="Path_1164" data-name="Path 1164" class="cls-8" d="M16.65,82.57S-66.06,72.31-51.82,45.48-61.19-7.24-69.71-18.63s-73.82-76.7-39.45-84.57S-17.28-56.67,5.46-71.55s-10.54-37.53,13.76-34.72C152.43-90.82,189,28.93,189,28.93l-2.83-.1c-4.49-.17-7.3-3.12-6.45-6.71,3-12.93-10.15-47.7-159.33-121.92-2.24-1.12-4.25-2.46-7-2.78h0c-.42-.06-.84.29-.74.61,1,3.35,4.42,15.38,3.77,18.57C15.69-79.94,13.22-70,.52-65.27s-27.26.21-27.26.21l-86.19-30.69a2.32,2.32,0,0,0-2.78,1.16c-1,2.59-1.56,8,3.95,16.36,8.12,12.34,62.09,81.59,65.26,89s3.14,22.52-.1,29.26C-54.29,56.07,26.92,69,26.92,69Z"/><path id="Path_1165" data-name="Path 1165" class="cls-9" d="M96.41,88.21s-2.25-14,.18-15.57a16,16,0,0,1,6.34-1.76s8.66,8.65,7.92,10.36,4,5.33,4,5.33l2.83-4.34s2.24-32.64,6.1-33.7S164.09,25.42,165.6,26.8,178,26.71,178,26.71s-9-9.2-59.69-4L106.69,35.64l1.94,18.22s-5.51,1.72-6,2.3-4.86-6.1-7.06-5.42S86.49,54.05,86,54.92s-.73,6.43-1.23,7.57-4.47.26-5.65-.78-8.73-10-8.26-11.45-4.79-5-4.79-5l-19.57.87s-25.8,18.76-33.11,37C13.37,83.11,58.55,51,96.41,88.21Z"/><g id="Group_352" data-name="Group 352"><g id="Group_346" data-name="Group 346"><g class="cls-10"><g id="labut2"><path id="Path_1166" data-name="Path 1166" class="cls-7" d="M166.38,63.07l-7.67,3.08-.16-1.81Z"/><path id="Path_1167" data-name="Path 1167" class="cls-2" d="M111.31,91.45s-4.61,5.08-3.26,6.26,6.47-2.44,7.34-.63,6.93.91,8.11-.43,15.55-12.32,17.25-12.2,13.3-1.51,15.1-1.4c2.89.17,16.72,6,19.75,5.19s14.75-.35,16.76,2.7,3,6.69,3.36,4.94-.92-6.71,1.08-5,5.28,5.69,5,3.66-5.23-6.88.38-4.34,12.51,1.35,12.64.36-5.23-.78-5.23-.78,6.54-2.23,6.39-3.35-6,1.11-6,1.11,7.31-3.43,6.66-4.61S206.79,87,204.81,86a47.9,47.9,0,0,0-5.67-2s2.31-2.19,3.36-3.25-.44-1.25-6.56.83-12.51-2-14-2.93-25.41-5.85-32.81-4,9-6.1,9.89-6.88c.38-.32,1.13-.93,1.88-1.53a1.37,1.37,0,0,0-.7-2.43l-.62-.06A7.82,7.82,0,0,0,153,66.45a19.88,19.88,0,0,1-2.67,2.6c-3.5,2.83-11.66,6.55-11.66,6.55s.62-1.61-7.71-2.51c0,0-10.41,4-16.78,3.38S77.72,85.85,73,88.42s-10.7-3.6-11.68-3,2.5,3.12,2.5,3.12-7.28-.55-5.85.83,5.72.86,5.72.86-7,5-4.61,4.38,6.88-3.28,6.88-3.28l20.58-1.91a37.7,37.7,0,0,0,6.4-1.16C97.47,86.92,107.16,85.14,111.31,91.45Z"/><path id="Path_1168" data-name="Path 1168" class="cls-7" d="M113.72,96.56,111,100.9l-3.89-1,5.65-4.16a.63.63,0,0,1,.88.12A.63.63,0,0,1,113.72,96.56Z"/><path id="Path_1169" data-name="Path 1169" class="cls-7" d="M107,96.27,104,98.17l1.65,2.72L107.84,97a.57.57,0,0,0-.21-.78A.59.59,0,0,0,107,96.27Z"/><g id="baba"><path id="Path_1170" data-name="Path 1170" class="cls-11" d="M149,73.24l-4.06-.67,1-2.48,3.44,2.22a.52.52,0,0,1,.16.71A.52.52,0,0,1,149,73.24Z"/><g id="Group_345" data-name="Group 345"><path id="Path_1171" data-name="Path 1171" class="cls-12" d="M148.46,70.32l-4.82,5c-.38.39-1,.1-1.08-.52l-1.7-11.28a.8.8,0,0,1,.34-.83c.77-.38,1.35.47,1.52.77a.67.67,0,0,0,.14.19l5.55,5.43A.9.9,0,0,1,148.46,70.32Z"/><g class="cls-13"><g id="Group_342" data-name="Group 342"><line id="Line_31" data-name="Line 31" class="cls-14" x1="140.26" y1="68.52" x2="145.49" y2="63.49"/></g></g><g class="cls-13"><g id="Group_343" data-name="Group 343"><line id="Line_32" data-name="Line 32" class="cls-14" x1="139.63" y1="72.74" x2="148.71" y2="64.22"/></g></g><g class="cls-13"><g id="Group_344" data-name="Group 344"><line id="Line_33" data-name="Line 33" class="cls-14" x1="140.03" y1="77.95" x2="150.61" y2="65.11"/></g></g></g><path id="Path_1175" data-name="Path 1175" class="cls-15" d="M141.47,59.78s-2.7,2.43-1.56,3.08a7.46,7.46,0,0,0,2.86.73Z"/><path id="Path_1176" data-name="Path 1176" class="cls-16" d="M141.47,59.79l1.31,3.8h0a2.76,2.76,0,0,0-.83-3.52Z"/></g></g></g></g><g id="Group_351" data-name="Group 351"><g class="cls-17"><g id="labut2-2" data-name="labut2"><path id="Path_1177" data-name="Path 1177" class="cls-7" d="M166.28,63.1l-7.67,3.08-.15-1.81Z"/><path id="Path_1178" data-name="Path 1178" class="cls-2" d="M111.2,91.48s-4.61,5.08-3.25,6.26,6.47-2.44,7.34-.63,6.93.91,8.11-.43S139,84.36,140.65,84.48s13.29-1.51,15.09-1.4c2.9.17,16.73,6,19.75,5.19s14.76-.35,16.76,2.7,3,6.69,3.37,4.94-.92-6.71,1.08-5,5.28,5.69,5,3.66-5.22-6.88.38-4.35,12.51,1.35,12.64.37-5.23-.79-5.23-.79,6.55-2.23,6.4-3.34-6,1.11-6,1.11,7.31-3.43,6.66-4.62S206.69,87,204.7,86A47.12,47.12,0,0,0,199,84s2.3-2.19,3.35-3.25-.43-1.26-6.55.83-12.52-2-14-2.94-25.4-5.84-32.8-4,9-6.1,9.89-6.88c.38-.33,1.13-.93,1.88-1.53a1.37,1.37,0,0,0-.71-2.43l-.61-.06a7.86,7.86,0,0,0-6.64,2.75,18.3,18.3,0,0,1-2.67,2.61c-3.5,2.83-11.65,6.55-11.65,6.55s.62-1.61-7.72-2.51c0,0-10.41,4-16.77,3.38S77.62,85.88,72.84,88.44s-10.69-3.6-11.68-3,2.51,3.13,2.51,3.13-7.28-.56-5.85.83,5.72.85,5.72.85-7,5-4.62,4.39,6.89-3.29,6.89-3.29L86.39,89.4a36.44,36.44,0,0,0,6.39-1.15C97.36,87,107.06,85.18,111.2,91.48Z"/><path id="Path_1179" data-name="Path 1179" class="cls-7" d="M113.62,96.59,111,100.94l-3.89-1,5.64-4.16a.64.64,0,0,1,.89.13A.62.62,0,0,1,113.62,96.59Z"/><path id="Path_1180" data-name="Path 1180" class="cls-7" d="M106.94,96.3l-3.08,1.9,1.65,2.71,2.24-3.84a.59.59,0,0,0-.23-.79A.57.57,0,0,0,106.94,96.3Z"/><g id="baba-2" data-name="baba"><path id="Path_1181" data-name="Path 1181" class="cls-11" d="M148.86,73.27l-4.05-.67,1-2.49,3.44,2.22a.53.53,0,0,1,.14.72A.5.5,0,0,1,148.86,73.27Z"/><g id="Group_350" data-name="Group 350"><path id="Path_1182" data-name="Path 1182" class="cls-12" d="M148.36,70.36l-4.82,5c-.38.39-1,.11-1.08-.52l-1.7-11.28a.8.8,0,0,1,.34-.83c.77-.38,1.35.47,1.52.78a.85.85,0,0,0,.14.19l5.55,5.42A.9.9,0,0,1,148.36,70.36Z"/><g class="cls-18"><g id="Group_347" data-name="Group 347"><line id="Line_34" data-name="Line 34" class="cls-14" x1="140.16" y1="68.55" x2="145.39" y2="63.52"/></g></g><g class="cls-18"><g id="Group_348" data-name="Group 348"><line id="Line_35" data-name="Line 35" class="cls-14" x1="139.53" y1="72.77" x2="148.61" y2="64.26"/></g></g><g class="cls-18"><g id="Group_349" data-name="Group 349"><line id="Line_36" data-name="Line 36" class="cls-14" x1="139.92" y1="77.98" x2="150.51" y2="65.14"/></g></g></g><path id="Path_1186" data-name="Path 1186" class="cls-15" d="M141.38,59.82s-2.7,2.42-1.56,3.07a7.25,7.25,0,0,0,2.86.73Z"/><path id="Path_1187" data-name="Path 1187" class="cls-16" d="M141.38,59.82l1.3,3.8h0a2.75,2.75,0,0,0-.83-3.52Z"/></g></g></g></g></g><path id="Path_1197" data-name="Path 1197" class="cls-19" d="M37.25,71.16a51.36,51.36,0,0,1,65.13,31.47A50.66,50.66,0,0,1,71,167l-.39.13c-26.75,9.13-55.91-5-65.12-31.47A50.64,50.64,0,0,1,36.87,71.29Z"/><path id="Path_1198" data-name="Path 1198" class="cls-19" d="M152,29.48c26.76-9.13,55.92,5,65.13,31.47a50.65,50.65,0,0,1-31.38,64.39l-.39.13c-26.75,9.13-55.91-5-65.12-31.47a50.64,50.64,0,0,1,31.38-64.39Z"/><g id="Group_353" data-name="Group 353"><path id="Path_1199" data-name="Path 1199" class="cls-20" d="M92.6,56.28a6.89,6.89,0,0,1,8.73,4.22,6.78,6.78,0,0,1-4.21,8.62l-.05,0a6.87,6.87,0,0,1-8.72-4.22,6.78,6.78,0,0,1,4.2-8.62Z"/><path id="Path_1200" data-name="Path 1200" class="cls-20" d="M93.09,58A5,5,0,0,1,99.42,61a4.93,4.93,0,0,1-3,6.27h0A5,5,0,0,1,90,64.26a4.93,4.93,0,0,1,3-6.27Z"/><line id="Line_37" data-name="Line 37" class="cls-21" x1="91.24" y1="59.1" x2="98.18" y2="66.19"/><line id="Line_38" data-name="Line 38" class="cls-21" x1="91.13" y1="66.09" x2="98.28" y2="59.2"/></g></g></g></g><line id="Line_12" data-name="Line 12" class="cls-22" x1="0.14" y1="280.55" x2="340.14" y2="280.55"/></g><g id="SHOWROOM" class="cls-23"><text class="cls-24" transform="translate(23.09 247.67)">SH<tspan class="cls-25" x="23.89" y="0">O</tspan><tspan class="cls-26" x="37.87" y="0">W</tspan><tspan class="cls-27" x="55.26" y="0">R</tspan><tspan x="66.82" y="0">OOM</tspan></text></g></g></svg>