<?xml version="1.0" encoding="utf-8"?>
<!-- Generator: Adobe Illustrator 23.0.0, SVG Export Plug-In . SVG Version: 6.00 Build 0)  -->
<svg version="1.1" id="Layer_1" xmlns="http://www.w3.org/2000/svg" xmlns:xlink="http://www.w3.org/1999/xlink" x="0px" y="0px"
	 viewBox="0 0 72 72" style="enable-background:new 0 0 72 72;" xml:space="preserve">
<style type="text/css">
	.st0{fill:none;}
	.st1{fill:none;stroke:#F09D28;stroke-width:2;}
	.st2{enable-background:new    ;}
	.st3{fill:#262626;stroke:#000000;stroke-miterlimit:10;}
</style>
<g id="Group_307" transform="translate(-1505 -1330)">
	<g id="_3">
		<g id="Ellipse_228" transform="translate(1505 1330)">
			<circle class="st0" cx="36" cy="36" r="36"/>
			<circle class="st1" cx="36" cy="36" r="35"/>
		</g>
		<g class="st2">
			<path class="st3" d="M1530.5,1374.4c1.3,3.7,5.2,6.1,9.7,6.1c5.6,0,9.6-3.8,9.6-9.2c0-5.1-3.8-8.8-9.2-8.8
				c-1.5,0-2.5,0.2-3.4,0.5c0,0-0.3-0.5-0.4-0.7l10.8-11.2h-15.1v-0.9h16.5v0.7l-10.8,11.1c0.4-0.1,1.4-0.3,2.6-0.3
				c5.7,0,9.8,4,9.8,9.6c0,6.2-4.5,10.1-10.5,10.1c-4.9,0-9.2-2.7-10.6-6.6L1530.5,1374.4z"/>
		</g>
	</g>
</g>
</svg>
