<svg id="Layer_1" data-name="Layer 1" xmlns="http://www.w3.org/2000/svg" xmlns:xlink="http://www.w3.org/1999/xlink" viewBox="0 0 338.74 282.53"><defs><style>.cls-1,.cls-6{fill:none;}.cls-2{fill:#fff;}.cls-3,.cls-4{isolation:isolate;}.cls-4{font-size:18px;font-family:HurmeGeometricSans3-Bold, "Hurme Geometric Sans 3";font-weight:700;}.cls-5{letter-spacing:-0.07em;}.cls-6{stroke:#f09d28;stroke-width:5px;}.cls-7{clip-path:url(#clip-path);}.cls-8{clip-path:url(#clip-path-2);}.cls-9{fill:#798d9f;}.cls-10{fill:#e6e7e8;}.cls-11{fill:#f1f2f2;}.cls-12{fill:#bcc6cf;}.cls-13{fill:#fef3f0;}.cls-14{fill:#d1d3d4;}.cls-15{fill:#f6c47e;}.cls-16{fill:#5a8b67;}.cls-17{fill:#475563;}.cls-18{fill:#f09d28;}.cls-19{fill:#e2e2e1;}.cls-20{fill:#ddd7cb;}.cls-21{fill:#dadde0;}.cls-22{fill:#f9d8a9;}.cls-23{fill:#f15a29;}.cls-24{fill:#f79c7f;}.cls-25{fill:#577187;}.cls-26{fill:gray;}.cls-27{fill:#c62527;}.cls-28{fill:#fac4b2;}.cls-29{fill:#be1e2d;}.cls-30{fill:#9199a1;}</style><clipPath id="clip-path"><rect class="cls-1" x="61.46" y="0.04" width="276.8" height="252.45"/></clipPath><clipPath id="clip-path-2"><rect class="cls-1" x="119.92" y="-68.26" width="252.66" height="175.25"/></clipPath></defs><title>about</title><g id="Group_357" data-name="Group 357"><path id="Exclusion_1" data-name="Exclusion 1" class="cls-2" d="M340,280H0V.76H176.76a33.08,33.08,0,0,1-8.13,5.35,27.09,27.09,0,0,0-7.17,4.74,12.18,12.18,0,0,0-3.32,8.63,37.56,37.56,0,0,0,1.05,8.84,34,34,0,0,1,.89,6.42,11.3,11.3,0,0,1-1.64,6.14h-.52a10.15,10.15,0,0,0-5.3,1.59,47.77,47.77,0,0,0-4.56,3.19c-2.15,1.65-3.71,2.85-5.53,2.85a5,5,0,0,1-2.24-.59c-2.78-1.37-4.68-5.15-5.51-10.91a13.53,13.53,0,0,0-1.38-3.11c-.87-1.42-2.36-3.11-4.53-3.11-1.78,0-3.77,1.13-5.9,3.36-1.88,2-2.41,4.92-3.08,8.66a61.1,61.1,0,0,1-2.06,8.75,41.16,41.16,0,0,1-5.35,10.66,25.39,25.39,0,0,1-2.83,3.21c-2.54,2.57-4.93,5-2.68,8a7.61,7.61,0,0,0,6.08,3.25,8,8,0,0,0,4.63-1.57c-.51,1.13-1,2.24-1.35,3.29A26.75,26.75,0,0,0,112.07,82a9.55,9.55,0,0,0-2.41,2.07,6.08,6.08,0,0,0-1.23,2.38,4.75,4.75,0,0,0,.35,3.08q1,2.25,4.1,2.25a11.12,11.12,0,0,0,2.75-.38A16.42,16.42,0,0,0,117,94.22c-5.78,4.9-10.1,9.36-11,11.36-1,2.19-1.15,5.9.16,7.93a2.81,2.81,0,0,0,2.44,1.38,4.44,4.44,0,0,0,1.45-.27c3.56-1.24,10.64-8.06,14.53-12a35.61,35.61,0,0,0,.38,7.07,7.86,7.86,0,0,1-.55-2.67,39.12,39.12,0,0,0-8.52,8,31.23,31.23,0,0,0-5.15,9.42,25.22,25.22,0,0,0-.88,12.49,39.29,39.29,0,0,0,6.25,15,99.33,99.33,0,0,0,9.28,11.4c3.77,4.15,7,7.74,8.28,11.26a83.89,83.89,0,0,0,3.34,7.8l-1.15-1.56a58.54,58.54,0,0,0-6.46-3.65c-3.41-1.66-8.37-3.64-12.6-3.64a10.9,10.9,0,0,0-1.16,0c-.32,0-.65,0-1,0a11,11,0,0,1-5.2-1.35,16.4,16.4,0,0,1-3.91-3,21.56,21.56,0,0,1-3.32-4.33,13.33,13.33,0,0,0,.73,4,10,10,0,0,0,1.75,3.14,7.6,7.6,0,0,0,3.42,2.29,42.14,42.14,0,0,0,8.06,1.18c7.38.68,16.57,1.53,18.74,6.67,1.06,2.49,2.35,5.85,3.6,9.11,2.45,6.39,5,13,5.75,13h0a.5.5,0,0,0,.4-.34c.33-.74.06-2.66-.74-5.28a25.45,25.45,0,0,0-2.36-5.62,6.47,6.47,0,0,1-.95-3.64,104.43,104.43,0,0,0,13.19,18.9c5.88,6.48,11.76,10.49,17.49,11.94,5.07,1.27,11.3,3.79,17.89,6.45,12.14,4.9,25.9,10.45,37.52,10.45a29.69,29.69,0,0,0,6.84-.75,21.55,21.55,0,0,0,6.1-2.47,11.69,11.69,0,0,1,6-1.64l.64,0c3.58.18,10.09.63,20.74,1.73a21,21,0,0,0,2.38.13A17.08,17.08,0,0,0,279.68,231a32.64,32.64,0,0,0,6.23-6.25c1.71-2.08,3.19-3.88,4.83-4.45a39.51,39.51,0,0,0,6.73-3.44l1-.58c-.47.92-.77,1.45-.78,1.45s0,1.8,1.2,2.39a.66.66,0,0,0,.3.07c.88,0,2.25-1.4,3.58-2.76a24.14,24.14,0,0,1,1.85-1.77,7,7,0,0,0,1.36-3.18c.82-.32,1.65-.62,2.48-.88a28.87,28.87,0,0,0,3.79-1.53,108,108,0,0,1-14.93,17.71c2.66,0,5.54-1.48,8.57-4.39a52.79,52.79,0,0,0,7.74-10c4.13-2.6,13.93-10,14-10.09l3-8.68c3.2-2.84,5.23-7,8.59-13.82l.74-1.51V280ZM106,91.72a4.12,4.12,0,0,0-2.79,1.1c-2.87,2.66-2.57,3.58-2,5.42.06.18.12.36.18.56.42,1.39,2.32,3.48,4.22,3.48,1.09,0,2.6-.69,3.63-4a7,7,0,0,0,.3-4,3.41,3.41,0,0,0-1.51-2A3.78,3.78,0,0,0,106,91.72ZM315.45,210.33h0c.63-1.11,1.27-2.27,1.9-3.44a64.11,64.11,0,0,0,7.36-6.72,28.74,28.74,0,0,1-5.3,6.58c-1.53,1.36-2.86,2.56-4,3.58Zm24.55-31V.76H176.76a17.87,17.87,0,0,0,1.33-1.42,9,9,0,0,0,2.28-5.65,23.06,23.06,0,0,0-.86-5.95c-1.25-5.36-2.8-12,3.18-22.23,2.92-5,7.14-7.5,12.56-7.5a26.45,26.45,0,0,1,10.3,2.44A60.32,60.32,0,0,1,216.83-33c5.63,4.06,10.66,6.12,15,6.12a11.31,11.31,0,0,0,6.65-2.06,16,16,0,0,0,4.86-6c3.58-7.1,4.32-10.3,4.86-12.65a16.91,16.91,0,0,1,3.2-7.12c.83-1.21,1.51-2.35,2.1-3.36a14.49,14.49,0,0,1,3.3-4.39c1.45-1.11,3.3-1.61,6-1.61a48,48,0,0,1,8.53,1,11.08,11.08,0,0,1,7.79,5.27,18.32,18.32,0,0,1,2.29,7.66,39,39,0,0,1-.16,8.23,58.29,58.29,0,0,1-1.86,9.25c-.84,17,9.25,22.06,15.34,23.57a13.87,13.87,0,0,0,3.27.4c4.77,0,9.95-2.43,15.41-7.23a77.41,77.41,0,0,0,12.39-14.46c3.35-4.9,8.88-7.28,16.88-7.28,6.25,0,13.06,1.43,19.07,2.7l.11,0a9.8,9.8,0,0,1,5.54,3.11,16.31,16.31,0,0,1,3.25,6.51c1.6,5.52,2.24,13.29,3.12,24,.65,7.81,1.37,16.66,2.67,27.17a140.05,140.05,0,0,1,1,25.48A82.89,82.89,0,0,1,374,71.19c3.16,1.37,4.36,5.44,3.55,12.09-.64,5.24-2.51,12.06-5.56,20.28a54.33,54.33,0,0,1-1.57,14c-.85,3.18-4,10.36-9.19,20.78-4.08,8.23-9.46,18.6-14.78,28.44l-.58,1.1,0,0,0,.08a26.76,26.76,0,0,1,9.06-1.76,17.37,17.37,0,0,1,13.29,6s1.47,2.67,1.1,3.3a.28.28,0,0,1-.26.14,3.13,3.13,0,0,1-1.45-.76c-2.32-1.72-8-5.74-10.36-5.74a1.47,1.47,0,0,0-.46.07c-.29.09-.76.23-1.37.39-3.28.91-10.1,2.79-11.87,5.55a5.65,5.65,0,0,1-2.33,1.86L340,179.31ZM189.54,152.84a11.18,11.18,0,0,1-5.67-7.33,5.75,5.75,0,0,0,1.26,2.08,34,34,0,0,1,2.42,2.82c.61.76,1.3,1.61,2,2.42ZM163.07,131a3.13,3.13,0,0,1-1.13-.24l1.8.12a1.73,1.73,0,0,1-.67.12ZM132.7-4.66h-.37a24,24,0,0,1-8.25-1.55l26.57-8c-1,2.5-3.57,4.9-7.21,6.77A24.38,24.38,0,0,1,132.7-4.66Zm.12-5.36a16.92,16.92,0,0,1-12-4.92,16.71,16.71,0,0,1-.15-23.62l.15-.15a17.08,17.08,0,0,1,24,0A16.7,16.7,0,0,1,145-15.09l-.15.15a16.88,16.88,0,0,1-12,4.92Zm-15.55-.06h0c-1.81-1-3.86-3.79-5.46-7.52s-2.3-7.19-2-9.34l7.42,16.86Zm37.09-12.37h0l-3.68-17.37a22,22,0,0,1,4.14,12.88A22.58,22.58,0,0,1,154.36-22.45ZM111.79-35.87h0a22.11,22.11,0,0,1,7.06-9.4Zm34.7-8.55h0l-19.87-4.07a23,23,0,0,1,5.72-.72c2.55,0,10.63,1.13,14.15,4.8Z"/><g id="ABOUT" class="cls-3"><text class="cls-4" transform="translate(22.74 247.03)">ABOU<tspan class="cls-5" x="52.2" y="0">T</tspan></text></g><line id="Line_13" data-name="Line 13" class="cls-6" y1="280.03" x2="340" y2="280.03"/><g class="cls-7"><g id="Mask_Group_7" data-name="Mask Group 7"><g id="Group_305" data-name="Group 305"><g id="bckg"><g class="cls-8"><g id="Repeat_Grid_8" data-name="Repeat Grid 8"><path id="Path_867" data-name="Path 867" class="cls-9" d="M281.44-18.7c-21.9-15.92-43.11-21.24-54-2.43-16.93,29.16,4.25,40.07-7.29,54-11.21,13.57-31,11.53-31.56,32.17s16.39,33.39-23.68,51.6c-13.13,6-24.89,9.1-34.6,26.1-15.35,26.87-16.82,43.17,17.7,61.95s236.66,23.64,250-3.06c0,0,156.8,44.41,136-126.27-7.72-63.28-3-92.88-23.07-97.13s-45.53-9.71-57.06,7.29-30.68,38.61-49.17,34c-12.14-3-25.5-12.75-24.28-37.63,0,0,13.41-43.59-12.75-48.56-25.5-4.86-23.68,1.82-31.57,13.35-7.66,11.2-1.82,9.71-12.74,31.57C315.67-6.44,301.47-4.13,281.44-18.7Z"/></g></g><path id="Path_868" data-name="Path 868" class="cls-10" d="M117.73,54.18C115.1,58,109.41,61,112.43,65s8.07,4.29,11.85.25,19.92-10.84,24.21-8.57S175.22,68.8,182,68.3s17.15-9.58,22.95-8.07,9.83,6.56,16.14,2,9.33-5,7.31-11.1-10.84-7.31-14.37-5.8A46.09,46.09,0,0,1,209,46.94a44.74,44.74,0,0,1-27.08-1.23c-5.67-2.1-11.18-4.59-12.21-6.66-2.27-4.54-7.57-7.57-13.37-4s-7.81,7.32-11.85,5.3-5-8.83-5.29-10.59c0,0-3.12-11.48-11.35-2.77C123.53,31.48,126.55,41.32,117.73,54.18Z"/><g id="Group_258" data-name="Group 258"><path id="Path_869" data-name="Path 869" class="cls-11" d="M296,8.45a25.66,25.66,0,0,0-4.07.88c-6.41,2-21.61,7.64-19.1,15.67,3.16,10.14,18.49,3.12,26.91,2.53,9.19-.63,29.14,6.34,33.57-4.43s.71-19.3,13-21.53c13.93-2.54,20-16.15,17.73-20.9-1.45-3.1-11.72-17.1-19.95-10.77s-9.82,21.85-20.59,19.63-17.73-2.22-20.26,7C300.93,4.76,299.67,7.9,296,8.45Z"/><path id="Path_871" data-name="Path 871" class="cls-12" d="M168.61,28.7c2.7-10-.41-23.31,14.54-27,9.76-2.39,7.14-10.65,12.92-17.93,12-15.08,20.34-11.27,24.11-11,4.26.25,12.82,8.43,32.14-3.26,9.54-5.78,14.06-21.85,19.84-18.59s3.51,29.38-10.8,32.4C229.59-10,232.23-10.43,219.17-.39c-18,13.84-22.6,27.62-26.36,29.13s-22.35,13.05-24.36.5C168.42,29.06,168.56,28.88,168.61,28.7Z"/><path id="Path_872" data-name="Path 872" class="cls-13" d="M182.14,13.29a9.57,9.57,0,0,0-.68,1.62,28,28,0,0,1-5,8.79c-2.1,2.63-1.26,5.78,2,4.52S198,10.12,200,8.13c2.2-2.2,11-14.7,19.4-17.13,24-6.93,2.65-12.72-6.27-9.41a3.69,3.69,0,0,0-.33.18C202-12.85,202.29-2.41,197.77.85,192.46,4.68,187.14,4,182.14,13.29Z"/><path id="Path_873" data-name="Path 873" class="cls-14" d="M239.72,6.74A41,41,0,0,1,252.55-5.65c6.39-3.9,14.6-7.9,18.81-5.79,7.48,3.74-7.7,9-5.76,8.34,2.88-1.05-8.82.91-16.68,11.8-5.67,7.84-15.71,16.34-21.3,16.12-7.19-.29-9.5-.87-15.54-.58-3.6.17-5.75,0-7.76-2-2.77-2.77,9.74-5.47,14.1-5.47s8.05-.58,14.38-2.88C234.35,13.32,237.36,10.31,239.72,6.74Z"/><path id="Path_874" data-name="Path 874" class="cls-11" d="M213.81,8.12c-1.7,1.58-.86,5.47,2,5.47s15.25-3.17,19-8.92S245.46-6.27,246.9-6.84s3.46-6.33.58-5.18S230.79-7.7,213.81,8.12Z"/></g><g id="Group_259" data-name="Group 259"><path id="Path_875" data-name="Path 875" class="cls-15" d="M111.49,96.25c-1.52,3.4-1,10.47,3.9,8.76S132,90.64,132,90.64s20.46-19,49-15.1c0,0,11.2-1.94,13.88-21.43s23.87-13.64,23.87-13.64,7.55-.24,2.44-7.31c0,0-13.64-4.38-22.41,1.46S184.08,57,184.08,58.25,179.93,69.7,167,72.14s-20-.73-27.53,1.46S113.44,91.86,111.49,96.25Z"/><path id="Path_876" data-name="Path 876" class="cls-15" d="M108.84,83.87a3.82,3.82,0,0,1,4.65-.5c1.27.81,2.2,2.46,1.16,5.81-2.19,7.07-6.89,2.7-7.55.49S105.81,86.7,108.84,83.87Z"/><path id="Path_877" data-name="Path 877" class="cls-15" d="M117.33,73.35s-5.11,2.92-3.16,7.31,9.74,1,10.47,0,9.26-10.48,13.89-11c4.38-.47,30.66,0,35.46-7.68a20.11,20.11,0,0,1,2-2.8c2.15-2.38,5.8-7.51,5.11-14.13-1-9.25-7-3.83-7.31-1.46-.48,3.41-4.87,11.69-5.6,11.69s-8,7.31-30.44,8.28C137.79,63.61,125.13,65.07,117.33,73.35Z"/><path id="Path_878" data-name="Path 878" class="cls-15" d="M181.37,30.21a7.73,7.73,0,0,0-2.66,2.67c-.73,1.23-1.19,2.77.25,3.69,2.68,1.7,7.06,2.92,9.74-1.47s-2.43-7.55-4.38-6.57C183.28,29.05,182.18,29.71,181.37,30.21Z"/><path id="Path_879" data-name="Path 879" class="cls-15" d="M227.92,33.89s-4.87,2.19-1.95,8,10-2,8-3.9C234,38,233.28,32.43,227.92,33.89Z"/></g><path id="Path_880" data-name="Path 880" class="cls-16" d="M233.75,111.62s11-39.8,23.88-36c11.5,3.38,9.48,11,15.17,10.61s18.57-52.32,34.88-46.63c9.95,3.48,36.69,29.09,54.25,23.56,26.78-8.44-4.87,54.39-4.87,54.39L327,131.34l-88.34,8.34Z"/></g><g id="ducklft"><path id="Path_881" data-name="Path 881" class="cls-11" d="M131.75,81.6s-6.09,14.41,1,27.74,69.1,18.64,83.13-2.4L163.9,94,153.11,78l-15.32,1.73Z"/><path id="Path_882" data-name="Path 882" class="cls-17" d="M167.8,68.38a4.15,4.15,0,0,0,1.72-2.92c.43-2.23-2.32-7.21-5.33-9.27s-7.9-5.75-18.45-.68c0,0-9,5-12.78,18.45a8.45,8.45,0,0,0-1.2,1.11c-.43.51-.35,5.67,0,6.52s3.09,0,2.57,4.12-.77,5.84,2.49,4.46c0,0,1,.6,1-3.43s1.28-3.95,1.28-3.95,8.84-7.9,13.82-2.05,5.06,10.38,9.18,15,13.71,7.32,16.37,7.06,4.4,3.2,6,5.06,22.92,6.79,30.11.93,11.19-38.5,11.19-38.5,0-9.46-8.26-2.53a53.26,53.26,0,0,1-18.38,10.52c-4.4,1.6-18.31-.35-18.31-.35L168,74.3Z"/><path id="Path_883" data-name="Path 883" class="cls-18" d="M157.6,68.5l-.59.63a5.67,5.67,0,0,0-1.5,3.22l-.14,1.29a5.6,5.6,0,0,0,.69,3.42h0a5.62,5.62,0,0,0,2.4,2.28,10,10,0,0,0,2.81,1.09l18.35-.19c.57,0,1.58-1.93,1.14-2.3-1.37-1.15-5.14-3.79-6.4-4.6-.19-.12-.37-.25-.55-.39l-4.46-3.64a5.65,5.65,0,0,0-.78-.53c-.61-.35-1.75-1.1-1.18-1.54s-3.28-.73-6.13-.5A5.72,5.72,0,0,0,157.6,68.5Z"/><path id="Path_884" data-name="Path 884" class="cls-19" d="M131.39,79.89s1.74,2.66,4.8-6.13c0,0,5.6-9.06,9.2-7.46s-.14-4.66-.14-4.66-3.86,0-4.53,1.07-5.86,9.86-7.32,9.72L133,74l-1.2,1.12Z"/><path id="Path_885" data-name="Path 885" class="cls-20" d="M155.91,70.7s-1.74-1.47-2.54-.93-5.46,2.53-8-3.47c0,0-1.6,1.07-1.86-3.46a1.61,1.61,0,0,0-1.47-.8c-.93.13,8.39-4.8,12.66-.4s4.13,5.73,4.13,5.73A17.2,17.2,0,0,0,155.91,70.7Z"/><path id="Path_886" data-name="Path 886" class="cls-17" d="M150.41,63.81a.94.94,0,0,0-.89,1v0c.1,1.52.73,4.34,4,3.36a1.57,1.57,0,0,0,1.14-1.62A2.75,2.75,0,0,0,152.44,64,9.25,9.25,0,0,0,150.41,63.81Z"/><path id="Path_887" data-name="Path 887" class="cls-21" d="M132.46,93.88s-.94-3.2-1.6-.53.4,4.8,1.06,3.73A6.75,6.75,0,0,0,132.46,93.88Z"/><path id="Path_888" data-name="Path 888" class="cls-21" d="M136.59,95.35s-.53,9.59,3.06,11.19,2-3.2,2-3.2a59.88,59.88,0,0,1-2.4-7.86C138.85,93,136.59,95.35,136.59,95.35Z"/><path id="Path_889" data-name="Path 889" class="cls-21" d="M143.52,96s-3.6-8.92-1.2-9.06,3.2,3.87,3.46,4.93,2.66,5.6,1.07,5.73S143.52,96,143.52,96Z"/><path id="Path_890" data-name="Path 890" class="cls-21" d="M151.11,92.28c.53,1.6-.13,3.2,1.73,4s1.47-2.93,1.2-3.6-1.86-3.33-2.4-2.53A4.66,4.66,0,0,0,151.11,92.28Z"/><path id="Path_891" data-name="Path 891" class="cls-21" d="M142.32,108c.13,1.34.26,3.07,1.6,2.67s2.13-2.13,1.33-2.8S142.32,108,142.32,108Z"/><path id="Path_892" data-name="Path 892" class="cls-21" d="M150.58,101.88s4,9.86,7.59,9.32,1.6-3.33.8-3.73-5.06-3.33-5.46-4.26-1.33-4.4-2-3.73S149.91,100.68,150.58,101.88Z"/></g><g id="kackavpravo"><path id="Path_898" data-name="Path 898" class="cls-11" d="M199.63,100.05s-5.74,5.15-5.59,6.48a3,3,0,0,1-1.18,2.35l-.15-2.94s-1.47,4-1.62,4.56,1,2.07-.59,3.39-6.77,9.86-6.18,13,1.62,8.68,3.23,10.16,6.78,9.12,8.84,9S275,169.89,289,129.08c0,0,2.62-12.44-.44-16.37a12.23,12.23,0,0,1-2-10.25c.43-1.53-2.84-6.77-4.15-6.33s-3.93,6.33-3.93,6.33-2.85,6.37-3.69,6.58-38.31-11.29-38.31-11.29Z"/><path id="Path_899" data-name="Path 899" class="cls-17" d="M239.38,94.89s2.84,5,5.75,4.47,6.37-2.19,8.92-.91,8.74,5.28,10.74,5.46,6.19.55,7.28,1.09l4,2s-4.18,12.38-17.65,11.29c0,0-8.19,8.73-16.38,1.82,0,0-10.56,4-14.56-4.55s-5.28-10-5.28-10l.54-4.46Z"/><path id="Path_900" data-name="Path 900" class="cls-1" d="M215.24,93.42s-3.09.88-2.5,2.36,2.65,3.83,3.53,3.83,5.3,2.35,5.3,2.35l7.22-3.38.88-6-3.54-5.15-5.44-3.69Z"/><path id="Path_901" data-name="Path 901" class="cls-22" d="M201.69,78.4,203,98.26l19.72,2.81,10.31-7.31s-7.51-16.67-7.51-17.23S201.69,78.4,201.69,78.4Z"/><path id="Path_902" data-name="Path 902" class="cls-23" d="M192.86,108.88s1.31,3.22,4-.42,5.1-6,4.55-2.19,1.82,7.65,3.64,5.1,4.55-3.09,5.1-.91,3.46,4.92,4.92,1.28,3.82-.91,4.91,1.09,4.19,3.09,4.37,1.46,2-1.1,2-1.1l-.73-7.82L218,101h-7.65l-6.47-3.89-4.27,2.94s-5.37,4.73-5.59,6.48A3.28,3.28,0,0,1,192.86,108.88Z"/><path id="Path_903" data-name="Path 903" class="cls-24" d="M200.66,97.4s-1.77,4.27.44,5,5.16-3.38,6.33-1.76.89,5.44,2.95,5,3.53-3.68,5-2.94,2.65,5.89,5,4.56,5.45-3.38,5.3-5.59,3.09,2.65,4.12,2.65,3.39-1.62,2.65-3.83,3.69,1.33,4.27.29a4,4,0,0,0-.44-5c-1.77-2.21,2.65,1,3.09-.88s.15-3.1-.44-3.54-4.27-4.71-4.27-4.71-6.33,11.19-7.36,11.63-10.6,1.62-12.07,1.33-8.4-.74-9.28-2.06A6.93,6.93,0,0,0,203,95.48Z"/><path id="Path_904" data-name="Path 904" class="cls-18" d="M199.48,85.47s-4.86,7.07-11.19,8.83-.88,3.69-.88,3.69,14.72-.3,16.49-.89,2.36-2.5.59-2.8-1.18-2.65-.3-2.94,2.5-2.8,1.18-3.24-1.91-2.35-1.91-2.35Z"/><path id="Path_905" data-name="Path 905" class="cls-2" d="M210.08,77.52s-.58,3.53-1.91,5.3-1.62,4,.59,6.77,7.06,5.3,10.16,3.09,2.94-4.86,3.53-4.56,1.92-1.18,1.47,1.62S220.24,93,220.1,94s-.3,2.8.73,2.06,4.12-4,5.15-4,.15,2.5,1.18,3.09,2.36,1.77,3,.59,2.94-4,2.35-5.45-4.27-9-4.27-9l-11.48-8Z"/><path id="Path_906" data-name="Path 906" class="cls-17" d="M216.51,84.11a2.7,2.7,0,0,0-4,2.92l.06.2c.58,1.92,4.27,1.62,4.27.88s1.17-3.09-.3-4Z"/><path id="Path_907" data-name="Path 907" class="cls-25" d="M198.46,81.79s-.3,4.86,1.62,4.86,4.41.29,5.44-3.39,6-6.18,7.51-6,5-1.47,9.28,4.13,10,9.57,12.37,9.27,7.21-2.94,6.62-4.27-1.47,1.33-4.56-.73-5.3-9-8.1-10.75-2.8-5.6-14.73-5.89S198.46,81.79,198.46,81.79Z"/><path id="Path_908" data-name="Path 908" class="cls-26" d="M243,101.17l12,4-4.73,1.09,2,6.19-12,1.64-6.74-3.1,3.64,4.56s-1.64,2.91-4.37,1.27-5.64-7.28-5.1-8.92a3.81,3.81,0,0,1,5.08-1.83h0c1.83,1.09,5.1,2.18,5.46.18s-2.18-6.55-.36-5.82,4.55,3.45,4.73,2.73a2,2,0,0,0-.34-1.17.59.59,0,0,1,.23-.8A.66.66,0,0,1,243,101.17Z"/><path id="Path_909" data-name="Path 909" class="cls-25" d="M232,111s1.8,6.3,7.73,6,9.92,2.76,12.29-.15,6.73-3.1,7.83-2.37,2.91-1.46,2.91-1.46-1.64-7.28-3.82-7.28c-.84,0-3.07-.37-5.54-.71-4-.55-8.51-1-8.84.35-.55,2.18,6.91,3.09,5.64,5.46s-7.64,2.73-8.73,1.09-5.65-4-6.56-3.64S232.39,107.36,232,111Z"/><path id="Path_910" data-name="Path 910" class="cls-21" d="M257.69,111.55s8.56,3.64,11.29.55l2.73-3.1s-10-.72-12.93-1.09-6.19-1.09-4.91.55A15.39,15.39,0,0,0,257.69,111.55Z"/><path id="Path_911" data-name="Path 911" class="cls-21" d="M202.56,124.8a1.28,1.28,0,0,0-.86,1.36c.2,1.91.92,6.72,3.39,7.6,3.1,1.09,6-1.28,4-2.92s-5.28-1.64-5.28-3.64C203.82,125.64,203.48,124.52,202.56,124.8Z"/><path id="Path_912" data-name="Path 912" class="cls-21" d="M201.09,119.38c-1.22,1.22-.55,2.91,1.27,3.45s2.55-1.63,2.19-2.91S201.64,118.83,201.09,119.38Z"/><path id="Path_913" data-name="Path 913" class="cls-21" d="M198.18,133.57c1.3.75,2.36.55,2.55,1.64s-2.19,2.55-3.46,2.37-1.28-2.91-1.28-2.91S196.9,132.85,198.18,133.57Z"/><path id="Path_914" data-name="Path 914" class="cls-21" d="M191.08,121.92s-1.27,7.29.73,8.56,4.55,1.27,3.82-.73-1.64-4-1.46-5.64c.06-.58-.11-4.79,0-5.64s-.74-.63-1.4,0c-.21.18-.42.37-.65.54Z"/></g><g id="kvt"><path id="Path_915" data-name="Path 915" class="cls-27" d="M129.19,97.63s-17.18,11.09-14,29.05,19.7,27.52,22.88,36.5,18,39.68,36.21,44.31c17.42,4.43,48.31,23.88,65.7,13.28a11.15,11.15,0,0,1,6.4-1.58c3.59.19,9.86.63,19.94,1.69,14.57,1.51,17.82-11.61,22.74-13.35s9.55-6.05,17-8.44c10.06-3.22,15.78-12.11,20.47-15.71,5.41-4.16,7-10.94,16-27.73s21.22-40.86,23-47.75,3.14-23.09-2.94-21.64S340.83,99.46,336.78,100,289,133.35,267,132.19c-12.88-.68-19.62,1.42-23,3.28a31.53,31.53,0,0,1-6.6,2.62c-1.88.54-4.28,1.95-6.62,5.39-3.29,4.83-5.28.77-5.22-2.47a2.19,2.19,0,0,0-2.12-2.28,2.14,2.14,0,0,0-1.34.4,14.5,14.5,0,0,0-3.2,3.2c-4.64,6.08-7.24.58-6.66-2.61.7-3.88-2.61-5.21-4.35-1.74s-3.18,5.22-7.53,5.5-11.87-.18-14.08-8.76c-2.4-9.34,1.9-10.86-.8-16.27-2.4-4.8-4.26,3.47-8,.8-4.24-3,1.1-5.62-1.95-6.56a3.88,3.88,0,0,0-4.5,1.88c-2.58,4.69-3,7.78-6.58,5.74-2.13-1.21,2.61-4.92.87-7.24-2.6-3.47-9.55,1.45-10.13,4.06s-12.88-1.24-16.65-2.68S128.9,100,129.19,97.63Z"/><g id="Group_264" data-name="Group 264"><path id="Path_916" data-name="Path 916" class="cls-23" d="M189.59,202.12s-4.21-5.24-1.83-6.12,8.59,4.81,10.64,6.86,10.94,6.21,14.62,5.93-4-5.22-4-5.22-29.45-18.38-27.65-21.22c2.13-3.34,16.39,2.73,21.5,3.85,1.33.28,7,3.15,10.62,5.76,4.25,3,20.1,3.41,22.1,3.77,3.35.59,34.72-.77,37.14-2.1s16.71-7.8,21.16-6.57,4.57-9.4,7.47-10.91,12.4-8.86,15.5-5.28-1,10.19-1,10.19-20.67,20.3-24.26,21.95-31.73,19.32-71.22,11.59C220.35,214.6,200.62,213.81,189.59,202.12Z"/><path id="Path_917" data-name="Path 917" class="cls-23" d="M209.54,177.22s13,.6,10.15-3.46-13.9-3.21-11-5.52,5.79.59,6.66-.86.58-3.19-1.44-3.48-11.3-1.18-11.3-1.18l-22.29-9.59s-15.65,6.93,2,14.2S209.54,177.22,209.54,177.22Z"/><path id="Path_918" data-name="Path 918" class="cls-17" d="M197.5,184.54a4.94,4.94,0,0,0-3.57,6,1.21,1.21,0,0,0,0,.18c.51,1.62,1.9,3,5.11,3.26,8.11.59,5.79,4.93,8.4,4.94s9-4.33,14.48-2.3,9.27-2.6,11.89-4.91,5.79,1.17,7.82-1.73-2-4.92-3.18-3.77c-2.48,2.47-7,1.15-9-1.75s-6.09,2.6-14.77-.31c-2.15-.71-3.76-4.63-7.24-2.9A70.1,70.1,0,0,1,197.5,184.54Z"/><g id="Group_262" data-name="Group 262"><g id="Group_261" data-name="Group 261"><path id="Path_919" data-name="Path 919" class="cls-18" d="M130.64,143s13.22,18.38,19.53,19.65,8,1.94,10.19,3.29c2.84,1.73,11.71,13,16.8,11.38s2.13-10.63,2.13-10.63l-10.8-17.32L151,145.78l-16.22-9.4Z"/></g><path id="Path_920" data-name="Path 920" class="cls-17" d="M149.62,151.55a.2.2,0,0,1,.36.15,34.24,34.24,0,0,0-.8,5.23c-.87,10.86,5.69,2.66,5.69,2.66l4.7,1.14a.5.5,0,0,1-.13,1l-2.5-.07s8.45,4.51,8.83,5.6c.45,1.31-8.25-5-10.9-5s-5.82,2.48-6.83,4.54c-3.73,7.65-3.83,12-2.32,14.32s4.25,10.67,2.59,10.9c-1.06.15-6-14.24-9-21.44s-20.08-5.72-25.76-7.62-5.68-9.1-5.68-9.1,4.92,9.1,12.88,8.35,19.44,7,19.44,7l2.9,4L148.64,162s-.6-7.34-2.87-8.48a6.46,6.46,0,0,1-1.67-1.31.5.5,0,0,1,0-.7.48.48,0,0,1,.7,0l3.14,2.91Z"/><path id="Path_921" data-name="Path 921" class="cls-17" d="M137.94,144.75c4.15-.59,9.1,3.42,12.5,4.57A4.78,4.78,0,0,1,153,151.9c1.14,2.17,1.75,4.89,3.46,5.38,2.66.76,9.86,0,14.4,1.54s1.12,13.64,3.77,17.82,21.22,5.71,24.64,0-1.5-9.85-6.81-11.76,1.15-8-2.63-16.68-18.94-6.85-22.73-9.51-1.87-18.2-6.8-12.9S149,124.29,149,124.29c-3.4-11-11.35-14.42-16.33-14.55s-4.13,6.94-1.48,12.25-3.05,13.26-4.19,17A10.37,10.37,0,0,0,137.94,144.75Z"/><path id="Path_922" data-name="Path 922" class="cls-25" d="M142.39,145s-6.33-9.88-7.35-15.25c-.66-3.44.8-10.34,1.25-7.43.23,1.46-.9,3.5-.45,4.06l.57,5.53,2.21,4.13a.46.46,0,0,0,.61.19.48.48,0,0,0,.23-.37l.45-8.24-1.25-2.37c-.87-1,.57-.45,1.36.79.28.44.51-1.65.86-2a.48.48,0,0,1,.67-.06.52.52,0,0,1,.16.41l-.56,5.88,1.24-2c.11-.35,1.17-1,1.13-.68l-1.36,2.6,3.12-1.68a.35.35,0,0,1,.48.15.34.34,0,0,1-.07.42l-1.95,1.79-3.27,1-.16,3.24a1,1,0,0,0,1.26,1l3.49-1.06,3.23-1.05a.33.33,0,0,1,.42.22.32.32,0,0,1-.1.36l-3.4,1.37,1.35,1.34a.37.37,0,0,1,0,.5.36.36,0,0,1-.43,0l-2.27-1.32-2,.56a1.43,1.43,0,0,0-1,1.79,1,1,0,0,0,0,.16l2.88,6.85Z"/><path id="Path_923" data-name="Path 923" class="cls-25" d="M176.69,152.92c.14-.34.85-1.15,1.66-2.55.18-.31,4.34,1.19,4.56.89.57-.77-3.25-1.15-4-1.84-.54-.49,1.87-3.65,2-4a.43.43,0,0,0-.19-.57.42.42,0,0,0-.52.12L175,152.54a.61.61,0,0,1-.87.09.6.6,0,0,1-.21-.31l.9-3.68c-.13-.49-.2-.3-.62.18l-1.22,3.64c-.34,1.14-.77,1.87-1.9,2.08l-1.59.3a.86.86,0,0,1-1-.69.85.85,0,0,1,.14-.64l2.13-2.3a.24.24,0,0,0,0-.35.23.23,0,0,0-.22-.06,3.3,3.3,0,0,0-1.11,1,3,3,0,0,1-.71.62l-1.4.88a.82.82,0,0,1-1.16-.07.83.83,0,0,1-.19-.71l.73-3.42a2.51,2.51,0,0,1,1.66-1.84l6.24-1.59a4.1,4.1,0,0,0,.59-.2c3.36-1.48,4-2.57-.31-.49l0,0-6,1.31a1.38,1.38,0,0,1-1.64-1.07,1.25,1.25,0,0,1,0-.43l.08-.73a.18.18,0,0,0-.16-.2.18.18,0,0,0-.2.14l-1.36,5.35a.42.42,0,0,1-.52.3.37.37,0,0,1-.19-.11l-6.08-7.37c-.32-.32-1.39-.5-.58.46l6.21,8.6a1.91,1.91,0,0,1,.1,1.88l-.17.34c-.22.46-3.52-1.86-3.72-2.32,0,0-2.95-2.31-2.9-1.75l4.64,4.82a2,2,0,0,1-.7,1.68L160,157.2a9.65,9.65,0,0,0-.94.44l1.31.06,1.43,0h.05l8.65-1.14.06,0C171,156.41,176.08,154.4,176.69,152.92Z"/><path id="Path_924" data-name="Path 924" class="cls-25" d="M182,175.46c.29-.21,7-.18,8.41-1,.31-.17,2.16,1.29,2.5,1.15.89-.36-1.25-.7-1.54-1.68-.21-.7,2.64-2.07,2.93-2.25.44-.27,1-1,.5-.83l-8.42,3.68a.61.61,0,0,1-.79-.38.62.62,0,0,1,0-.38l2.7-2.66c.13-.49,0-.36-.63-.17l-3,2.47c-.88.79-1.62,1.19-2.71.77l-1.5-.57a.86.86,0,0,1-.5-1.11.82.82,0,0,1,.45-.48l3-.85a.25.25,0,0,0,0-.48A3.33,3.33,0,0,0,182,171a2.93,2.93,0,0,1-.93.16l-1.65,0a.82.82,0,0,1-1-.66.81.81,0,0,1,.21-.71l2.4-2.53a2.51,2.51,0,0,1,2.38-.71l6.15,1.9a4.34,4.34,0,0,0,.6.14c3.64.49,4.76-.11,0-.58,0,0,.64-.8,1.06-1.32a.07.07,0,0,0,0-.1h-.07l-1.55,1.16-5.22-1.73c-.88-.32-2.33-1.36-1.76-2.1l1.15-2.39c1.66-5.36-.13-.86-.3-.7l-3.5,6.07a3,3,0,0,1-1.46.18.73.73,0,0,1-.67-.78v0l.15-1.62c0-.29,1-3.09.45-2.44-2.17,2.56-.8,7-1.33,7.34l-3.56,1.53,0,1.2,2.18-1.07a1.66,1.66,0,0,1,2.14.6c1.57,2.46,4.94,7.57,5.28,6.61C183.33,178,180.68,176.42,182,175.46Z"/></g><g id="Group_263" data-name="Group 263"><path id="Path_925" data-name="Path 925" class="cls-18" d="M332.55,131.67l1.71,14.46s-13.3,3.45-14.46,6.63-13.6,11.83-17.65,10.67,4,2.61-12.44,6.35-18.22,7.49-21.4,5.46-5.5,5.2-11.57,2.3,18.82-23.39,18.82-23.39Z"/><path id="Path_926" data-name="Path 926" class="cls-17" d="M260.51,175.23s-26.23,15.6-35.77-2.77a8.84,8.84,0,0,1,2.48-11.08,36.94,36.94,0,0,0,5.45-5.23,14.61,14.61,0,0,0,2.89-5.14c1.72-5.33,6.29-17.47,12.58-18.58,8.1-1.44,34.11,1.49,38.17-8.33s7.25-19.94,18.52-15.88,9.82,2.9,14.74-.27,17.95-21.07,26-13,.84,22.55.84,22.55-3.47,2-4.06,11.27,2,15.9-8.12,17.33-14.73-7-25.44-2.06-8.4,12.42-16.5,15-16.76-1.76-23.71,6.33S260.51,175.23,260.51,175.23Z"/><path id="Path_927" data-name="Path 927" class="cls-17" d="M295.73,205s14.2-24.83,1.79-35.84c0,0-8.09-2.61-10.12-1.46s-11.28,4-11.28,4-2.89-.59,6.95-4.62-5.49-2.9-5.49-2.9-5.78-2.61,2-2.31,11.55,5.51,17,4.65,2-12.14,2-12.14,1.75-6.64,2.31,0,0,10.41,1.15,9,1.75-11.84,4.93-11.26,5.78,0,5.78-2.88,2-6.36,2.32-4.05.28,7.23-2,8.67-4.91-2.32-5.78.86-.87,4.33,1.44,3.18,8.1-3.74,8.39-4.9,6.37-4.33,2.6-.28c0,0-11.86,6.05-14.75,9.52s-4.35,5.48-3.48,7.22,4,14.17,3.44,15,4.34,1.46,4.34-.86,8.1-8.66,9.55-7.21,4.63-6.93,7.82-10.11,23.73-19.91,36.72-5.44c0,0,2.88,5.21-.59,2.6s-8.66-6.08-10.4-5.51-10.7,2.59-12.72,5.77-8.39,2-13,11.54-11,13-12.45,13-8.38-1.46-8.67.28-1.47,13-3.2,14.45-4.35,4.9-5.5,4.33S295.73,205,295.73,205Z"/><path id="Path_928" data-name="Path 928" class="cls-25" d="M328.28,126c2.6-5.93,2.82-19,.81-13.9-1,2.55.18,6.67-.86,7.5l-3.3,9.72-5.69,6.53a.83.83,0,0,1-1.17.07.82.82,0,0,1-.27-.76l2.6-15,3.21-3.75c2-1.39-.83-1.05-2.76.86-.69.68-.25-3.18-.69-4a.88.88,0,0,0-1.65.29l-1.42,10.82-1.4-4.17c-.06-.68-1.68-2.37-1.75-1.69l1.37,5.23-4.93-4.32a.65.65,0,0,0-.93.07.65.65,0,0,0,0,.79l2.77,4,5.47,3.18-1,5.91a1.79,1.79,0,0,1-2.09,1.45,2,2,0,0,1-.58-.21l-5.84-3.35L302.71,128a.64.64,0,0,0-.86.22.62.62,0,0,0,0,.7l5.55,3.87-3,1.84a.65.65,0,0,0,.54,1.17l4.64-1.44,3.27,1.82c1.39.77.14,6.57.14,6.57s.61-.08,1.25-.14C315.55,142.48,325,133.5,328.28,126Z"/><path id="Path_929" data-name="Path 929" class="cls-25" d="M270.32,145.49c-.63,0-1-1.2-2-2.85-.33-.52-.78-6.92-1.82-6.75-1.65.28.69,4.18.18,5.89-.37,1.22-4.24-5.26-4.85-5.28-.89,0,2.17,5.5,3,5.71l-3.31-.12a.26.26,0,0,0-.27.24.24.24,0,0,0,.15.24c1.19.58,4.55.59,4.55.59s2,2.47,3.18,4.12l1.64,2.28a1.51,1.51,0,0,1-.34,2.1,1.49,1.49,0,0,1-1.12.26l-4.62-1a.15.15,0,0,0-.18.14.17.17,0,0,0,.07.16,8.41,8.41,0,0,1,1.47.88c.43.49-2.66,2.63-1.82,2.86.53.14,2.82-2.63,3.28-2.33l2.43,1.56a1.43,1.43,0,0,1-.25,2.7l-5.93,1.37a4.31,4.31,0,0,1-4.13-1.26l-7.14-8.7a6.77,6.77,0,0,0-.74-.77c-4.8-4.2-7-4.39-.54.86,0,0-1.68.55-2.79.9a.14.14,0,0,0-.08.17.14.14,0,0,0,.13.09l3.36-.2,5.92,7.53c1,1.32,2.09,4.22.54,4.75l-4,2.38c-.62.5-10.72-1.19-11.15-.83s9.53,2.13,8.75,2.84c-10.15,9.18,4.84-2.41,5.17-2.47l7.08-3.31a2.26,2.26,0,0,1,2.1.08,9.73,9.73,0,0,1,1,.66,1.26,1.26,0,0,1,.25,1.78l0,0L265.77,165c-.28.43-4.42,3.54-3,3.12,5.61-1.64,7.9-9.42,9-9.39l8.08,1.42,5.1-.09-9.61-2.42a2.9,2.9,0,0,1-2.55-2.93c.08-5.08-1.08-19-3.07-19C268.91,135.72,273.12,145.35,270.32,145.49Z"/><path id="Path_930" data-name="Path 930" class="cls-25" d="M295.6,157.5c-2.31,0-13.55-7.37-13.55-7.37-.38-.21-.51-1-.1-.87l10.7,5.15a.4.4,0,0,0,.54-.19.39.39,0,0,0,0-.39L282,134.78a.31.31,0,0,1,.5-.37l8.13,9.33a.85.85,0,0,0,1.2.08.65.65,0,0,0,.15-.18l2.08-3.28-.91-4.56a.23.23,0,0,1,.17-.28.22.22,0,0,1,.28.16h0l1.17,3.71,2.54-3.33a.36.36,0,0,1,.51,0,.35.35,0,0,1,.09.42l-4.87,9.3a1.3,1.3,0,0,0,0,1.2l4.34,8.87S295.91,157.5,295.6,157.5Z"/></g></g><g id="Group_265" data-name="Group 265"><path id="Path_932" data-name="Path 932" class="cls-27" d="M280.85,106.55a8.83,8.83,0,0,1-1.41-5.76,17,17,0,0,0-.76-6.64l28.91-6.52L301.5,64.8s.33.87,2,1.42a4.51,4.51,0,0,0,3.15-.22s3.59,2.83,5.44,2.5,4-1,4-1a13.51,13.51,0,0,1,.76,7.28c-.76,3.81-.65,10.55-4.35,13s-10,7.06-10,7.06l-.08.82-.27,2.62s-5.64,4-6.73,5.26-8.16,4.35-10.33,3A4.38,4.38,0,0,0,280.85,106.55Z"/><path id="Path_933" data-name="Path 933" class="cls-24" d="M306.61,66s3.7-7.06,5.44-6c0,0,2.39-1.3,3.26,4,0,0,1.85,3.92,1.3,6s-41.85,36-41.85,36-6.31.21-6.74-2.83,3-5.44,3-5.44l4.68-2.82,1.2-3.37-5.87-2s-7.61-6.74-6.53-8.26,9.68-2.83,9.68-2.83l7.5.11-7.28-6.85s-4.68-9.34-3.37-10.11,12.17,3.7,12.17,3.7l5.44,3.37s.87-6.41,1.63-8.26,1.09-5,2.17-4.79,5.87,3.59,6.52,4.57,2,2.61,2,2.61l1,4.13,3.7.44Z"/><path id="Path_934" data-name="Path 934" class="cls-23" d="M280.85,106.55s-4.78,1.09-6.09-.54-2-4.13-1.3-4.79,1.2-3.37.22-3.91-.11-2.17.76-2.61.76-3.59-.11-3.8S296.18,79.7,299,81.22,306.62,66,306.62,66s2.71-2.61,4.13-1.2c0,0,4.46-.11,5.11,3.7S314,78.94,314,78.94Z"/><path id="Path_935" data-name="Path 935" class="cls-18" d="M303.46,95.68s-11.41,6.52-18.7,2.82-13.48-7.93-13.7-8.91,4.35-1.09,4.24-2.94S279.86,82,279.86,82l11.43-4.78s-1.74-6.85-.87-7.07,5.44-2.61,5.44-3.59,4.78-3.8,5.11-3.7,1.08,5.11,2.28,5.77,4.13,5.21,4.46,6.84.11,8.16.76,9.24,3.37,3.37,3.37,4.24-4.56,4.74-4.56,4.74Z"/><path id="Path_936" data-name="Path 936" class="cls-23" d="M302.5,94.91s-15.24-3.9-18.82-8.69-8.27-10.32-9.24-14.46a5.36,5.36,0,0,0,3-2.61c1.09-2.06,4.46-4.56,5.76-3.8s3.81,2.5,5.44,3.37,6.09,4.56,7.28,6.52,8.37,16,8.48,17.28l.11,1.3Z"/><path id="Path_937" data-name="Path 937" class="cls-28" d="M278.46,79.26s4.89-2.39,5.76-4.23,6.2-4.89,6.2-4.89,5.55,3.91,6.31,6.3,0,4-1.74,5-5.87,5.11-6.2,6.2-1.85,1.52-1.85,1.52-5.11-3.91-5.54-6.09Z"/><path id="Path_938" data-name="Path 938" class="cls-24" d="M302.42,95.74s-7.11-3.43-9.72-2.24a75.1,75.1,0,0,0-7.94,5s7.72,2.83,11.74,0C296.5,98.5,301.92,97.1,302.42,95.74Z"/><path id="Path_939" data-name="Path 939" class="cls-24" d="M304.55,93.83s-3.7-6.52-1.2-7.83a7.58,7.58,0,0,0,3.8-4.67,1,1,0,0,1,1-.87l.33,4.24S305.42,93.94,304.55,93.83Z"/><path id="Path_940" data-name="Path 940" class="cls-25" d="M304.45,98.89l-2.3-.53s-.44-1.68-.09-2,.44-1.5.44-1.5,2.74-2.12,3.53-1.41,1.24.18,1.24.18l-.53,3.44s11.67,20.51,14,29c2.5,9,9.58,14.16-.83,57.05,0,0-12.53,31.64-24.57,31.64,0,0,19.07-17.58,23.32-37.06s5.21-31.52,3.09-40.37S310.13,103.27,304.45,98.89Z"/></g><g id="Group_266" data-name="Group 266"><path id="Path_941" data-name="Path 941" class="cls-27" d="M316.48,24.42s16.9-14.24,17.56-21,3.29-16.2-.44-15.1S324-4,322.66-4s-4.16-2.63-4.16-2.63l-33.05,23A129.23,129.23,0,0,1,273,21.78c-4.6,1.53,8.1,8.1,8.1,8.1s5.69-.66,5.91,3.5-2.85,4.6-1.31,5.69,21.7,2.45,25.07-11.58Z"/><path id="Path_942" data-name="Path 942" class="cls-25" d="M324.53,191.06l8.93-25.78a90.17,90.17,0,0,0,4-20.84l1.87-26.85a37,37,0,0,0-.17-6.9c-1.45-12.19-6.41-52.59-9-57.6-3.07-5.91-13.63-26.15-13.63-26.15V24.42l-3.77-.28-2,3.36,2.9.93c16.64,18.6,15.4,44.7,21.28,74.57,0,0,2.1,73.07-18.3,91.39S324.53,191.06,324.53,191.06Z"/><path id="Path_945" data-name="Path 945" class="cls-29" d="M281.72,10.18s-5.9-7-3.93-8.54S295.08,3,295.08,3l9-3.72,5-14.89s2.41-4.6,4.38-1.31,7,11.16,7,13.79S293.33,14.12,290,14.12,281.72,10.18,281.72,10.18Z"/><path id="Path_946" data-name="Path 946" class="cls-29" d="M285.67,39.08s-9.2,0-7.67-2.63a24.06,24.06,0,0,1,4.82-5.25l-2-3.73L336.67,1.86s6.35-3.72,5.25.66-1.31,7-2.62,9.19-11.16,9.85-11.16,9.85l-17.3-.65-10.07,11.6Z"/><path id="Path_947" data-name="Path 947" class="cls-23" d="M285.45,15.78c-.88.44-3.07,4.16-1.53,6.78s2.19,4.6.87,5.26.44,2.84.44,2.84,18.17,5.48,24.08-3.5,7.17-3.27,7.17-3.27a19.69,19.69,0,0,0,15.6-13.58c3.93-12.26,0-9.19,0-9.19s-8.32,1.09-9-2.41S317,.46,317,.46Z"/><path id="Path_948" data-name="Path 948" class="cls-23" d="M292-.11c-.11-.48-2.13-6.08-.43-7.44,1.09-.87,5.91-3.06,7-1.75s4.82,3.06,4.82,3.06L297.49.11Z"/><path id="Path_949" data-name="Path 949" class="cls-23" d="M318.5-6.67s-2.62-5.47-7.66-1.75a21.84,21.84,0,0,0-6.79,7.66s-9.19,5.69-14.23,5.47-7.66-.66-7.88,2.41l-.22,3.06,1.75,3.29L313.9-.32Z"/><path id="Path_950" data-name="Path 950" class="cls-18" d="M285,9.09s-3.07,2.19-1.53,4.37,8.32,12.26,14.66,13.14a106.29,106.29,0,0,0,12.6.9l2-3.36,3.78.28s5.09-6.35,6.18-12.7-3.29-18.6-4.16-18.38c-.45.11-2.18.8-3.75,1.45a8.06,8.06,0,0,0-4.16,3.87l-.4.81S306,4.5,291.8,6.25A66.17,66.17,0,0,0,285,9.09Z"/><path id="Path_951" data-name="Path 951" class="cls-24" d="M292-.11s5.26,20.8,13.14,23.43,10.07-1.76,9.85-4.16.88-12-7.88-21.89-8.75,2.4-12.48,2S292-.11,292-.11Z"/><path id="Path_952" data-name="Path 952" class="cls-17" d="M331.34,55.25s1.42,1.14,4.42-3.86,3.28-14.12,6.85-15.12,13.27-1.86,15-1.15,9.28-.85,9.57-1.71,1.57-.57,1.57-.57l-2.29-1.42L345.75,31l-8.17,3.85-5.1,16s0,1.71-1,2.15l-1,.42Z"/><path id="Path_953" data-name="Path 953" class="cls-30" d="M330.1,53.09s1.23,2.16,1.09-4.84,9.14-20.12,13.42-18.55c0,0,16.7-.14,21.83,1.71s-13,1.71-13,1.71-10.28-2-12.28.86-6.7,12.7-6.85,14.41-.85,4.71-1.85,5.28S330.1,53.09,330.1,53.09Z"/></g></g></g></g></g></g></svg>