<?xml version="1.0" encoding="utf-8"?>
<!-- Generator: Adobe Illustrator 23.0.0, SVG Export Plug-In . SVG Version: 6.00 Build 0)  -->
<svg version="1.1" id="Layer_1" xmlns="http://www.w3.org/2000/svg" xmlns:xlink="http://www.w3.org/1999/xlink" x="0px" y="0px"
	 viewBox="0 0 338.7 282.5" style="enable-background:new 0 0 338.7 282.5;" xml:space="preserve">
<style type="text/css">
	.st0{fill:#FFFFFF;}
	.st1{enable-background:new    ;}
	.st2{fill:none;stroke:#F09D28;stroke-width:5;}
	.st3{clip-path:url(#SVGID_2_);}
	.st4{clip-path:url(#SVGID_4_);}
	.st5{fill:#798D9F;}
	.st6{fill:#E6E7E8;}
	.st7{fill:#F1F2F2;}
	.st8{fill:#BCC6CF;}
	.st9{fill:#FEF3F0;}
	.st10{fill:#D1D3D4;}
	.st11{fill:#F6C47E;}
	.st12{fill:#5A8B67;}
	.st13{fill:#475563;}
	.st14{fill:#F09D28;}
	.st15{fill:#E2E2E1;}
	.st16{fill:#DDD7CB;}
	.st17{fill:#DADDE0;}
	.st18{fill:none;}
	.st19{fill:#F9D8A9;}
	.st20{fill:#F15A29;}
	.st21{fill:#F79C7F;}
	.st22{fill:#577187;}
	.st23{fill:#808080;}
	.st24{fill:#C62527;}
	.st25{fill:#FAC4B2;}
	.st26{fill:#BE1E2D;}
	.st27{fill:#9199A1;}
</style>
<title>about</title>
<g id="Group_357">
	<path id="Exclusion_1" class="st0" d="M340,280H0V0.8h176.8c-2.4,2.2-5.2,4-8.1,5.3c-2.6,1.2-5,2.8-7.2,4.7
		c-2.2,2.3-3.4,5.4-3.3,8.6c0,3,0.4,5.9,1.1,8.8c0.5,2.1,0.8,4.3,0.9,6.4c0.1,2.2-0.5,4.3-1.6,6.1h-0.5c-1.9,0-3.7,0.6-5.3,1.6
		c-1.6,1-3.1,2-4.6,3.2c-2.1,1.7-3.7,2.8-5.5,2.8c-0.8,0-1.5-0.2-2.2-0.6c-2.8-1.4-4.7-5.2-5.5-10.9c-0.3-1.1-0.8-2.1-1.4-3.1
		c-0.9-1.4-2.4-3.1-4.5-3.1c-1.8,0-3.8,1.1-5.9,3.4c-1.9,2-2.4,4.9-3.1,8.7c-0.5,3-1.2,5.9-2.1,8.8c-1.3,3.8-3.1,7.4-5.3,10.7
		c-0.9,1.1-1.8,2.2-2.8,3.2c-2.5,2.6-4.9,5-2.7,8c1.4,2,3.7,3.2,6.1,3.2c1.7,0,3.3-0.6,4.6-1.6c-0.5,1.1-1,2.2-1.3,3.3
		c-1.5,1-3,2.3-4.3,3.6c-0.9,0.6-1.7,1.3-2.4,2.1c-0.6,0.7-1,1.5-1.2,2.4c-0.2,1-0.1,2.1,0.3,3.1c0.7,1.5,2,2.2,4.1,2.2
		c0.9,0,1.9-0.1,2.8-0.4c0.4,1,0.8,1.9,1.4,2.8c-5.8,4.9-10.1,9.4-11,11.4c-1,2.2-1.2,5.9,0.2,7.9c0.5,0.9,1.4,1.4,2.4,1.4
		c0.5,0,1-0.1,1.4-0.3c3.6-1.2,10.6-8.1,14.5-12c-0.1,2.4,0,4.7,0.4,7.1c-0.3-0.9-0.5-1.8-0.6-2.7c-3.2,2.2-6.1,4.9-8.5,8
		c-2.2,2.8-4,6-5.2,9.4c-1.3,4-1.6,8.3-0.9,12.5c1,5.4,3.1,10.5,6.2,15c2.8,4,5.9,7.8,9.3,11.4c3.8,4.1,7,7.7,8.3,11.3
		c1,2.7,2.1,5.3,3.3,7.8l-1.1-1.6c-2.1-1.4-4.2-2.6-6.5-3.6c-3.4-1.7-8.4-3.6-12.6-3.6c-0.4,0-0.8,0-1.2,0c-0.3,0-0.7,0-1,0
		c-1.8,0-3.6-0.5-5.2-1.4c-1.4-0.8-2.8-1.8-3.9-3c-1.3-1.3-2.4-2.8-3.3-4.3c0,1.4,0.3,2.7,0.7,4c0.4,1.1,1,2.2,1.8,3.1
		c0.9,1.1,2.1,1.9,3.4,2.3c2.6,0.7,5.3,1,8.1,1.2c7.4,0.7,16.6,1.5,18.7,6.7c1.1,2.5,2.4,5.9,3.6,9.1c2.4,6.4,5,13,5.8,13l0,0
		c0.2,0,0.3-0.2,0.4-0.3c0.3-0.7,0.1-2.7-0.7-5.3c-0.6-2-1.4-3.8-2.4-5.6c-0.7-1.1-1-2.4-0.9-3.6c3.7,6.8,8.1,13.1,13.2,18.9
		c5.9,6.5,11.8,10.5,17.5,11.9c5.1,1.3,11.3,3.8,17.9,6.4c12.1,4.9,25.9,10.4,37.5,10.4c2.3,0,4.6-0.2,6.8-0.8
		c2.1-0.5,4.2-1.3,6.1-2.5c1.8-1.1,3.9-1.6,6-1.6h0.6c3.6,0.2,10.1,0.6,20.7,1.7c0.8,0.1,1.6,0.1,2.4,0.1c3.7,0.1,7.3-1,10.3-3.1
		c2.4-1.8,4.4-3.9,6.2-6.2c1.7-2.1,3.2-3.9,4.8-4.4c2.3-0.9,4.6-2.1,6.7-3.4l1-0.6c-0.5,0.9-0.8,1.4-0.8,1.4s0,1.8,1.2,2.4
		c0.1,0,0.2,0.1,0.3,0.1c0.9,0,2.2-1.4,3.6-2.8c0.6-0.6,1.2-1.2,1.9-1.8c0.7-0.9,1.2-2,1.4-3.2c0.8-0.3,1.6-0.6,2.5-0.9
		c1.3-0.4,2.6-0.9,3.8-1.5c-4.3,6.4-9.3,12.4-14.9,17.7c2.7,0,5.5-1.5,8.6-4.4c3-3,5.6-6.4,7.7-10c4.1-2.6,13.9-10,14-10.1l3-8.7
		c3.2-2.8,5.2-7,8.6-13.8l0.7-1.5L340,280L340,280z M106,91.7c-1,0-2,0.4-2.8,1.1c-2.9,2.7-2.6,3.6-2,5.4c0.1,0.2,0.1,0.4,0.2,0.6
		c0.4,1.4,2.3,3.5,4.2,3.5c1.1,0,2.6-0.7,3.6-4c0.5-1.3,0.6-2.7,0.3-4c-0.2-0.8-0.8-1.5-1.5-2C107.4,91.9,106.7,91.7,106,91.7z
		 M315.5,210.3L315.5,210.3c0.6-1.1,1.3-2.3,1.9-3.4c2.6-2,5.1-4.3,7.4-6.7c-1.4,2.4-3.2,4.7-5.3,6.6
		C317.9,208.1,316.6,209.3,315.5,210.3L315.5,210.3z M340,179.3V0.8H176.8c0.5-0.4,0.9-0.9,1.3-1.4c1.4-1.6,2.2-3.6,2.3-5.7
		c0-2-0.3-4-0.9-6c-1.2-5.4-2.8-12,3.2-22.2c2.9-5,7.1-7.5,12.6-7.5c3.6,0.1,7.1,0.9,10.3,2.4c4,1.8,7.8,4,11.3,6.5
		c5.6,4.1,10.7,6.1,15,6.1c2.4,0,4.7-0.7,6.6-2.1c2.1-1.6,3.8-3.6,4.9-6c3.6-7.1,4.3-10.3,4.9-12.7c0.5-2.6,1.6-5,3.2-7.1
		c0.8-1.2,1.5-2.3,2.1-3.4c0.8-1.7,1.9-3.2,3.3-4.4c1.5-1.1,3.3-1.6,6-1.6c2.9,0.1,5.7,0.4,8.5,1c3.3,0.5,6.1,2.4,7.8,5.3
		c1.3,2.4,2.1,5,2.3,7.7c0.2,2.7,0.2,5.5-0.2,8.2c-0.4,3.1-1,6.2-1.9,9.2c-0.8,17,9.2,22.1,15.3,23.6c1.1,0.3,2.2,0.4,3.3,0.4
		c4.8,0,10-2.4,15.4-7.2c4.7-4.3,8.9-9.1,12.4-14.5c3.4-4.9,8.9-7.3,16.9-7.3c6.2,0,13.1,1.4,19.1,2.7h0.1c2.1,0.4,4.1,1.5,5.5,3.1
		c1.6,1.9,2.7,4.1,3.2,6.5c1.6,5.5,2.2,13.3,3.1,24c0.6,7.8,1.4,16.7,2.7,27.2c1.1,8.4,1.4,17,1,25.5c-0.3,6.7-1.5,13.4-3.4,19.9
		c3.2,1.4,4.4,5.4,3.5,12.1c-0.6,5.2-2.5,12.1-5.6,20.3c0.1,4.7-0.4,9.4-1.6,14c-0.9,3.2-4,10.4-9.2,20.8
		c-4.1,8.2-9.5,18.6-14.8,28.4l-0.6,1.1l0,0v0.1c2.9-1.1,6-1.7,9.1-1.8c5.1,0,10,2.1,13.3,6c0,0,1.5,2.7,1.1,3.3
		c-0.1,0.1-0.2,0.1-0.3,0.1c-0.5-0.1-1-0.4-1.5-0.8c-2.3-1.7-8-5.7-10.4-5.7c-0.2,0-0.3,0-0.5,0.1c-0.3,0.1-0.8,0.2-1.4,0.4
		c-3.3,0.9-10.1,2.8-11.9,5.6c-0.6,0.8-1.4,1.5-2.3,1.9L340,179.3L340,179.3z M189.5,152.8c-2.9-1.5-4.9-4.2-5.7-7.3
		c0.3,0.8,0.7,1.5,1.3,2.1c0.9,0.9,1.7,1.8,2.4,2.8C188.2,151.2,188.8,152,189.5,152.8L189.5,152.8z M163.1,131
		c-0.4,0-0.8-0.1-1.1-0.2l1.8,0.1C163.5,131,163.3,131,163.1,131L163.1,131z M132.7-4.7h-0.4c-2.8,0-5.6-0.6-8.2-1.6l26.6-8
		c-1,2.5-3.6,4.9-7.2,6.8C140.1-5.7,136.4-4.7,132.7-4.7z M132.8-10c-4.5,0-8.8-1.8-12-4.9c-6.6-6.5-6.6-17.1-0.2-23.6l0.2-0.2
		c6.7-6.6,17.3-6.6,24,0c6.6,6.5,6.7,17,0.2,23.6c0,0,0,0,0,0l-0.1,0.1C141.7-11.8,137.3-10,132.8-10L132.8-10z M117.3-10.1
		L117.3-10.1c-1.8-1-3.9-3.8-5.5-7.5s-2.3-7.2-2-9.3L117.3-10.1L117.3-10.1z M154.4-22.5L154.4-22.5l-3.7-17.4
		c2.7,3.8,4.1,8.3,4.1,12.9C154.8-25.4,154.7-23.9,154.4-22.5L154.4-22.5z M111.8-35.9L111.8-35.9c1.5-3.7,3.9-7,7.1-9.4L111.8-35.9
		z M146.5-44.4L146.5-44.4l-19.9-4.1c1.9-0.5,3.8-0.7,5.7-0.7C134.9-49.2,143-48.1,146.5-44.4L146.5-44.4z"/>
	<g id="ABOUT">
		<g class="st1">
			<path d="M28.2,234.5h2.5l5.2,12.5h-3l-0.8-2.1h-5.2L26,247h-3L28.2,234.5z M31.3,242.7l-1.8-4.6l-1.8,4.6H31.3z"/>
			<path d="M37.3,234.5h5c2,0,3.6,1.4,3.6,3.2c0,1.2-0.6,2.2-1.6,2.5c1.7,0.3,2.5,1.5,2.5,3.1c0,2.1-1.6,3.7-3.8,3.7h-5.7V234.5z
				 M41.9,239.5c0.8,0,1.4-0.6,1.4-1.3c0-0.7-0.6-1.3-1.3-1.3h-1.8v2.6H41.9z M42.5,244.6c0.9,0,1.6-0.7,1.6-1.5
				c0-0.8-0.7-1.5-1.6-1.5h-2.4v3H42.5z"/>
			<path d="M54.7,234.3c3.7,0,6.7,2.9,6.7,6.5c0,3.7-3,6.5-6.7,6.5c-3.7,0-6.7-2.8-6.7-6.5C48,237.1,51,234.3,54.7,234.3z
				 M54.7,244.8c2.2,0,3.9-1.8,3.9-4c0-2.2-1.7-4-3.9-4s-3.9,1.8-3.9,4C50.8,243,52.5,244.8,54.7,244.8z"/>
			<path d="M63.2,234.5h2.8v7.2c0,2.2,1,3,2.6,3c1.5,0,2.6-0.8,2.6-3v-7.2h2.8v7.5c0,3.5-2.4,5.3-5.3,5.3c-2.9,0-5.3-1.7-5.3-5.3
				V234.5z"/>
		</g>
		<g class="st1">
			<path d="M78.6,237h-3.4v-2.5h9.5v2.5h-3.3v10h-2.8V237z"/>
		</g>
	</g>
	<line id="Line_13" class="st2" x1="0" y1="280" x2="340" y2="280"/>
	<g>
		<defs>
			<rect id="SVGID_1_" x="61.5" y="0" width="276.8" height="252.4"/>
		</defs>
		<clipPath id="SVGID_2_">
			<use xlink:href="#SVGID_1_"  style="overflow:visible;"/>
		</clipPath>
		<g class="st3">
			<g id="Mask_Group_7">
				<g id="Group_305">
					<g id="bckg">
						<g>
							<defs>
								<rect id="SVGID_3_" x="119.9" y="-68.3" width="252.7" height="175.2"/>
							</defs>
							<clipPath id="SVGID_4_">
								<use xlink:href="#SVGID_3_"  style="overflow:visible;"/>
							</clipPath>
							<g class="st4">
								<g id="Repeat_Grid_8">
									<path id="Path_867" class="st5" d="M281.4-18.7c-21.9-15.9-43.1-21.2-54-2.4c-16.9,29.2,4.2,40.1-7.3,54
										c-11.2,13.6-31,11.5-31.6,32.2s16.4,33.4-23.7,51.6c-13.1,6-24.9,9.1-34.6,26.1c-15.3,26.9-16.8,43.2,17.7,61.9
										s236.7,23.6,250-3.1c0,0,156.8,44.4,136-126.3c-7.7-63.3-3-92.9-23.1-97.1s-45.5-9.7-57.1,7.3s-30.7,38.6-49.2,34
										c-12.1-3-25.5-12.7-24.3-37.6c0,0,13.4-43.6-12.8-48.6c-25.5-4.9-23.7,1.8-31.6,13.3c-7.7,11.2-1.8,9.7-12.7,31.6
										C315.7-6.4,301.5-4.1,281.4-18.7z"/>
								</g>
							</g>
						</g>
						<path id="Path_868" class="st6" d="M117.7,54.2c-2.6,3.8-8.3,6.8-5.3,10.8s8.1,4.3,11.8,0.2s19.9-10.8,24.2-8.6
							s26.7,12.1,33.5,11.6s17.1-9.6,22.9-8.1s9.8,6.6,16.1,2s9.3-5,7.3-11.1s-10.8-7.3-14.4-5.8c-1.6,0.6-3.3,1.2-5,1.6
							c-8.9,2.4-18.4,2-27.1-1.2c-5.7-2.1-11.2-4.6-12.2-6.7c-2.3-4.5-7.6-7.6-13.4-4s-7.8,7.3-11.9,5.3s-5-8.8-5.3-10.6
							c0,0-3.1-11.5-11.3-2.8C123.5,31.5,126.6,41.3,117.7,54.2z"/>
						<g id="Group_258">
							<path id="Path_869" class="st7" d="M296,8.4c-1.4,0.2-2.7,0.5-4.1,0.9c-6.4,2-21.6,7.6-19.1,15.7c3.2,10.1,18.5,3.1,26.9,2.5
								c9.2-0.6,29.1,6.3,33.6-4.4s0.7-19.3,13-21.5c13.9-2.5,20-16.1,17.7-20.9c-1.5-3.1-11.7-17.1-20-10.8s-9.8,21.9-20.6,19.6
								s-17.7-2.2-20.3,7C300.9,4.8,299.7,7.9,296,8.4z"/>
							<path id="Path_871" class="st8" d="M168.6,28.7c2.7-10-0.4-23.3,14.5-27c9.8-2.4,7.1-10.6,12.9-17.9
								c12-15.1,20.3-11.3,24.1-11c4.3,0.2,12.8,8.4,32.1-3.3c9.5-5.8,14.1-21.9,19.8-18.6s3.5,29.4-10.8,32.4
								c-31.8,6.7-29.1,6.3-42.2,16.3c-18,13.8-22.6,27.6-26.4,29.1s-22.4,13.1-24.4,0.5C168.4,29.1,168.6,28.9,168.6,28.7z"/>
							<path id="Path_872" class="st9" d="M182.1,13.3c-0.3,0.5-0.5,1.1-0.7,1.6c-1.1,3.2-2.8,6.2-5,8.8c-2.1,2.6-1.3,5.8,2,4.5
								S198,10.1,200,8.1c2.2-2.2,11-14.7,19.4-17.1c24-6.9,2.6-12.7-6.3-9.4c-0.1,0.1-0.2,0.1-0.3,0.2c-10.8,5.4-10.5,15.8-15,19.1
								C192.5,4.7,187.1,4,182.1,13.3z"/>
							<path id="Path_873" class="st10" d="M239.7,6.7c3.3-5,7.7-9.3,12.8-12.4c6.4-3.9,14.6-7.9,18.8-5.8c7.5,3.7-7.7,9-5.8,8.3
								c2.9-1.1-8.8,0.9-16.7,11.8c-5.7,7.8-15.7,16.3-21.3,16.1c-7.2-0.3-9.5-0.9-15.5-0.6c-3.6,0.2-5.8,0-7.8-2
								c-2.8-2.8,9.7-5.5,14.1-5.5s8.1-0.6,14.4-2.9C234.4,13.3,237.4,10.3,239.7,6.7z"/>
							<path id="Path_874" class="st7" d="M213.8,8.1c-1.7,1.6-0.9,5.5,2,5.5s15.2-3.2,19-8.9s10.7-10.9,12.1-11.5s3.5-6.3,0.6-5.2
								S230.8-7.7,213.8,8.1z"/>
						</g>
						<g id="Group_259">
							<path id="Path_875" class="st11" d="M111.5,96.2c-1.5,3.4-1,10.5,3.9,8.8S132,90.6,132,90.6s20.5-19,49-15.1
								c0,0,11.2-1.9,13.9-21.4s23.9-13.6,23.9-13.6s7.6-0.2,2.4-7.3c0,0-13.6-4.4-22.4,1.5S184.1,57,184.1,58.2
								s-4.2,11.4-17.1,13.9s-20-0.7-27.5,1.5S113.4,91.9,111.5,96.2z"/>
							<path id="Path_876" class="st11" d="M108.8,83.9c1.3-1.2,3.2-1.4,4.7-0.5c1.3,0.8,2.2,2.5,1.2,5.8c-2.2,7.1-6.9,2.7-7.6,0.5
								S105.8,86.7,108.8,83.9z"/>
							<path id="Path_877" class="st11" d="M117.3,73.3c0,0-5.1,2.9-3.2,7.3s9.7,1,10.5,0s9.3-10.5,13.9-11c4.4-0.5,30.7,0,35.5-7.7
								c0.6-1,1.3-1.9,2-2.8c2.1-2.4,5.8-7.5,5.1-14.1c-1-9.2-7-3.8-7.3-1.5c-0.5,3.4-4.9,11.7-5.6,11.7s-8,7.3-30.4,8.3
								C137.8,63.6,125.1,65.1,117.3,73.3z"/>
							<path id="Path_878" class="st11" d="M181.4,30.2c-1.1,0.7-2,1.6-2.7,2.7c-0.7,1.2-1.2,2.8,0.2,3.7c2.7,1.7,7.1,2.9,9.7-1.5
								s-2.4-7.5-4.4-6.6C183.3,29,182.2,29.7,181.4,30.2z"/>
							<path id="Path_879" class="st11" d="M227.9,33.9c0,0-4.9,2.2-1.9,8s10-2,8-3.9C234,38,233.3,32.4,227.9,33.9z"/>
						</g>
						<path id="Path_880" class="st12" d="M233.8,111.6c0,0,11-39.8,23.9-36c11.5,3.4,9.5,11,15.2,10.6s18.6-52.3,34.9-46.6
							c10,3.5,36.7,29.1,54.2,23.6c26.8-8.4-4.9,54.4-4.9,54.4L327,131.3l-88.3,8.3L233.8,111.6z"/>
					</g>
					<g id="ducklft">
						<path id="Path_881" class="st7" d="M131.8,81.6c0,0-6.1,14.4,1,27.7s69.1,18.6,83.1-2.4l-52-12.9l-10.8-16l-15.3,1.7
							L131.8,81.6z"/>
						<path id="Path_882" class="st13" d="M167.8,68.4c1-0.7,1.6-1.7,1.7-2.9c0.4-2.2-2.3-7.2-5.3-9.3s-7.9-5.8-18.4-0.7
							c0,0-9,5-12.8,18.5c-0.4,0.3-0.8,0.7-1.2,1.1c-0.4,0.5-0.4,5.7,0,6.5s3.1,0,2.6,4.1s-0.8,5.8,2.5,4.5c0,0,1,0.6,1-3.4
							s1.3-3.9,1.3-3.9s8.8-7.9,13.8-2.1s5.1,10.4,9.2,15s13.7,7.3,16.4,7.1s4.4,3.2,6,5.1s22.9,6.8,30.1,0.9s11.2-38.5,11.2-38.5
							s0-9.5-8.3-2.5c-5.4,4.7-11.6,8.3-18.4,10.5c-4.4,1.6-18.3-0.3-18.3-0.3L168,74.3L167.8,68.4z"/>
						<path id="Path_883" class="st14" d="M157.6,68.5l-0.6,0.6c-0.8,0.9-1.4,2-1.5,3.2l-0.1,1.3c-0.1,1.2,0.1,2.4,0.7,3.4l0,0
							c0.6,1,1.4,1.8,2.4,2.3c0.9,0.5,1.8,0.9,2.8,1.1l18.4-0.2c0.6,0,1.6-1.9,1.1-2.3c-1.4-1.2-5.1-3.8-6.4-4.6
							c-0.2-0.1-0.4-0.2-0.6-0.4l-4.5-3.6c-0.2-0.2-0.5-0.4-0.8-0.5c-0.6-0.3-1.8-1.1-1.2-1.5s-3.3-0.7-6.1-0.5
							C159.9,66.9,158.6,67.5,157.6,68.5z"/>
						<path id="Path_884" class="st15" d="M131.4,79.9c0,0,1.7,2.7,4.8-6.1c0,0,5.6-9.1,9.2-7.5s-0.1-4.7-0.1-4.7s-3.9,0-4.5,1.1
							s-5.9,9.9-7.3,9.7L133,74l-1.2,1.1L131.4,79.9z"/>
						<path id="Path_885" class="st16" d="M155.9,70.7c0,0-1.7-1.5-2.5-0.9s-5.5,2.5-8-3.5c0,0-1.6,1.1-1.9-3.5
							c-0.3-0.5-0.9-0.8-1.5-0.8c-0.9,0.1,8.4-4.8,12.7-0.4s4.1,5.7,4.1,5.7C157.7,68.3,156.7,69.5,155.9,70.7z"/>
						<path id="Path_886" class="st13" d="M150.4,63.8c-0.5,0-0.9,0.5-0.9,1c0,0,0,0,0,0l0,0c0.1,1.5,0.7,4.3,4,3.4
							c0.7-0.2,1.2-0.9,1.1-1.6c-0.1-1.3-1-2.3-2.2-2.5C151.8,63.9,151.1,63.8,150.4,63.8z"/>
						<path id="Path_887" class="st17" d="M132.5,93.9c0,0-0.9-3.2-1.6-0.5s0.4,4.8,1.1,3.7C132.4,96.1,132.5,95,132.5,93.9z"/>
						<path id="Path_888" class="st17" d="M136.6,95.3c0,0-0.5,9.6,3.1,11.2s2-3.2,2-3.2c-1-2.6-1.8-5.2-2.4-7.9
							C138.9,93,136.6,95.3,136.6,95.3z"/>
						<path id="Path_889" class="st17" d="M143.5,96c0,0-3.6-8.9-1.2-9.1s3.2,3.9,3.5,4.9s2.7,5.6,1.1,5.7S143.5,96,143.5,96z"/>
						<path id="Path_890" class="st17" d="M151.1,92.3c0.5,1.6-0.1,3.2,1.7,4s1.5-2.9,1.2-3.6s-1.9-3.3-2.4-2.5
							C151.3,90.8,151.1,91.5,151.1,92.3z"/>
						<path id="Path_891" class="st17" d="M142.3,108c0.1,1.3,0.3,3.1,1.6,2.7s2.1-2.1,1.3-2.8S142.3,108,142.3,108z"/>
						<path id="Path_892" class="st17" d="M150.6,101.9c0,0,4,9.9,7.6,9.3s1.6-3.3,0.8-3.7s-5.1-3.3-5.5-4.3s-1.3-4.4-2-3.7
							S149.9,100.7,150.6,101.9z"/>
					</g>
					<g id="kackavpravo">
						<path id="Path_898" class="st7" d="M199.6,100c0,0-5.7,5.2-5.6,6.5c0,0.9-0.4,1.8-1.2,2.3l-0.1-2.9c0,0-1.5,4-1.6,4.6
							s1,2.1-0.6,3.4s-6.8,9.9-6.2,13c0.6,3.1,1.6,8.7,3.2,10.2s6.8,9.1,8.8,9s78.6,23.8,92.6-17c0,0,2.6-12.4-0.4-16.4
							c-2.2-2.9-2.9-6.7-2-10.2c0.4-1.5-2.8-6.8-4.1-6.3s-3.9,6.3-3.9,6.3s-2.9,6.4-3.7,6.6s-38.3-11.3-38.3-11.3L199.6,100z"/>
						<path id="Path_899" class="st13" d="M239.4,94.9c0,0,2.8,5,5.8,4.5s6.4-2.2,8.9-0.9s8.7,5.3,10.7,5.5s6.2,0.6,7.3,1.1l4,2
							c0,0-4.2,12.4-17.6,11.3c0,0-8.2,8.7-16.4,1.8c0,0-10.6,4-14.6-4.6s-5.3-10-5.3-10l0.5-4.5L239.4,94.9z"/>
						<path id="Path_900" class="st18" d="M215.2,93.4c0,0-3.1,0.9-2.5,2.4s2.6,3.8,3.5,3.8s5.3,2.3,5.3,2.3l7.2-3.4l0.9-6l-3.5-5.2
							l-5.4-3.7L215.2,93.4z"/>
						<path id="Path_901" class="st19" d="M201.7,78.4l1.3,19.9l19.7,2.8l10.3-7.3c0,0-7.5-16.7-7.5-17.2S201.7,78.4,201.7,78.4z"/>
						<path id="Path_902" class="st20" d="M192.9,108.9c0,0,1.3,3.2,4-0.4s5.1-6,4.6-2.2s1.8,7.7,3.6,5.1s4.6-3.1,5.1-0.9
							s3.5,4.9,4.9,1.3s3.8-0.9,4.9,1.1s4.2,3.1,4.4,1.5s2-1.1,2-1.1l-0.7-7.8L218,101h-7.6l-6.5-3.9l-4.3,2.9c0,0-5.4,4.7-5.6,6.5
							C194,107.4,193.6,108.3,192.9,108.9z"/>
						<path id="Path_903" class="st21" d="M200.7,97.4c0,0-1.8,4.3,0.4,5s5.2-3.4,6.3-1.8s0.9,5.4,2.9,5s3.5-3.7,5-2.9
							s2.6,5.9,5,4.6s5.4-3.4,5.3-5.6s3.1,2.7,4.1,2.7s3.4-1.6,2.6-3.8s3.7,1.3,4.3,0.3c1-1.6,0.9-3.6-0.4-5c-1.8-2.2,2.6,1,3.1-0.9
							s0.1-3.1-0.4-3.5s-4.3-4.7-4.3-4.7s-6.3,11.2-7.4,11.6s-10.6,1.6-12.1,1.3s-8.4-0.7-9.3-2.1c-0.8-0.9-1.8-1.7-2.9-2.1
							L200.7,97.4z"/>
						<path id="Path_904" class="st14" d="M199.5,85.5c0,0-4.9,7.1-11.2,8.8s-0.9,3.7-0.9,3.7s14.7-0.3,16.5-0.9s2.4-2.5,0.6-2.8
							s-1.2-2.7-0.3-2.9s2.5-2.8,1.2-3.2s-1.9-2.3-1.9-2.3L199.5,85.5z"/>
						<path id="Path_905" class="st0" d="M210.1,77.5c0,0-0.6,3.5-1.9,5.3s-1.6,4,0.6,6.8s7.1,5.3,10.2,3.1s2.9-4.9,3.5-4.6
							s1.9-1.2,1.5,1.6s-3.7,3.3-3.8,4.3s-0.3,2.8,0.7,2.1s4.1-4,5.1-4s0.1,2.5,1.2,3.1s2.4,1.8,3,0.6s2.9-4,2.4-5.4s-4.3-9-4.3-9
							l-11.5-8L210.1,77.5z"/>
						<path id="Path_906" class="st13" d="M216.5,84.1c-1.3-0.8-2.9-0.3-3.7,1c-0.3,0.6-0.5,1.3-0.3,2l0.1,0.2
							c0.6,1.9,4.3,1.6,4.3,0.9S218,85,216.5,84.1L216.5,84.1z"/>
						<path id="Path_907" class="st22" d="M198.5,81.8c0,0-0.3,4.9,1.6,4.9s4.4,0.3,5.4-3.4s6-6.2,7.5-6s5-1.5,9.3,4.1
							s10,9.6,12.4,9.3s7.2-2.9,6.6-4.3s-1.5,1.3-4.6-0.7s-5.3-9-8.1-10.8s-2.8-5.6-14.7-5.9S198.5,81.8,198.5,81.8z"/>
						<path id="Path_908" class="st23" d="M243,101.2l12,4l-4.7,1.1l2,6.2l-12,1.6l-6.7-3.1l3.6,4.6c0,0-1.6,2.9-4.4,1.3
							s-5.6-7.3-5.1-8.9c0.9-1.9,3.2-2.7,5.1-1.8c0,0,0,0,0,0l0,0c1.8,1.1,5.1,2.2,5.5,0.2s-2.2-6.6-0.4-5.8s4.6,3.4,4.7,2.7
							c0-0.4-0.1-0.8-0.3-1.2c-0.2-0.3-0.1-0.6,0.2-0.8C242.7,101.1,242.8,101.1,243,101.2z"/>
						<path id="Path_909" class="st22" d="M232,111c0,0,1.8,6.3,7.7,6s9.9,2.8,12.3-0.2s6.7-3.1,7.8-2.4s2.9-1.5,2.9-1.5
							s-1.6-7.3-3.8-7.3c-0.8,0-3.1-0.4-5.5-0.7c-4-0.6-8.5-1-8.8,0.3c-0.6,2.2,6.9,3.1,5.6,5.5s-7.6,2.7-8.7,1.1s-5.6-4-6.6-3.6
							S232.4,107.4,232,111z"/>
						<path id="Path_910" class="st17" d="M257.7,111.5c0,0,8.6,3.6,11.3,0.6l2.7-3.1c0,0-10-0.7-12.9-1.1s-6.2-1.1-4.9,0.6
							C255,109.7,256.3,110.7,257.7,111.5z"/>
						<path id="Path_911" class="st17" d="M202.6,124.8c-0.6,0.2-0.9,0.8-0.9,1.4c0.2,1.9,0.9,6.7,3.4,7.6c3.1,1.1,6-1.3,4-2.9
							s-5.3-1.6-5.3-3.6C203.8,125.6,203.5,124.5,202.6,124.8z"/>
						<path id="Path_912" class="st17" d="M201.1,119.4c-1.2,1.2-0.6,2.9,1.3,3.4s2.6-1.6,2.2-2.9S201.6,118.8,201.1,119.4z"/>
						<path id="Path_913" class="st17" d="M198.2,133.6c1.3,0.8,2.4,0.6,2.6,1.6s-2.2,2.6-3.5,2.4s-1.3-2.9-1.3-2.9
							S196.9,132.9,198.2,133.6z"/>
						<path id="Path_914" class="st17" d="M191.1,121.9c0,0-1.3,7.3,0.7,8.6s4.6,1.3,3.8-0.7c-0.7-2-1.6-4-1.5-5.6
							c0.1-0.6-0.1-4.8,0-5.6s-0.7-0.6-1.4,0c-0.2,0.2-0.4,0.4-0.6,0.5L191.1,121.9z"/>
					</g>
					<g id="kvt">
						<path id="Path_915" class="st24" d="M129.2,97.6c0,0-17.2,11.1-14,29s19.7,27.5,22.9,36.5s18,39.7,36.2,44.3
							c17.4,4.4,48.3,23.9,65.7,13.3c1.9-1.2,4.2-1.7,6.4-1.6c3.6,0.2,9.9,0.6,19.9,1.7c14.6,1.5,17.8-11.6,22.7-13.4
							s9.5-6.1,17-8.4c10.1-3.2,15.8-12.1,20.5-15.7c5.4-4.2,7-10.9,16-27.7s21.2-40.9,23-47.8s3.1-23.1-2.9-21.6
							s-21.8,13.2-25.8,13.7S289,133.4,267,132.2c-12.9-0.7-19.6,1.4-23,3.3c-2.1,1.1-4.3,2-6.6,2.6c-1.9,0.5-4.3,1.9-6.6,5.4
							c-3.3,4.8-5.3,0.8-5.2-2.5c0.1-1.2-0.9-2.2-2.1-2.3c0,0,0,0,0,0c-0.5,0-1,0.1-1.3,0.4c-1.2,0.9-2.3,2-3.2,3.2
							c-4.6,6.1-7.2,0.6-6.7-2.6c0.7-3.9-2.6-5.2-4.4-1.7s-3.2,5.2-7.5,5.5s-11.9-0.2-14.1-8.8c-2.4-9.3,1.9-10.9-0.8-16.3
							c-2.4-4.8-4.3,3.5-8,0.8c-4.2-3,1.1-5.6-1.9-6.6c-1.8-0.5-3.6,0.3-4.5,1.9c-2.6,4.7-3,7.8-6.6,5.7c-2.1-1.2,2.6-4.9,0.9-7.2
							c-2.6-3.5-9.6,1.4-10.1,4.1s-12.9-1.2-16.6-2.7S128.9,100,129.2,97.6z"/>
						<g id="Group_264">
							<path id="Path_916" class="st20" d="M189.6,202.1c0,0-4.2-5.2-1.8-6.1s8.6,4.8,10.6,6.9s10.9,6.2,14.6,5.9s-4-5.2-4-5.2
								s-29.4-18.4-27.6-21.2c2.1-3.3,16.4,2.7,21.5,3.9c1.3,0.3,7,3.1,10.6,5.8c4.2,3,20.1,3.4,22.1,3.8c3.4,0.6,34.7-0.8,37.1-2.1
								s16.7-7.8,21.2-6.6s4.6-9.4,7.5-10.9s12.4-8.9,15.5-5.3s-1,10.2-1,10.2s-20.7,20.3-24.3,21.9s-31.7,19.3-71.2,11.6
								C220.4,214.6,200.6,213.8,189.6,202.1z"/>
							<path id="Path_917" class="st20" d="M209.5,177.2c0,0,13,0.6,10.1-3.5s-13.9-3.2-11-5.5s5.8,0.6,6.7-0.9s0.6-3.2-1.4-3.5
								s-11.3-1.2-11.3-1.2l-22.3-9.6c0,0-15.6,6.9,2,14.2S209.5,177.2,209.5,177.2z"/>
							<path id="Path_918" class="st13" d="M197.5,184.5c-2.6,0.7-4.2,3.4-3.6,6c0,0.1,0,0.1,0,0.2c0.5,1.6,1.9,3,5.1,3.3
								c8.1,0.6,5.8,4.9,8.4,4.9s9-4.3,14.5-2.3s9.3-2.6,11.9-4.9s5.8,1.2,7.8-1.7s-2-4.9-3.2-3.8c-2.5,2.5-7,1.1-9-1.8
								s-6.1,2.6-14.8-0.3c-2.1-0.7-3.8-4.6-7.2-2.9C204.2,182.6,200.9,183.7,197.5,184.5z"/>
							<g id="Group_262">
								<g id="Group_261">
									<path id="Path_919" class="st14" d="M130.6,143c0,0,13.2,18.4,19.5,19.6s8,1.9,10.2,3.3c2.8,1.7,11.7,13,16.8,11.4
										s2.1-10.6,2.1-10.6l-10.8-17.3l-17.5-3.6l-16.2-9.4L130.6,143z"/>
								</g>
								<path id="Path_920" class="st13" d="M149.6,151.6c0.1-0.1,0.2-0.1,0.3,0c0.1,0,0.1,0.1,0.1,0.2c-0.4,1.7-0.7,3.5-0.8,5.2
									c-0.9,10.9,5.7,2.7,5.7,2.7l4.7,1.1c0.3,0,0.5,0.3,0.4,0.6s-0.3,0.5-0.6,0.4l-2.5-0.1c0,0,8.4,4.5,8.8,5.6
									c0.4,1.3-8.2-5-10.9-5s-5.8,2.5-6.8,4.5c-3.7,7.6-3.8,12-2.3,14.3s4.2,10.7,2.6,10.9c-1.1,0.1-6-14.2-9-21.4
									s-20.1-5.7-25.8-7.6s-5.7-9.1-5.7-9.1s4.9,9.1,12.9,8.4s19.4,7,19.4,7l2.9,4l5.6-11.2c0,0-0.6-7.3-2.9-8.5
									c-0.6-0.3-1.2-0.8-1.7-1.3c-0.2-0.2-0.2-0.5,0-0.7c0.2-0.2,0.5-0.2,0.7,0c0,0,0,0,0,0l3.1,2.9L149.6,151.6z"/>
								<path id="Path_921" class="st13" d="M137.9,144.8c4.1-0.6,9.1,3.4,12.5,4.6c1.2,0.5,2.1,1.4,2.6,2.6
									c1.1,2.2,1.8,4.9,3.5,5.4c2.7,0.8,9.9,0,14.4,1.5s1.1,13.6,3.8,17.8s21.2,5.7,24.6,0s-1.5-9.9-6.8-11.8s1.1-8-2.6-16.7
									s-18.9-6.9-22.7-9.5s-1.9-18.2-6.8-12.9c-4.9,5.3-11.3-1.5-11.3-1.5c-3.4-11-11.4-14.4-16.3-14.6s-4.1,6.9-1.5,12.2
									s-3.1,13.3-4.2,17C129,143.1,133.4,145.5,137.9,144.8z"/>
								<path id="Path_922" class="st22" d="M142.4,145c0,0-6.3-9.9-7.4-15.2c-0.7-3.4,0.8-10.3,1.2-7.4c0.2,1.5-0.9,3.5-0.4,4.1
									l0.6,5.5l2.2,4.1c0.1,0.2,0.4,0.3,0.6,0.2c0.1-0.1,0.2-0.2,0.2-0.4l0.4-8.2l-1.2-2.4c-0.9-1,0.6-0.4,1.4,0.8
									c0.3,0.4,0.5-1.7,0.9-2c0.2-0.2,0.5-0.2,0.7-0.1c0.1,0.1,0.2,0.3,0.2,0.4l-0.6,5.9l1.2-2c0.1-0.4,1.2-1,1.1-0.7l-1.4,2.6
									l3.1-1.7c0.2-0.1,0.4,0,0.5,0.1c0,0,0,0,0,0c0.1,0.1,0,0.3-0.1,0.4l-1.9,1.8l-3.3,1l-0.2,3.2c0,0.6,0.4,1,1,1
									c0.1,0,0.2,0,0.3,0l3.5-1.1l3.2-1.1c0.2-0.1,0.4,0,0.4,0.2c0,0,0,0,0,0c0,0.1,0,0.3-0.1,0.4l-3.4,1.4l1.4,1.3
									c0.1,0.1,0.1,0.4,0,0.5c-0.1,0.1-0.3,0.1-0.4,0l-2.3-1.3l-2,0.6c-0.8,0.2-1.2,1-1,1.8c0,0,0,0,0,0c0,0.1,0,0.1,0,0.2
									l2.9,6.9L142.4,145z"/>
								<path id="Path_923" class="st22" d="M176.7,152.9c0.1-0.3,0.9-1.1,1.7-2.6c0.2-0.3,4.3,1.2,4.6,0.9c0.6-0.8-3.2-1.1-4-1.8
									c-0.5-0.5,1.9-3.6,2-4c0.1-0.2,0-0.5-0.2-0.6c-0.2-0.1-0.4,0-0.5,0.1l-5.2,7.6c-0.2,0.3-0.6,0.3-0.9,0.1c0,0,0,0,0,0
									c-0.1-0.1-0.2-0.2-0.2-0.3l0.9-3.7c-0.1-0.5-0.2-0.3-0.6,0.2l-1.2,3.6c-0.3,1.1-0.8,1.9-1.9,2.1l-1.6,0.3
									c-0.5,0.1-0.9-0.2-1-0.7c0-0.2,0-0.5,0.1-0.6l2.1-2.3c0.1-0.1,0.1-0.2,0-0.3c0,0,0,0,0,0c-0.1-0.1-0.1-0.1-0.2-0.1
									c-0.4,0.2-0.8,0.6-1.1,1c-0.2,0.2-0.4,0.5-0.7,0.6l-1.4,0.9c-0.3,0.3-0.9,0.3-1.2-0.1c0,0,0,0,0,0c-0.2-0.2-0.2-0.5-0.2-0.7
									l0.7-3.4c0.2-0.9,0.8-1.6,1.7-1.8l6.2-1.6c0.2-0.1,0.4-0.1,0.6-0.2c3.4-1.5,4-2.6-0.3-0.5l0,0l-6,1.3
									c-0.7,0.2-1.5-0.3-1.6-1.1c0,0,0,0,0,0c0-0.1,0-0.3,0-0.4l0.1-0.7c0-0.1-0.1-0.2-0.2-0.2c0,0,0,0,0,0c-0.1,0-0.2,0-0.2,0.1
									l-1.4,5.4c-0.1,0.2-0.3,0.4-0.5,0.3c0,0,0,0,0,0c-0.1,0-0.1-0.1-0.2-0.1l-6.1-7.4c-0.3-0.3-1.4-0.5-0.6,0.5l6.2,8.6
									c0.4,0.6,0.4,1.3,0.1,1.9l-0.2,0.3c-0.2,0.5-3.5-1.9-3.7-2.3c0,0-2.9-2.3-2.9-1.8l4.6,4.8c0,0.6-0.2,1.3-0.7,1.7l-1.7,1.3
									c-0.3,0.1-0.6,0.3-0.9,0.4l1.3,0.1h1.4h0.1l8.6-1.1h0.1C171,156.4,176.1,154.4,176.7,152.9z"/>
								<path id="Path_924" class="st22" d="M182,175.5c0.3-0.2,7-0.2,8.4-1c0.3-0.2,2.2,1.3,2.5,1.1c0.9-0.4-1.2-0.7-1.5-1.7
									c-0.2-0.7,2.6-2.1,2.9-2.2c0.4-0.3,1-1,0.5-0.8l-8.4,3.7c-0.3,0.1-0.7,0-0.8-0.4c0,0,0,0,0,0c0-0.1,0-0.3,0-0.4l2.7-2.7
									c0.1-0.5,0-0.4-0.6-0.2l-3,2.5c-0.9,0.8-1.6,1.2-2.7,0.8l-1.5-0.6c-0.4-0.2-0.7-0.7-0.5-1.1c0,0,0,0,0,0
									c0.1-0.2,0.2-0.4,0.4-0.5l3-0.9c0.1,0,0.2-0.2,0.2-0.3c0-0.1-0.1-0.1-0.2-0.2c-0.5,0-1,0.1-1.4,0.3
									c-0.3,0.1-0.6,0.2-0.9,0.2h-1.6c-0.4,0.1-0.9-0.2-1-0.6c0,0,0,0,0-0.1c0-0.3,0-0.5,0.2-0.7l2.4-2.5c0.6-0.6,1.5-0.9,2.4-0.7
									l6.1,1.9c0.2,0.1,0.4,0.1,0.6,0.1c3.6,0.5,4.8-0.1,0-0.6c0,0,0.6-0.8,1.1-1.3c0,0,0-0.1,0-0.1c0,0,0,0,0,0h-0.1l-1.6,1.2
									l-5.2-1.7c-0.9-0.3-2.3-1.4-1.8-2.1l1.1-2.4c1.7-5.4-0.1-0.9-0.3-0.7l-3.5,6.1c-0.5,0.2-1,0.2-1.5,0.2
									c-0.4,0-0.7-0.4-0.7-0.8l0,0l0.1-1.6c0-0.3,1-3.1,0.4-2.4c-2.2,2.6-0.8,7-1.3,7.3l-3.6,1.5v1.2l2.2-1.1
									c0.8-0.4,1.7-0.1,2.1,0.6c1.6,2.5,4.9,7.6,5.3,6.6C183.3,178,180.7,176.4,182,175.5z"/>
							</g>
							<g id="Group_263">
								<path id="Path_925" class="st14" d="M332.5,131.7l1.7,14.5c0,0-13.3,3.4-14.5,6.6s-13.6,11.8-17.6,10.7s4,2.6-12.4,6.4
									s-18.2,7.5-21.4,5.5s-5.5,5.2-11.6,2.3s18.8-23.4,18.8-23.4L332.5,131.7z"/>
								<path id="Path_926" class="st13" d="M260.5,175.2c0,0-26.2,15.6-35.8-2.8c-2-3.8-0.9-8.5,2.5-11.1c2-1.6,3.8-3.3,5.4-5.2
									c1.3-1.5,2.3-3.2,2.9-5.1c1.7-5.3,6.3-17.5,12.6-18.6c8.1-1.4,34.1,1.5,38.2-8.3s7.2-19.9,18.5-15.9s9.8,2.9,14.7-0.3
									s18-21.1,26-13s0.8,22.6,0.8,22.6s-3.5,2-4.1,11.3s2,15.9-8.1,17.3s-14.7-7-25.4-2.1s-8.4,12.4-16.5,15s-16.8-1.8-23.7,6.3
									S260.5,175.2,260.5,175.2z"/>
								<path id="Path_927" class="st13" d="M295.7,205c0,0,14.2-24.8,1.8-35.8c0,0-8.1-2.6-10.1-1.5s-11.3,4-11.3,4s-2.9-0.6,7-4.6
									s-5.5-2.9-5.5-2.9s-5.8-2.6,2-2.3s11.5,5.5,17,4.6s2-12.1,2-12.1s1.8-6.6,2.3,0s0,10.4,1.1,9s1.8-11.8,4.9-11.3
									s5.8,0,5.8-2.9s2-6.4,2.3-4.1s0.3,7.2-2,8.7s-4.9-2.3-5.8,0.9s-0.9,4.3,1.4,3.2s8.1-3.7,8.4-4.9s6.4-4.3,2.6-0.3
									c0,0-11.9,6.1-14.8,9.5s-4.4,5.5-3.5,7.2s4,14.2,3.4,15s4.3,1.5,4.3-0.9s8.1-8.7,9.5-7.2s4.6-6.9,7.8-10.1
									s23.7-19.9,36.7-5.4c0,0,2.9,5.2-0.6,2.6s-8.7-6.1-10.4-5.5s-10.7,2.6-12.7,5.8s-8.4,2-13,11.5s-11,13-12.5,13
									s-8.4-1.5-8.7,0.3s-1.5,13-3.2,14.4s-4.4,4.9-5.5,4.3S295.7,205,295.7,205z"/>
								<path id="Path_928" class="st22" d="M328.3,126c2.6-5.9,2.8-19,0.8-13.9c-1,2.6,0.2,6.7-0.9,7.5l-3.3,9.7l-5.7,6.5
									c-0.3,0.3-0.8,0.4-1.2,0.1c-0.2-0.2-0.3-0.5-0.3-0.8l2.6-15l3.2-3.8c2-1.4-0.8-1.1-2.8,0.9c-0.7,0.7-0.2-3.2-0.7-4
									c-0.2-0.4-0.8-0.6-1.2-0.4c-0.3,0.1-0.4,0.4-0.5,0.7l-1.4,10.8l-1.4-4.2c-0.1-0.7-1.7-2.4-1.8-1.7l1.4,5.2l-4.9-4.3
									c-0.3-0.2-0.7-0.2-0.9,0.1c0,0,0,0,0,0c-0.2,0.2-0.2,0.6,0,0.8l2.8,4l5.5,3.2l-1,5.9c-0.2,1-1.1,1.6-2.1,1.5c0,0,0,0,0,0
									c-0.2,0-0.4-0.1-0.6-0.2l-5.8-3.4l-5.5-3.3c-0.3-0.2-0.7-0.1-0.9,0.2c-0.1,0.2-0.1,0.5,0,0.7l5.5,3.9l-3,1.8
									c-0.3,0.2-0.4,0.6-0.2,0.9c0.2,0.2,0.5,0.4,0.7,0.3l4.6-1.4l3.3,1.8c1.4,0.8,0.1,6.6,0.1,6.6s0.6-0.1,1.2-0.1
									C315.5,142.5,325,133.5,328.3,126z"/>
								<path id="Path_929" class="st22" d="M270.3,145.5c-0.6,0-1-1.2-2-2.9c-0.3-0.5-0.8-6.9-1.8-6.8c-1.6,0.3,0.7,4.2,0.2,5.9
									c-0.4,1.2-4.2-5.3-4.9-5.3c-0.9,0,2.2,5.5,3,5.7l-3.3-0.1c-0.1,0-0.3,0.1-0.3,0.2c0,0.1,0.1,0.2,0.1,0.2
									c1.2,0.6,4.5,0.6,4.5,0.6s2,2.5,3.2,4.1l1.6,2.3c0.5,0.7,0.3,1.6-0.3,2.1c-0.3,0.2-0.7,0.3-1.1,0.3l-4.6-1
									c-0.1,0-0.2,0-0.2,0.1c0,0,0,0,0,0c0,0.1,0,0.1,0.1,0.2c0.5,0.2,1,0.5,1.5,0.9c0.4,0.5-2.7,2.6-1.8,2.9
									c0.5,0.1,2.8-2.6,3.3-2.3l2.4,1.6c0.7,0.3,1,1.2,0.7,1.9c-0.2,0.4-0.5,0.7-1,0.8l-5.9,1.4c-1.5,0.3-3.1-0.1-4.1-1.3
									l-7.1-8.7c-0.2-0.3-0.5-0.5-0.7-0.8c-4.8-4.2-7-4.4-0.5,0.9c0,0-1.7,0.6-2.8,0.9c-0.1,0-0.1,0.1-0.1,0.2
									c0,0.1,0.1,0.1,0.1,0.1l3.4-0.2l5.9,7.5c1,1.3,2.1,4.2,0.5,4.8l-4,2.4c-0.6,0.5-10.7-1.2-11.1-0.8s9.5,2.1,8.8,2.8
									c-10.1,9.2,4.8-2.4,5.2-2.5l7.1-3.3c0.7-0.3,1.5-0.3,2.1,0.1c0.3,0.2,0.7,0.4,1,0.7c0.6,0.4,0.7,1.2,0.3,1.8c0,0,0,0,0,0
									l0,0l-1.7,2.2c-0.3,0.4-4.4,3.5-3,3.1c5.6-1.6,7.9-9.4,9-9.4l8.1,1.4l5.1-0.1l-9.6-2.4c-1.5-0.2-2.6-1.4-2.5-2.9
									c0.1-5.1-1.1-19-3.1-19C268.9,135.7,273.1,145.4,270.3,145.5z"/>
								<path id="Path_930" class="st22" d="M295.6,157.5c-2.3,0-13.5-7.4-13.5-7.4c-0.4-0.2-0.5-1-0.1-0.9l10.7,5.1
									c0.2,0.1,0.4,0,0.5-0.2c0,0,0,0,0,0c0.1-0.1,0.1-0.3,0-0.4L282,134.8c-0.1-0.1-0.1-0.3,0.1-0.4s0.3-0.1,0.4,0.1l8.1,9.3
									c0.3,0.4,0.8,0.4,1.2,0.1c0,0,0,0,0,0c0.1-0.1,0.1-0.1,0.1-0.2l2.1-3.3l-0.9-4.6c0-0.1,0-0.2,0.2-0.3c0,0,0,0,0,0
									c0.1,0,0.2,0,0.3,0.1c0,0,0,0,0,0l0,0l1.2,3.7l2.5-3.3c0.1-0.1,0.4-0.1,0.5,0c0,0,0,0,0,0c0.1,0.1,0.2,0.3,0.1,0.4l-4.9,9.3
									c-0.2,0.4-0.2,0.8,0,1.2l4.3,8.9C297.4,155.9,295.9,157.5,295.6,157.5z"/>
							</g>
						</g>
						<g id="Group_265">
							<path id="Path_932" class="st24" d="M280.9,106.5c-1.1-1.7-1.6-3.7-1.4-5.8c0.2-2.2-0.1-4.5-0.8-6.6l28.9-6.5l-6.1-22.8
								c0,0,0.3,0.9,2,1.4c1,0.3,2.2,0.2,3.1-0.2c0,0,3.6,2.8,5.4,2.5s4-1,4-1c0.9,2.3,1.2,4.8,0.8,7.3c-0.8,3.8-0.6,10.6-4.4,13
								s-10,7.1-10,7.1l-0.1,0.8l-0.3,2.6c0,0-5.6,4-6.7,5.3s-8.2,4.3-10.3,3C283.8,105.8,282.2,105.8,280.9,106.5z"/>
							<path id="Path_933" class="st21" d="M306.6,66c0,0,3.7-7.1,5.4-6c0,0,2.4-1.3,3.3,4c0,0,1.9,3.9,1.3,6s-41.9,36-41.9,36
								s-6.3,0.2-6.7-2.8s3-5.4,3-5.4l4.7-2.8l1.2-3.4l-5.9-2c0,0-7.6-6.7-6.5-8.3s9.7-2.8,9.7-2.8l7.5,0.1l-7.3-6.8
								c0,0-4.7-9.3-3.4-10.1s12.2,3.7,12.2,3.7l5.4,3.4c0,0,0.9-6.4,1.6-8.3s1.1-5,2.2-4.8s5.9,3.6,6.5,4.6s2,2.6,2,2.6l1,4.1
								l3.7,0.4L306.6,66z"/>
							<path id="Path_934" class="st20" d="M280.9,106.5c0,0-4.8,1.1-6.1-0.5s-2-4.1-1.3-4.8s1.2-3.4,0.2-3.9s-0.1-2.2,0.8-2.6
								s0.8-3.6-0.1-3.8s21.8-11.2,24.7-9.7s7.6-15.2,7.6-15.2s2.7-2.6,4.1-1.2c0,0,4.5-0.1,5.1,3.7S314,78.9,314,78.9L280.9,106.5z
								"/>
							<path id="Path_935" class="st14" d="M303.5,95.7c0,0-11.4,6.5-18.7,2.8s-13.5-7.9-13.7-8.9s4.4-1.1,4.2-2.9s4.6-4.6,4.6-4.6
								l11.4-4.8c0,0-1.7-6.8-0.9-7.1s5.4-2.6,5.4-3.6s4.8-3.8,5.1-3.7s1.1,5.1,2.3,5.8s4.1,5.2,4.5,6.8s0.1,8.2,0.8,9.2
								s3.4,3.4,3.4,4.2s-4.6,4.7-4.6,4.7L303.5,95.7z"/>
							<path id="Path_936" class="st20" d="M302.5,94.9c0,0-15.2-3.9-18.8-8.7s-8.3-10.3-9.2-14.5c1.3-0.5,2.4-1.4,3-2.6
								c1.1-2.1,4.5-4.6,5.8-3.8s3.8,2.5,5.4,3.4s6.1,4.6,7.3,6.5s8.4,16,8.5,17.3l0.1,1.3L302.5,94.9z"/>
							<path id="Path_937" class="st25" d="M278.5,79.3c0,0,4.9-2.4,5.8-4.2s6.2-4.9,6.2-4.9s5.5,3.9,6.3,6.3s0,4-1.7,5
								s-5.9,5.1-6.2,6.2s-1.9,1.5-1.9,1.5s-5.1-3.9-5.5-6.1L278.5,79.3z"/>
							<path id="Path_938" class="st21" d="M302.4,95.7c0,0-7.1-3.4-9.7-2.2c-2.7,1.5-5.4,3.2-7.9,5c0,0,7.7,2.8,11.7,0
								C296.5,98.5,301.9,97.1,302.4,95.7z"/>
							<path id="Path_939" class="st21" d="M304.5,93.8c0,0-3.7-6.5-1.2-7.8c1.9-1,3.2-2.7,3.8-4.7c0.1-0.5,0.5-0.9,1-0.9l0.3,4.2
								C308.5,84.7,305.4,93.9,304.5,93.8z"/>
							<path id="Path_940" class="st22" d="M304.5,98.9l-2.3-0.5c0,0-0.4-1.7-0.1-2s0.4-1.5,0.4-1.5s2.7-2.1,3.5-1.4
								s1.2,0.2,1.2,0.2l-0.5,3.4c0,0,11.7,20.5,14,29c2.5,9,9.6,14.2-0.8,57.1c0,0-12.5,31.6-24.6,31.6c0,0,19.1-17.6,23.3-37.1
								s5.2-31.5,3.1-40.4S310.1,103.3,304.5,98.9z"/>
						</g>
						<g id="Group_266">
							<path id="Path_941" class="st24" d="M316.5,24.4c0,0,16.9-14.2,17.6-21s3.3-16.2-0.4-15.1S324-4,322.7-4s-4.2-2.6-4.2-2.6
								l-33,23c-4.1,2-8.2,3.8-12.5,5.4c-4.6,1.5,8.1,8.1,8.1,8.1s5.7-0.7,5.9,3.5s-2.9,4.6-1.3,5.7s21.7,2.5,25.1-11.6L316.5,24.4z
								"/>
							<path id="Path_942" class="st22" d="M324.5,191.1l8.9-25.8c2.1-6.8,3.5-13.8,4-20.8l1.9-26.9c0.2-2.3,0.1-4.6-0.2-6.9
								c-1.5-12.2-6.4-52.6-9-57.6c-3.1-5.9-13.6-26.1-13.6-26.1v-2.5l-3.8-0.3l-2,3.4l2.9,0.9c16.6,18.6,15.4,44.7,21.3,74.6
								c0,0,2.1,73.1-18.3,91.4S324.5,191.1,324.5,191.1z"/>
							<path id="Path_945" class="st26" d="M281.7,10.2c0,0-5.9-7-3.9-8.5S295.1,3,295.1,3l9-3.7l5-14.9c0,0,2.4-4.6,4.4-1.3
								s7,11.2,7,13.8S293.3,14.1,290,14.1S281.7,10.2,281.7,10.2z"/>
							<path id="Path_946" class="st26" d="M285.7,39.1c0,0-9.2,0-7.7-2.6c1.3-2,3-3.7,4.8-5.2l-2-3.7l55.9-25.6
								c0,0,6.4-3.7,5.2,0.7s-1.3,7-2.6,9.2s-11.2,9.8-11.2,9.8l-17.3-0.6l-10.1,11.6L285.7,39.1z"/>
							<path id="Path_947" class="st20" d="M285.5,15.8c-0.9,0.4-3.1,4.2-1.5,6.8s2.2,4.6,0.9,5.3s0.4,2.8,0.4,2.8
								s18.2,5.5,24.1-3.5s7.2-3.3,7.2-3.3c7.4-1.2,13.4-6.5,15.6-13.6c3.9-12.3,0-9.2,0-9.2s-8.3,1.1-9-2.4S317,0.5,317,0.5
								L285.5,15.8z"/>
							<path id="Path_948" class="st20" d="M292-0.1c-0.1-0.5-2.1-6.1-0.4-7.4c1.1-0.9,5.9-3.1,7-1.8s4.8,3.1,4.8,3.1l-5.9,6.4
								L292-0.1z"/>
							<path id="Path_949" class="st20" d="M318.5-6.7c0,0-2.6-5.5-7.7-1.8c-2.8,2-5.2,4.6-6.8,7.7c0,0-9.2,5.7-14.2,5.5
								s-7.7-0.7-7.9,2.4l-0.2,3.1l1.8,3.3l30.4-13.8L318.5-6.7z"/>
							<path id="Path_950" class="st14" d="M285,9.1c0,0-3.1,2.2-1.5,4.4s8.3,12.3,14.7,13.1c4.2,0.5,8.4,0.9,12.6,0.9l2-3.4
								l3.8,0.3c0,0,5.1-6.4,6.2-12.7s-3.3-18.6-4.2-18.4c-0.5,0.1-2.2,0.8-3.8,1.4c-1.8,0.7-3.3,2.1-4.2,3.9l-0.4,0.8
								c0,0-4.2,5-18.4,6.8C289.5,7.1,287.2,8,285,9.1z"/>
							<path id="Path_951" class="st21" d="M292-0.1c0,0,5.3,20.8,13.1,23.4s10.1-1.8,9.9-4.2s0.9-12-7.9-21.9s-8.8,2.4-12.5,2
								S292-0.1,292-0.1z"/>
							<path id="Path_952" class="st13" d="M331.3,55.2c0,0,1.4,1.1,4.4-3.9s3.3-14.1,6.9-15.1s13.3-1.9,15-1.2s9.3-0.8,9.6-1.7
								s1.6-0.6,1.6-0.6l-2.3-1.4L345.8,31l-8.2,3.8l-5.1,16c0,0,0,1.7-1,2.2l-1,0.4L331.3,55.2z"/>
							<path id="Path_953" class="st27" d="M330.1,53.1c0,0,1.2,2.2,1.1-4.8s9.1-20.1,13.4-18.5c0,0,16.7-0.1,21.8,1.7
								s-13,1.7-13,1.7s-10.3-2-12.3,0.9s-6.7,12.7-6.9,14.4s-0.9,4.7-1.9,5.3S330.1,53.1,330.1,53.1z"/>
						</g>
					</g>
				</g>
			</g>
		</g>
	</g>
</g>
</svg>
