<?xml version="1.0" encoding="utf-8"?>
<!-- Generator: Adobe Illustrator 23.0.0, SVG Export Plug-In . SVG Version: 6.00 Build 0)  -->
<svg version="1.1" id="Layer_1" xmlns="http://www.w3.org/2000/svg" xmlns:xlink="http://www.w3.org/1999/xlink" x="0px" y="0px"
	 viewBox="0 0 340.1 281.9" style="enable-background:new 0 0 340.1 281.9;" xml:space="preserve">
<style type="text/css">
	.st0{fill:#FFFFFF;}
	.st1{fill:none;stroke:#F09D28;stroke-width:5;}
	.st2{clip-path:url(#SVGID_2_);}
	.st3{fill:#C62322;}
	.st4{fill:#F1F2F2;}
	.st5{fill:#475563;}
	.st6{fill:none;stroke:#BCBEC0;stroke-width:4;stroke-linecap:round;stroke-linejoin:round;}
	.st7{fill:none;stroke:#BCBEC0;stroke-width:4;stroke-linecap:round;stroke-linejoin:round;stroke-dasharray:11.33,11.33;}
	.st8{fill:none;stroke:#BCBEC0;stroke-width:4;stroke-linecap:round;stroke-linejoin:round;stroke-dasharray:11.57,11.57;}
	.st9{fill:none;stroke:#BCBEC0;stroke-width:4;stroke-linecap:round;stroke-linejoin:round;stroke-dasharray:13.25,13.25;}
	.st10{fill:#FFFFFF;stroke:#C62527;stroke-width:2;stroke-linecap:round;stroke-linejoin:round;}
	.st11{fill:none;stroke:#C62527;stroke-width:2;stroke-linecap:round;stroke-linejoin:round;}
	.st12{fill:#231F20;}
	.st13{fill:#D1D3D4;}
	.st14{fill:#DDD7CB;}
	.st15{fill:none;}
	.st16{fill:#F09D28;}
	.st17{fill:#808080;}
	.st18{fill:#BCBEC0;}
	.st19{fill:#DADDE0;}
	.st20{clip-path:url(#SVGID_4_);}
	.st21{fill:#5A8B67;}
	.st22{fill:#657B8E;}
	.st23{opacity:0.26;fill:#F1F2F2;enable-background:new    ;}
	.st24{enable-background:new    ;}
</style>
<title>features</title>
<g id="Group_362">
	<g id="Group_361">
		<path id="Exclusion_2" class="st0" d="M340.1,279.4H0.1V104.4l0,0c-0.9-0.9-1.8-1.8-2.5-2.8c-8.4-0.3-16.8-1.4-24.9-3.4
			c-10.2-2.7-16.9-6.9-19.8-12.3c-1.5-2.8-2.1-6-1.7-9.1c0.6-4.3,2.2-8.4,4.5-12c1-1.8,2.3-3.4,4-4.6c1.2-0.8,2.6-1.3,4-1.3
			c2.3,0.2,4.5,1,6.4,2.4c0.6,0.4,1.1,0.7,1.5,1.1c0.7,0.6,1.4,1,2.3,1.3c0.2,0,0.3-0.1,0.4-0.2c3-6.7,5.9-11.5,8.6-14.5
			c2.4-2.7,4.8-4,7.2-4c1.8,0.1,3.6,0.7,5,1.8c1.4-4.2,3.1-8.3,5-12.3v70c5.6,5.7,13.2,11,22.9,15.8c-0.6,1.1-1.4,3.1-1.3,6.8
			c0,2.8,1.9,5.3,4.5,6.3l61.3,23.2c2.7,1.1,5.6,1.8,8.5,1.9c0.8,0,1.6-0.1,2.4-0.3l1-0.4c0.7,0.2,16.3,4.3,24.9,11l0.1,0.1l0,0l0,0
			l0,0l0,0l0.1,0.1l0,0l0,0l0,0h0.1h0.1h0.1h0.1l0,0l0,0l0,0l0,0l0.1,0.1l0.1,0.1l0,0l0.1,0.1l0.1,0.1l0,0l0,0l0.1,0.1l0,0l0,0l0,0
			l0.1,0.1l0,0h0.1l0,0l0.1,0.1l0,0l0,0l0.2,0.1l0,0l0.1,0.1l0,0l0,0l0,0l0.1,0.1h0.1l0,0l0.1,0.1h0.1h0.1l0,0h0.1l0,0l0,0l0.1,0.1
			l0,0l0,0l0.1,0.1l0.1,0.1l0,0l0.1,0.1l0,0h0.1h0.1l0,0l0,0l0,0l0,0l0.1,0.1l0,0l0,0l0,0l0,0l0.2,0.1l0,0l0.1,0.1h0.1l0,0l0,0l0,0
			l0.1,0.1h0.1l0.1,0.1l0,0l0,0l0.1,0.1l0,0h0.1l0,0l0.2,0.1l0.2,0.1l0,0l0,0l0,0h0.1h0.1l0,0l0.1,0.1l0,0l0,0l0.6,0.3l0,0l0,0
			l0.1,0.1l0,0l0.1,0.1l0,0l0,0h0.1l0,0l0.5,0.3l0,0l0.1,0.1l0.1,0.1l0,0l0,0l0.1,0.1l0,0l0.6,0.3l0,0h0.1l0.1,0.1l0,0
			c4.5,2.9,9.3,5.2,14.3,7l0,0h0.1h0.1h0.1h0.1l0.2,0.1l0,0h0.2l0,0h0.1h0.1h0.1h0.1h0.1h0.1h0.1h0.1h0.1h0.2h0.1h0.1l0,0h0.1h0.1
			h0.1l0,0c0.8,0.2,1.5,0.4,2.2,0.6c0.9,0.2,1.8,0.4,2.8,0.6c1.5,0.3,3.1,0.5,4.6,0.7l0,0h0.1h0.4h0.1h1h0.2l0,0
			c1.7,0.2,3.3,0.2,4.8,0.2c2.1,0.1,4.1-0.2,6.1-0.8c1.6-0.8,2.7-2.3,2.9-4c0.4-2,0.5-4,0.4-6c-0.1-2.2,0.1-4.4,0.5-6.5
			c0.4-1.9,1.9-3.5,3.8-4.1l0.4-0.1c0.2-0.1,0.5-0.1,0.7-0.1h0.4c2,0.2,5.1,1.5,9.7,4.3c4.1,2.5,9,5.8,14.1,9.3l0,0l3.4,2.3l0.7,0.4
			l0.3,0.2h0.1l0.6,0.4l0.3,0.2h0.1l0,0c10.1,6.8,20.4,13.2,27.6,15c1.1,0.3,2.3,0.4,3.4,0.5c1.5,0.1,3-0.4,4.2-1.4
			c1.2-1.1,2.1-2.4,2.6-3.9c0.6-1.7,0.8-3.5,0.8-5.3c-0.2-3.8-0.6-7.6-1.5-11.4c-0.8-3.7-1.3-7.5-1.5-11.3c0-5.6,1.9-9,6.1-10.7
			c5.4-2.3,11.3-3,17-3.8c4.1-0.4,8.3-1.1,12.3-2.3c4.1-1.4,6.8-3.4,8.5-6.3c0.8-1.3,1.4-2.8,1.7-4.3c0-0.1,0.1-0.3,0.1-0.4
			c0.3-2.9-2.9-7.5-8.9-12.5c-7-5.8-17.1-11.9-29.4-17.6c-0.4-0.2-0.8-0.3-1.1-0.4s-0.5-0.2-0.7-0.3c-0.8-0.4-1.6-1-2.9-3l1.9-0.8
			c2.6-1,4-2.8,3.9-4.9c0-0.3,0-0.7,0-1c0-1.6-0.1-3.1-0.5-4.7c-0.1-0.9-0.4-1.8-0.9-2.6v-0.1l0,0c-0.1-0.1-0.2-0.2-0.3-0.3
			c-0.5-0.6-1.2-1.1-1.9-1.5c-3.2-1.6-9.9-4.7-20-9.3c-2-3-3.8-6.2-5.2-9.6c-1.6-3.6-2.9-7.2-4.1-10.9c-2.5-7.8-4.4-16-6.5-24.8
			c-2-8.5-4.2-17.9-7.1-26.8h135L340.1,279.4L340.1,279.4z M161.8,186.5c0,0-4.1,1.3-3.9,3.2c0.1,1,1.3,2,3.6,2.9
			c4.4,1.5,9,2.6,13.6,3.3c2.7,0.5,5.4,0.7,8.1,0.8c5,0,8.1-1.2,9.3-3.6c0.6-1.2,1-3.4-0.5-6.9c-0.6-1.3-1.3-2.5-2.1-3.7
			c-2.2-1.7-3.9-2.6-5.3-2.6s-2.4,0.8-3.1,2.5c-0.4,0.9-0.6,1.9-0.5,2.8c0.1,1.1-0.1,2.2-0.7,3.1c-0.3,0.5-1.3,0.8-3,0.8
			C172.2,189.1,161.9,186.5,161.8,186.5z M269.3,150.4c-2-0.1-4.1,0.3-5.9,1.1c-0.9,0.3-1.5,1.1-1.6,2.1c0.1,1.9,2.9,4.5,6.5,5.9
			c0.6,0.2,1.1,0.5,1.7,0.8c0.8,0.5,1.2,0.7,8,2.1c0.4,0.1,0.9,0.1,1.3,0.1c2.5,0,6.1-1,7.8-2.9c1.3-1.5,1.7-2.8,1.2-4
			c-0.4-0.9-1.5-2.1-4.8-3.1c-1.5-0.5-3-0.8-4.5-0.9c0,0-0.1,0-0.1,0l0,0c-0.4,0-0.7-0.1-1.1-0.2l-2.2-0.4
			C273.5,150.6,271.4,150.4,269.3,150.4L269.3,150.4z M0.1,34.4L0.1,34.4V0.1H26c-5.4,4.9-10.3,10.2-14.6,16
			C7,21.8,3.2,27.9,0.1,34.4z M205.1,0.1H26c5.2-4.7,10.7-9.1,16.6-13C48.7-17,55.1-20.7,61.7-24c7-3.5,14.2-6.7,21.5-9.5
			c7.4-2.8,15.4-5.5,23.7-7.9c7-2.1,14.1-3.7,21.3-4.9c5.9-1,12-1.5,18-1.5c4.2,0,8.4,0.3,12.6,1c3.6,0.6,7.2,1.5,10.7,2.8
			c3.1,1.2,6.2,2.7,9,4.5c2.7,1.7,5.3,3.7,7.6,5.9C194-26,200.1-15.3,205.1,0.1z"/>
		<line id="Line_11" class="st1" x1="0.1" y1="279.4" x2="340.1" y2="279.4"/>
		<g>
			<defs>
				<rect id="SVGID_1_" x="0.1" y="0.1" width="301.9" height="271.8"/>
			</defs>
			<clipPath id="SVGID_2_">
				<use xlink:href="#SVGID_1_"  style="overflow:visible;"/>
			</clipPath>
			<g class="st2">
				<g id="Mask_Group_8">
					<g id="Group_326">
						<path id="Path_1065" class="st3" d="M232.1,74.7c42.9,48.3,15.5,68.2-54.5,68.2s-191.3-19-187.4-67.5
							C-5,15.9,40.6-17.7,108.1-36.1C227.4-68.5,199.7,38.2,232.1,74.7z"/>
						<path id="Path_1066" class="st4" d="M8,95.5c0,0-74.6,2.7-51.1-37c8-13.5,17.7,0.8,18.6-1.4C-8.9,22.6-1.2,46.2,8.7,51
							c22.8,11,22.8,0,38.7,9.6c6,3.6,8.7,21.9,1.8,24.3S8,95.5,8,95.5z"/>
						<path id="Path_1067" class="st4" d="M35.6,48.7c8.3,2.9,9.2,2.4,16.2,2c17.8-1,37.3-14.7,0.6-15.2c-6-0.1-0.2-11.9-20.2-7.1
							c-7.2,1.7-9.7-6.9-18.6,5.5C0.6,51.5,28,46,35.6,48.7z"/>
						<g id="Group_325">
							<path id="Path_1069" class="st5" d="M191.2,176.3c0,0,13.4,18-14.8,13.4s-13.3-9.4-13.3-9.4s17.1,4.3,18.6,1.8
								s0.1-3.4,1.2-5.9C184.2,173.1,186.6,172.6,191.2,176.3z"/>
							<path id="Path_1070" class="st5" d="M279.2,156.1c2.4,0.5,7-0.6,9-2.8c5.8-6.6-8.2-8.2-8.2-8s-10-2.7-15.5-0.1
								c-3.8,1.8-0.1,6,5,8C272.8,154.4,269.5,154.1,279.2,156.1z"/>
							<g id="Group_310">
								<g id="Group_309">
									<line id="Line_14" class="st6" x1="79.7" y1="83.9" x2="77.5" y2="83.9"/>
									<line id="Line_15" class="st7" x1="73.3" y1="83.8" x2="25.3" y2="82.9"/>
									<line id="Line_16" class="st6" x1="23.2" y1="82.9" x2="21" y2="82.8"/>
								</g>
							</g>
							<g id="Group_312">
								<g id="Group_311">
									<line id="Line_17" class="st6" x1="99.5" y1="95.3" x2="97.3" y2="95.3"/>
									<line id="Line_18" class="st8" x1="93" y1="95.3" x2="44" y2="95.3"/>
									<line id="Line_19" class="st6" x1="41.9" y1="95.3" x2="39.7" y2="95.3"/>
								</g>
							</g>
							<g id="Group_314">
								<g id="Group_313">
									<line id="Line_20" class="st6" x1="100.2" y1="72.5" x2="98" y2="72.5"/>
									<line id="Line_21" class="st9" x1="93.1" y1="72.5" x2="56.5" y2="72.2"/>
									<line id="Line_22" class="st6" x1="54" y1="72.2" x2="51.8" y2="72.1"/>
								</g>
							</g>
							<g id="Group_315">
								<ellipse id="Ellipse_234" class="st0" cx="31.3" cy="94.3" rx="7.9" ry="7.8"/>
								<path id="Path_1071" class="st10" d="M27.2,94.8l2.3,2.7l5.9-6.5"/>
							</g>
							<g id="Group_316">
								<ellipse id="Ellipse_235" class="st0" cx="44" cy="72.2" rx="7.9" ry="7.8"/>
								<path id="Path_1072" class="st11" d="M39.9,72.8l2.3,2.7l5.9-6.4"/>
							</g>
							<g id="Group_317">
								<ellipse id="Ellipse_236" class="st0" cx="14.2" cy="83" rx="7.9" ry="7.8"/>
								<path id="Path_1073" class="st11" d="M10.1,83.6l2.3,2.7l5.9-6.4"/>
							</g>
							<g id="phon">
								<path id="Path_1074" class="st12" d="M27.4,127l61.3,23.2c3.4,1.3,7.4,2.5,10.9,1.7c1-0.2,128.4-52.4,149.6-60.8
									c2.2-0.9,4-2.6,3.9-4.9c-0.1-2,0.1-5.4-1.5-8.4c-4.1-7.5-126.4,36-126.4,36l-99.9-0.9c0,0-2.5,1.5-2.3,7.9
									C22.9,123.6,24.7,126.1,27.4,127z"/>
								<g id="Group_318">
									<path id="Path_1075" class="st13" d="M97.7,144c-1.7,0-3.4-0.3-5-0.9c-6.5-2.3-64.8-25.3-65.4-25.5s-2.2-1.2-2.3-2.6
										s1.1-2.6,3.5-4.1c2.1-1.3,16.9-7.3,75.3-28.3c36.6-13.2,75.2-26.8,86.2-30.7c1.7-0.6,3.7-0.5,5.3,0.2
										c10.3,4.6,44.8,20.1,53.7,24.5c1.8,0.9,3.3,3,2.6,5c-0.2,0.7-0.7,1.3-1.2,1.8c-3.1,2.3-128.9,52.3-145.2,58.7l-0.8,0.3
										C102.4,143.4,100,143.9,97.7,144z"/>
									<path id="Path_1076" class="st12" d="M192.4,52.2L192.4,52.2c0.9,0,1.8,0.2,2.6,0.6c10.3,4.6,44.8,20.1,53.7,24.5
										c1.5,0.7,2.8,2.5,2.3,4.1c-0.2,0.6-0.5,1-1,1.4c-4.4,2.8-128.9,52.3-145,58.6c-0.3,0.1-0.5,0.2-0.8,0.3
										c-2.1,1-4.3,1.5-6.5,1.6c-1.6,0-3.2-0.3-4.8-0.9c-6.4-2.2-63.7-24.9-65.3-25.5c-0.6-0.3-1.8-1.1-1.9-1.9
										c0-0.4,0.2-1.6,3.2-3.4c2.1-1.3,16.8-7.2,75.2-28.2c36.7-13.2,75.2-26.8,86.2-30.7C190.9,52.3,191.6,52.2,192.4,52.2
										 M192.4,50.7c-0.9,0-1.8,0.2-2.6,0.5c-10.8,3.8-49.4,17.5-86.2,30.7S31.8,108,28.1,110.3c-8,4.9-1.1,8-1.1,8
										s58.9,23.2,65.4,25.5c1.7,0.6,3.5,1,5.3,1c3.2,0,5.7-1.2,7.9-2c6.8-2.6,142.5-56.5,145.4-58.8c0.7-0.5,1.2-1.3,1.5-2.1
										c0.8-2.3-0.8-4.8-3-5.9c-9-4.4-43.5-19.9-53.8-24.5C194.6,51.1,193.5,50.8,192.4,50.7L192.4,50.7z"/>
								</g>
								<path id="Path_1077" class="st12" d="M199,53.5l-3.1,1.4c-0.8,0.3-1.4,0.9-1.7,1.7c-0.4,1-0.4,2,0.5,2.4l32.9,14.8
									c1.1,0.5,4.4,2.5,6.9,1.4l4.2-1.8c2.6-1.1-1.4-2.1-4-3.3L199,53.7C198.5,53.4,199.6,53.3,199,53.5z"/>
							</g>
							<g id="kackavpravo">
								<path id="Path_1078" class="st4" d="M161.1,58.8c0,0,3.1,2.8,3.1,3.5c0,0.5,0.2,1,0.6,1.3l0.1-1.6c0,0,0.8,2.1,0.9,2.5
									s-0.6,1.1,0.3,1.8s3.7,5.3,3.4,7s-0.9,4.7-1.8,5.5s-3.7,4.9-4.8,4.8s-42.8,12.9-50.5-9.1c0,0-1.4-6.7,0.2-8.8
									c1.2-1.6,1.6-3.6,1.1-5.5c-0.2-0.8,1.6-3.7,2.3-3.4s2.1,3.4,2.1,3.4s1.6,3.4,2,3.5s16.3,2.6,16.3,2.6L161.1,58.8z"/>
								<path id="Path_1079" class="st14" d="M140.8,57.3c0,0-2.2,3.3-4.3,2.9s-4.6-1.6-6.4-0.7s-6.3,3.8-7.7,3.9
									c-1.8,0.1-3.5,0.4-5.2,0.8l-2.9,1.4c0,0,3,8.8,12.7,8c0,0,5.9,6.2,11.8,1.3c0,0,7.6,2.8,10.5-3.2s3.8-7.1,3.8-7.1l-0.4-3.9
									L140.8,57.3z"/>
								<path id="Path_1080" class="st15" d="M152.6,55.2c0,0,1.7,0.5,1.4,1.3s-1.4,2.1-1.9,2.1c-1,0.3-2,0.8-2.9,1.3l-3.9-1.8
									l-0.5-3.3l1.9-2.8l3-2L152.6,55.2z"/>
								<path id="Path_1081" class="st14" d="M160,47.1l-0.7,10.7l-10.8,1.5l-5.6-4c0,0,4.1-9,4.1-9.3S160,47.1,160,47.1z"/>
								<path id="Path_1082" class="st14" d="M164.8,63.5c0,0-0.7,1.7-2.2-0.2s-2.8-3.2-2.5-1.2s-1,4.1-2,2.7s-2.5-1.7-2.8-0.5
									s-1.9,2.7-2.7,0.7s-2.1-0.5-2.7,0.6s-2.3,1.7-2.4,0.8s-1.1-0.6-1.1-0.6l0.4-4.2l4.2-2.3h4.2l3.5-2.1l2.3,1.6
									c0,0,2.9,2.5,3.1,3.5C164.2,62.8,164.4,63.2,164.8,63.5z"/>
								<path id="Path_1083" class="st13" d="M160.6,57.3c0,0,1,2.3-0.2,2.7s-2.8-1.8-3.4-1s-0.5,2.9-1.6,2.7s-1.9-2-2.7-1.6
									s-1.4,3.2-2.7,2.5s-3-1.8-2.9-3s-1.7,1.4-2.2,1.4c-0.9-0.1-1.6-1-1.5-1.9c0-0.1,0-0.1,0-0.2c0.4-1.2-2,0.7-2.3,0.2
									c-0.6-0.8-0.5-2,0.2-2.7c1-1.2-1.4,0.6-1.7-0.5s-0.1-1.7,0.2-1.9s2.3-2.5,2.3-2.5c-0.3-0.5,5.2,6.1,4.4,5.8
									c0.6,0.2,5.4,1.4,6.2,1.2s4.6-0.4,5.1-1.1c0.4-0.5,1-0.9,1.6-1.1L160.6,57.3z"/>
								<path id="Path_1084" class="st16" d="M161.2,50.9c0,0,2.6,3.8,6.1,4.8s0.5,2,0.5,2s-8-0.2-9-0.5s-1.3-1.3-0.3-1.5
									s0.6-1.4,0.2-1.6s-1.4-1.5-0.6-1.8s1.1-1.3,1.1-1.3L161.2,50.9z"/>
								<path id="Path_1085" class="st0" d="M155.4,46.6c0.1,1,0.5,2,1,2.9c0.7,1,0.9,2.1-0.3,3.7s-3.9,2.9-5.5,1.7
									s-1.6-2.6-1.9-2.5s-1-0.6-0.8,0.9s2,1.8,2.1,2.3s0.2,1.5-0.4,1.1s-2.2-2.1-2.8-2.1s-0.1,1.3-0.6,1.7s-1.3,1-1.6,0.3
									s-1.6-2.1-1.3-2.9s2.3-4.8,2.3-4.8l6.3-4.3L155.4,46.6z"/>
								<path id="Path_1086" class="st5" d="M151.9,50.2c0.7-0.4,1.6-0.2,2,0.5c0.2,0.3,0.2,0.7,0.2,1v0.1c-0.3,1-2.3,0.9-2.3,0.5
									S151.1,50.7,151.9,50.2L151.9,50.2z"/>
								<path id="Path_1087" class="st14" d="M161.8,48.9c0,0,0.2,2.6-0.9,2.6s-2.4,0.2-3-1.8c-0.7-1.7-2.3-3-4.1-3.3
									c-0.8,0.1-2.7-0.8-5,2.2s-5.5,5.2-6.7,5s-3.9-1.6-3.6-2.3s0.8,0.7,2.5-0.4s2.9-4.8,4.4-5.8s1.5-3,8-3.2
									S161.8,48.9,161.8,48.9z"/>
								<path id="Path_1088" class="st17" d="M138.3,61.2l-6.6,2.2l2.6,0.6l-1.1,3.3l6.6,0.9l3.7-1.7l-2,2.5
									c0.4,0.8,1.5,1.2,2.3,0.7h0.1c1.5-0.9,3.1-3.9,2.8-4.8c-0.5-1-1.7-1.5-2.8-1c0,0,0,0,0,0c-1,0.6-2.8,1.2-3,0.1
									s1.2-3.5,0.2-3.2s-2.5,1.9-2.6,1.5c0-0.2,0.1-0.4,0.2-0.6c0.1-0.2,0-0.4-0.1-0.4C138.4,61.2,138.3,61.2,138.3,61.2z"/>
								<path id="Path_1089" class="st18" d="M144.2,66.5c0,0-1,3.4-4.2,3.2s-5.4,1.5-6.7-0.1c-1.1-1.2-2.7-1.7-4.3-1.3
									c-0.6,0.4-1.6-0.8-1.6-0.8s0.9-3.9,2.1-3.9c0.5,0,1.7-0.2,3-0.4c2.1-0.3,4.6-0.5,4.8,0.2c0.3,1.2-3.8,1.7-3.1,3
									s4.2,1.5,4.8,0.6s3.1-2.2,3.6-2S144,64.5,144.2,66.5z"/>
								<path id="Path_1090" class="st19" d="M130.2,66.8c0,0-4.7,2-6.2,0.3l-1.5-1.7c0,0,5.5-0.4,7-0.6s3.4-0.6,2.7,0.3
									C131.7,65.8,131,66.4,130.2,66.8z"/>
								<path id="Path_1091" class="st19" d="M159.5,72.1c0.3,0.1,0.5,0.4,0.5,0.7c-0.1,1-0.5,3.6-1.9,4.1c-1.7,0.6-3.3-0.7-2.2-1.6
									s2.9-0.9,2.9-2C158.9,72.6,159,72,159.5,72.1z"/>
								<path id="Path_1092" class="st19" d="M160.3,69.2c0.7,0.7,0.3,1.6-0.7,1.9s-1.4-0.9-1.2-1.6S160,68.9,160.3,69.2z"/>
								<path id="Path_1093" class="st19" d="M161.9,76.9c-0.7,0.4-1.3,0.3-1.4,0.9s1.2,1.4,1.9,1.3s0.7-1.6,0.7-1.6
									S162.6,76.5,161.9,76.9z"/>
								<path id="Path_1094" class="st19" d="M165.8,70.6c0,0,0.7,3.9-0.4,4.6s-2.5,0.7-2.1-0.4c0.5-0.9,0.7-2,0.8-3
									c0-0.3,0.1-2.6,0-3s0.4-0.3,0.8,0c0.1,0.1,0.2,0.2,0.4,0.3L165.8,70.6z"/>
							</g>
							<g id="voda">
								<g id="Group_319">
									<path id="Path_1095" class="st5" d="M242.4,84.8c-3.7,0.4-2.7,0.7-4,1c-4.4,0.7-6.6-0.4-8.5-0.9
										c-9.2-2.3-10.5,0.3-12.7,0.3c-10.6,0.1-6.9-2.8-11.6-2.8c-4.3,0-5.5,1.1-8.3,1.8s-5.3-2.6-10.2-2.3c-6.8,0.6-4.7,1-8.5,1.7
										c-11.7,2.1-11.5-2.7-19,0.2c-3.3,1.3-4.4,0.3-6.8,0.7c-7.2,1.3-5.1-2.2-9.4-2c-2.9,0.1-3.1,2.4-6.6,2.6
										c-2.8,0.2-5.8-4.4-9.9-4.9s-0.8,3.5-4.9,3.7c-2.6,0.1-4.1-3.9-6.9-3.6c-2.6,0.3-4.1,1.3-7,2.3
										c-36.8,13.1-69.9,25.7-74.9,28.1c-8.5,4.1-3.6,5.3-3.6,5.3S90,140,96.6,142.3c2.4,1,4.9,1.2,7.4,0.7c1.7-0.5,3.4-1.2,5-1.9
										c5.7-2.2,101.3-39.6,134.2-53.4c2.1-0.9,2.4-1.6,2.4-1.6S246.8,84.3,242.4,84.8z"/>
								</g>
								<g id="Group_320">
									<path id="Path_1096" class="st5" d="M100.6,151.5c0,0,16.1,4.2,24.9,11c16.7,13,40.4,14.6,45.1,12.4
										c7.2-3.4-0.9-18.5,8.1-20.7s54.9,40.8,65.5,31.2s-8.7-36.1,6.6-42.6s35.6-0.7,39.6-16.7c1.3-5.4-10.7-17.8-38.2-30.5
										c-2.1-1-2.7-0.5-5.1-4.3l-1.1-4.4c0.1-0.6,0-2.4-2.7-1.9L96.4,141.5l2.7,1.1c2.7,1.5,3.8,4.8,2.4,7.6L100.6,151.5z"/>
								</g>
								<g id="Group_322">
									<path id="Path_1097" class="st5" d="M100.6,151.5c0,0,16.1,4.2,24.9,11c16.7,13,40.4,14.6,45.1,12.4
										c7.2-3.4-0.9-18.5,8.1-20.7s54.9,40.8,65.5,31.2s-8.7-36.1,6.6-42.6s35.6-0.7,39.6-16.7c1.3-5.4-10.7-17.8-38.2-30.5
										c-2.1-1-2.7-0.5-5.1-4.3l-1.1-4.4c0.1-0.6,0-2.4-2.7-1.9L96.4,141.5l2.7,1.1c2.7,1.5,3.8,4.8,2.4,7.6L100.6,151.5z"/>
									<g>
										<defs>
											<path id="SVGID_3_" d="M100.6,151.5c0,0,16.1,4.2,24.9,11c16.7,13,40.4,14.6,45.1,12.4c7.2-3.4-0.9-18.5,8.1-20.7
												s54.9,40.8,65.5,31.2s-8.7-36.1,6.6-42.6s35.6-0.7,39.6-16.7c1.3-5.4-10.7-17.8-38.2-30.5c-2.1-1-2.7-0.5-5.1-4.3
												l-1.1-4.4c0.1-0.6,0-2.4-2.7-1.9L96.4,141.5l2.7,1.1c2.7,1.5,3.8,4.8,2.4,7.6L100.6,151.5z"/>
										</defs>
										<clipPath id="SVGID_4_">
											<use xlink:href="#SVGID_3_"  style="overflow:visible;"/>
										</clipPath>
										<g class="st20">
											<g id="Group_321">
												<path id="Path_1098" class="st16" d="M131.4,153.2l1.8,5.4c0,0,4.4-0.4,5.2,0.6s5.8,2.6,6.8,1.6s-0.8,1.4,4.6,0.7
													s6.5,0.4,7.1-0.7s2.4,1.2,3.7-0.6s-9.2-6.1-9.2-6.1L131.4,153.2z"/>
												<path id="Path_1099" class="st21" d="M159.2,159.8c0,0,10.1,2.3,9.9-5.5c0-1.6-1-3-2.5-3.7c-0.8-0.3-1.6-0.7-2.4-1.2
													c-0.6-0.4-1.2-0.9-1.7-1.5c-1.3-1.7-4.6-5.5-6.6-5.1c-2.6,0.5-9.6,4.8-12.4,1.8s-5.3-6.3-7.9-3.4s-2.4,2.3-4.3,1.8
													s-8.6-5.3-9.6-1.4s3.3,8.2,3.3,8.2s1.3,0.3,3,3.6s2,6,5.1,5.2s3.1-4.4,7-3.9s4.4,3.4,7.2,3.3s4.6-2.7,7.9-0.7
													S159.2,159.8,159.2,159.8z"/>
												<path id="Path_1100" class="st21" d="M153.7,175c0,0-8.1-7.2-6.2-12.7c0,0,1.9-2,2.7-1.8c1.3,0.1,2.6,0.1,3.9,0
													c0,0,0.7-0.6-2.8-0.8s1.1-1.7,1.1-1.7s1.3-1.7-0.9-0.6s-2.5,3.4-4.2,3.8s-2.5-4.1-2.5-4.1s-1.6-2.2-0.7,0.3
													s1.7,3.8,1.1,3.4s-2.4-4-3.2-3.4s-1.7,0.7-2.1-0.3s-1.6-2-1.3-1.2s1.1,2.6,2,2.9s1.1-1.5,1.8-0.4s0.9,1.4,0.1,1.3
													s-2.9-0.3-3.2-0.7s-2.5-0.8-0.8,0.2c0,0,4.4,0.7,5.8,1.6s2.1,1.4,2.2,2.2c0.3,2,0.7,3.9,1.4,5.9c0.3,0.2-1,1.1-1.4,0.2
													s-3.7-2.1-3.9-1.4s-2.4-1.9-3.9-2.6s-10-4.2-11.5,2.7c0,0,0,2.2,0.6,0.9s1.5-3.3,2.1-3.3s3.5-0.4,4.6,0.5
													s2.8-0.3,5.6,2.5s5.3,3.3,5.7,3.1s2.2-1.6,2.6-1s2.5,4.5,3.2,4.8s2,1.2,2.3,0.9S153.7,175,153.7,175z"/>
												<path id="Path_1101" class="st22" d="M131.7,150.6c-1.7-1.8-3.8-6.5-2.4-4.9c0.7,0.8,1,2.4,1.4,2.6l2.5,3.1l2.7,1.6
													c0.3,0.1,0.5-0.1,0.3-0.4l-3.1-5.1l-1.5-0.9c-0.8-0.2,0.1-0.5,0.9,0c0.3,0.1-0.4-1.2-0.4-1.6s0.4-0.4,0.5-0.1l2.1,3.7
													l-0.3-1.7c-0.1-0.3,0.1-1.1,0.2-0.8l0.4,2l0.7-2.2c0.1-0.3,0.4-0.1,0.4,0.2l-0.2,1.8l-1.1,1.9l1.2,2
													c0.3,0.4,0.8,0.5,1,0.1l1.2-2l1-1.8c0.1-0.2,0.4,0,0.4,0.2l-1,2.1l1.2,0.3c0.2,0.1,0.3,0.5,0,0.5l-1.6,0.1l-0.7,1.1
													c-0.3,0.5,1,2.4,1,2.4l-0.4,0.1C138,155,133.9,152.9,131.7,150.6z"/>
												<path id="Path_1102" class="st22" d="M151.6,150.4c0.2-0.1,0.1-0.6,0.1-1.3c0-0.2-0.9-2.6-0.6-2.7
													c0.5-0.1,0.5,1.6,0.9,2.1c0.3,0.4,0.4-2.4,0.6-2.5s0.2,2.2,0,2.4l0.9-0.5c0.1,0,0.2,0.1,0.1,0.2
													c-0.4,0.3-0.8,0.6-1.2,0.8c0,0-0.2,1.1-0.3,1.9l-0.1,1c-0.1,0.5,0.4,0.9,0.8,0.7l1.2-1c0,0,0.1,0,0.1,0.1
													c-0.1,0.2-0.2,0.3-0.3,0.5c0,0.2,1.2,0.6,1,0.8s-1.2-0.6-1.3-0.4l-0.4,0.9c-0.2,0.3-0.1,0.7,0.2,0.8c0,0,0,0,0,0
													c0.1,0.1,0.2,0.1,0.3,0.1l1.9-0.2c0.5-0.1,0.9-0.5,1-1l0.7-4c0-0.1,0-0.2,0.1-0.4c0.7-2.1,1.3-2.5,0.3,0.2h0.9
													c0,0,0.1,0.1,0,0.1l-1,0.4l-0.5,3.5c-0.1,0.6,0.1,1.8,0.6,1.8l1.5,0.4c0.3,0.1,2.9-1.8,3.1-1.7s-2.4,2-2.1,2.1
													c4.4,2-1.8-0.3-1.9-0.2l-2.6-0.3c-0.2,0-0.5,0.1-0.6,0.3c-0.1,0.1-0.1,0.2-0.2,0.4c-0.1,0.3,0,0.5,0.2,0.7l0.9,0.6
													c0.1,0.1,1.8,0.7,1.4,0.8c-1.9,0.1-3.8-2.4-4.1-2.3l-2.1,1.5l-1.5,0.6l2.4-2.1c0.4-0.3,0.5-0.9,0.3-1.4
													c-0.8-1.8-2.7-7-2.1-7.2C150.5,146.7,150.8,150.7,151.6,150.4z"/>
												<path id="Path_1103" class="st22" d="M146.2,157.9c0.7-0.3,2.8-4.4,2.8-4.4s0-0.4-0.1-0.3l-2.3,3.2
													c-0.1,0.1-0.2,0-0.2-0.1l0.2-8.3c0-0.1-0.2-0.2-0.2-0.1l-0.9,4.4c0,0.1-0.1,0.2-0.3,0.2c0,0,0,0,0,0
													c-0.1,0-0.1,0-0.1-0.1l-1.1-0.9l-0.5-1.8c0-0.1-0.2-0.1-0.1,0l0.2,1.5l-1.3-0.9c-0.1-0.1-0.2,0.1-0.1,0.2l2.9,2.7
													c0.1,0.1,0.2,0.3,0.2,0.4l0.2,3.7C145.4,157.5,146.1,157.9,146.2,157.9z"/>
											</g>
										</g>
									</g>
								</g>
								<g id="Group_324">
									<g id="Group_323">
										<path id="Path_1105" class="st16" d="M227.4,152.1c0,0-14.3,6-18.5,4.4s-5.4-1.7-7.2-1.7c-2.3,0-11.5,3.4-13.9,0.6
											s2.6-6.9,2.6-6.9l12.6-6.2l11.5,4.1l12.9,0.3L227.4,152.1z"/>
									</g>
									<path id="Path_1106" class="st21" d="M213.3,150.3c0-0.1-0.1-0.1-0.1-0.1c-0.1,0-0.1,0-0.1,0.1c-0.4,1.1-0.9,2.3-1.4,3.3
										c-3.4,6.6-4.3-0.5-4.3-0.5l-3.2-1c-0.2-0.1-0.4,0-0.4,0.2c0,0,0,0,0,0c0,0.2,0,0.3,0.1,0.4l1.5,0.9c0,0-6.6-0.4-7.2,0.1
										s6.6,0,8.2,1c1.6,1.2,2.4,3.1,2.4,5.1c-0.2,3.3-1.5,6.4-3.6,8.9c0,0,2.8,1.9,3.7,2.7c0.6,0.5-0.7-3.1,3.6-6.2
										s13.8,3.8,17.8,4.8s6.6-3.3,6.6-3.3s-6.1,3.5-10.6,0.3s-13.9-2.9-13.9-2.9l-3.1,1.3l0.8-8.5c0,0,3-4,4.7-3.9
										c0.5,0,1,0,1.4-0.2c0.2,0,0.3-0.2,0.2-0.4c0-0.2-0.2-0.3-0.4-0.2c0,0,0,0,0,0l-2.9,0.6L213.3,150.3z"/>
									<path id="Path_1107" class="st21" d="M222.6,150.5c-2.2-1.8-6.6-1.2-9-1.8c-0.9-0.1-1.7,0.1-2.4,0.6
										c-1.4,0.9-2.8,2.2-4,1.9c-1.8-0.5-5.8-3.5-9-4.2s-5.6,7.5-8.6,9s-14.5-4.2-14.4-8.8s4.4-5.2,8.2-4.4s2.2-5,7.5-8.7
										s13.6,2.8,16.7,2.6s7.6-9.9,8.6-5.1c1,4.8,7.2,3.2,7.2,3.2c5.9-5.2,11.8-4.3,14.8-2.6s-0.1,5.5-3.5,7.6s-3,8.8-3.7,11.4
										C228.3,152.8,224.9,152.5,222.6,150.5z"/>
									<path id="Path_1108" class="st22" d="M219.9,149.1c0,0,7.3-3.5,9.8-6.2c1.6-1.8,3.2-6.3,1.9-4.8c-0.6,0.8-0.7,2.4-1.2,2.5
										l-2.3,3l-2.8,1.6c-0.1,0.1-0.3,0-0.4-0.1c0,0,0,0,0,0c0-0.1,0-0.2,0-0.3l2.7-4.9l1.6-0.9c0.9-0.2-0.2-0.5-1.1,0
										c-0.3,0.2,0.3-1.1,0.2-1.5c0-0.2-0.2-0.3-0.4-0.3c-0.1,0-0.2,0.1-0.2,0.2l-1.8,3.6v-1.6c0.1-0.2-0.3-1-0.4-0.8l-0.1,2
										l-1.2-2.1c-0.1-0.1-0.2-0.2-0.3-0.1c0,0,0,0,0,0c-0.1,0.1-0.1,0.2-0.1,0.3l0.5,1.7l1.6,1.8l-1.1,1.9
										c-0.2,0.3-0.6,0.4-0.9,0.3l-0.2-0.1l-1.7-1.9l-1.5-1.8c-0.1-0.1-0.2-0.1-0.3,0c0,0,0,0,0,0c-0.1,0.1-0.1,0.2-0.1,0.2l1.5,2
										l-1.3,0.3c-0.1,0-0.2,0.1-0.2,0.3s0.1,0.2,0.3,0.2l0,0h1.8l0.9,1c0.4,0.4,0.4,1,0,1.4l-0.1,0.1l-4.1,3L219.9,149.1z"/>
									<path id="Path_1109" class="st22" d="M196.9,141.5c0-0.2-0.1-1-0.1-2.1c0-0.2-3-0.9-3-1.1c-0.1-0.6,2.3,0.5,3,0.4
										c0.5-0.1,0.2-2.8,0.2-3c0-0.2,0.2-0.3,0.3-0.3c0,0,0,0,0,0c0.1,0,0.2,0.1,0.3,0.2l0.4,6.2c0,0.2,0.2,0.4,0.5,0.4
										c0.1,0,0.2-0.1,0.2-0.1l0.8-2.5c0.2-0.2,0.2-0.1,0.3,0.3l-0.6,2.6c-0.3,0.6-0.2,1.4,0.4,1.9l0.8,0.7c0.2,0.2,0.6,0.2,0.8,0
										c0,0,0,0,0,0c0.1-0.1,0.2-0.3,0.1-0.4l-0.4-2.1c0-0.1,0-0.2,0.1-0.2c0,0,0.1,0,0.1,0c0.2,0.3,0.3,0.6,0.3,1
										c0,0.2,0.1,0.4,0.2,0.6l0.5,1c0.1,0.3,0.4,0.5,0.7,0.4c0,0,0,0,0,0c0.2,0,0.3-0.2,0.4-0.3l0.8-2.2c0.2-0.6,0.1-1.2-0.3-1.7
										l-3.1-3.2c-0.1-0.1-0.2-0.2-0.3-0.3c-1.4-2.1-1.4-2.9,0.4-0.2l0,0l3,2.9c0.4,0.3,1,0.3,1.4-0.1c0.1-0.1,0.1-0.1,0.2-0.2
										l0.2-0.4c0-0.1,0.1-0.1,0.2-0.1c0,0,0,0,0,0c0.1,0,0.1,0.1,0.1,0.1l-1.1,3.6c0,0.2,0,0.3,0.2,0.4c0.1,0,0.1,0,0.2,0
										l6.2-2.1c0.3-0.1,1,0.2,0.2,0.5l-6.7,2.8c-0.4,0.2-0.7,0.6-0.7,1.1v0.3c0,0.3,2.7,0.2,3,0c0,0,2.6-0.3,2.3,0l-4.4,1.1
										c-0.3,0.3-0.3,0.8-0.2,1.2l0.5,1.3c0.1,0.2,0.3,0.4,0.4,0.6l-0.8-0.4l-0.9-0.5l0,0l-4.7-3.8l0,0
										C199,145.5,196.8,142.6,196.9,141.5z"/>
									<path id="Path_1110" class="st22" d="M185.7,152.7c-0.1-0.2-4-2.6-4.6-3.6c-0.1-0.2-1.7,0-1.9-0.2c-0.4-0.5,1,0,1.5-0.4
										s-0.8-2.1-0.9-2.4s-0.2-0.9,0-0.7l3.6,5.1c0.2,0.2,0.4,0.2,0.6,0.1c0.1-0.1,0.1-0.1,0.1-0.2l-0.6-2.5
										c0.1-0.3,0.1-0.2,0.4,0.1l0.8,2.5c0.2,0.8,0.5,1.3,1.3,1.4l1.1,0.2c0.3,0.1,0.6-0.1,0.7-0.4c0,0,0,0,0,0
										c0-0.2,0-0.3-0.1-0.4l-1.5-1.6c-0.1-0.1-0.1-0.1,0-0.2c0,0,0,0,0,0c0,0,0.1,0,0.1,0c0.3,0.2,0.6,0.4,0.8,0.7
										c0.1,0.2,0.3,0.3,0.5,0.4l1,0.6c0.2,0.2,0.6,0.2,0.8-0.1c0.1-0.1,0.2-0.3,0.1-0.5l-0.5-2.3c-0.1-0.6-0.6-1.1-1.1-1.2
										l-4.3-1.1c-0.1,0-0.3-0.1-0.4-0.1c-2.3-1-2.7-1.8,0.2-0.3c0,0-0.1-0.7-0.1-1.1c0,0,0,0,0-0.1c0,0,0,0,0.1,0l0,0l0.5,1.2
										l3.7,0.9c0.6,0.1,1.9,0,1.8-0.6l0.2-1.8c0.9-3.7,0.4-0.4,0.4-0.3l-0.1,4.8c0.2,0.3,0.5,0.5,0.8,0.6c0.2,0.1,0.5,0,0.7-0.2
										l0,0l0.5-1c0.1-0.2,0.5-2.1,0.6-1.6c0.4,2.3-2.1,4.4-1.9,4.7l1.5,2.2l-0.5,0.7l-0.9-1.4c-0.3-0.5-0.9-0.7-1.5-0.4
										c-1.8,0.9-5.6,2.6-5.5,2C184,153.7,186.1,153.7,185.7,152.7z"/>
								</g>
								<path id="Path_1111" class="st23" d="M145.1,80.6c-2.9-0.8-13.3-3.3-18.9-2.9c0,0,0.1,4.2-6,1.7c0,0-4.6-0.4-6.5,3.2
									c0,0-5.6-0.5-4.9,1.8s10.7-1.7,11,1.5s-7.1,2.2-8.2,4.5s-8.9,2.7-8.3,5.7s5.7-0.2,6.7,0.9s4.8-3,6.1-1.6s-5.4,2.4-6.6,5.4
									s-3.4,5.6-1.1,4.5s5.3-3.2,6.5-3s5.1-1.5,4.9-0.1s-5.4,2.2-3.6,2.9s7.3-1.7,8.9-0.5s-2.7,1.6-3.2,3.9s-3.8,4.6-1.8,4.6
									s2.9-3.2,5.4-3.7s9.8-1.8,11-3.9s3.7-4.6,5.6-4.6s1.1-2.5,4.3-4.5s5.7-4.7,6.5-3c0.8,1.6,1.5,2-0.2,4.8s-5.6,3.1-8.1,5.9
									s-13,10.2-16.7,11.3c-3.6,1.1-5,2.8-5,5.4c0,1.9,3.2,3.6,6.8,3.3s11.7,0.1,13.3-0.9s8.7,0.7,9.2-1.2
									c0.3-1.5,1.1-2.8,2.2-3.8c1.1-0.8,3.9-1.7,3.6-2.9s-9.9,3.8-9.9,3.8s-14.5,3.6-16.6,1.4s8.1-5.5,10.2-6.9s7.3-5.1,9.5-7
									s6.4-6.2,8.8-7.3c3.4-1.6,5.6-6.4,5.5-9.9c-0.1-1.9,0.9-5.5-7.4-8c-4.9-1.4-2.9-0.7-4.1-0.5C149.9,82,149.1,81.6,145.1,80.6
									z"/>
								<path id="Path_1112" class="st21" d="M90.7,127c2.1,0.4,4.4-0.1,6.1-1.5c1.4-1.2,3.3-2.2,5.4-1.6c4.1,1.2,7.4,4.4,13,4.3
									c3.2-0.1,6.7-1,6.8,1.3c0.1,2.3-7.2,7.3-15.8,7.2c-3.4,0-12.9-2-17.4-1.2c-2.2,0.4-13.2-3.9-10.5-6c2.7-2.1,7.6-2.8,9.2-2.9
									C88.5,126.6,89.6,126.8,90.7,127z"/>
							</g>
						</g>
					</g>
				</g>
			</g>
		</g>
	</g>
	<g id="FEATURES">
		<g class="st24">
			<path d="M23.9,234.3h8.3v2.5h-5.5v2.6h5v2.5h-5v5h-2.8V234.3z"/>
		</g>
		<g class="st24">
			<path d="M34.1,234.3h8.6v2.5h-5.8v2.4h5.4v2.5h-5.4v2.7h5.9v2.5h-8.7V234.3z"/>
		</g>
		<g class="st24">
			<path d="M49,234.3h2.5l5.2,12.5h-3l-0.8-2.1h-5.2l-0.8,2.1h-3L49,234.3z M52,242.5l-1.8-4.6l-1.8,4.6H52z"/>
		</g>
		<g class="st24">
			<path d="M59,236.8h-3.4v-2.5h9.5v2.5h-3.3v10H59V236.8z"/>
			<path d="M66.4,234.3h2.8v7.2c0,2.2,1,3,2.6,3c1.5,0,2.6-0.8,2.6-3v-7.2h2.8v7.5c0,3.5-2.4,5.3-5.3,5.3c-2.9,0-5.3-1.7-5.3-5.3
				V234.3z"/>
			<path d="M79.4,234.3h5.3c2.3,0,4.3,1.8,4.3,4.1c0,1.6-0.9,3-2.2,3.6l3.1,4.8h-3.1l-2.6-4.2h0h-1.8v4.2h-2.8V234.3z M84.4,240.2
				c1.1,0,1.8-0.7,1.8-1.7c0-1-0.7-1.7-1.6-1.7h-2.4v3.4H84.4z"/>
		</g>
		<g class="st24">
			<path d="M91.2,234.3h8.6v2.5H94v2.4h5.4v2.5H94v2.7h5.9v2.5h-8.7V234.3z"/>
		</g>
		<g class="st24">
			<path d="M103,242.9c0.6,1,1.7,1.7,3.2,1.7c1.4,0,1.9-0.6,1.9-1.2c0-1.1-1.4-1.4-3.2-2c-1.8-0.6-3-1.6-3-3.6
				c0-2.2,1.9-3.5,4.2-3.5c2.1,0,3.4,1,4.2,2.1l-1.9,1.4c-0.5-0.6-1.2-1-2.3-1c-0.9,0-1.5,0.4-1.5,1c0,1,1,1.1,3,1.9
				c2.3,0.9,3.2,1.9,3.2,3.7c0,2.2-1.5,3.8-4.7,3.8c-2.7,0-4.4-1.3-5.1-2.8L103,242.9z"/>
		</g>
	</g>
</g>
</svg>
