<svg xmlns="http://www.w3.org/2000/svg" viewBox="0 0 122 102.388">
  <defs>
    <style>
      .cls-1 {
        fill: #f1f2f2;
      }

      .cls-2 {
        fill: #e2e2e1;
      }

      .cls-3 {
        fill: #fcfdf9;
      }

      .cls-4 {
        fill: #475563;
      }

      .cls-5 {
        fill: #dadde0;
      }

      .cls-6 {
        fill: #f09d28;
        stroke: #f09d28;
        stroke-linecap: round;
        stroke-linejoin: round;
      }

      .cls-7, .cls-8 {
        fill: #fff;
      }

      .cls-7 {
        opacity: 0.575;
      }

      .cls-8 {
        opacity: 0.546;
      }
    </style>
  </defs>
  <g id="frrfromadvrtsting" transform="translate(-140 -1892)">
    <g id="ducklft_1_" transform="translate(140 1908.215)">
      <path id="Path_730" data-name="Path 730" class="cls-1" d="M88.17,551.568s-7.709,18.247,1.228,35.106,87.453,23.6,105.209-3.035l-65.755-16.355L115.2,547.05,95.8,549.243Z" transform="translate(-85.081 -515.323)"/>
      <path id="Path_731" data-name="Path 731" class="cls-2" d="M139.106,472.811a5.21,5.21,0,0,0,2.173-3.692c.545-2.822-2.934-9.123-6.734-11.729s-9.993-7.276-23.35-.87c0,0-11.4,6.3-16.182,23.35a12.117,12.117,0,0,0-1.519,1.411c-.541.65-.433,7.167,0,8.254s3.909,0,3.259,5.211-.978,7.384,3.151,5.648c0,0,1.3.761,1.195-4.345s1.628-4.995,1.628-4.995,11.188-9.993,17.485-2.606,6.409,13.14,11.621,19,17.35,9.262,20.72,8.927,5.563,4.047,7.587,6.406,29,8.6,38.1,1.181S212.4,475.241,212.4,475.241s0-11.969-10.453-3.2-17.7,11.3-23.268,13.319-23.174-.443-23.174-.443L139.4,480.3Z" transform="translate(-90.404 -453.293)"/>
      <path id="Path_733" data-name="Path 733" class="cls-2" d="M92.86,508.869s2.193,3.37,6.071-7.756c0,0,7.083-11.465,11.634-9.441s-.169-5.9-.169-5.9-4.89,0-5.733,1.35-7.418,12.477-9.272,12.308l-.552,1.929-1.519,1.411Z" transform="translate(-90.228 -474.78)"/>
      <path id="Path_734" data-name="Path 734" class="cls-3" d="M150.085,492.714s-2.193-1.854-3.2-1.181-6.914,3.2-10.115-4.382c0,0-2.024,1.35-2.362-4.382a2.009,2.009,0,0,0-1.854-1.012c-1.181.169,10.622-6.071,16.017-.5s5.228,7.249,5.228,7.249A21.947,21.947,0,0,0,150.085,492.714Z" transform="translate(-116.431 -470.259)"/>
      <path id="Path_735" data-name="Path 735" class="cls-4" d="M161.777,493.881a1.179,1.179,0,0,0-1.123,1.269c.132,1.929.92,5.5,5.046,4.247a1.973,1.973,0,0,0,1.438-2.047,3.457,3.457,0,0,0-2.8-3.222A10.949,10.949,0,0,0,161.777,493.881Z" transform="translate(-135.078 -480.143)"/>
      <path id="Path_736" data-name="Path 736" class="cls-5" d="M92.362,602.408s-1.181-4.047-2.024-.673.5,6.071,1.35,4.721S92.362,602.408,92.362,602.408Z" transform="translate(-88.383 -550.613)"/>
      <path id="Path_737" data-name="Path 737" class="cls-5" d="M112.221,609.286s-.673,12.138,3.878,14.162,2.528-4.047,2.528-4.047a75.992,75.992,0,0,1-3.035-9.949C115.088,606.25,112.221,609.286,112.221,609.286Z" transform="translate(-103.014 -555.637)"/>
      <path id="Path_738" data-name="Path 738" class="cls-5" d="M133.2,591.9s-4.551-11.3-1.516-11.465,4.047,4.89,4.382,6.237,3.37,7.083,1.35,7.249S133.2,591.9,133.2,591.9Z" transform="translate(-115.22 -537.405)"/>
      <path id="Path_739" data-name="Path 739" class="cls-5" d="M166.6,594.731c.673,2.024-.169,4.047,2.193,5.059s1.854-3.709,1.516-4.552-2.362-4.216-3.035-3.2A5.8,5.8,0,0,0,166.6,594.731Z" transform="translate(-139.014 -544.96)"/>
      <path id="Path_740" data-name="Path 740" class="cls-5" d="M133.71,658.174c.169,1.685.338,3.878,2.024,3.37s2.7-2.7,1.685-3.54S133.71,658.174,133.71,658.174Z" transform="translate(-117.254 -588.508)"/>
      <path id="Path_741" data-name="Path 741" class="cls-5" d="M164.034,630.1s5.059,12.477,9.611,11.8,2.024-4.216,1.012-4.721-6.406-4.216-6.914-5.394-1.685-5.563-2.528-4.721S163.191,628.587,164.034,630.1Z" transform="translate(-137.124 -568.194)"/>
    </g>
    <path id="Path_1210" data-name="Path 1210" class="cls-6" d="M0,7.184s.076,3.626,7.811,5.941S30.905,6.1,30.905,6.1,6.372,8.9,9.806,6.842,32.428,0,32.428,0L18.422.489S11.281.875,7.383.875A9.262,9.262,0,0,0,1.337,2.881Z" transform="matrix(0.999, 0.035, -0.035, 0.999, 176.996, 1924.787)"/>
    <rect id="Rectangle_737" data-name="Rectangle 737" class="cls-7" width="34.552" height="22.212" rx="11" transform="translate(215.275 1892)"/>
    <path id="Path_1211" data-name="Path 1211" class="cls-8" d="M4781.341,2838l-4.591,5.452L4788.1,2838Z" transform="translate(-4557.927 -923.788)"/>
  </g>
</svg>
