<svg xmlns="http://www.w3.org/2000/svg" xmlns:xlink="http://www.w3.org/1999/xlink" viewBox="0 0 1446.492 565.194">
  <defs>
    <style>
      .cls-1 {
        fill: #5a8b67;
      }

      .cls-2 {
        fill: #c52327;
      }

      .cls-3 {
        clip-path: url(#clip-path);
      }

      .cls-4 {
        fill: #c62322;
      }

      .cls-5 {
        fill: #f1f2f2;
      }

      .cls-6 {
        fill: #fff;
      }

      .cls-7 {
        fill: #bcc6cf;
      }

      .cls-8 {
        fill: #fef3f0;
      }

      .cls-9 {
        fill: #d1d3d4;
      }

      .cls-10 {
        fill: #f09d28;
      }

      .cls-11 {
        fill: #f6c47e;
      }

      .cls-12 {
        fill: #475563;
      }

      .cls-13 {
        fill: #e2e2e1;
      }

      .cls-14 {
        fill: #ddd7cb;
      }

      .cls-15 {
        fill: #dadde0;
      }

      .cls-16, .cls-17 {
        fill: none;
      }

      .cls-16 {
        stroke: #f09d28;
        stroke-linecap: round;
        stroke-miterlimit: 10;
        stroke-width: 8px;
      }

      .cls-18 {
        fill: #f15a29;
      }

      .cls-19 {
        fill: #c62527;
      }

      .cls-20 {
        fill: #577187;
      }

      .cls-21 {
        fill: #f79c7f;
      }

      .cls-22 {
        fill: #fac4b2;
      }

      .cls-23 {
        fill: #be1e2d;
      }

      .cls-24 {
        fill: #9199a1;
      }

      .cls-25 {
        clip-path: url(#clip-path-3);
      }
    </style>
    <clipPath id="clip-path">
      <path id="Path_1044" data-name="Path 1044" d="M150.853,992.8l-32.678,3.557q-55.416-9.23-55.416-62.164v-7.812q0-60.751,81.345-101.247h16.344l16.344,19.536v15.635q-71.749,29.835-71.749,73.888V942L115,953.728h12.787q53.288,0,120.782-116.871a301.565,301.565,0,0,0,12.787-85.611q0-99.1-55.416-128.594l-3.191-15.635Q207,583.564,212.7,583.57h6.394q50.8,0,78.142,163.765Q297.182,928.869,150.853,992.8ZM354.4,837.567,341.257,823H328.115q-32.683,38.019-32.678,93.789v7.1q0,79.212,68.912,79.218,22.389,0,42.628-17.763l26.284,7.1L452.8,974.682l-3.191-61.455V848.216q-8.527-21.669-26.284-21.663h-3.191l-13.142,11.015q0,122.549-52.579,122.555h-9.939l-9.6-25.22q0-20.948,19.536-90.232v-7.1ZM977.468,948.753v-8.167l-7.1-12.433q-60.031,32.683-78.508,32.678H877.651q-28.428,0-28.423-44.756L888.3,867.054q60.751-57.543,60.746-89.878l-7.1-12.433-17.751,4.266Q769.662,932.426,742.308,932.42h-3.546l-3.557-20.6q0-32.323,21.308-130.721,28.772-48.656,28.777-89.878-14.926-32.683-35.88-32.678h-3.546l-3.557,4.266q-49.737,170.5-49.731,245.11c0,14.892,1.281,27.668,3.763,38.488q-1.424-.772-3.054-1.544L582.81,953.385q-67.134-3.191-67.139-21.308V915.023l40.146-21.663q73.876-12.421,73.888-29.841-7.463-25.924-33.741-25.929h-9.951Q465.23,869.553,465.23,906.148q0,90.243,104.083,90.232,88.2,0,132.094-34.256c8.075,18.3,21.686,27.508,40.9,27.508q22.029,0,60.746-32.678h7.1q22.715,56.84,81.7,56.834l18.117-3.9Q961.134,992.062,977.468,948.753Zm76.381,43.338Q1016.19,875.22,1016.2,796.712q0-59.327,25.22-153.105-8.527-38.362-20.954-38.362h-25.22q-14.926,0-29.132,191.467a468.427,468.427,0,0,0,16.7,123.264q13.5,76.381,54.352,76.37h12.433Zm31.259-372.64H1072.32q-8.167,0-12.433,25.929,15.63,29.835,29.132,29.841,20.948,0,25.22-12.787V649.646Q1114.24,619.45,1085.108,619.45Zm251.149,373.7V978.949l-12.09-10.66-12.433,3.546q-19.541,0-33.741-31.968-20.245-99.113-42.628-99.108-28.428,0-64.291,84.9h-3.191l-3.2-63.582,3.2-14.206q0-16.693-18.483-31.968h-12.078l-9.23,10.66V932.774q2.488,63.6,24.511,63.582,18.478,0,55.061-60.036,16.693-38.722,21.32-38.728,11.015,50.457,21.663,70.7,17.757,30.9,39.792,42.274h12.078Q1336.263,1005.227,1336.257,993.154Zm173-92.714v8.178q-48.673,51.161-98.4,51.149l-28.423-3.9q0,57.2,27.348,100.88l13.5,42.274q.343,30.2-10.305,40.855-9.591,7.463-18.472,8.887l-13.863-1.418-17.751-7.1q-17.054-3.551-38.728-31.968-12.421-35.531,20.954-22.384,62.518,61.815,2.493-78.863l-6.405-58.973q0-130.355,101.6-130.367Q1509.264,845.379,1509.252,900.44Zm-41.2-15.624q-7.1-19.9-31.614-19.89-44.418,7.806-44.413,43.692l12.433,7.812Q1438.207,916.43,1468.054,884.816Zm-377.97-64.657h-18.117q-10.654,0-10.66,55.77v34.45q0,85.972,42.983,85.966H1115.3l10.66-12.787v-8.532q-21.686-34.811-21.674-64.657l3.557-60.036Q1098.6,822.658,1090.083,820.159Z" transform="translate(-62.76 -583.57)"/>
    </clipPath>
    <clipPath id="clip-path-3">
      <path id="Path_1048" data-name="Path 1048" class="cls-1" d="M150.853,992.8l-32.678,3.557q-55.416-9.23-55.416-62.164v-7.812q0-60.751,81.345-101.247h16.344l16.344,19.536v15.635q-71.749,29.835-71.749,73.888V942L115,953.728h12.787q53.288,0,120.782-116.871a301.565,301.565,0,0,0,12.787-85.611q0-99.1-55.416-128.594l-3.191-15.635Q207,583.564,212.7,583.57h6.394q50.8,0,78.142,163.765Q297.182,928.869,150.853,992.8ZM354.4,837.567,341.257,823H328.115q-32.683,38.019-32.678,93.789v7.1q0,79.212,68.912,79.218,22.389,0,42.628-17.763l26.284,7.1L452.8,974.682l-3.191-61.455V848.216q-8.527-21.669-26.284-21.663h-3.191l-13.142,11.015q0,122.549-52.579,122.555h-9.939l-9.6-25.22q0-20.948,19.536-90.232v-7.1ZM977.468,948.753v-8.167l-7.1-12.433q-60.031,32.683-78.508,32.678H877.651q-28.428,0-28.423-44.756L888.3,867.054q60.751-57.543,60.746-89.878l-7.1-12.433-17.751,4.266Q769.662,932.426,742.308,932.42h-3.546l-3.557-20.6q0-32.323,21.308-130.721,28.772-48.656,28.777-89.878-14.926-32.683-35.88-32.678h-3.546l-3.557,4.266q-49.737,170.5-49.731,245.11c0,14.892,1.281,27.668,3.763,38.488q-1.424-.772-3.054-1.544L582.81,953.385q-67.134-3.191-67.139-21.308V915.023l40.146-21.663q73.876-12.421,73.888-29.841-7.463-25.924-33.741-25.929h-9.951Q465.23,869.553,465.23,906.148q0,90.243,104.083,90.232,88.2,0,132.094-34.256c8.075,18.3,21.686,27.508,40.9,27.508q22.029,0,60.746-32.678h7.1q22.715,56.84,81.7,56.834l18.117-3.9Q961.134,992.062,977.468,948.753Zm76.381,43.338Q1016.19,875.22,1016.2,796.712q0-59.327,25.22-153.105-8.527-38.362-20.954-38.362h-25.22q-14.926,0-29.132,191.467a468.427,468.427,0,0,0,16.7,123.264q13.5,76.381,54.352,76.37h12.433Zm31.259-372.64H1072.32q-8.167,0-12.433,25.929,15.63,29.835,29.132,29.841,20.948,0,25.22-12.787V649.646Q1114.24,619.45,1085.108,619.45Zm251.149,373.7V978.949l-12.09-10.66-12.433,3.546q-19.541,0-33.741-31.968-20.245-99.113-42.628-99.108-28.428,0-64.291,84.9h-3.191l-3.2-63.582,3.2-14.206q0-16.693-18.483-31.968h-12.078l-9.23,10.66V932.774q2.488,63.6,24.511,63.582,18.478,0,55.061-60.036,16.693-38.722,21.32-38.728,11.015,50.457,21.663,70.7,17.757,30.9,39.792,42.274h12.078Q1336.263,1005.227,1336.257,993.154Zm173-92.714v8.178q-48.673,51.161-98.4,51.149l-28.423-3.9q0,57.2,27.348,100.88l13.5,42.274q.343,30.2-10.305,40.855-9.591,7.463-18.472,8.887l-13.863-1.418-17.751-7.1q-17.054-3.551-38.728-31.968-12.421-35.531,20.954-22.384,62.518,61.815,2.493-78.863l-6.405-58.973q0-130.355,101.6-130.367Q1509.264,845.379,1509.252,900.44Zm-41.2-15.624q-7.1-19.9-31.614-19.89-44.418,7.806-44.413,43.692l12.433,7.812Q1438.207,916.43,1468.054,884.816Zm-377.97-64.657h-18.117q-10.654,0-10.66,55.77v34.45q0,85.972,42.983,85.966H1115.3l10.66-12.787v-8.532q-21.686-34.811-21.674-64.657l3.557-60.036Q1098.6,822.658,1090.083,820.159Z" transform="translate(-62.76 -583.57)"/>
    </clipPath>
  </defs>
  <g id="HeaderfontVectorArt" transform="translate(-62.76 -583.57)">
    <path id="Path_955" data-name="Path 955" class="cls-2" d="M150.853,992.8l-32.678,3.557q-55.416-9.23-55.416-62.164v-7.812q0-60.751,81.345-101.247h16.344l16.344,19.536v15.635q-71.749,29.835-71.749,73.888V942L115,953.728h12.787q53.288,0,120.782-116.871a301.565,301.565,0,0,0,12.787-85.611q0-99.1-55.416-128.594l-3.191-15.635Q207,583.564,212.7,583.57h6.394q50.8,0,78.142,163.765Q297.182,928.869,150.853,992.8ZM354.4,837.567,341.257,823H328.115q-32.683,38.019-32.678,93.789v7.1q0,79.212,68.912,79.218,22.389,0,42.628-17.763l26.284,7.1L452.8,974.682l-3.191-61.455V848.216q-8.527-21.669-26.284-21.663h-3.191l-13.142,11.015q0,122.549-52.579,122.555h-9.939l-9.6-25.22q0-20.948,19.536-90.232v-7.1ZM977.468,948.753v-8.167l-7.1-12.433q-60.031,32.683-78.508,32.678H877.651q-28.428,0-28.423-44.756L888.3,867.054q60.751-57.543,60.746-89.878l-7.1-12.433-17.751,4.266Q769.662,932.426,742.308,932.42h-3.546l-3.557-20.6q0-32.323,21.308-130.721,28.772-48.656,28.777-89.878-14.926-32.683-35.88-32.678h-3.546l-3.557,4.266q-49.737,170.5-49.731,245.11c0,14.892,1.281,27.668,3.763,38.488q-1.424-.772-3.054-1.544L582.81,953.385q-67.134-3.191-67.139-21.308V915.023l40.146-21.663q73.876-12.421,73.888-29.841-7.463-25.924-33.741-25.929h-9.951Q465.23,869.553,465.23,906.148q0,90.243,104.083,90.232,88.2,0,132.094-34.256c8.075,18.3,21.686,27.508,40.9,27.508q22.029,0,60.746-32.678h7.1q22.715,56.84,81.7,56.834l18.117-3.9Q961.134,992.062,977.468,948.753Zm76.381,43.338Q1016.19,875.22,1016.2,796.712q0-59.327,25.22-153.105-8.527-38.362-20.954-38.362h-25.22q-14.926,0-29.132,191.467a468.427,468.427,0,0,0,16.7,123.264q13.5,76.381,54.352,76.37h12.433Zm31.259-372.64H1072.32q-8.167,0-12.433,25.929,15.63,29.835,29.132,29.841,20.948,0,25.22-12.787V649.646Q1114.24,619.45,1085.108,619.45Zm251.149,373.7V978.949l-12.09-10.66-12.433,3.546q-19.541,0-33.741-31.968-20.245-99.113-42.628-99.108-28.428,0-64.291,84.9h-3.191l-3.2-63.582,3.2-14.206q0-16.693-18.483-31.968h-12.078l-9.23,10.66V932.774q2.488,63.6,24.511,63.582,18.478,0,55.061-60.036,16.693-38.722,21.32-38.728,11.015,50.457,21.663,70.7,17.757,30.9,39.792,42.274h12.078Q1336.263,1005.227,1336.257,993.154Zm173-92.714v8.178q-48.673,51.161-98.4,51.149l-28.423-3.9q0,57.2,27.348,100.88l13.5,42.274q.343,30.2-10.305,40.855-9.591,7.463-18.472,8.887l-13.863-1.418-17.751-7.1q-17.054-3.551-38.728-31.968-12.421-35.531,20.954-22.384,62.518,61.815,2.493-78.863l-6.405-58.973q0-130.355,101.6-130.367Q1509.264,845.379,1509.252,900.44Zm-41.2-15.624q-7.1-19.9-31.614-19.89-44.418,7.806-44.413,43.692l12.433,7.812Q1438.207,916.43,1468.054,884.816Zm-377.97-64.657h-18.117q-10.654,0-10.66,55.77v34.45q0,85.972,42.983,85.966H1115.3l10.66-12.787v-8.532q-21.686-34.811-21.674-64.657l3.557-60.036Q1098.6,822.658,1090.083,820.159Z"/>
    <g id="Group_278" data-name="Group 278" class="cls-3" transform="translate(62.76 583.57)">
      <g id="bckg_2_" transform="translate(-71.783 -667.474)">
        <path id="Path_956" data-name="Path 956" class="cls-4" d="M712.641,195.4c-86.332-62.782-169.941-83.77-213.027-9.573-66.75,114.972,16.756,157.978-28.72,213.027-44.207,53.517-122.075,45.476-124.465,126.856s64.623,131.648-93.343,203.454c-51.79,23.539-98.136,35.9-136.429,102.917-60.551,105.97-66.339,170.216,69.759,244.275s933.134,93.206,985.793-12.1c0,0,618.254,175.123,536.154-497.849-30.436-249.514-11.964-366.212-90.953-382.969s-179.515-38.293-224.991,28.72S1271.453,364.429,1198.538,346.2c-47.867-11.964-100.526-50.269-95.745-148.4,0,0,52.865-171.84-50.269-191.479C952-12.833,959.181,13.5,928.059,58.973c-30.218,44.172-7.183,38.293-50.269,124.465C847.64,243.761,791.63,252.854,712.641,195.4Z" transform="translate(10.896 0.003)"/>
        <g id="Group_269" data-name="Group 269" transform="translate(401.699 121.544)">
          <path id="Path_958" data-name="Path 958" class="cls-5" d="M1094.156,468.1a173.738,173.738,0,0,0-26.444,5.73c-41.6,12.947-140.295,49.594-124,101.75,20.553,65.778,120,20.222,174.734,16.447,59.613-4.106,189.122,41.119,217.9-28.777s4.609-125.3,84.284-139.78c90.449-16.447,129.509-104.838,115.12-135.674-9.4-20.153-76.061-111-129.509-69.9s-63.719,141.839-133.615,127.45-115.121-14.389-131.557,45.225C1126.25,444.2,1118.118,464.562,1094.156,468.1Z" transform="translate(-266.279 -91.731)"/>
          <path id="Path_959" data-name="Path 959" class="cls-6" d="M482.169,230.007a7.487,7.487,0,0,1-8.1-5.021c-5.833-17.66.709-32.414,13.085-48.416,9.585-12.387,23.39-22.063,42.331-17.854,19.879,4.415,32.449,9.836,40.249,14.446a4.435,4.435,0,0,1-2.688,8.224c-16.1-1.521-41-2.413-50.589,5.044-11.2,8.7-22.235,29.12-26.833,38.282a9.771,9.771,0,0,1-7.457,5.3Z" transform="translate(-333.852 -98.866)"/>
          <path id="Path_960" data-name="Path 960" class="cls-7" d="M352.251,614.094c17.5-65.012-2.642-151.309,94.4-175.077,63.365-15.521,46.4-69.141,83.9-116.413,77.651-97.907,132.014-73.156,156.479-71.714,27.714,1.636,83.221,54.729,208.635-21.194,61.935-37.493,91.284-141.8,128.766-120.622s22.818,190.712-70.09,210.271C748.122,362.762,765.256,360.1,680.491,425.292c-116.825,89.866-146.7,179.3-171.142,189.077s-145.064,84.765-158.115,3.26C351.039,616.416,351.931,615.272,352.251,614.094Z" transform="translate(-351.206 -106.263)"/>
          <path id="Path_961" data-name="Path 961" class="cls-8" d="M434.547,489.473a60.054,60.054,0,0,0-4.392,10.477c-4.186,13.188-13.188,32.62-32.746,57.074-13.657,17.076-8.155,37.493,13.039,29.338s127.29-117.511,140.181-130.4c14.309-14.309,71.268-95.413,125.918-111.209,155.724-45.007,17.248-82.569-40.661-61.112a22.9,22.9,0,0,0-2.127,1.167c-70.044,34.988-68.455,102.688-97.8,123.882C501.537,433.554,467.007,429.4,434.547,489.473Z" transform="translate(-345.637 -81.654)"/>
          <path id="Path_962" data-name="Path 962" class="cls-9" d="M784.9,440.955a266.18,266.18,0,0,1,83.347-80.464c41.427-25.312,94.761-51.264,122.086-37.6,48.565,24.282-50.017,58.778-37.355,54.169,18.7-6.805-57.257,5.89-108.338,76.587-36.772,50.9-101.979,106.05-138.225,104.6-46.7-1.864-61.638-5.6-100.869-3.74-23.379,1.109-37.355,0-50.429-13.073-17.969-17.969,63.262-35.491,91.525-35.491,28.022,0,52.3-3.74,93.389-18.678C750.068,483.617,769.593,464.116,784.9,440.955Z" transform="translate(-322.259 -75.661)"/>
          <path id="Path_963" data-name="Path 963" class="cls-5" d="M609.392,450.028c-11.015,10.271-5.6,35.491,13.073,35.491s98.993-20.542,123.276-57.9,69.107-70.982,78.451-74.711,22.418-41.1,3.74-33.627S719.594,347.295,609.392,450.028Z" transform="translate(-314.901 -75.778)"/>
        </g>
        <g id="Group_270" data-name="Group 270" transform="translate(0 627.139)">
          <path id="Path_964" data-name="Path 964" class="cls-10" d="M28.56,986.382c-9.825,22.1-6.325,67.986,25.3,56.926s107.514-93.286,107.514-93.286S294.19,826.689,479.183,851.989c0,0,72.732-12.65,90.129-139.14S724.27,624.31,724.27,624.31s49.011-1.578,15.807-47.432c0,0-88.539-28.457-145.465,9.482s-94.876,145.453-94.876,153.357-26.879,74.311-110.683,90.129S259.4,825.1,210.386,839.327,41.21,957.914,28.56,986.382Z" transform="translate(3.408 -545.67)"/>
          <path id="Path_965" data-name="Path 965" class="cls-11" d="M14.789,864.219c8.2-7.675,20.679-9.265,30.15-3.237,8.247,5.25,14.331,15.978,7.572,37.756C38.282,944.592,7.8,916.272,3.5,901.9-.675,887.952-4.861,882.622,14.789,864.219Z" transform="translate(0 -503.88)"/>
          <path id="Path_966" data-name="Path 966" class="cls-10" d="M64.065,830.975s-33.2,18.975-20.554,47.432,63.251,6.325,67.986,0,60.082-67.986,90.129-71.154c28.48-3,199.028-.309,230.184-49.857a132.536,132.536,0,0,1,13.359-18.163c13.92-15.475,37.676-48.725,33.158-91.673-6.325-60.082-45.236-24.9-47.432-9.482-3.157,22.132-31.625,75.9-36.372,75.9s-52.179,47.432-197.644,53.757C196.891,767.725,114.665,777.218,64.065,830.975Z" transform="translate(-13.158 -492.897)"/>
          <path id="Path_967" data-name="Path 967" class="cls-11" d="M427.272,560.32a51.154,51.154,0,0,0-17.282,17.34c-4.735,8.018-7.663,18.037,1.647,23.962,17.4,11.072,45.854,18.975,63.25-9.482s-15.807-49.011-28.457-42.686C439.694,552.817,432.522,557.072,427.272,560.32Z" transform="translate(58.304 -548.305)"/>
          <path id="Path_968" data-name="Path 968" class="cls-11" d="M691.082,579.918s-31.625,14.229-12.65,52.179,64.829-12.65,52.179-25.3C730.611,606.8,725.876,570.436,691.082,579.918Z" transform="translate(96.667 -543.987)"/>
        </g>
        <path id="Path_969" data-name="Path 969" class="cls-1" d="M721.82,1080S793.191,821.589,876.87,846.2c74.665,21.96,61.523,71.371,98.444,68.912,36.509-2.436,120.588-339.631,226.421-302.71,64.612,22.544,238.167,188.859,352.2,152.934,173.819-54.764-31.614,353.071-31.614,353.071l-195.07,89.569-573.429,54.146Z" transform="translate(103.776 87.643)"/>
      </g>
      <g id="ducklft_2_" transform="translate(64.464 107.909)">
        <path id="Path_970" data-name="Path 970" class="cls-5" d="M134.961,843.36s-39.529,93.595,6.3,180.075,448.575,121.045,539.654-15.567L343.631,923.984,273.575,820.21l-99.451,11.243Z" transform="translate(-119.121 -657.457)"/>
        <path id="Path_971" data-name="Path 971" class="cls-12" d="M367.179,778.035s8.361-4.461,11.14-18.941-15.041-46.792-34.542-60.162S292.525,661.611,224,694.471c0,0-58.492,32.312-83,119.776a62.483,62.483,0,0,0-7.8,7.24c-2.791,3.34-2.23,36.772,0,42.342s20.05,0,16.71,26.741-5.01,37.882,16.15,28.972c0,0,6.68,3.9,6.131-22.281s8.361-25.62,8.361-25.62,57.383-51.252,89.695-13.371,32.872,67.4,59.6,97.484,89,47.512,106.291,45.785,28.537,20.759,38.923,32.86,148.747,44.1,195.448,6.051,72.641-249.937,72.641-249.937,0-61.4-53.62-16.436-90.8,57.943-119.341,68.317-118.861-2.265-118.861-2.265l-82.637-23.676Z" transform="translate(-117.369 -677.915)"/>
        <path id="Path_972" data-name="Path 972" class="cls-10" d="M281.5,767.653l-3.809,4.049a36.67,36.67,0,0,0-9.733,20.954L267,800.982a36.68,36.68,0,0,0,4.472,22.212h0a36.7,36.7,0,0,0,15.59,14.846c6.737,3.351,14.892,7.023,18.266,7.023,6.2,0,115.361-1.235,119.089-1.235s10.294-12.49,7.446-14.88c-8.944-7.5-33.364-24.637-41.6-29.864a36.681,36.681,0,0,1-3.523-2.539l-28.995-23.63a37.421,37.421,0,0,0-5.044-3.5c-3.957-2.265-11.392-7.149-7.675-9.939,3.637-2.722-21.308-4.781-39.815-3.26A36.692,36.692,0,0,0,281.5,767.653Z" transform="translate(-97.895 -666.732)"/>
        <path id="Path_973" data-name="Path 973" class="cls-13" d="M130.91,845.682s11.243,17.294,31.133-39.78c0,0,36.326-58.813,59.671-48.427s-.869-30.264-.869-30.264-25.083,0-29.406,6.92-38.053,63.994-47.569,63.136l-2.825,9.894-7.8,7.24Z" transform="translate(-117.426 -670.827)"/>
        <path id="Path_974" data-name="Path 974" class="cls-14" d="M281.4,787.5s-11.243-9.516-16.436-6.051-35.457,16.436-51.893-22.486c0,0-10.374,6.92-12.113-22.487,0,0-3.454-6.051-9.516-5.193s54.489-31.133,82.157-2.6,26.81,37.184,26.81,37.184A113.306,113.306,0,0,0,281.4,787.5Z" transform="translate(-108.784 -672.321)"/>
        <path id="Path_975" data-name="Path 975" class="cls-12" d="M239.577,739.513a6.054,6.054,0,0,0-5.765,6.508c.675,9.905,4.724,28.194,25.884,21.777a10.125,10.125,0,0,0,7.377-10.5c-.206-8.121-6.394-14.835-14.343-16.528A57.021,57.021,0,0,0,239.577,739.513Z" transform="translate(-102.634 -669.062)"/>
        <path id="Path_976" data-name="Path 976" class="cls-15" d="M138.436,911.48s-6.051-20.759-10.374-3.454,2.6,31.133,6.92,24.214S138.436,911.48,138.436,911.48Z" transform="translate(-118.032 -645.822)"/>
        <path id="Path_977" data-name="Path 977" class="cls-15" d="M160.423,919.339s-3.454,62.267,19.89,72.641,12.97-20.76,12.97-20.76-12.97-34.588-15.567-51.024S160.423,919.339,160.423,919.339Z" transform="translate(-113.209 -644.164)"/>
        <path id="Path_978" data-name="Path 978" class="cls-15" d="M201.372,929.675s-23.356-57.943-7.789-58.813,20.759,25.083,22.487,32,17.294,36.326,6.92,37.184S201.372,929.675,201.372,929.675Z" transform="translate(-109.185 -650.177)"/>
        <path id="Path_979" data-name="Path 979" class="cls-15" d="M242.82,902.972c3.454,10.374-.869,20.76,11.243,25.941s9.516-19.021,7.789-23.356-12.113-21.617-15.567-16.436C242.82,894.325,242.82,902.972,242.82,902.972Z" transform="translate(-101.337 -647.687)"/>
        <path id="Path_980" data-name="Path 980" class="cls-15" d="M192.92,990.655c.869,8.647,1.727,19.89,10.374,17.294s13.84-13.84,8.647-18.163S192.92,990.655,192.92,990.655Z" transform="translate(-108.511 -633.324)"/>
        <path id="Path_981" data-name="Path 981" class="cls-15" d="M239.987,957.576s25.941,63.994,49.3,60.54,10.374-21.617,5.193-24.214-32.861-21.617-35.457-27.679-8.647-28.537-12.97-24.214S235.664,949.8,239.987,957.576Z" transform="translate(-101.958 -640.024)"/>
      </g>
      <g id="Group_271" data-name="Group 271" transform="translate(-16.252 -574.356)">
        <circle id="Ellipse_233" data-name="Ellipse 233" class="cls-10" cx="105.822" cy="105.822" r="105.822" transform="translate(38.017 35.171)"/>
        <path id="Path_982" data-name="Path 982" class="cls-16" d="M95.376,310.226C70.808,296.856,44.535,232.713,49.065,204.05" transform="translate(-48.551 -63.778)"/>
        <path id="Path_983" data-name="Path 983" class="cls-16" d="M292.454,274.11c-13.588,33.959-71.314,61.135-114.331,60.151-18.175-.412-35.548-3.454-51.493-9.756" transform="translate(-37.326 -53.705)"/>
        <path id="Path_984" data-name="Path 984" class="cls-16" d="M271.71,133.11a139.692,139.692,0,0,1,25.838,81.139,141.277,141.277,0,0,1-2.848,28.274" transform="translate(-16.468 -73.977)"/>
        <path id="Path_985" data-name="Path 985" class="cls-16" d="M140.45,85.985a140.633,140.633,0,0,1,35.686-4.575c17.008,0,66.785,7.583,88.288,30.23" transform="translate(-35.339 -81.41)"/>
        <path id="Path_986" data-name="Path 986" class="cls-16" d="M59.53,162.329a140.07,140.07,0,0,1,44.058-59.259" transform="translate(-46.973 -78.296)"/>
      </g>
      <g id="kackavpravo_2_" transform="translate(323.888 172.975)">
        <path id="Path_987" data-name="Path 987" class="cls-5" d="M445.643,914.359s-37.275,33.455-36.315,42.057-7.652,15.292-7.652,15.292l-.961-19.112s-9.562,25.8-10.511,29.624,6.691,13.382-3.82,21.983-43.967,64.04-40.146,84.113,10.511,56.388,21.022,65.95,43.967,59.259,57.349,58.3,510.488,155.175,601.154-109.733c0,0,17-80.75-2.837-106.245s-15.578-56.662-12.753-66.579-18.415-43.921-26.913-41.084-25.495,41.084-25.495,41.084-18.472,41.382-23.951,42.743S685.16,899.455,685.16,899.455Z" transform="translate(-345.936 -712.668)"/>
        <path id="Path_988" data-name="Path 988" class="cls-12" d="M672.765,881.9s18.426,32.529,37.321,28.983,41.347-14.183,57.886-5.9,56.708,34.267,69.7,35.445,40.169,3.546,47.261,7.091l25.986,12.993s-27.176,80.338-114.606,73.247c0,0-53.162,56.708-106.336,11.815,0,0-68.523,25.986-94.521-29.532s-34.267-64.978-34.267-64.978l3.534-29.006Z" transform="translate(-314.988 -713.654)"/>
        <path id="Path_989" data-name="Path 989" class="cls-17" d="M523.794,881.469s-20.073,5.73-16.253,15.292,17.2,24.854,22.944,24.854,34.4,15.292,34.4,15.292l46.837-21.983,5.73-39.186-22.944-33.455L559.148,818.39Z" transform="translate(-322.771 -722.785)"/>
        <path id="Path_990" data-name="Path 990" class="cls-14" d="M444.81,789.928l8.6,128.914,128.079,18.243,66.9-47.432s-48.747-108.246-48.747-111.9S444.81,789.928,444.81,789.928Z" transform="translate(-331.72 -728.704)"/>
        <path id="Path_991" data-name="Path 991" class="cls-18" d="M394.68,970.892s8.544,20.885,26.261-2.745,33.078-38.991,29.532-14.183,11.815,49.617,23.63,33.078,29.532-20.085,33.078-5.9,22.452,31.9,31.9,8.269,24.808-5.9,31.9,7.091,27.176,20.085,28.354,9.448,12.993-7.091,12.993-7.091L607.6,948.051,557.987,919.7H508.371L466.36,894.42l-27.714,19.112S403.8,944.22,402.332,955.589,394.68,970.892,394.68,970.892Z" transform="translate(-338.928 -711.854)"/>
        <path id="Path_992" data-name="Path 992" class="cls-4" d="M439.506,904.87s-11.472,27.714,2.871,32.495,33.455-21.983,41.1-11.472,5.73,35.365,19.112,32.495,22.944-23.893,32.495-19.112,17.2,38.236,32.495,29.624,35.365-21.983,34.4-36.315,20.073,17.2,26.764,17.2,21.983-10.511,17.2-24.854,23.893,8.6,27.714,1.91,8.6-18.163-2.871-32.495,17.2,6.691,20.073-5.73.961-20.073-2.871-22.944c-3.8-2.859-27.691-30.573-27.691-30.573s-41.1,72.641-47.787,75.512-68.821,10.511-78.371,8.6-54.478-4.781-60.22-13.382-19.112-13.382-19.112-13.382Z" transform="translate(-333.108 -720.382)"/>
        <path id="Path_993" data-name="Path 993" class="cls-10" d="M443.91,828.41s-31.545,45.877-72.641,57.349-5.73,23.893-5.73,23.893,95.573-1.91,107.046-5.73,15.292-16.253,3.82-18.163-7.652-17.2-1.91-19.112,16.253-18.163,7.652-21.023-12.421-15.292-12.421-15.292Z" transform="translate(-345.152 -721.344)"/>
        <path id="Path_994" data-name="Path 994" class="cls-13" d="M494.854,786.653s-3.82,22.944-12.421,34.4-10.511,25.8,3.82,43.967,45.877,34.4,65.95,20.073,19.112-31.545,22.944-29.624,12.421-7.652,9.562,10.511-23.893,21.022-24.854,27.714-1.91,18.163,4.781,13.382,26.764-25.8,33.455-25.8.961,16.253,7.652,20.073,15.292,11.472,19.112,3.82,19.112-25.8,15.292-35.365-27.714-58.3-27.714-58.3L537.883,759.9Z" transform="translate(-327.275 -731.194)"/>
        <path id="Path_995" data-name="Path 995" class="cls-12" d="M532.248,821.024c-13.016-7.537-29.3,4.289-25.849,18.929.1.435.217.881.355,1.327,3.82,12.421,27.714,10.511,27.714,5.73s7.652-20.073-1.91-25.8C532.454,821.15,532.351,821.081,532.248,821.024Z" transform="translate(-322.933 -722.742)"/>
        <path id="Path_996" data-name="Path 996" class="cls-1" d="M426.443,817.975s-1.91,31.545,10.511,31.545,28.674,1.91,35.365-21.983,39.186-40.146,48.748-39.186,32.495-9.562,60.219,26.764,64.989,62.13,80.281,60.22,46.837-19.112,43.006-27.714-9.562,8.6-29.624-4.781-34.4-58.3-52.568-69.77-18.163-36.315-95.573-38.236S426.443,817.975,426.443,817.975Z" transform="translate(-334.376 -734.802)"/>
        <path id="Path_997" data-name="Path 997" class="cls-10" d="M691.475,918.206l78.005,26L738.758,951.3l12.993,40.169L673.781,1002.1l-43.715-20.085,23.63,29.532s-10.637,18.906-28.354,8.269-36.624-47.261-33.078-57.886,21.263-18.906,33.078-11.815S658.42,964.3,660.788,951.3s-14.183-42.537-2.368-37.8,29.532,22.452,30.722,17.717c.458-1.83-.675-4.712-2.242-7.572A3.82,3.82,0,0,1,691.475,918.206Z" transform="translate(-310.583 -709.185)"/>
        <path id="Path_998" data-name="Path 998" class="cls-10" d="M617,978.667s11.712,40.89,50.166,38.751,64.44,17.957,79.8-.949,43.715-20.085,50.806-15.361,18.907-9.448,18.907-9.448S806.042,944.4,791.871,944.4c-5.444,0-19.947-2.436-35.949-4.644-25.678-3.534-55.21-6.462-57.394,2.276-3.546,14.183,44.893,20.085,36.624,35.445s-49.617,17.717-56.708,7.091-36.624-25.986-42.537-23.63S619.356,955.037,617,978.667Z" transform="translate(-306.965 -705.834)"/>
        <path id="Path_999" data-name="Path 999" class="cls-15" d="M765.991,979.8s55.53,23.63,73.247,3.546l17.717-20.085s-64.978-4.724-83.884-7.091-40.169-7.091-31.9,3.546S765.991,979.8,765.991,979.8Z" transform="translate(-289.376 -703.423)"/>
        <path id="Path_1000" data-name="Path 1000" class="cls-15" d="M450.447,1051.665a8.252,8.252,0,0,0-5.582,8.841c1.258,12.375,5.993,43.646,22.029,49.308,20.085,7.092,38.991-8.269,25.986-18.906s-34.267-10.637-34.267-23.63C458.625,1057.121,456.464,1049.846,450.447,1051.665Z" transform="translate(-331.719 -689.287)"/>
        <path id="Path_1001" data-name="Path 1001" class="cls-15" d="M441.9,1021.2c-7.926,7.926-3.546,18.906,8.27,22.452s16.539-10.637,14.183-18.906S445.45,1017.654,441.9,1021.2Z" transform="translate(-332.715 -694.015)"/>
        <path id="Path_1002" data-name="Path 1002" class="cls-15" d="M426.653,1101.571c8.464,4.838,15.361,3.546,16.539,10.637s-14.183,16.539-22.452,15.361-8.269-18.906-8.269-18.906S418.383,1096.835,426.653,1101.571Z" transform="translate(-336.37 -682.232)"/>
        <path id="Path_1003" data-name="Path 1003" class="cls-15" d="M384.916,1038.6s-8.269,47.261,4.724,55.53,29.532,8.269,24.808-4.724-10.637-25.986-9.448-36.624c.412-3.74-.743-31.076,0-36.624.755-5.639-4.8-4.037-9.093-.309-1.373,1.19-2.745,2.391-4.2,3.489Z" transform="translate(-340.704 -694.88)"/>
      </g>
      <g id="kvt_2_" transform="translate(-63.251 91.135)">
        <path id="Path_1004" data-name="Path 1004" class="cls-19" d="M140.146,950.851s-111.495,71.978-90.8,188.551,127.851,178.611,148.53,236.9,116.573,257.577,235.022,287.67c113.085,28.72,313.633,154.992,426.455,86.206a72.521,72.521,0,0,1,41.587-10.248c23.287,1.224,64.005,4.118,129.429,10.923,94.521,9.848,115.635-75.34,147.592-86.618s62.015-39.311,110.4-54.787c65.309-20.9,102.482-78.611,132.883-101.99,35.137-27.027,45.739-70.983,104.015-180.041s137.756-265.229,149.525-309.95c11.907-45.236,20.439-149.88-19.044-140.489s-141.759,85.68-168.089,89.443-310.225,216.218-453.116,208.7c-83.667-4.4-127.37,9.242-149.216,21.308-13.5,7.446-27.988,12.81-42.811,17.031-12.2,3.477-27.805,12.661-42.994,34.988-21.331,31.362-34.279,4.964-33.844-16.07a14.293,14.293,0,0,0-22.5-12.193c-6.394,4.5-13.4,11.106-20.748,20.737-30.081,39.483-47.009,3.763-43.246-16.916,4.575-25.163-16.916-33.844-28.205-11.278s-20.679,33.844-48.885,35.72-77.056-1.155-91.387-56.9c-15.59-60.608,12.364-70.514-5.193-105.627-15.59-31.168-27.7,22.509-51.95,5.193-27.542-19.673,7.16-36.452-12.673-42.583-11.323-3.5-23.516,1.853-29.235,12.238-16.791,30.447-19.65,50.452-42.708,37.275-13.851-7.915,16.916-31.968,5.639-47.009-16.916-22.567-62.05,9.4-65.8,26.318s-83.6-8.018-108.041-17.42S138.259,965.891,140.146,950.851Z" transform="translate(-12.807 -671.607)"/>
        <g id="Group_275" data-name="Group 275" transform="translate(0 287.485)">
          <path id="Path_1005" data-name="Path 1005" class="cls-18" d="M477.992,1560.8s-27.336-34.039-11.93-39.757,55.747,31.236,69.084,44.516,71.028,40.3,94.887,38.465-25.872-33.879-25.872-33.879S412.98,1450.863,424.715,1432.425c13.782-21.663,106.348,17.729,139.54,24.957,8.613,1.876,45.179,20.451,68.878,37.379,27.633,19.741,130.447,22.166,143.463,24.477,21.766,3.854,225.4-4.975,241.13-13.611s108.452-50.646,137.31-42.628,29.692-61.054,48.507-70.834,80.464-57.543,100.629-34.3-6.714,66.156-6.714,66.156-134.187,131.751-157.543,142.514-205.959,125.392-462.243,75.214C677.672,1641.769,549.558,1636.657,477.992,1560.8Z" transform="translate(52.454 -851.776)"/>
          <path id="Path_1006" data-name="Path 1006" class="cls-18" d="M613.512,1412.8s84.6,3.877,65.835-22.475-90.221-20.805-71.394-35.823,37.6,3.809,43.246-5.582,3.786-20.679-9.367-22.578-73.316-7.618-73.316-7.618L423.829,1256.48s-101.59,44.984,13.039,92.142S613.512,1412.8,613.512,1412.8Z" transform="translate(46.432 -865.446)"/>
          <path id="Path_1007" data-name="Path 1007" class="cls-12" d="M519.154,1437.7c-17.557,4.655-28.331,22.955-22.864,40.272,3.317,10.511,12.364,19.673,33.2,21.194,52.636,3.832,37.561,32.014,54.478,32.037s58.321-28.125,94.029-14.915,60.185-16.836,77.136-31.854,37.6,7.572,50.783-11.209-13.119-31.98-20.645-24.465c-16.081,16.047-45.133,7.457-58.275-11.358s-39.506,16.871-95.882-2.013c-13.92-4.667-24.4-30.115-46.975-18.861C569.743,1423.676,539.341,1432.346,519.154,1437.7Z" transform="translate(62.614 -842.844)"/>
          <g id="Group_273" data-name="Group 273" transform="translate(0 109.381)">
            <g id="Group_272" data-name="Group 272" transform="translate(147.764 172.87)">
              <path id="Path_1008" data-name="Path 1008" class="cls-10" d="M136.65,1204.65s85.817,119.261,126.776,127.508,51.721,12.6,66.133,21.388c18.415,11.22,76.015,84.479,109.047,73.865s13.84-69.015,13.84-69.015L382.378,1245.94l-113.5-23.562-105.25-61.009Z" transform="translate(-136.65 -1161.37)"/>
            </g>
            <path id="Path_1009" data-name="Path 1009" class="cls-12" d="M278.4,1247.644a1.3,1.3,0,0,1,2.379.961,215.465,215.465,0,0,0-5.181,33.97c-5.673,70.456,36.887,17.271,36.887,17.271l30.55,7.389a3.237,3.237,0,0,1-.846,6.382l-16.242-.423s54.867,29.258,57.3,36.36c2.917,8.521-53.563-32.46-70.788-32.483s-37.79,16.07-44.321,29.464c-24.225,49.64-24.866,78.177-15.041,92.954s27.6,69.267,16.825,70.8c-6.885.972-38.785-92.451-58.4-139.22s-130.344-37.081-167.231-49.434-36.829-59.1-36.829-59.1,31.9,59.087,83.575,54.238,126.2,45.579,126.2,45.579l18.861,25.964,36.017-72.858s-3.9-47.627-18.655-55.038a42.129,42.129,0,0,1-10.82-8.51c-2.848-2.962,1.5-7.309,4.506-4.518L267.5,1266.3Z" transform="translate(-7.46 -976.261)"/>
            <path id="Path_1010" data-name="Path 1010" class="cls-12" d="M187.064,1237.452c26.913-3.809,59.019,22.224,81.151,29.635,7.778,2.608,12.822,9.15,16.825,16.768,7.4,14.057,11.3,31.74,22.464,34.954,17.214,4.941,63.971.092,93.48,9.974s7.263,88.585,24.442,115.669,137.733,37.093,159.922.217-9.756-63.982-44.184-76.335,7.457-51.653-17.076-108.281-122.955-44.458-147.535-61.706-12.135-118.117-44.172-83.713-73.8-9.939-73.8-9.939c-22.04-71.383-73.682-93.595-106.016-94.453s-26.776,45.065-9.608,79.538-19.8,86.08-27.21,110.683C115.761,1200.451,135.377,1244.76,187.064,1237.452Z" transform="translate(8.109 -1010.23)"/>
            <path id="Path_1011" data-name="Path 1011" class="cls-20" d="M209.443,1229.582s-41.05-64.177-47.707-99.016c-4.266-22.349,5.227-67.151,8.132-48.256,1.464,9.528-5.868,22.715-2.928,26.375l3.66,35.9,14.366,26.844a2.914,2.914,0,0,0,5.479-1.212l2.871-53.471-8.064-15.384c-5.673-6.3,3.66-2.928,8.8,5.124,1.819,2.859,3.328-10.706,5.547-13.359a3.075,3.075,0,0,1,5.41,2.288l-3.637,38.19,8.064-13.188c.732-2.288,7.606-6.783,7.332-4.392l-8.8,16.848,20.279-10.946a2.306,2.306,0,0,1,2.654,3.729l-12.662,11.6-21.251,6.6-1.029,21.068a6.324,6.324,0,0,0,8.155,6.359l22.647-6.9,20.988-6.805a2.182,2.182,0,0,1,2.059,3.763l-22.063,8.9,8.75,8.658a2.3,2.3,0,0,1-2.768,3.614l-14.778-8.6-12.627,3.66a9.37,9.37,0,0,0-6.028,12.627l18.655,44.527Z" transform="translate(14.564 -1000.519)"/>
            <path id="Path_1012" data-name="Path 1012" class="cls-20" d="M413.5,1264.217c.892-2.173,5.513-7.434,10.8-16.527,1.155-2,28.183,7.686,29.578,5.8,3.706-5.021-21.068-7.515-26.021-11.964-3.546-3.18,12.135-23.687,13.153-25.7a2.758,2.758,0,0,0-4.609-2.974L402.3,1261.758a4.038,4.038,0,0,1-7.034-1.441l5.879-23.893c-.892-3.168-1.3-1.91-4.026,1.19l-7.961,23.642c-2.2,7.366-4.964,12.1-12.364,13.5l-10.294,1.933a5.6,5.6,0,0,1-5.662-8.658l13.851-14.949a1.6,1.6,0,0,0-1.521-2.653c-2.31.686-5.09,3.969-7.183,6.462a19.573,19.573,0,0,1-4.609,4.015l-9.093,5.719a5.322,5.322,0,0,1-8.727-5.1l4.735-22.155A16.148,16.148,0,0,1,359.05,1227.4l40.512-10.328a23.756,23.756,0,0,0,3.809-1.3c21.846-9.6,25.975-16.722-1.99-3.2a1.464,1.464,0,0,1-.355.126l-38.591,8.532a8.993,8.993,0,0,1-10.763-9.768l.5-4.712a1.182,1.182,0,0,0-2.322-.412L341,1241.078a2.735,2.735,0,0,1-4.609,1.235l-39.46-47.867c-2.024-2.082-9.024-3.191-3.774,2.985l40.329,55.862a12.483,12.483,0,0,1,.663,12.2l-1.109,2.253c-1.441,2.928-22.818-12.1-24.145-15.086,0,0-19.158-14.983-18.815-11.335l30.115,31.236a12.655,12.655,0,0,1-4.541,10.923L305.35,1292c-2.562.984-6.119,2.836-6.119,2.836s7.423.366,8.521.435l9.322.263a1.392,1.392,0,0,0,.309-.011l56.159-7.434a1.558,1.558,0,0,0,.377-.1C376.687,1286.909,409.559,1273.87,413.5,1264.217Z" transform="translate(33.172 -983.981)"/>
            <path id="Path_1013" data-name="Path 1013" class="cls-20" d="M434.909,1396.67c1.9-1.4,45.362-1.224,54.615-6.211,2.036-1.1,14.057,8.4,16.242,7.515,5.776-2.345-8.075-4.541-9.985-10.912-1.373-4.564,17.122-13.462,19.044-14.652,2.814-1.739,6.325-6.474,3.214-5.353l-54.615,23.9a4.041,4.041,0,0,1-5.25-4.907l17.488-17.305c.892-3.168-.114-2.31-4.06-1.087l-19.135,16.013c-5.719,5.135-10.546,7.732-17.58,5.056l-9.791-3.717a5.6,5.6,0,0,1-.32-10.34l19.627-5.524a1.6,1.6,0,0,0,.08-3.065c-2.333-.618-6.417.732-9.493,1.761a19.666,19.666,0,0,1-6.028,1.018l-10.751.126a5.317,5.317,0,0,1-4.781-8.9l15.6-16.424a16.13,16.13,0,0,1,15.418-4.587l39.94,12.341a24.325,24.325,0,0,0,3.923.881c23.642,3.214,30.882-.709-.023-3.763-.08-.011,4.129-5.17,6.84-8.544a.477.477,0,0,0-.663-.675l-10.042,7.537-33.867-11.266c-5.73-2.07-15.143-8.818-11.426-13.645l7.446-15.532c10.8-34.771-.892-5.547-1.944-4.529l-22.715,39.46c-.926.9-5.7,1.361-9.459,1.132a4.729,4.729,0,0,1-4.369-5.17l.949-10.5c-.011-1.9,6.474-20.062,2.917-15.853-14.08,16.642-5.216,45.488-8.613,47.65L380.1,1368.51l.286,7.755,14.1-6.965a10.818,10.818,0,0,1,13.92,3.866c10.2,15.967,32.071,49.182,34.29,42.937C443.659,1413.289,426.5,1402.857,434.909,1396.67Z" transform="translate(46.115 -970.089)"/>
          </g>
          <g id="Group_274" data-name="Group 274" transform="translate(752.164)">
            <path id="Path_1014" data-name="Path 1014" class="cls-10" d="M1345.143,1134.68l11.129,93.835s-86.343,22.395-93.881,43.029-88.3,76.816-114.549,69.267,26.249,16.928-80.739,41.164-118.277,48.622-138.9,35.457-35.7,33.73-75.077,14.9S975.3,1280.511,975.3,1280.511Z" transform="translate(-638.931 -882.957)"/>
            <path id="Path_1015" data-name="Path 1015" class="cls-12" d="M903.682,1449.016s-170.262,101.247-232.2-17.957a57.429,57.429,0,0,1,16.1-71.92c10.1-7.709,22.075-18.6,35.377-33.936a95.617,95.617,0,0,0,18.781-33.341c11.14-34.645,40.764-113.416,81.642-120.656,52.556-9.31,221.4,9.688,247.752-54.077s47.089-129.406,120.233-103.031,63.765,18.849,95.7-1.75,116.527-136.818,168.992-84.2,5.433,146.368,5.433,146.368-22.532,13.108-26.364,73.144,12.993,103.214-52.693,112.513-95.631-45.167-165.1-13.359-54.524,80.613-107.091,97.426-108.818-11.4-153.917,41.073S903.682,1449.016,903.682,1449.016Z" transform="translate(-665.078 -914.598)"/>
            <path id="Path_1016" data-name="Path 1016" class="cls-12" d="M1090.094,1600.509s92.165-161.237,11.575-232.654c0,0-52.51-16.962-65.664-9.47s-73.213,26.169-73.213,26.169-18.758-3.774,45.076-29.955-35.629-18.815-35.629-18.815-37.5-16.939,13.153-14.995,75.008,35.754,110.66,30.173,13.245-78.794,13.245-78.794,11.312-43.143,15.006.023-.091,67.551,7.423,58.172,11.369-76.919,32-73.133,37.527.046,37.55-18.712,13.188-41.267,15.052-26.25,1.807,46.917-13.211,56.273-31.877-15.052-37.538,5.582-5.673,28.137,9.356,20.657,52.568-24.317,54.455-31.82,41.313-28.091,16.894-1.853c0,0-76.987,39.3-95.779,61.786s-28.194,35.617-22.578,46.883,26.146,91.982,22.384,97.6,28.137,9.425,28.148-5.593,52.614-56.217,61.981-46.826,30.081-45,50.749-65.607,154.043-129.258,238.35-35.32c0,0,18.712,33.8-3.774,16.882s-56.239-39.483-67.505-35.743-69.45,16.791-82.615,37.413-54.432,13.062-84.536,74.94-71.417,84.342-80.8,84.33-54.4-9.459-56.3,1.8-9.493,84.422-20.771,93.789-28.194,31.854-35.686,28.091S1090.094,1600.509,1090.094,1600.509Z" transform="translate(-622.838 -872.508)"/>
            <path id="Path_1017" data-name="Path 1017" class="cls-1" d="M1279.942,1114.56c16.916-38.465,18.3-123,5.273-90.209-6.565,16.539,1.178,43.3-5.616,48.679l-21.411,63.1-36.932,42.377a5.38,5.38,0,0,1-9.356-4.449l16.894-97.4,20.863-24.362c12.8-9-5.387-6.783-17.946,5.6-4.449,4.392-1.555-20.645-4.472-26.33a5.682,5.682,0,0,0-10.683,1.876l-9.219,70.228-9.059-27.062c-.366-4.415-10.9-15.338-11.369-10.934l8.864,33.958-31.969-28.068a4.257,4.257,0,0,0-6.313,5.616l18.014,26.135,35.514,20.645-6.851,38.339a11.67,11.67,0,0,1-17.305,8.075l-37.916-21.766-34.965-20.92a4.032,4.032,0,0,0-5.261,5.925l36.029,25.117L1125.43,1170.7a4.234,4.234,0,0,0,3.489,7.641l30.138-9.379,21.206,11.8c9.036,5.033.915,42.651.915,42.651s3.98-.526,8.086-.9C1197.293,1221.742,1258.439,1163.479,1279.942,1114.56Z" transform="translate(-601.421 -899.883)"/>
            <path id="Path_1018" data-name="Path 1018" class="cls-20" d="M951.535,1221.059c-4.095.206-6.268-7.812-13-18.483-2.15-3.408-5.055-44.939-11.792-43.818-10.717,1.784,4.472,27.1,1.121,38.191-2.4,7.949-27.519-34.142-31.454-34.267-5.765-.183,14.057,35.7,19.661,37.07l-21.5-.778a1.66,1.66,0,0,0-.8,3.145c7.743,3.763,29.6,3.82,29.6,3.82s12.925,16.047,20.588,26.684l10.648,14.812a9.764,9.764,0,0,1-9.482,15.338l-29.967-6.714a1.064,1.064,0,0,0-.732,1.979c4.095,2.185,8.555,4.689,9.5,5.753,2.791,3.134-17.26,17.077-11.792,18.541,3.454.927,18.312-17.065,21.32-15.132l15.75,10.145a9.269,9.269,0,0,1-1.613,17.534l-38.465,8.887a28.114,28.114,0,0,1-26.821-8.155L835.946,1239.1a41.4,41.4,0,0,0-4.838-4.975c-31.179-27.29-45.373-28.5-3.454,5.616.114.091-10.957,3.546-18.14,5.845a.833.833,0,0,0,.309,1.624l21.846-1.292,38.408,48.931c6.348,8.51,13.531,27.37,3.488,30.825l-25.746,15.418c-4,3.271-69.587-7.743-72.412-5.364-2.07,1.75,61.889,13.84,56.845,18.4-65.881,59.613,31.4-15.613,33.547-16.024l45.945-21.5a14.945,14.945,0,0,1,13.668.537,63.577,63.577,0,0,1,6.577,4.278,8.255,8.255,0,0,1,1.464,11.77l-11.483,14.354c-1.807,2.768-28.686,22.944-19.467,20.245,36.463-10.66,51.31-61.112,58.321-60.974l52.4,9.242,33.135-.561-62.393-15.727a18.856,18.856,0,0,1-16.516-19c.515-33.009-7.034-123.1-19.959-123.1C942.339,1157.649,969.687,1220.156,951.535,1221.059Z" transform="translate(-649.223 -879.653)"/>
            <path id="Path_1019" data-name="Path 1019" class="cls-20" d="M1084.206,1300.129c-15.041,0-87.979-47.81-87.979-47.81-2.459-1.372-3.294-6.657-.663-5.639l69.473,33.4a2.659,2.659,0,0,0,3.443-3.74l-72.847-123.607a2.038,2.038,0,0,1,3.283-2.391l52.785,60.528a5.494,5.494,0,0,0,8.773-.663l13.474-21.24-5.89-29.624a1.52,1.52,0,0,1,2.939-.755l7.583,24.019L1095.071,1161a2.332,2.332,0,0,1,3.923,2.494l-31.648,60.357a8.543,8.543,0,0,0-.1,7.755l28.194,57.554C1095.415,1289.16,1086.2,1300.129,1084.206,1300.129Z" transform="translate(-617.796 -880.809)"/>
          </g>
        </g>
        <g id="Group_276" data-name="Group 276" transform="translate(924.712)">
          <path id="Path_1020" data-name="Path 1020" class="cls-17" d="M919.58,898.86" transform="translate(-801.036 -629.376)"/>
          <path id="Path_1021" data-name="Path 1021" class="cls-19" d="M910.854,986.111s-12-16.939-9.173-37.4-4.941-43.04-4.941-43.04l187.7-42.342L1044.927,715.14s2.116,5.65,12.7,9.173,20.462-1.407,20.462-1.407,23.287,18.346,35.285,16.23,26.112-6.348,26.112-6.348,9.882,22.578,4.941,47.272-4.232,68.443-28.229,84.673-64.783,45.831-64.783,45.831l-.549,5.353-1.739,17.008s-36.646,25.666-43.7,34.13-52.922,28.228-67.036,19.753S910.854,986.111,910.854,986.111Z" transform="translate(-804.32 -655.79)"/>
          <path id="Path_1022" data-name="Path 1022" class="cls-21" d="M1089.7,730.366s24-45.865,35.285-38.808c0,0,15.521-8.464,21.171,26.112,0,0,12,25.4,8.464,38.808S882.954,990.048,882.954,990.048,842.03,991.455,839.2,971.7s19.753-35.285,19.753-35.285L889.3,918.071l7.766-21.88-38.1-12.7s-49.4-43.749-42.342-53.631,62.8-18.346,62.8-18.346l48.69.709-47.272-44.458s-30.344-60.688-21.869-65.63,79.034,24,79.034,24L973.3,748s5.65-41.633,10.58-53.631,7.057-32.46,14.114-31.053,38.1,23.287,42.342,29.635,12.7,16.939,12.7,16.939l6.348,26.81,24,2.825Z" transform="translate(-808.937 -662.25)"/>
          <path id="Path_1023" data-name="Path 1023" class="cls-18" d="M915.32,986.453s-31.053,7.057-39.517-3.523-12.7-26.81-8.464-31.053,7.766-21.869,1.407-25.4-.709-14.114,4.941-16.939,4.941-23.287-.709-24.694,141.828-72.675,160.174-62.8,49.4-98.787,49.4-98.787,17.637-16.939,26.81-7.766c0,0,28.926-.709,33.169,24s-12,67.745-12,67.745Z" transform="translate(-826.785 -659.132)"/>
          <path id="Path_1024" data-name="Path 1024" class="cls-10" d="M1063.837,917.141s-74.094,42.342-121.366,18.346-87.5-51.515-88.905-57.863,28.228-7.057,27.519-19.055,29.635-30.344,29.635-30.344l74.094-31.053s-11.289-44.458-5.65-45.865,35.285-16.939,35.285-23.287,31.053-24.694,33.169-24,7.057,33.169,14.823,37.4,26.81,33.867,28.926,44.458.709,52.922,4.941,59.979,21.869,21.869,21.869,27.519-29.589,30.745-29.589,30.745Z" transform="translate(-810.534 -657.391)"/>
          <path id="Path_1025" data-name="Path 1025" class="cls-18" d="M1054.86,910.234s-98.925-25.357-122.2-56.411-53.631-67.036-59.979-93.846a35.162,35.162,0,0,0,19.753-16.939c7.057-13.416,28.926-29.635,37.4-24.694s24.694,16.23,35.285,21.869,39.517,29.635,47.272,42.342,54.329,103.729,55.038,112.192l.709,8.464Z" transform="translate(-800.779 -655.459)"/>
          <path id="Path_1026" data-name="Path 1026" class="cls-22" d="M895.51,804.65s31.751-15.521,37.4-27.519,40.226-31.751,40.226-31.751,35.983,25.4,40.924,40.924,0,26.112-11.289,32.46-38.1,33.169-40.226,40.226-12,9.882-12,9.882-33.169-25.4-35.983-39.517Z" transform="translate(-804.496 -651.442)"/>
          <path id="Path_1027" data-name="Path 1027" class="cls-21" d="M1045.886,892.708s-46.151-22.246-63.09-14.492-51.516,32.46-51.516,32.46,50.1,18.346,76.209,0C1007.5,910.688,1042.649,901.549,1045.886,892.708Z" transform="translate(-799.354 -632.58)"/>
          <path id="Path_1028" data-name="Path 1028" class="cls-21" d="M1045.254,890.781s-24-42.342-7.766-50.806,24-24.694,24.694-30.344,6.348-5.65,6.348-5.65l2.116,27.519C1070.657,831.5,1050.9,891.478,1045.254,890.781Z" transform="translate(-784.894 -643.017)"/>
          <path id="Path_1029" data-name="Path 1029" class="cls-20" d="M1050.39,913.074l-14.9-3.443s-2.871-10.889-.572-12.616,2.871-9.745,2.871-9.745,17.774-13.76,22.933-9.173,8.029,1.144,8.029,1.144L1065.3,901.6s75.786,133.146,91.1,188.093c16.241,58.286,62.175,91.9-5.41,370.319,0,0-81.322,205.433-159.476,205.433,0,0,123.79-114.137,151.367-240.569s33.844-204.62,20.05-262.084S1087.265,941.5,1050.39,913.074Z" transform="translate(-790.693 -632.496)"/>
        </g>
        <g id="Group_277" data-name="Group 277" transform="translate(1122.391 81.799)">
          <path id="Path_1030" data-name="Path 1030" class="cls-19" d="M1277.7,1005.867s109.756-92.405,114.011-136.452,21.308-105.147-2.836-98.044-62.519,49.731-71.051,49.731-26.993-17.054-26.993-17.054l-214.56,149.193s-51.149,25.575-80.99,35.526,52.579,52.579,52.579,52.579,36.944-4.266,38.362,22.738-18.472,29.841-8.521,36.944,140.833,15.887,162.781-75.18Z" transform="translate(-988.768 -769.585)"/>
          <path id="Path_1031" data-name="Path 1031" class="cls-1" d="M1299.525,2058.247l57.978-167.334a585.115,585.115,0,0,0,25.666-135.285l12.113-174.276a239.355,239.355,0,0,0-1.1-44.8c-9.413-79.137-41.587-341.381-58.447-373.91-19.89-38.362-88.436-169.747-88.436-169.747V976.548l-24.522-1.819-12.707,21.789,18.838,6.085c108.029,120.737,99.966,290.186,138.1,484.01,0,0,13.634,474.322-118.826,593.262S1299.525,2058.247,1299.525,2058.247Z" transform="translate(-958.37 -700.267)"/>
          <path id="Path_1032" data-name="Path 1032" class="cls-20" d="M1024.55,2098.33" transform="translate(-983.624 -538.726)"/>
          <path id="Path_1033" data-name="Path 1033" class="cls-23" d="M1096.955,820.29s-11.369-49.731,0-61.1c11.232-11.232,48.313,17.054,68.2,39.78C1185.06,821.719,1096.955,820.29,1096.955,820.29Z" transform="translate(-973.94 -731.621)"/>
          <path id="Path_1034" data-name="Path 1034" class="cls-23" d="M1047.693,918.643s-38.362-45.465-25.575-55.416,112.25,8.521,112.25,8.521l58.252-24.156,32.677-96.626s15.635-29.841,28.423-8.521,45.465,72.469,45.465,89.523-176.2,112.25-197.506,112.25S1047.693,918.643,1047.693,918.643Z" transform="translate(-984.348 -734.767)"/>
          <path id="Path_1035" data-name="Path 1035" class="cls-23" d="M1072.9,1091.078s-59.682,0-49.731-17.054,31.259-34.107,31.259-34.107l-12.787-24.156,362.335-166.247s41.21-24.156,34.107,4.266-8.521,45.465-17.054,59.682-72.469,63.937-72.469,63.937l-112.25-4.266-65.367,75.306Z" transform="translate(-983.982 -719.646)"/>
          <path id="Path_1036" data-name="Path 1036" class="cls-18" d="M1066.953,942.194c-5.685,2.837-19.89,26.993-9.951,44.047s14.206,29.841,5.684,34.107,2.837,18.472,2.837,18.472,117.934,35.526,156.3-22.738,46.552-21.263,46.552-21.263,75.649-8.567,101.224-88.139,0-59.682,0-59.682-54,7.1-58.252-15.635-39.78,11.369-39.78,11.369Z" transform="translate(-979.452 -722.003)"/>
          <path id="Path_1037" data-name="Path 1037" class="cls-18" d="M1103.448,844.976c-.732-3.122-13.851-39.506-2.837-48.313,7.1-5.685,38.362-19.89,45.465-11.369s31.259,19.89,31.259,19.89l-38.362,41.21Z" transform="translate(-973.319 -727.884)"/>
          <path id="Path_1038" data-name="Path 1038" class="cls-18" d="M1282.865,802.357s-17.054-35.526-49.731-11.369-44.047,49.731-44.047,49.731-59.682,36.944-92.359,35.526-49.731-4.266-51.149,15.635l-1.418,19.89,11.369,21.308,197.506-89.523Z" transform="translate(-980.804 -727.893)"/>
          <path id="Path_1039" data-name="Path 1039" class="cls-10" d="M1064.38,902.18s-19.89,14.206-9.951,28.423,54,79.572,95.2,85.257,81.78,5.81,81.78,5.81l12.707-21.789,24.522,1.819s33.021-41.256,40.123-82.454-21.308-120.782-26.993-119.352c-2.928.732-14.148,5.238-24.339,9.425a52.641,52.641,0,0,0-27.039,25.129l-2.619,5.239s-26.993,32.677-119.352,44.047C1108.427,883.708,1070.065,897.914,1064.38,902.18Z" transform="translate(-979.728 -725.406)"/>
          <path id="Path_1040" data-name="Path 1040" class="cls-21" d="M1102.663,842.416s34.107,134.988,85.257,152.041,65.366-11.369,63.937-26.993,5.685-78.154-51.149-142.091-56.834,15.635-80.99,12.787S1102.663,842.416,1102.663,842.416Z" transform="translate(-972.534 -725.324)"/>
          <path id="Path_1041" data-name="Path 1041" class="cls-12" d="M1326.409,1171.086s9.264,7.412,28.72-25.014,21.308-91.708,44.47-98.193,86.149-12.044,97.266-7.412,60.208-5.559,62.061-11.117,10.191-3.706,10.191-3.706l-14.823-9.265-134.324-2.779-53.037,25.014-33.112,103.751s0,11.117-6.485,13.9l-6.485,2.779Z" transform="translate(-941.024 -694.678)"/>
          <path id="Path_1042" data-name="Path 1042" class="cls-24" d="M1318.7,1158.205s8.018,14.023,7.091-31.362,59.282-130.619,87.075-120.428c0,0,108.384-.927,141.736,11.117s-84.3,11.117-84.3,11.117-66.693-12.97-79.664,5.559-43.543,82.443-44.47,93.561-5.559,30.573-12.044,34.279S1318.7,1158.205,1318.7,1158.205Z" transform="translate(-941.333 -695.832)"/>
        </g>
      </g>
      <path id="Path_1043" data-name="Path 1043" class="cls-10" d="M382.02,1354.35" transform="translate(-16.86 -472.754)"/>
    </g>
    <g id="Group_279" data-name="Group 279" class="cls-3" transform="translate(62.76 583.57)">
      <path id="Path_1045" data-name="Path 1045" class="cls-12" d="M1124.369,1025.866s9.265,7.412,28.72-25.014,21.308-91.708,44.47-98.193,86.149-12.044,97.266-7.412,60.208-5.559,62.061-11.117,10.191-3.706,10.191-3.706l-14.823-9.264-134.324-2.779-53.037,25.014-33.112,103.752s0,11.117-6.485,13.9l-6.485,2.779Z" transform="translate(89.069 -542.623)"/>
    </g>
    <g id="Group_280" data-name="Group 280" class="cls-25" transform="translate(62.76 583.57)">
      <path id="Path_1047" data-name="Path 1047" class="cls-1" d="M1116.66,1012.985s8.018,14.023,7.091-31.362S1183.033,851,1210.827,861.2c0,0,108.384-.926,141.736,11.117s-84.3,11.117-84.3,11.117-66.693-12.97-79.664,5.559-43.543,82.443-44.47,93.56-5.559,30.573-12.044,34.279S1116.66,1012.985,1116.66,1012.985Z" transform="translate(88.76 -543.776)"/>
    </g>
    <g id="Group_281" data-name="Group 281" class="cls-3" transform="translate(62.76 583.57)">
      <path id="Path_1049" data-name="Path 1049" class="cls-12" d="M986.2,1097.828s-11.781-1.4-2.356-38.007,50.337-79.561,38.694-100.606-51.916-69.793-63.022-74.459-38.316-46.78-35.663-52-4.518-9.859-4.518-9.859l17.008,4.049,96.294,93.686,19.433,55.324-50.623,96.431s-7.915,7.8-5.341,14.377l2.573,6.565Z" transform="translate(60.391 -549.161)"/>
    </g>
    <g id="Group_282" data-name="Group 282" class="cls-3" transform="translate(62.76 583.57)">
      <path id="Path_1051" data-name="Path 1051" class="cls-1" d="M1000.6,1093.416s-15.624,4.141,17.351-27.073,51.378-133.924,24.614-146.563c0,0-75.443-77.822-107.434-93.114s51.275,67.826,51.275,67.826,56.068,38.385,51.973,60.631-28.137,88.894-35.4,97.358-17.866,25.426-15.944,32.643S1000.6,1093.416,1000.6,1093.416Z" transform="translate(61.609 -548.89)"/>
    </g>
  </g>
</svg>
