<svg id="Layer_1" data-name="Layer 1" xmlns="http://www.w3.org/2000/svg" viewBox="0 0 229.176 236.709">
  <defs>
    <style>
      .cls-1 {
        fill: #b60e1c;
      }
    </style>
  </defs>
  <title>ceb1cda2-a84a-4bc0-aa54-46e00d169f3d</title>
  <path id="mainLogo" class="cls-1" d="M226.16,84.779C216.521,26.917,187.311,0,143.043,0,99.675,0,28.608,27.228,5.42,82A69.932,69.932,0,0,0,0,106.441v7.119c0,7.428,5.42,31.559,6.323,35.583,5.119,23.513,17.163,56.933,48.479,71.164a170.267,170.267,0,0,0,25.6,9.282c14.461,4.022,30.721,5.574,45.473,7.119h16.865c.9,0,9.039-1.236,13.859-1.854a115.96,115.96,0,0,0,16.263-4.333c44.26-15.163,54.5-64.05,56.315-95.609V111.39C229.176,106.441,226.16,84.779,226.16,84.779Zm-55.111,8.664c-1.506,1.859-4.221,2.789-6.624,4.024a69.833,69.833,0,0,1-19.271,6.192,45.76,45.76,0,0,0-6.329,1.236c6.027,6.185,9.638,7.117,15.359,7.117.6,0,4.517-.306,6.923-.623-10.832,22.591-21.376,23.523-36.131,23.523-.906,0-9.34-.621-10.243-.621-.6,0-.9,0-1.2.309a27.626,27.626,0,0,0,15.964,9.591c-4.218,10.209-20.782,14.542-28.909,14.542-.6,0-18.074-2.472-18.978-2.472-2.406,0-6.323,1.233-8.127,3.09a13.113,13.113,0,0,0-1.385,2.168,14.1,14.1,0,0,1-1.22,2.346,17.956,17.956,0,0,0-1.61,3.22c-1.506,3.1-2.409,6.81-4.218,9.9-2.707,5.268-15.658,11.453-20.475,11.453H43.061c6.627-11.762,13.251-23.824,20.478-35.274,2.713-4.331,5.724-8.046,8.13-12.377L84.02,123.46C93.352,111.39,106,95.3,119.554,84.47c6.926-5.567,15.359-12.063,23.185-16.4,3.92-2.477,32.227-17.949,40.655-17.949,3.014,0,3.014,2.477,3.014,4.022C186.408,63.427,174.062,89.113,171.049,93.444Z"/>
</svg>
