<?xml version="1.0" encoding="utf-8"?>
<!-- Generator: Adobe Illustrator 23.0.0, SVG Export Plug-In . SVG Version: 6.00 Build 0)  -->
<svg version="1.1" id="Layer_1" xmlns="http://www.w3.org/2000/svg" xmlns:xlink="http://www.w3.org/1999/xlink" x="0px" y="0px"
	 viewBox="0 0 340.1 283" style="enable-background:new 0 0 340.1 283;" xml:space="preserve">
<style type="text/css">
	.st0{fill:#FFFFFF;}
	.st1{clip-path:url(#SVGID_2_);}
	.st2{fill:#DDD7CB;}
	.st3{fill:#F9D8A9;}
	.st4{fill:#F09D28;}
	.st5{fill:#5A8B67;}
	.st6{fill:#475563;stroke:#475563;stroke-width:3.03;stroke-miterlimit:10;}
	.st7{clip-path:url(#SVGID_4_);}
	.st8{fill:#C62527;}
	.st9{fill:#475563;}
	.st10{clip-path:url(#SVGID_6_);}
	.st11{fill:none;stroke:#FFFFFF;stroke-width:0.61;stroke-miterlimit:10;}
	.st12{clip-path:url(#SVGID_8_);}
	.st13{clip-path:url(#SVGID_10_);}
	.st14{fill:#262626;}
	.st15{fill:#F6C47E;}
	.st16{clip-path:url(#SVGID_12_);}
	.st17{clip-path:url(#SVGID_14_);}
	.st18{clip-path:url(#SVGID_16_);}
	.st19{clip-path:url(#SVGID_18_);}
	.st20{fill:none;stroke:#475563;stroke-width:14.56;}
	.st21{fill:none;stroke:#C62527;stroke-width:1.82;}
	.st22{fill:none;stroke:#C62527;stroke-width:1.21;stroke-miterlimit:10;}
	.st23{fill:none;stroke:#F09D28;stroke-width:5;}
	.st24{enable-background:new    ;}
</style>
<title>showroom</title>
<g id="Group_363">
	<g id="Group_359">
		<path id="Exclusion_3" class="st0" d="M340,280.5H0V159.9c2.4,4.2,4.4,6.9,6,8l0,0c0.2,0.1,0.4,0.2,0.7,0.2l0.2,0.1
			c2.4,2.3,5,4.4,7.8,6.2c2.8,1.8,5.7,3.4,8.8,4.6c6.2,2.6,12.9,3.9,19.6,3.8c1.8,0,3.5-0.1,5.3-0.3l2.1,0.7l2.4-1.4
			c2.3-0.5,4.6-1.1,6.9-1.8c4.4-1.5,8.6-3.6,12.5-6.3c3.7-2.5,7.1-5.6,10-9l3.7-2.2l1.7-5.6c1.7-2.9,3-6,4.1-9.2
			c0.6-0.1,1.3-0.4,1.8-0.7c1.4-0.8,2.1-2.7,2.1-5.5c-0.1-3.1-0.6-6.1-1.4-9.1c0.1-5.8-0.9-11.5-2.8-17c-3-8.6-8.2-16.2-15.1-22
			c3.2,2.3,6.3,4.8,9.1,7.6l0,0c-0.1-0.9-0.6-4-0.8-7.2c-0.1-1.8-0.2-3.5-0.1-5.3c0.2-1.7,0.5-2.7,1.1-3.1c2-1.1,4.1-1.7,6.4-1.9
			c0.3,0.4,8.6,8.7,7.9,10.4s3.9,5.3,4,5.3l2.8-4.3c0,0.5,0.1,1.1,0.2,1.7l-3,2.7c0,0.1,3.9,8.2,8.4,16.2c2.1,3.9,4.5,7.6,7,11.2
			c2.6,3.4,4.6,5.1,6,5.1h0.3c1.1,0.1,2.3,0.2,3.4,0.4c4.1,2.8,8.6,4.9,13.4,6.4l-0.7,0.2l1.4,2.4l2.1-1.9c1.4,0.4,2.8,0.6,4.2,0.9
			l8.6,4.9l6.2-2.3l1.2,0.4l1.7-1.5l28.7-10.7l5.7-14.4c1.7-2.8,3.2-5.8,4.3-8.8l0.8-0.7l-0.2-1.2c0.6-1.9,1.1-3.8,1.5-5.8l2.9-7.4
			c0,0,0,0.1-0.1,0.1c-0.6,0.8-1.4,1.7-2.1,2.5c2.1-20.6-8.5-40.4-26.8-50c-2.2-2.2-3.7-3.6-3.9-3.8l0,0c-1.3-4.1-2.9-8.1-4.6-12.1
			c-4.5-10.2-9.8-20.1-15.8-29.5H340V280.5z M0,159.9L0,159.9c-0.2-0.4-0.5-0.8-0.7-1.2c-1.7-2.7-3.1-5.5-4.2-8.5
			c-0.6-1.3-0.9-2.1-0.9-2.1v-0.1l0.1-0.1c-3.6-10.9-3.3-22.7,0.8-33.4c1.3-3.5,3-6.8,5-9.9V159.9z M0,104.6v-9.9l2.8,0.4
			c-0.1,0.3-0.3,0.6-0.4,0.9l0,0c0.3-0.2,0.8-0.5,1.2-0.8l2,0.3l2-2.7c2.7-1.5,5.5-2.8,8.4-4c-2.3,1.4-4.5,3-6.5,4.8l-0.2,0.1
			c-1.2,0.3-2.6,1.7-4,4C3.4,99.9,1.6,102.2,0,104.6L0,104.6z M0,94.7L0,94.7c-11.6-1.8-23.2-4.4-34.4-7.8
			c-6.2-1.9-12.1-4.3-17.8-7.4c-5.5-3.1-9.2-6.5-10.9-10c-0.8-1.6-1.3-3.4-1.2-5.2c0.1-2,0.7-4,1.7-5.8c1.5-2.9,2.7-5.9,3.5-9.1
			c0.7-2.9,1-5.9,1-8.9c-0.1-5.8-1.3-11.4-3.5-16.8c-2.1-5.1-4.7-10-7.8-14.5c-2.9-4.4-5.9-8.3-8.3-11.4c-1-1.2-1.9-2.4-2.6-3.4
			c-1.4-1.8-4.2-5-7.8-9.1c-7.7-8.7-19.3-22-28.2-34.8c-4.2-5.8-7.8-12-10.7-18.5c-1.1-2.6-1.9-5.3-2.4-8.1
			c-0.4-2.2-0.3-4.5,0.3-6.7c0.6-1.8,1.7-3.4,3.1-4.5c1.8-1.4,4-2.3,6.2-2.8c2.4-0.5,4.9-0.8,7.3-0.8c6.8,0,14.8,1.8,24.5,5.5
			c8.7,3.3,17.8,7.8,26.4,12l2.7,1.3c16.6,8.3,32.3,16.2,44,16.2c3.4,0.1,6.8-0.8,9.7-2.6c5.3-3.4,8-7.6,8.4-12.7
			c0.3-4.3-1.1-8.6-2.4-12.3s-2.3-6.7-1-8.4C0.3-93,2-93.5,4.7-93.5c1.2,0,2.4,0.1,3.6,0.2c9.7,1.1,19.3,2.9,28.8,5.3
			c8.7,2.2,17.2,5,25.6,8.3c7.7,3.1,15.3,6.7,22.5,10.7c6.8,3.8,13.3,8,19.6,12.5c11.4,8.3,21.9,17.8,31.3,28.3
			c8,8.9,15.2,18.5,21.6,28.6h-8c18.4,17.7,20.5,28.6,19.1,34.7c-0.4,1.4-0.1,3,0.8,4.2c1.4,1.6,3.5,2.6,5.6,2.5l2.8,0.1l-4.6,0.2
			c-3.1-1-6.3-1.7-9.6-2.1c1.8-0.2,3.1-0.3,3.1-0.4s-1.4-1.4-6-2.8c-3.2-0.9-6.4-1.5-9.7-1.9c-5.3-0.6-10.7-0.9-16.1-0.9
			c-9.3,0.1-18.6,0.6-27.9,1.6L95.8,48.6l1.9,18.2c-0.1,0-5.5,1.7-6,2.3c0,0-0.1,0-0.1,0c-0.3,0-1-0.8-1.8-1.7l0,0
			c-0.3-0.3-0.6-0.7-0.9-1c-1.2-1.3-2.7-2.8-3.8-2.8c-0.1,0-0.2,0-0.3,0c-2.2,0.7-9,3.3-9.6,4.2c-0.4,1.2-0.6,2.5-0.6,3.8
			c-0.1,1.3-0.3,2.5-0.6,3.8C73.7,75.9,73,76,72.5,76c-1.5,0-3-0.5-4.2-1.3c-1.7-1.8-3.3-3.6-4.8-5.6c-1.4-1.8-3.8-5.1-3.5-5.9
			c0.5-1.4-4.7-5-4.8-5l-19.6,0.9c0,0-3.4,2.5-8,6.4c-5.7,4.8-10.9,10.1-15.7,15.7C9.2,80.8,4.9,80,0,79V0.4h149.7
			c-11.3-10.9-27.6-23.1-48.3-36.3C77-51.5,46.1-68.6,9.4-86.8l-1.3-0.7c-1.7-1.1-3.7-1.8-5.7-2.1H2.4c-0.2,0-0.4,0.1-0.6,0.3
			c-0.1,0.1-0.1,0.2-0.1,0.3c0.5,1.5,4.5,15.2,3.8,18.6c-0.6,3.1-1.8,6-3.5,8.6c-3,4.4-7.3,7.8-12.4,9.6c-4.2,1.5-8.6,2.2-13.1,2.2
			c-4.8,0-9.6-0.7-14.2-2l-86.2-30.7c-0.2-0.1-0.4-0.1-0.7-0.1c-0.9,0-1.7,0.5-2.1,1.3c-0.7,1.9-0.8,4-0.4,6
			c0.7,3.7,2.2,7.2,4.4,10.3c3.3,5.1,14.7,20.1,26.7,36l0,0c17.2,22.8,36.7,48.6,38.6,53c1.5,3.6,2.4,9,2.4,14.9s-0.9,11.2-2.5,14.4
			c-0.7,1.4-0.7,3.1,0.1,4.5c2.1,4.2,9.8,8.5,22.9,12.8C-23.2,73.9-11.7,76.8,0,79V94.7z M110,68.4L110,68.4
			c0.9-4.2,1.8-6.6,2.8-6.9l0,0c1.5-0.6,3-1.3,4.4-2.1c-1.6,2-3,4.1-4.2,6.3L110,68.4L110,68.4z M153.9,39.8L153.9,39.8
			c0.2-0.1,0.4-0.1,0.6-0.1c0.1,0,0.1,0,0.2,0L153.9,39.8L153.9,39.8z"/>
		<g>
			<defs>
				<rect id="SVGID_1_" x="0.1" y="-0.2" width="292.9" height="255.3"/>
			</defs>
			<clipPath id="SVGID_2_">
				<use xlink:href="#SVGID_1_"  style="overflow:visible;"/>
			</clipPath>
			<g class="st1">
				<g id="Mask_Group_9">
					<g id="Group_354">
						<path id="Path_1151" class="st2" d="M12,137l-9.2-14.8c0,0,10.1-39.5,17.5-41.4s44.8-17.1,49.3-11.3S95.8,88.1,97,93.2
							s7.3,31.8,7.3,31.8l-7.5,24.6l-35.5,20.7l-44.4-15.5L12,137z"/>
						<path id="Path_1152" class="st3" d="M5.1,135c0,0,16.6-27.1,26.6-23.2s44.8,2.5,50.5-2.5s16-9.1,16-9.1s13.4,29.7,6.3,34
							s-26.2-9.5-36.7-5.9c-10.5,3.6-46,29.8-50.8,26.5S5.1,135,5.1,135z"/>
						<path id="Path_1153" class="st3" d="M114.8,86.6c0,0,15.4,32.7,21.5,32.5s39.9,11.5,39.9,11.5l41.3-36.2l-5.4-42.3l-54.4-3.5
							L114.8,86.6z"/>
						<path id="Path_1154" class="st2" d="M117.2,58.7l0.9,31c0,0,46.6-36.8,59.5-28.3s38.6,5.9,37.2-1.7S189,28.9,189,28.9l-40.6,2
							L117.2,58.7z"/>
						<path id="Path_1155" class="st2" d="M221.8,80.1c0,0-28.5,35.5-41.6,28.3s-39.3,8.1-39.3,8.1l27.9,16l37.8-14.1L221.8,80.1z"
							/>
						<g id="labutvstky">
							<g id="labut">
								<path id="Path_1156" class="st4" d="M84.8,134.2l4.8-0.4l-5.4,2.6L84.8,134.2z"/>
								<path id="Path_1157" class="st0" d="M51.9,147.7c0,0,1.8-1.2,5.5-4.1s8.9-3,10.6-3.2s10.5-4.2,13.4-5.5s4.6,0.2,4.6,0.2
									s0.8,1.3-5.8,2.6S62.6,148.4,62,149.6s-7,3.9-11.6,5.9s-7.9-1-8.2-2.3s4.2-1.6,5.4-2.2s0.2-4.6-0.9-5
									c-0.7-0.3-3.8-5-5.8-8.2c-1.2-1.9-3.2-3.2-5.5-3.5c-1.1-0.1-2.2-0.2-3.3-0.1c-2.2,0.1-4.2-1.1-5.2-3
									c-0.9-1.7-1.6-3.5-0.9-3.4c1.4,0.1,9.7-1.6,11.7-1.1c3,0.8,7.3-2.3,10.4,2c3.1,4.3,6.2,12.2,9.6,12.3s3.2,1.1,3.2,1.1"/>
								<path id="Path_1158" class="st0" d="M64.2,143.1l-2.9,3.1c0,0,2.8,8.1,3.9,7.9s-1.3-4.4-1.3-4.4s5.7,7.7,6.1,6.6
									s-3.9-7.9-3.9-7.9s4.5,5.5,5,4.6s-2.1-5.6-2.1-5.6s2.5,3.1,2.8,2.4s-2.2-8.1-2.2-8.1"/>
								<path id="Path_1159" class="st4" d="M47.2,153.2l-9.5,2.5l2.4,2.2l1.7-2C41.8,155.9,48.3,153.7,47.2,153.2z"/>
								<path id="Path_1160" class="st4" d="M50.1,153.6l-5.7,4.5l-0.7-1.4L50.1,153.6z"/>
							</g>
							<g id="labut-2">
								<path id="Path_1161" class="st4" d="M186.8,99.8l-4.1,3l-1.1-1.8L186.8,99.8z"/>
								<path id="Path_1162" class="st0" d="M141,116.5c-1.6,0.2-1-2.7,0.5-3.3h0.1c1.7-0.6,13.6-5.4,13.6-5.4s7.6,3.9,8.7,4.9
									s5-7.2,7.3-7.5c3.2-0.4,3.6,1.2,2,1.7s-5,5-5,5c0.2,2.1,0.6,1.7,2.4-0.1c1-1,8.4-9.8,10.1-10.4l0,0c1.2-0.4,3.2-0.5,2.6,0.6
									l-1.2,1.9c0,0-12.5,12.7-16.2,18.7c0,0-7.6,3.3-8.9,3.5c-0.7,0.1-0.1-1.1,0.7-2.4c1-1.7,0.9-4.4-1-5c-3-0.8-6.9-4.6-8.7-4.2
									S142.6,116.2,141,116.5z"/>
								<path id="Path_1163" class="st4" d="M157.8,125.1l-3.8,3.5l-1.4-2.4l4.5-1.6C157.8,124.4,158.2,124.7,157.8,125.1z"/>
							</g>
						</g>
						<path id="Path_1164" class="st5" d="M16.6,82.6c0,0-82.7-10.3-68.5-37.1s-9.4-52.7-17.9-64.1s-73.8-76.7-39.5-84.6
							S-17.3-56.7,5.5-71.6s-10.5-37.5,13.8-34.7C152.4-90.8,189,28.9,189,28.9l-2.8-0.1c-4.5-0.2-7.3-3.1-6.4-6.7
							c3-12.9-10.1-47.7-159.3-121.9c-2.2-1.1-4.2-2.5-7-2.8l0,0c-0.4-0.1-0.8,0.3-0.7,0.6c1,3.3,4.4,15.4,3.8,18.6
							C15.7-79.9,13.2-70,0.5-65.3s-27.3,0.2-27.3,0.2l-86.2-30.7c-1.1-0.3-2.3,0.1-2.8,1.2c-1,2.6-1.6,8,3.9,16.4
							c8.1,12.3,62.1,81.6,65.3,89s3.1,22.5-0.1,29.3c-7.7,16,73.5,29,73.5,29L16.6,82.6z"/>
						<path id="Path_1165" class="st6" d="M96.4,88.2c0,0-2.2-14,0.2-15.6c2-1,4.1-1.6,6.3-1.8c0,0,8.7,8.7,7.9,10.4s4,5.3,4,5.3
							l2.8-4.3c0,0,2.2-32.6,6.1-33.7s40.3-23.1,41.8-21.7s12.4-0.1,12.4-0.1s-9-9.2-59.7-4l-11.6,12.9l1.9,18.2c0,0-5.5,1.7-6,2.3
							s-4.9-6.1-7.1-5.4S86.5,54,86,54.9s-0.7,6.4-1.2,7.6s-4.5,0.3-5.7-0.8s-8.7-10-8.3-11.5s-4.8-5-4.8-5l-19.6,0.9
							c0,0-25.8,18.8-33.1,37C13.4,83.1,58.5,51,96.4,88.2z"/>
						<g id="Group_352">
							<g id="Group_346">
								<g>
									<defs>
										<path id="SVGID_3_" d="M36.9,75.9c25.2-8.6,52.4,4.1,60.8,28.3s-5.2,50.9-30.3,59.5S15,159.6,6.6,135.4
											S11.8,84.5,36.9,75.9z"/>
									</defs>
									<clipPath id="SVGID_4_">
										<use xlink:href="#SVGID_3_"  style="overflow:visible;"/>
									</clipPath>
									<g class="st7">
										<g id="labut2">
											<path id="Path_1166" class="st4" d="M166.4,63.1l-7.7,3.1l-0.2-1.8L166.4,63.1z"/>
											<path id="Path_1167" class="st0" d="M111.3,91.4c0,0-4.6,5.1-3.3,6.3s6.5-2.4,7.3-0.6s6.9,0.9,8.1-0.4
												s15.6-12.3,17.2-12.2s13.3-1.5,15.1-1.4c2.9,0.2,16.7,6,19.8,5.2s14.8-0.3,16.8,2.7s3,6.7,3.4,4.9s-0.9-6.7,1.1-5
												s5.3,5.7,5,3.7s-5.2-6.9,0.4-4.3s12.5,1.3,12.6,0.4s-5.2-0.8-5.2-0.8s6.5-2.2,6.4-3.3s-6,1.1-6,1.1s7.3-3.4,6.7-4.6
												s-9.9,4.1-11.8,3.1c-1.8-0.8-3.7-1.5-5.7-2c0,0,2.3-2.2,3.4-3.2s-0.4-1.2-6.6,0.8s-12.5-2-14-2.9s-25.4-5.8-32.8-4
												s9-6.1,9.9-6.9c0.4-0.3,1.1-0.9,1.9-1.5c0.6-0.5,0.7-1.3,0.2-1.9c-0.2-0.3-0.6-0.5-0.9-0.5l-0.6-0.1
												c-2.5-0.2-4.9,0.8-6.6,2.7c-0.8,0.9-1.7,1.8-2.7,2.6c-3.5,2.8-11.7,6.6-11.7,6.6s0.6-1.6-7.7-2.5c0,0-10.4,4-16.8,3.4
												s-36.5,9.4-41.2,12s-10.7-3.6-11.7-3s2.5,3.1,2.5,3.1S56.5,88,58,89.4s5.7,0.9,5.7,0.9s-7,5-4.6,4.4s6.9-3.3,6.9-3.3
												l20.6-1.9c2.2-0.2,4.3-0.6,6.4-1.2C97.5,86.9,107.2,85.1,111.3,91.4z"/>
											<path id="Path_1168" class="st4" d="M113.7,96.6l-2.7,4.3l-3.9-1l5.7-4.2c0.3-0.2,0.7-0.2,0.9,0.1
												C113.8,96.1,113.8,96.3,113.7,96.6z"/>
											<path id="Path_1169" class="st4" d="M107,96.3l-3,1.9l1.7,2.7l2.2-3.9c0.2-0.3,0.1-0.6-0.2-0.8c0,0,0,0,0,0
												C107.4,96.1,107.2,96.1,107,96.3z"/>
											<g id="baba">
												<path id="Path_1170" class="st8" d="M149,73.2l-4.1-0.7l1-2.5l3.4,2.2c0.2,0.2,0.3,0.5,0.2,0.7
													C149.4,73.2,149.2,73.3,149,73.2z"/>
												<g id="Group_345">
													<path id="Path_1171" class="st9" d="M148.5,70.3l-4.8,5c-0.4,0.4-1,0.1-1.1-0.5l-1.7-11.3c-0.1-0.3,0.1-0.6,0.3-0.8
														c0.8-0.4,1.4,0.5,1.5,0.8c0,0.1,0.1,0.1,0.1,0.2l5.6,5.4C148.8,69.4,148.8,70,148.5,70.3z"/>
													<g>
														<defs>
															<path id="SVGID_5_" d="M148.5,70.3l-4.8,5c-0.4,0.4-1,0.1-1.1-0.5l-1.7-11.3c-0.1-0.3,0.1-0.6,0.3-0.8
																c0.8-0.4,1.4,0.5,1.5,0.8c0,0.1,0.1,0.1,0.1,0.2l5.6,5.4C148.8,69.4,148.8,70,148.5,70.3z"/>
														</defs>
														<clipPath id="SVGID_6_">
															<use xlink:href="#SVGID_5_"  style="overflow:visible;"/>
														</clipPath>
														<g class="st10">
															<g id="Group_342">
																<line id="Line_31" class="st11" x1="140.3" y1="68.5" x2="145.5" y2="63.5"/>
															</g>
														</g>
													</g>
													<g>
														<defs>
															<path id="SVGID_7_" d="M148.5,70.3l-4.8,5c-0.4,0.4-1,0.1-1.1-0.5l-1.7-11.3c-0.1-0.3,0.1-0.6,0.3-0.8
																c0.8-0.4,1.4,0.5,1.5,0.8c0,0.1,0.1,0.1,0.1,0.2l5.6,5.4C148.8,69.4,148.8,70,148.5,70.3z"/>
														</defs>
														<clipPath id="SVGID_8_">
															<use xlink:href="#SVGID_7_"  style="overflow:visible;"/>
														</clipPath>
														<g class="st12">
															<g id="Group_343">
																<line id="Line_32" class="st11" x1="139.6" y1="72.7" x2="148.7" y2="64.2"/>
															</g>
														</g>
													</g>
													<g>
														<defs>
															<path id="SVGID_9_" d="M148.5,70.3l-4.8,5c-0.4,0.4-1,0.1-1.1-0.5l-1.7-11.3c-0.1-0.3,0.1-0.6,0.3-0.8
																c0.8-0.4,1.4,0.5,1.5,0.8c0,0.1,0.1,0.1,0.1,0.2l5.6,5.4C148.8,69.4,148.8,70,148.5,70.3z"/>
														</defs>
														<clipPath id="SVGID_10_">
															<use xlink:href="#SVGID_9_"  style="overflow:visible;"/>
														</clipPath>
														<g class="st13">
															<g id="Group_344">
																<line id="Line_33" class="st11" x1="140" y1="77.9" x2="150.6" y2="65.1"/>
															</g>
														</g>
													</g>
												</g>
												<path id="Path_1175" class="st14" d="M141.5,59.8c0,0-2.7,2.4-1.6,3.1c0.9,0.4,1.9,0.7,2.9,0.7L141.5,59.8z"/>
												<path id="Path_1176" class="st15" d="M141.5,59.8l1.3,3.8l0,0c0.6-1.2,0.3-2.7-0.8-3.5L141.5,59.8z"/>
											</g>
										</g>
									</g>
								</g>
							</g>
							<g id="Group_351">
								<g>
									<defs>
										<path id="SVGID_11_" d="M153.3,33.7c24.3-8.3,50.7,4.5,59.2,28.7c8.3,24-4.4,50.3-28.4,58.6c0,0,0,0,0,0l-0.4,0.1
											c-24.3,8.3-50.7-4.5-59.2-28.7c-8.3-24,4.4-50.3,28.4-58.6c0,0,0,0,0,0L153.3,33.7z"/>
									</defs>
									<clipPath id="SVGID_12_">
										<use xlink:href="#SVGID_11_"  style="overflow:visible;"/>
									</clipPath>
									<g class="st16">
										<g id="labut2-2">
											<path id="Path_1177" class="st4" d="M166.3,63.1l-7.7,3.1l-0.1-1.8L166.3,63.1z"/>
											<path id="Path_1178" class="st0" d="M111.2,91.5c0,0-4.6,5.1-3.2,6.3s6.5-2.4,7.3-0.6s6.9,0.9,8.1-0.4
												s15.6-12.3,17.2-12.2s13.3-1.5,15.1-1.4c2.9,0.2,16.7,6,19.8,5.2s14.8-0.3,16.8,2.7s3,6.7,3.4,4.9s-0.9-6.7,1.1-5
												s5.3,5.7,5,3.7s-5.2-6.9,0.4-4.3s12.5,1.3,12.6,0.4s-5.2-0.8-5.2-0.8s6.6-2.2,6.4-3.3s-6,1.1-6,1.1s7.3-3.4,6.7-4.6
												s-9.9,4-11.8,3c-1.9-0.8-3.8-1.5-5.7-2c0,0,2.3-2.2,3.4-3.2s-0.4-1.3-6.6,0.8s-12.5-2-14-2.9s-25.4-5.8-32.8-4
												s9-6.1,9.9-6.9c0.4-0.3,1.1-0.9,1.9-1.5c0.6-0.5,0.7-1.3,0.2-1.9c-0.2-0.3-0.6-0.5-0.9-0.5l-0.6-0.1
												c-2.5-0.2-5,0.8-6.6,2.8c-0.8,1-1.7,1.8-2.7,2.6c-3.5,2.8-11.6,6.6-11.6,6.6s0.6-1.6-7.7-2.5c0,0-10.4,4-16.8,3.4
												s-36.4,9.4-41.2,11.9s-10.7-3.6-11.7-3s2.5,3.1,2.5,3.1s-7.3-0.6-5.8,0.8s5.7,0.8,5.7,0.8s-7,5-4.6,4.4s6.9-3.3,6.9-3.3
												l20.6-1.9c2.2-0.2,4.3-0.6,6.4-1.2C97.4,87,107.1,85.2,111.2,91.5z"/>
											<path id="Path_1179" class="st4" d="M113.6,96.6l-2.6,4.4l-3.9-1l5.6-4.2c0.3-0.2,0.7-0.1,0.9,0.1
												C113.8,96.1,113.8,96.4,113.6,96.6z"/>
											<path id="Path_1180" class="st4" d="M106.9,96.3l-3.1,1.9l1.7,2.7l2.2-3.8c0.1-0.3,0-0.6-0.2-0.8
												C107.3,96.2,107.1,96.2,106.9,96.3z"/>
											<g id="baba-2">
												<path id="Path_1181" class="st8" d="M148.9,73.3l-4.1-0.7l1-2.5l3.4,2.2c0.2,0.2,0.3,0.5,0.1,0.7
													C149.3,73.2,149.1,73.3,148.9,73.3z"/>
												<g id="Group_350">
													<path id="Path_1182" class="st9" d="M148.4,70.4l-4.8,5c-0.4,0.4-1,0.1-1.1-0.5l-1.7-11.3c-0.1-0.3,0.1-0.6,0.3-0.8
														c0.8-0.4,1.4,0.5,1.5,0.8c0,0.1,0.1,0.1,0.1,0.2l5.6,5.4C148.7,69.5,148.7,70,148.4,70.4z"/>
													<g>
														<defs>
															<path id="SVGID_13_" d="M148.4,70.4l-4.8,5c-0.4,0.4-1,0.1-1.1-0.5l-1.7-11.3c-0.1-0.3,0.1-0.6,0.3-0.8
																c0.8-0.4,1.4,0.5,1.5,0.8c0,0.1,0.1,0.1,0.1,0.2l5.6,5.4C148.7,69.5,148.7,70,148.4,70.4z"/>
														</defs>
														<clipPath id="SVGID_14_">
															<use xlink:href="#SVGID_13_"  style="overflow:visible;"/>
														</clipPath>
														<g class="st17">
															<g id="Group_347">
																<line id="Line_34" class="st11" x1="140.2" y1="68.5" x2="145.4" y2="63.5"/>
															</g>
														</g>
													</g>
													<g>
														<defs>
															<path id="SVGID_15_" d="M148.4,70.4l-4.8,5c-0.4,0.4-1,0.1-1.1-0.5l-1.7-11.3c-0.1-0.3,0.1-0.6,0.3-0.8
																c0.8-0.4,1.4,0.5,1.5,0.8c0,0.1,0.1,0.1,0.1,0.2l5.6,5.4C148.7,69.5,148.7,70,148.4,70.4z"/>
														</defs>
														<clipPath id="SVGID_16_">
															<use xlink:href="#SVGID_15_"  style="overflow:visible;"/>
														</clipPath>
														<g class="st18">
															<g id="Group_348">
																<line id="Line_35" class="st11" x1="139.5" y1="72.8" x2="148.6" y2="64.3"/>
															</g>
														</g>
													</g>
													<g>
														<defs>
															<path id="SVGID_17_" d="M148.4,70.4l-4.8,5c-0.4,0.4-1,0.1-1.1-0.5l-1.7-11.3c-0.1-0.3,0.1-0.6,0.3-0.8
																c0.8-0.4,1.4,0.5,1.5,0.8c0,0.1,0.1,0.1,0.1,0.2l5.6,5.4C148.7,69.5,148.7,70,148.4,70.4z"/>
														</defs>
														<clipPath id="SVGID_18_">
															<use xlink:href="#SVGID_17_"  style="overflow:visible;"/>
														</clipPath>
														<g class="st19">
															<g id="Group_349">
																<line id="Line_36" class="st11" x1="139.9" y1="78" x2="150.5" y2="65.1"/>
															</g>
														</g>
													</g>
												</g>
												<path id="Path_1186" class="st14" d="M141.4,59.8c0,0-2.7,2.4-1.6,3.1c0.9,0.4,1.9,0.7,2.9,0.7L141.4,59.8z"/>
												<path id="Path_1187" class="st15" d="M141.4,59.8l1.3,3.8l0,0c0.6-1.2,0.3-2.7-0.8-3.5L141.4,59.8z"/>
											</g>
										</g>
									</g>
								</g>
							</g>
						</g>
						<path id="Path_1197" class="st20" d="M37.2,71.2C63.9,62,93,76,102.4,102.6c9.1,26.4-4.9,55.2-31.4,64.4l-0.4,0.1
							c-26.8,9.1-55.9-5-65.1-31.5c-9.1-26.4,4.9-55.3,31.4-64.4L37.2,71.2z"/>
						<path id="Path_1198" class="st20" d="M152,29.5c26.8-9.1,55.9,5,65.1,31.5c9.1,26.4-4.9,55.3-31.4,64.4l-0.4,0.1
							c-26.8,9.1-55.9-5-65.1-31.5c-9.1-26.4,4.9-55.3,31.4-64.4c0,0,0,0,0,0L152,29.5z"/>
						<g id="Group_353">
							<path id="Path_1199" class="st21" d="M92.6,56.3c3.6-1.2,7.5,0.7,8.7,4.2c1.2,3.5-0.7,7.4-4.2,8.6c0,0,0,0,0,0h-0.1
								c-3.6,1.2-7.5-0.7-8.7-4.2C87.1,61.4,89,57.5,92.6,56.3C92.5,56.3,92.5,56.3,92.6,56.3L92.6,56.3z"/>
							<path id="Path_1200" class="st21" d="M93.1,58c2.6-0.9,5.4,0.4,6.3,3c0.9,2.6-0.4,5.4-3,6.3l0,0c-2.6,0.9-5.5-0.4-6.4-3
								c0,0,0,0,0,0C89.1,61.7,90.4,58.9,93.1,58L93.1,58z"/>
							<line id="Line_37" class="st22" x1="91.2" y1="59.1" x2="98.2" y2="66.2"/>
							<line id="Line_38" class="st22" x1="91.1" y1="66.1" x2="98.3" y2="59.2"/>
						</g>
					</g>
				</g>
			</g>
		</g>
		<line id="Line_12" class="st23" x1="0.1" y1="280.5" x2="340.1" y2="280.5"/>
	</g>
	<g id="SHOWROOM">
		<g class="st24">
			<path d="M25.3,243.7c0.6,1,1.7,1.7,3.2,1.7c1.4,0,1.9-0.6,1.9-1.2c0-1.1-1.4-1.4-3.2-2c-1.8-0.6-3-1.6-3-3.6
				c0-2.2,1.9-3.5,4.2-3.5c2.1,0,3.4,1,4.2,2.1l-1.9,1.4c-0.5-0.6-1.2-1-2.3-1c-0.9,0-1.5,0.4-1.5,1c0,1,1,1.1,3,1.9
				c2.3,0.9,3.2,1.9,3.2,3.7c0,2.2-1.5,3.8-4.7,3.8c-2.7,0-4.4-1.3-5.1-2.8L25.3,243.7z"/>
			<path d="M34.8,235.1h2.8v4.7H43v-4.7h2.8v12.5H43v-5.4h-5.4v5.4h-2.8V235.1z"/>
		</g>
		<g class="st24">
			<path d="M54.3,234.9c3.7,0,6.7,2.9,6.7,6.5c0,3.7-3,6.5-6.7,6.5c-3.7,0-6.7-2.8-6.7-6.5C47.6,237.8,50.6,234.9,54.3,234.9z
				 M54.3,245.4c2.2,0,3.9-1.8,3.9-4c0-2.2-1.7-4-3.9-4s-3.9,1.8-3.9,4C50.4,243.7,52.1,245.4,54.3,245.4z"/>
		</g>
		<g class="st24">
			<path d="M61.2,235.1H64l2.4,7.7l2.3-7.7h2.2l2.3,7.7l2.4-7.7h2.7l-3.8,12.5h-2.3l-2.3-7.5l-2.3,7.5H65L61.2,235.1z"/>
		</g>
		<g class="st24">
			<path d="M79.6,235.1h5.3c2.3,0,4.3,1.8,4.3,4.1c0,1.6-0.9,3-2.2,3.6l3.1,4.8h-3.1l-2.6-4.2h0h-1.8v4.2h-2.8V235.1z M84.5,241
				c1.1,0,1.8-0.7,1.8-1.7c0-1-0.7-1.7-1.6-1.7h-2.4v3.4H84.5z"/>
		</g>
		<g class="st24">
			<path d="M97.2,234.9c3.7,0,6.7,2.9,6.7,6.5c0,3.7-3,6.5-6.7,6.5c-3.7,0-6.7-2.8-6.7-6.5C90.5,237.8,93.5,234.9,97.2,234.9z
				 M97.2,245.4c2.2,0,3.9-1.8,3.9-4c0-2.2-1.7-4-3.9-4s-3.9,1.8-3.9,4C93.3,243.7,95,245.4,97.2,245.4z"/>
			<path d="M111.9,234.9c3.7,0,6.7,2.9,6.7,6.5c0,3.7-3,6.5-6.7,6.5c-3.7,0-6.7-2.8-6.7-6.5C105.2,237.8,108.2,234.9,111.9,234.9z
				 M111.9,245.4c2.2,0,3.9-1.8,3.9-4c0-2.2-1.7-4-3.9-4c-2.2,0-3.9,1.8-3.9,4C108,243.7,109.7,245.4,111.9,245.4z"/>
			<path d="M120.4,235.1h2.3l4.3,6.4l4.3-6.4h2.3v12.5h-2.6V240l-4,5.9l-4-5.9v7.7h-2.6V235.1z"/>
		</g>
	</g>
</g>
</svg>
