<svg xmlns="http://www.w3.org/2000/svg" viewBox="0 0 438.135 480.969">
  <defs>
    <style>
      .cls-1 {
        fill: #798d9f;
      }

      .cls-2 {
        fill: #e6e7e8;
      }

      .cls-3 {
        fill: #f1f2f2;
      }

      .cls-4 {
        fill: #fff;
      }

      .cls-5 {
        fill: #bcc6cf;
      }

      .cls-6 {
        fill: #fef3f0;
      }

      .cls-7 {
        fill: #d1d3d4;
      }

      .cls-8 {
        fill: #f6c47e;
      }

      .cls-9 {
        fill: #4f775a;
      }

      .cls-10 {
        fill: #475563;
      }

      .cls-11 {
        fill: #f09d28;
      }

      .cls-12 {
        fill: #e2e2e1;
      }

      .cls-13 {
        fill: #ddd7cb;
      }

      .cls-14 {
        fill: #dadde0;
      }

      .cls-15, .cls-16 {
        fill: none;
      }

      .cls-15 {
        stroke: #f09d28;
        stroke-linecap: round;
        stroke-miterlimit: 10;
        stroke-width: 5px;
      }

      .cls-17 {
        fill: #f9d8a9;
      }

      .cls-18 {
        fill: #f15a29;
      }

      .cls-19 {
        fill: #f79c7f;
      }

      .cls-20 {
        fill: #577187;
      }

      .cls-21 {
        fill: gray;
      }

      .cls-22 {
        fill: #c62527;
      }

      .cls-23 {
        fill: #fac4b2;
      }

      .cls-24 {
        fill: #be1e2d;
      }

      .cls-25 {
        fill: #9199a1;
      }
    </style>
  </defs>
  <g id="vectorart_page_4" data-name="vectorart page 4" transform="translate(0.001 -0.001)">
    <g id="bckg_1_" transform="translate(-0.001 0.001)">
      <path id="Path_867" data-name="Path 867" class="cls-1" d="M211.465,49.562c-21.9-15.923-43.1-21.245-54.025-2.43-16.931,29.156,4.248,40.065-7.286,54.025-11.213,13.572-30.961,11.534-31.564,32.172s16.39,33.387-23.676,51.6c-13.136,5.97-24.891,9.1-34.6,26.1C44.957,237.9,43.487,254.2,78.005,272.982s236.663,23.64,250.015-3.068c0,0,156.8,44.415,135.978-126.267-7.722-63.283-3.033-92.88-23.068-97.128s-45.529-9.711-57.062,7.286S353.188,92.422,334.7,87.8c-12.142-3.033-25.5-12.749-24.283-37.635,0,0,13.409-43.583-12.749-48.562-25.5-4.856-23.676,1.823-31.564,13.357-7.664,11.2-1.823,9.711-12.749,31.564C245.7,61.822,231.5,64.129,211.465,49.562Z" transform="translate(-27.959 -0.001)"/>
      <path id="Path_868" data-name="Path 868" class="cls-2" d="M28.859,394.032c-4.319,6.291-13.7,11.208-8.717,17.851s13.282,7.057,19.511.414,32.793-17.851,39.85-14.114,44,19.925,55.209,19.1S162.939,401.508,172.488,404s16.192,10.794,26.568,3.319,15.36-8.3,12.04-18.265-17.851-12.04-23.662-9.549a75.188,75.188,0,0,1-8.378,2.606,73.557,73.557,0,0,1-44.578-2.021c-9.342-3.451-18.4-7.554-20.105-10.966-3.738-7.471-12.454-12.454-22-6.643S79.5,374.521,72.86,371.2s-8.3-14.528-8.717-17.433c0,0-5.137-18.9-18.679-4.565C38.407,356.67,43.386,372.862,28.859,394.032Z" transform="translate(-10.479 -192.465)"/>
      <g id="Group_258" data-name="Group 258" transform="translate(101.88 30.815)">
        <path id="Path_869" data-name="Path 869" class="cls-3" d="M659.274,202.746a44.223,44.223,0,0,0-6.709,1.453c-10.552,3.284-35.579,12.577-31.445,25.806,5.212,16.685,30.437,5.129,44.313,4.169,15.117-1.043,47.963,10.429,55.262-7.3s1.167-31.776,21.378-35.452c22.94-4.169,32.846-26.59,29.2-34.408-2.386-5.111-19.291-28.153-32.846-17.728s-16.161,35.971-33.889,32.322-29.2-3.649-33.365,11.468C667.414,196.689,665.35,201.852,659.274,202.746Z" transform="translate(-449.309 -107.287)"/>
        <path id="Path_870" data-name="Path 870" class="cls-4" d="M313.566,122.259a1.9,1.9,0,0,1-2.051-1.272c-1.479-4.477.181-8.223,3.319-12.278,2.43-3.143,5.934-5.6,10.737-4.53a35.274,35.274,0,0,1,10.209,3.663,1.126,1.126,0,0,1-.682,2.087c-4.085-.383-10.4-.612-12.833,1.281-2.839,2.21-5.639,7.383-6.806,9.711a2.487,2.487,0,0,1-1.893,1.338Z" transform="translate(-275.951 -88.99)"/>
        <path id="Path_871" data-name="Path 871" class="cls-5" d="M231.687,198.8c4.438-16.487-.669-38.375,23.94-44.406,16.068-3.936,11.767-17.534,21.276-29.526,19.691-24.829,33.484-18.556,39.687-18.19,7.026.414,21.1,13.88,52.916-5.375,15.707-9.509,23.152-35.967,32.661-30.592s5.789,48.368-17.776,53.329c-52.3,11.01-47.954,10.337-69.451,26.872-29.632,22.791-37.2,45.476-43.407,47.954s-36.794,21.5-40.1.828C231.383,199.392,231.607,199.106,231.687,198.8Z" transform="translate(-231.425 -70)"/>
        <path id="Path_872" data-name="Path 872" class="cls-6" d="M268.252,236.595a15.154,15.154,0,0,0-1.114,2.659c-1.061,3.346-3.346,8.272-8.307,14.475-3.465,4.332-2.069,9.509,3.306,7.44s32.282-29.8,35.553-33.07c3.627-3.627,18.076-24.2,31.934-28.205,39.5-11.415,4.376-20.942-10.31-15.5-.189.07-.352.2-.541.295-17.763,8.871-17.363,26.044-24.8,31.419C285.245,222.411,276.485,221.358,268.252,236.595Z" transform="translate(-245.706 -133.154)"/>
        <path id="Path_873" data-name="Path 873" class="cls-7" d="M423.02,241.183a67.525,67.525,0,0,1,21.135-20.4c10.508-6.419,24.032-13,30.961-9.535,12.318,6.159-12.683,14.906-9.474,13.74,4.741-1.726-14.523,1.492-27.475,19.423-9.324,12.908-25.863,26.9-35.055,26.528-11.842-.475-15.633-1.422-25.582-.946-5.93.282-9.474,0-12.789-3.315-4.556-4.556,16.042-9,23.213-9,7.105,0,13.264-.946,23.684-4.737C414.189,252,419.141,247.056,423.02,241.183Z" transform="translate(-305.687 -148.528)"/>
        <path id="Path_874" data-name="Path 874" class="cls-3" d="M399.252,243.151c-2.8,2.606-1.422,9,3.315,9s25.106-5.212,31.265-14.686,17.526-18,19.9-18.947,5.683-10.42.947-8.527S427.2,217.1,399.252,243.151Z" transform="translate(-324.565 -148.224)"/>
      </g>
      <g id="Group_259" data-name="Group 259" transform="translate(0 159.048)">
        <path id="Path_875" data-name="Path 875" class="cls-8" d="M16.845,479.819c-2.492,5.6-1.6,17.244,6.414,14.435S50.526,470.6,50.526,470.6s33.686-31.278,80.6-24.864c0,0,18.446-3.209,22.857-35.289s39.3-22.456,39.3-22.456,12.432-.4,4.01-12.031c0,0-22.456-7.22-36.891,2.408s-24.059,36.891-24.059,38.9-6.819,18.846-28.069,22.857-32.881-1.2-45.313,2.408S20.054,472.6,16.845,479.819Z" transform="translate(-8.739 -368.043)"/>
        <path id="Path_876" data-name="Path 876" class="cls-8" d="M3.75,566.66a6.3,6.3,0,0,1,7.647-.819c2.091,1.334,3.636,4.05,1.919,9.575-3.61,11.631-11.34,4.446-12.432.8C-.172,572.682-1.233,571.326,3.75,566.66Z" transform="translate(0.001 -475.267)"/>
        <path id="Path_877" data-name="Path 877" class="cls-8" d="M32.725,459.52s-8.422,4.812-5.212,12.031,16.042,1.6,17.244,0,15.236-17.244,22.857-18.045c7.224-.762,50.477-.079,58.379-12.643a32.813,32.813,0,0,1,3.39-4.6c3.531-3.922,9.553-12.357,8.408-23.253-1.6-15.236-11.472-6.317-12.031-2.408-.8,5.613-8.021,19.247-9.223,19.247S103.3,441.875,66.411,443.478C66.407,443.478,45.558,445.882,32.725,459.52Z" transform="translate(-14.992 -385.436)"/>
        <path id="Path_878" data-name="Path 878" class="cls-8" d="M272.737,364.338a12.975,12.975,0,0,0-4.385,4.4c-1.2,2.034-1.946,4.574.418,6.075,4.411,2.809,11.631,4.812,16.042-2.408s-4.01-12.432-7.22-10.825C275.884,362.437,274.066,363.515,272.737,364.338Z" transform="translate(-149.582 -361.286)"/>
        <path id="Path_879" data-name="Path 879" class="cls-8" d="M447.795,381.49s-8.021,3.61-3.209,13.233,16.443-3.209,13.233-6.414C457.819,388.3,456.617,379.082,447.795,381.49Z" transform="translate(-248.005 -372.371)"/>
      </g>
      <path id="Path_880" data-name="Path 880" class="cls-9" d="M475.64,520.988s18.1-65.537,39.321-59.294c18.934,5.569,15.606,18.1,24.965,17.477,9.258-.616,30.583-86.135,57.423-76.772,16.39,5.719,60.4,47.9,89.323,38.784,44.085-13.889-8.017,89.547-8.017,89.547l-49.473,22.716L483.749,567.177Z" transform="translate(-266.249 -224.851)"/>
    </g>
    <g id="ducklft_1_" transform="translate(37.454 199.553)">
      <path id="Path_881" data-name="Path 881" class="cls-3" d="M89.1,552.927S79.071,576.664,90.7,598.6s113.768,30.7,136.867-3.949l-85.541-21.276L124.257,547.05,99.031,549.9Z" transform="translate(-85.081 -505.775)"/>
      <path id="Path_882" data-name="Path 882" class="cls-10" d="M152.942,478.684s2.117-1.131,2.826-4.8-3.817-11.869-8.761-15.258-13-9.465-30.376-1.131c0,0-14.836,8.193-21.052,30.376A15.761,15.761,0,0,0,93.6,489.7c-.7.845-.563,9.324,0,10.737s5.085,0,4.239,6.78-1.272,9.606,4.1,7.347c0,0,1.695.99,1.554-5.653s2.118-6.5,2.118-6.5,14.554-13,22.747-3.39,8.338,17.094,15.117,24.723,22.571,12.049,26.955,11.613,7.237,5.265,9.87,8.334,37.728,11.186,49.57,1.536S248.3,481.845,248.3,481.845s0-15.571-13.6-4.169S211.669,492.371,204.427,495s-30.147-.577-30.147-.577l-20.959-6Z" transform="translate(-89.585 -453.293)"/>
      <path id="Path_883" data-name="Path 883" class="cls-11" d="M186.112,507.583l-.969,1.026a9.315,9.315,0,0,0-2.47,5.314l-.242,2.113a9.294,9.294,0,0,0,1.136,5.63h0a9.292,9.292,0,0,0,3.953,3.764c1.708.85,3.777,1.783,4.631,1.783,1.572,0,29.258-.312,30.2-.312s2.611-3.17,1.889-3.777c-2.267-1.9-8.461-6.247-10.548-7.572a9.968,9.968,0,0,1-.894-.643l-7.352-5.991a9.423,9.423,0,0,0-1.277-.885c-1-.577-2.892-1.814-1.946-2.523.92-.691-5.406-1.215-10.1-.828A9.3,9.3,0,0,0,186.112,507.583Z" transform="translate(-139.541 -481.985)"/>
      <path id="Path_884" data-name="Path 884" class="cls-12" d="M92.86,515.82s2.853,4.385,7.9-10.09c0,0,9.214-14.915,15.135-12.282s-.22-7.678-.22-7.678-6.361,0-7.457,1.756-9.65,16.231-12.062,16.011l-.718,2.509-1.977,1.836Z" transform="translate(-89.436 -471.473)"/>
      <path id="Path_885" data-name="Path 885" class="cls-13" d="M155.386,496.86s-2.853-2.412-4.169-1.536-8.994,4.169-13.158-5.7c0,0-2.633,1.757-3.073-5.7a2.614,2.614,0,0,0-2.412-1.316c-1.536.22,13.819-7.9,20.836-.656s6.8,9.43,6.8,9.43A28.551,28.551,0,0,0,155.386,496.86Z" transform="translate(-111.606 -467.648)"/>
      <path id="Path_886" data-name="Path 886" class="cls-10" d="M162.116,493.882a1.533,1.533,0,0,0-1.462,1.651c.172,2.509,1.2,7.149,6.564,5.525a2.567,2.567,0,0,0,1.871-2.663,4.5,4.5,0,0,0-3.636-4.191A14.24,14.24,0,0,0,162.116,493.882Z" transform="translate(-127.383 -476.01)"/>
      <path id="Path_887" data-name="Path 887" class="cls-14" d="M93.051,603.015s-1.536-5.265-2.633-.876.656,7.9,1.757,6.141S93.051,603.015,93.051,603.015Z" transform="translate(-87.874 -535.635)"/>
      <path id="Path_888" data-name="Path 888" class="cls-14" d="M112.232,609.677s-.876,15.791,5.045,18.424,3.289-5.265,3.289-5.265-3.289-8.774-3.949-12.943S112.232,609.677,112.232,609.677Z" transform="translate(-100.254 -539.885)"/>
      <path id="Path_889" data-name="Path 889" class="cls-14" d="M133.966,595.348s-5.921-14.695-1.972-14.915,5.265,6.361,5.7,8.113,4.385,9.214,1.757,9.43S133.966,595.348,133.966,595.348Z" transform="translate(-110.581 -524.459)"/>
      <path id="Path_890" data-name="Path 890" class="cls-14" d="M166.6,595.6c.876,2.633-.22,5.265,2.853,6.581s2.412-4.825,1.972-5.921-3.073-5.485-3.949-4.169A7.546,7.546,0,0,0,166.6,595.6Z" transform="translate(-130.713 -530.851)"/>
      <path id="Path_891" data-name="Path 891" class="cls-14" d="M133.71,658.326c.22,2.192.44,5.045,2.633,4.385s3.509-3.509,2.192-4.6S133.71,658.326,133.71,658.326Z" transform="translate(-112.302 -567.697)"/>
      <path id="Path_892" data-name="Path 892" class="cls-14" d="M164.121,631.048s6.581,16.231,12.5,15.355,2.633-5.485,1.316-6.141-8.334-5.485-8.994-7.017-2.192-7.237-3.289-6.141S163.025,629.076,164.121,631.048Z" transform="translate(-129.114 -550.509)"/>
    </g>
    <g id="Group_260" data-name="Group 260" transform="translate(14.084 23.614)">
      <circle id="Ellipse_231" data-name="Ellipse 231" class="cls-11" cx="26.841" cy="26.841" r="26.841" transform="translate(9.639 8.919)"/>
      <path id="Path_893" data-name="Path 893" class="cls-15" d="M43.87,161.379c-6.234-3.39-12.894-19.661-11.745-26.929" transform="translate(-31.994 -98.875)"/>
      <path id="Path_894" data-name="Path 894" class="cls-15" d="M125.5,180.62c-3.447,8.615-18.089,15.5-28.993,15.254A37.78,37.78,0,0,1,83.44,193.4" transform="translate(-60.792 -124.72)"/>
      <path id="Path_895" data-name="Path 895" class="cls-15" d="M179.04,87.71a35.431,35.431,0,0,1,6.551,20.581,35.954,35.954,0,0,1-.722,7.171" transform="translate(-114.306 -72.711)"/>
      <path id="Path_896" data-name="Path 896" class="cls-15" d="M92.55,54.8A35.644,35.644,0,0,1,101.6,53.64c4.314,0,16.936,1.924,22.39,7.664" transform="translate(-65.892 -53.64)"/>
      <path id="Path_897" data-name="Path 897" class="cls-15" d="M39.23,82.949A35.506,35.506,0,0,1,50.407,67.92" transform="translate(-36.045 -61.634)"/>
    </g>
    <g id="kackavpravo_1_" transform="translate(127.928 225.922)">
      <path id="Path_898" data-name="Path 898" class="cls-3" d="M315.885,621.14s-9.452,8.483-9.21,10.667-1.941,3.879-1.941,3.879l-.242-4.847s-2.426,6.546-2.668,7.515,1.695,3.394-.969,5.573-11.151,16.24-10.182,21.333,2.668,14.3,5.331,16.724,11.151,15.029,14.545,14.787S440.02,736.124,463.014,668.94c0,0,4.31-20.48-.718-26.947s-3.953-14.373-3.236-16.887-4.671-11.138-6.828-10.42-6.467,10.42-6.467,10.42-4.684,10.5-6.075,10.843-63.063-18.591-63.063-18.591Z" transform="translate(-290.596 -569.982)"/>
      <path id="Path_899" data-name="Path 899" class="cls-10" d="M460.739,610.13s4.671,8.25,9.465,7.352,10.486-3.6,14.682-1.5,14.382,8.69,17.68,8.99,10.187.9,11.987,1.8l6.59,3.3s-6.89,20.374-29.064,18.578c0,0-13.484,14.382-26.968,3,0,0-17.38,6.59-23.97-7.493s-8.69-16.482-8.69-16.482l.9-7.356Z" transform="translate(-370.002 -567.455)"/>
      <path id="Path_900" data-name="Path 900" class="cls-16" d="M401.015,584.278s-5.089,1.453-4.121,3.878,4.363,6.3,5.82,6.3,8.725,3.878,8.725,3.878l11.877-5.573,1.453-9.94-5.82-8.483-8.967-6.062Z" transform="translate(-350.03 -544.028)"/>
      <path id="Path_901" data-name="Path 901" class="cls-17" d="M355.75,544.37l2.184,32.7,32.48,4.627,16.966-12.031s-12.362-27.453-12.362-28.377S355.75,544.37,355.75,544.37Z" transform="translate(-327.067 -528.839)"/>
      <path id="Path_902" data-name="Path 902" class="cls-18" d="M322.71,637.782s2.166,5.3,6.661-.7,8.391-9.888,7.493-3.6,3,12.586,5.992,8.391,7.493-5.094,8.391-1.5,5.692,8.091,8.091,2.1,6.291-1.5,8.091,1.8,6.89,5.093,7.193,2.4,3.3-1.8,3.3-1.8l-1.2-12.885L364.136,624.8H351.549L340.9,618.39l-7.03,4.847s-8.84,7.783-9.21,10.667A5.335,5.335,0,0,1,322.71,637.782Z" transform="translate(-308.572 -572.079)"/>
      <path id="Path_903" data-name="Path 903" class="cls-19" d="M350.5,596.987s-2.91,7.03.726,8.241,8.483-5.573,10.425-2.91,1.453,8.967,4.847,8.241,5.82-6.062,8.241-4.847,4.363,9.7,8.241,7.515,8.967-5.573,8.725-9.21,5.089,4.363,6.788,4.363,5.573-2.668,4.363-6.3,6.062,2.184,7.03.484,2.184-4.6-.726-8.241,4.363,1.695,5.089-1.453.242-5.089-.726-5.82-7.03-7.757-7.03-7.757-10.425,18.424-12.12,19.15-17.455,2.668-19.876,2.184-13.819-1.211-15.272-3.394-4.847-3.394-4.847-3.394Z" transform="translate(-323.511 -550.191)"/>
      <path id="Path_904" data-name="Path 904" class="cls-11" d="M317.652,574.89s-8,11.635-18.424,14.545-1.453,6.062-1.453,6.062,24.239-.484,27.149-1.453,3.878-4.121.969-4.6-1.941-4.363-.484-4.847,4.121-4.6,1.941-5.331-3.152-3.878-3.152-3.878Z" transform="translate(-292.606 -547.728)"/>
      <path id="Path_905" data-name="Path 905" class="cls-4" d="M380.968,536.518s-.969,5.82-3.152,8.725-2.668,6.546.969,11.151,11.635,8.725,16.724,5.089,4.847-8,5.82-7.515,3.152-1.941,2.426,2.668-6.062,5.331-6.3,7.03-.484,4.6,1.211,3.394,6.788-6.546,8.483-6.546.242,4.12,1.941,5.089,3.878,2.91,4.847.969,4.847-6.546,3.878-8.967-7.03-14.787-7.03-14.787L391.872,529.73Z" transform="translate(-338.466 -522.449)"/>
      <path id="Path_906" data-name="Path 906" class="cls-10" d="M402.693,569.066a4.455,4.455,0,0,0-6.555,4.8c.026.11.057.224.092.335.969,3.152,7.03,2.668,7.03,1.453s1.941-5.089-.484-6.546A.5.5,0,0,1,402.693,569.066Z" transform="translate(-349.609 -544.136)"/>
      <path id="Path_907" data-name="Path 907" class="cls-20" d="M343.606,534.291s-.484,8,2.668,8,7.273.484,8.967-5.573,9.94-10.182,12.362-9.94,8.241-2.426,15.272,6.788,16.482,15.756,20.361,15.272,11.877-4.847,10.909-7.031-2.426,2.184-7.515-1.211-8.725-14.787-13.33-17.7-4.6-9.21-24.239-9.7S343.606,534.291,343.606,534.291Z" transform="translate(-320.254 -513.191)"/>
      <path id="Path_908" data-name="Path 908" class="cls-21" d="M477.894,631.934l19.784,6.595-7.792,1.8,3.3,10.187-19.775,2.7-11.085-5.094,5.992,7.493s-2.7,4.794-7.193,2.1-9.289-11.987-8.391-14.682,5.393-4.794,8.391-3,8.391,3.6,8.99.3-3.6-10.786-.6-9.588,7.493,5.692,7.792,4.495a3.222,3.222,0,0,0-.568-1.919A.968.968,0,0,1,477.894,631.934Z" transform="translate(-381.293 -578.918)"/>
      <path id="Path_909" data-name="Path 909" class="cls-20" d="M469.21,656.712s2.971,10.367,12.723,9.83,16.341,4.552,20.237-.242,11.085-5.094,12.886-3.9,4.794-2.4,4.794-2.4-2.7-11.987-6.291-11.987c-1.382,0-5.058-.616-9.117-1.175-6.511-.9-14-1.638-14.554.577-.9,3.6,11.384,5.093,9.289,8.99s-12.586,4.495-14.382,1.8-9.289-6.59-10.786-5.992S469.809,650.72,469.21,656.712Z" transform="translate(-390.579 -587.513)"/>
      <path id="Path_910" data-name="Path 910" class="cls-14" d="M556.584,663.809s14.083,5.991,18.578.9l4.495-5.094s-16.482-1.2-21.276-1.8-10.187-1.8-8.091.9A25.745,25.745,0,0,0,556.584,663.809Z" transform="translate(-435.704 -593.708)"/>
      <path id="Path_911" data-name="Path 911" class="cls-14" d="M357.184,721.88a2.1,2.1,0,0,0-1.418,2.241c.321,3.139,1.523,11.067,5.587,12.5,5.093,1.8,9.888-2.1,6.59-4.794s-8.69-2.7-8.69-5.992C359.257,723.262,358.707,721.417,357.184,721.88Z" transform="translate(-327.07 -629.969)"/>
      <path id="Path_912" data-name="Path 912" class="cls-14" d="M352.206,700.819c-2.012,2.012-.9,4.794,2.1,5.692s4.2-2.7,3.6-4.794S353.1,699.921,352.206,700.819Z" transform="translate(-324.514 -617.836)"/>
      <path id="Path_913" data-name="Path 913" class="cls-14" d="M338.042,754.421c2.144,1.224,3.9.9,4.2,2.7s-3.6,4.2-5.692,3.9-2.1-4.794-2.1-4.794S335.947,753.224,338.042,754.421Z" transform="translate(-315.144 -648.067)"/>
      <path id="Path_914" data-name="Path 914" class="cls-14" d="M315.234,702.793s-2.1,11.987,1.2,14.083,7.493,2.1,6.291-1.2-2.7-6.59-2.4-9.289c.106-.946-.189-7.885,0-9.289.194-1.431-1.219-1.026-2.307-.079-.348.3-.7.607-1.065.885Z" transform="translate(-304.02 -615.615)"/>
    </g>
    <g id="kvt_1_" transform="translate(2.156 82.503)">
      <path id="Path_915" data-name="Path 915" class="cls-22" d="M54.5,596.376S26.222,614.632,31.466,644.2s32.427,45.3,37.67,60.082,29.566,65.33,59.607,72.959c28.681,7.286,79.545,39.308,108.16,21.862a18.394,18.394,0,0,1,10.548-2.6c5.9.308,16.231,1.043,32.828,2.773,23.975,2.5,29.328-19.106,37.433-21.967s15.729-9.971,28-13.894c16.561-5.3,25.991-19.938,33.7-25.868,8.91-6.854,11.6-18.005,26.383-45.661s34.937-67.267,37.921-78.607c3.02-11.472,5.181-38.014-4.829-35.628s-35.953,21.73-42.627,22.685-78.678,54.839-114.922,52.929c-21.219-1.118-32.3,2.342-37.846,5.406a51.513,51.513,0,0,1-10.856,4.319c-3.095.885-7.052,3.209-10.9,8.871-5.41,7.955-8.695,1.259-8.584-4.077a3.624,3.624,0,0,0-5.705-3.09,24.342,24.342,0,0,0-5.261,5.261c-7.629,10.015-11.921.955-10.966-4.292,1.162-6.383-4.292-8.584-7.154-2.861s-5.243,8.584-12.4,9.06-19.542-.295-23.178-14.431c-3.953-15.373,3.134-17.882-1.316-26.788-3.953-7.906-7.026,5.71-13.176,1.316-6.986-4.988,1.818-9.245-3.214-10.8a6.383,6.383,0,0,0-7.413,3.1c-4.257,7.722-4.983,12.8-10.83,9.452-3.513-2.007,4.292-8.1,1.431-11.921-4.292-5.723-15.734,2.386-16.689,6.674s-21.2-2.034-27.4-4.416S54.023,600.188,54.5,596.376Z" transform="translate(-19.408 -405.768)"/>
      <g id="Group_264" data-name="Group 264" transform="translate(0 182.805)">
        <path id="Path_916" data-name="Path 916" class="cls-18" d="M293.158,943.675s-6.934-8.633-3.024-10.081,14.14,7.92,17.521,11.292,18.014,10.218,24.063,9.755-6.564-8.593-6.564-8.593S276.667,915.8,279.643,911.12c3.5-5.494,26.968,4.495,35.39,6.331,2.184.475,11.459,5.186,17.468,9.482,7.008,5.01,33.083,5.622,36.385,6.207,5.52.977,57.168-1.263,61.157-3.451s27.506-12.846,34.822-10.812,7.532-15.483,12.3-17.961,20.409-14.594,25.52-8.7-1.7,16.777-1.7,16.777-34.03,33.413-39.955,36.143S408.8,976.939,343.8,964.212C343.8,964.207,311.308,962.908,293.158,943.675Z" transform="translate(-158.619 -763.849)"/>
        <path id="Path_917" data-name="Path 917" class="cls-18" d="M310.547,867.581s21.457.982,16.7-5.7-22.883-5.278-18.107-9.086,9.535.969,10.97-1.417.96-5.243-2.377-5.727-18.6-1.933-18.6-1.933l-36.7-15.787s-25.767,11.411,3.306,23.372S310.547,867.581,310.547,867.581Z" transform="translate(-143.167 -728.758)"/>
        <path id="Path_918" data-name="Path 918" class="cls-10" d="M332.247,937.614a8.149,8.149,0,0,0-5.8,10.213c.841,2.668,3.134,4.992,8.422,5.375,13.352.973,9.527,8.118,13.819,8.127s14.792-7.132,23.847-3.782,15.263-4.27,19.564-8.078,9.535,1.919,12.877-2.844-3.328-8.109-5.239-6.207c-4.081,4.068-11.446,1.893-14.778-2.879s-10.02,4.279-24.318-.511c-3.531-1.184-6.19-7.638-11.913-4.785C345.075,934.057,337.362,936.254,332.247,937.614Z" transform="translate(-184.691 -786.746)"/>
        <g id="Group_262" data-name="Group 262" transform="translate(0 27.733)">
          <g id="Group_261" data-name="Group 261" transform="translate(37.486 43.859)">
            <path id="Path_919" data-name="Path 919" class="cls-11" d="M90.05,776.25S111.815,806.5,122.2,808.59s13.119,3.2,16.773,5.424c4.671,2.844,19.282,21.426,27.655,18.732s3.509-17.5,3.509-17.5l-17.772-28.518-28.782-5.974-26.7-15.47Z" transform="translate(-90.05 -765.28)"/>
          </g>
          <path id="Path_920" data-name="Path 920" class="cls-10" d="M73.624,821.646a.328.328,0,0,1,.6.242,54.546,54.546,0,0,0-1.312,8.615c-1.44,17.869,9.355,4.38,9.355,4.38l7.748,1.875a.822.822,0,0,1-.216,1.62l-4.121-.11s13.916,7.418,14.532,9.223c.74,2.161-13.585-8.232-17.953-8.237s-9.584,4.077-11.243,7.471C64.872,859.317,64.71,866.554,67.2,870.3s7,17.569,4.266,17.957c-1.748.247-9.835-23.447-14.814-35.311s-33.057-9.4-42.416-12.538S4.9,825.419,4.9,825.419s8.091,14.985,21.2,13.757,32.009,11.56,32.009,11.56l4.781,6.586,9.135-18.476s-.991-12.08-4.728-13.96a10.727,10.727,0,0,1-2.747-2.161.81.81,0,0,1,1.145-1.145l5.164,4.794Z" transform="translate(-4.9 -752.809)"/>
          <path id="Path_921" data-name="Path 921" class="cls-10" d="M94.349,723.291c6.824-.964,14.968,5.635,20.581,7.515,1.972.66,3.249,2.32,4.266,4.253,1.875,3.566,2.866,8.052,5.7,8.862,4.367,1.255,16.222.022,23.706,2.527s1.84,22.465,6.2,29.337,34.932,9.408,40.558.057-2.474-16.227-11.2-19.361,1.889-13.1-4.332-27.462-31.186-11.274-37.419-15.65-3.077-29.958-11.2-21.232-18.714-2.522-18.714-2.522c-5.591-18.1-18.688-23.737-26.885-23.957s-6.793,11.428-2.434,20.171-5.023,21.831-6.9,28.069C76.269,713.905,81.243,725.144,94.349,723.291Z" transform="translate(-44.845 -665.653)"/>
          <path id="Path_922" data-name="Path 922" class="cls-20" d="M118.237,748.681s-10.411-16.28-12.1-25.115c-1.083-5.67,1.325-17.028,2.065-12.238.37,2.417-1.488,5.763-.744,6.691l.929,9.1,3.645,6.806a.737.737,0,0,0,1.387-.308l.731-13.559-2.043-3.9c-1.44-1.6.929-.744,2.232,1.3.462.722.841-2.716,1.409-3.39a.782.782,0,0,1,1.374.581l-.924,9.685,2.043-3.346c.185-.581,1.928-1.721,1.858-1.114l-2.232,4.275,5.142-2.778a.585.585,0,0,1,.674.947l-3.214,2.945-5.388,1.673-.26,5.344a1.6,1.6,0,0,0,2.069,1.611l5.745-1.748,5.322-1.726a.555.555,0,0,1,.524.955l-5.6,2.254,2.219,2.2a.581.581,0,0,1-.7.916l-3.746-2.179-3.2.929a2.379,2.379,0,0,0-1.532,3.2l4.732,11.292Z" transform="translate(-61.417 -690.576)"/>
          <path id="Path_923" data-name="Path 923" class="cls-20" d="M222.421,804.086c.225-.55,1.4-1.884,2.738-4.191.295-.506,7.149,1.95,7.5,1.47.938-1.272-5.344-1.906-6.6-3.033-.9-.806,3.077-6.009,3.337-6.52a.7.7,0,0,0-1.171-.753l-8.65,12.4a1.028,1.028,0,0,1-1.787-.365l1.492-6.058c-.225-.8-.33-.484-1.021.3l-2.021,6c-.559,1.867-1.259,3.068-3.134,3.421l-2.611.489a1.42,1.42,0,0,1-1.435-2.2l3.513-3.79a.405.405,0,0,0-.387-.674,5.407,5.407,0,0,0-1.823,1.638,4.97,4.97,0,0,1-1.171,1.017l-2.307,1.453a1.351,1.351,0,0,1-2.214-1.294l1.2-5.617a4.085,4.085,0,0,1,2.729-3.033l10.275-2.619a6.223,6.223,0,0,0,.964-.33c5.538-2.434,6.586-4.239-.506-.81a.329.329,0,0,1-.092.031l-9.791,2.166a2.281,2.281,0,0,1-2.729-2.478l.128-1.2a.3.3,0,0,0-.59-.106l-2.245,8.813a.7.7,0,0,1-1.171.313l-10.006-12.142c-.515-.528-2.289-.81-.955.757l10.227,14.167a3.167,3.167,0,0,1,.167,3.095l-.282.572c-.365.744-5.785-3.068-6.124-3.826,0,0-4.856-3.8-4.772-2.875l7.638,7.92a3.208,3.208,0,0,1-1.153,2.769l-2.615,2.157c-.652.251-1.554.722-1.554.722s1.88.092,2.162.11l2.364.066a.473.473,0,0,0,.079,0l14.241-1.884a.35.35,0,0,0,.1-.026C213.084,809.84,221.422,806.534,222.421,804.086Z" transform="translate(-109.128 -733.004)"/>
          <path id="Path_924" data-name="Path 924" class="cls-20" d="M264.362,876.828c.48-.352,11.5-.308,13.85-1.576.515-.277,3.566,2.131,4.121,1.906,1.466-.594-2.047-1.149-2.531-2.769-.348-1.158,4.341-3.412,4.829-3.716.713-.44,1.6-1.642.814-1.36l-13.854,6.062a1.027,1.027,0,0,1-1.334-1.246l4.433-4.389c.225-.8-.026-.586-1.03-.277l-4.851,4.059c-1.448,1.3-2.677,1.959-4.46,1.281l-2.483-.942a1.422,1.422,0,0,1-.079-2.624l4.975-1.4a.407.407,0,0,0,.022-.779,5.34,5.34,0,0,0-2.408.445,5.152,5.152,0,0,1-1.528.26l-2.725.031a1.349,1.349,0,0,1-1.211-2.258l3.958-4.165a4.082,4.082,0,0,1,3.909-1.162l10.13,3.13a6.382,6.382,0,0,0,.995.224c6,.814,7.832-.18-.009-.955-.022,0,1.048-1.312,1.735-2.166a.121.121,0,0,0-.167-.172l-2.549,1.911-8.589-2.857c-1.453-.524-3.839-2.236-2.9-3.46l1.889-3.94c2.738-8.818-.225-1.409-.493-1.149l-5.763,10.006a5.1,5.1,0,0,1-2.4.286,1.2,1.2,0,0,1-1.1-1.312l.242-2.663c0-.48,1.642-5.089.74-4.019-3.57,4.222-1.321,11.538-2.184,12.084l-5.895,2.514.075,1.968,3.579-1.765a2.745,2.745,0,0,1,3.531.982c2.589,4.05,8.135,12.476,8.695,10.891C266.581,881.041,262.227,878.4,264.362,876.828Z" transform="translate(-142.357 -768.63)"/>
        </g>
        <g id="Group_263" data-name="Group 263" transform="translate(190.772)">
          <path id="Path_925" data-name="Path 925" class="cls-11" d="M684.432,747.68l2.822,23.8s-21.9,5.679-23.808,10.913-22.394,19.48-29.055,17.57,6.656,4.292-20.479,10.442-30,12.331-35.227,8.994-9.056,8.554-19.04,3.782,30.983-38.5,30.983-38.5Z" transform="translate(-505.324 -683.837)"/>
          <path id="Path_926" data-name="Path 926" class="cls-10" d="M498.762,738.2s-43.182,25.679-58.889-4.556a14.56,14.56,0,0,1,4.085-18.239,61.111,61.111,0,0,0,8.972-8.607,24.236,24.236,0,0,0,4.763-8.457c2.826-8.787,10.341-28.765,20.7-30.6,13.33-2.36,56.151,2.456,62.834-13.713s11.943-32.819,30.49-26.132,16.174,4.781,24.27-.445,29.553-34.7,42.861-21.356,1.378,37.12,1.378,37.12-5.714,3.324-6.687,18.551,3.3,26.176-13.365,28.536-24.252-11.455-41.875-3.39-13.828,20.444-27.158,24.71-27.6-2.892-39.035,10.416S498.762,738.2,498.762,738.2Z" transform="translate(-438.247 -602.657)"/>
          <path id="Path_927" data-name="Path 927" class="cls-10" d="M665.117,895.279s23.376-40.893,2.936-59c0,0-13.317-4.3-16.654-2.4s-18.569,6.639-18.569,6.639-4.759-.96,11.433-7.6-9.034-4.772-9.034-4.772-9.513-4.3,3.337-3.8,19.022,9.069,28.065,7.651S669.991,812,669.991,812s2.87-10.94,3.808,0-.022,17.134,1.884,14.757,2.884-19.507,8.113-18.547,9.518.013,9.522-4.746,3.346-10.464,3.817-6.656.458,11.9-3.35,14.272-8.083-3.817-9.518,1.413-1.44,7.136,2.373,5.239,13.335-6.168,13.81-8.069,10.477-7.123,4.283-.471c0,0-19.524,9.967-24.292,15.672s-7.149,9.034-5.727,11.891,6.63,23.328,5.675,24.754,7.136,2.39,7.141-1.417,13.343-14.259,15.721-11.877,7.629-11.411,12.872-16.636,39.066-32.784,60.448-8.959c0,0,4.746,8.571-.96,4.283s-14.263-10.015-17.12-9.064-17.614,4.257-20.951,9.487-13.806,3.311-21.439,19-18.111,21.391-20.493,21.386-13.8-2.4-14.277.458-2.408,21.413-5.265,23.786-7.149,8.078-9.051,7.127S665.117,895.279,665.117,895.279Z" transform="translate(-546.615 -710.645)"/>
          <path id="Path_928" data-name="Path 928" class="cls-20" d="M773.652,694.862c4.288-9.755,4.64-31.195,1.338-22.879-1.664,4.2.3,10.979-1.422,12.348l-5.432,16-9.368,10.746a1.365,1.365,0,0,1-2.373-1.127l4.283-24.706,5.292-6.181c3.249-2.28-1.365-1.721-4.552,1.422-1.127,1.114-.4-5.234-1.136-6.678a1.439,1.439,0,0,0-2.707.475L755.237,692.1l-2.3-6.863c-.092-1.118-2.765-3.892-2.883-2.773l2.25,8.611-8.109-7.118a1.081,1.081,0,0,0-1.6,1.426l4.57,6.63,9.007,5.234-1.734,9.725a2.961,2.961,0,0,1-4.389,2.047l-9.615-5.521-8.871-5.3a1.022,1.022,0,0,0-1.334,1.5l9.139,6.37-4.9,3.033a1.073,1.073,0,0,0,.885,1.937L743,708.655l5.375,2.994c2.289,1.277.233,10.816.233,10.816s1.008-.132,2.051-.229C752.688,722.042,768.2,707.268,773.652,694.862Z" transform="translate(-601.565 -640.413)"/>
          <path id="Path_929" data-name="Path 929" class="cls-20" d="M555.59,778.9c-1.039.053-1.589-1.981-3.3-4.688-.546-.863-1.281-11.4-2.994-11.111-2.716.453,1.136,6.872.286,9.685-.608,2.016-6.978-8.659-7.977-8.69-1.462-.044,3.566,9.056,4.988,9.4l-5.455-.2a.421.421,0,0,0-.2.8c1.963.955,7.506.969,7.506.969s3.28,4.068,5.221,6.771l2.7,3.76a2.474,2.474,0,0,1-2.4,3.887l-7.6-1.7a.269.269,0,0,0-.185.5,14.715,14.715,0,0,1,2.412,1.462c.709.8-4.376,4.332-2.994,4.7.876.233,4.644-4.327,5.406-3.839L555,793.178a2.351,2.351,0,0,1-.409,4.446l-9.755,2.254a7.119,7.119,0,0,1-6.8-2.069l-11.759-14.334a10.669,10.669,0,0,0-1.224-1.259c-7.907-6.92-11.508-7.229-.876,1.422.031.022-2.778.9-4.6,1.479a.212.212,0,0,0,.079.414l5.538-.33,9.742,12.41c1.611,2.161,3.434,6.942.885,7.818l-6.529,3.914c-1.017.832-17.649-1.963-18.366-1.36-.524.445,15.7,3.509,14.418,4.666-16.707,15.122,7.964-3.962,8.51-4.063l11.653-5.454a3.777,3.777,0,0,1,3.465.136,16.127,16.127,0,0,1,1.669,1.083,2.093,2.093,0,0,1,.37,2.985l-2.914,3.641c-.458.7-7.277,5.82-4.939,5.133,9.245-2.7,13.013-15.5,14.792-15.465l13.291,2.346,8.4-.141-15.822-3.988a4.778,4.778,0,0,1-4.187-4.82c.132-8.373-1.783-31.221-5.063-31.221C553.261,762.816,560.2,778.673,555.59,778.9Z" transform="translate(-478.923 -692.312)"/>
          <path id="Path_930" data-name="Path 930" class="cls-20" d="M677.839,795.7c-3.817,0-22.315-12.124-22.315-12.124-.625-.348-.836-1.691-.167-1.431l17.622,8.47a.674.674,0,0,0,.872-.951l-18.476-31.349a.517.517,0,0,1,.832-.607l13.387,15.351a1.392,1.392,0,0,0,2.223-.167l3.416-5.388-1.5-7.515a.384.384,0,0,1,.744-.189l1.924,6.093,4.182-5.481a.592.592,0,0,1,.995.634l-8.025,15.307a2.182,2.182,0,0,0-.026,1.968l7.149,14.6S678.341,795.7,677.839,795.7Z" transform="translate(-559.548 -689.348)"/>
        </g>
      </g>
      <g id="Group_265" data-name="Group 265" transform="translate(257.759 121.5)">
        <path id="Path_931" data-name="Path 931" class="cls-16" d="M658.7,618.67" transform="translate(-628.638 -550.316)"/>
        <path id="Path_932" data-name="Path 932" class="cls-22" d="M647.229,566.334a14.635,14.635,0,0,1-2.324-9.487c.718-5.19-1.255-10.918-1.255-10.918l47.6-10.737L681.228,497.61s.537,1.431,3.222,2.324a7.46,7.46,0,0,0,5.19-.357s5.908,4.653,8.95,4.116,6.621-1.611,6.621-1.611a22.358,22.358,0,0,1,1.255,11.992c-1.25,6.265-1.074,17.358-7.158,21.474s-16.429,11.622-16.429,11.622l-.141,1.356-.44,4.314S673,559.352,671.213,561.5s-13.423,7.158-17,5.01A7.221,7.221,0,0,0,647.229,566.334Z" transform="translate(-620.213 -482.55)"/>
        <path id="Path_933" data-name="Path 933" class="cls-19" d="M659.839,480.428s6.084-11.631,8.95-9.844c0,0,3.936-2.148,5.371,6.621,0,0,3.042,6.441,2.148,9.844s-68.9,59.237-68.9,59.237-10.381.357-11.094-4.653,5.01-8.95,5.01-8.95l7.7-4.653,1.968-5.547-9.663-3.223s-12.529-11.094-10.737-13.6S606.515,501,606.515,501l12.348.18-11.992-11.274s-7.7-15.39-5.547-16.645,20.044,6.084,20.044,6.084l8.95,5.547s1.431-10.557,2.685-13.6,1.792-8.232,3.579-7.876,9.663,5.908,10.737,7.515,3.222,4.3,3.222,4.3l1.611,6.8,6.084.718Z" transform="translate(-590.412 -463.4)"/>
        <path id="Path_934" data-name="Path 934" class="cls-18" d="M635.766,565.46s-7.876,1.792-10.024-.894-3.222-6.8-2.148-7.876,1.968-5.547.357-6.441-.181-3.579,1.255-4.3,1.255-5.908-.18-6.264S661,521.257,665.649,523.761s12.529-25.053,12.529-25.053,4.473-4.3,6.8-1.968c0,0,7.339-.181,8.413,6.084s-3.042,17.182-3.042,17.182Z" transform="translate(-608.75 -481.676)"/>
        <path id="Path_935" data-name="Path 935" class="cls-11" d="M668.514,544.33s-18.789,10.737-30.781,4.653-22.192-13.066-22.548-14.673,7.158-1.792,6.978-4.834,7.515-7.7,7.515-7.7l18.789-7.876s-2.861-11.274-1.431-11.631,8.95-4.3,8.95-5.908,7.876-6.264,8.413-6.084,1.792,8.413,3.76,9.487,6.8,8.589,7.339,11.274.18,13.423,1.255,15.21,5.547,5.547,5.547,6.978-7.506,7.8-7.506,7.8Z" transform="translate(-604.272 -478.446)"/>
        <path id="Path_936" data-name="Path 936" class="cls-18" d="M674,548.02s-25.089-6.432-30.992-14.307-13.6-17-15.21-23.8a8.911,8.911,0,0,0,5.01-4.3c1.792-3.4,7.339-7.515,9.487-6.264s6.264,4.116,8.95,5.547,10.024,7.515,11.992,10.737,13.779,26.308,13.96,28.456l.18,2.148Z" transform="translate(-611.341 -483.395)"/>
        <path id="Path_937" data-name="Path 937" class="cls-23" d="M642.84,532.569s8.052-3.936,9.487-6.978,10.2-8.052,10.2-8.052,9.126,6.441,10.381,10.381,0,6.621-2.862,8.232-9.663,8.413-10.2,10.2-3.042,2.5-3.042,2.5-8.413-6.441-9.126-10.024Z" transform="translate(-619.76 -493.706)"/>
        <path id="Path_938" data-name="Path 938" class="cls-19" d="M695.478,608.076s-11.706-5.644-16-3.676-13.066,8.232-13.066,8.232,12.705,4.653,19.326,0C685.741,612.633,694.655,610.317,695.478,608.076Z" transform="translate(-632.953 -542.095)"/>
        <path id="Path_939" data-name="Path 939" class="cls-19" d="M736.081,578.161s-6.084-10.737-1.968-12.885,6.084-6.265,6.264-7.7a1.627,1.627,0,0,1,1.611-1.431l.537,6.978S737.511,578.342,736.081,578.161Z" transform="translate(-670.051 -515.319)"/>
        <path id="Path_940" data-name="Path 940" class="cls-20" d="M721.027,613.483l-3.782-.872s-.726-2.765-.145-3.2.726-2.47.726-2.47,4.508-3.491,5.815-2.324,2.034.29,2.034.29l-.872,5.67s19.22,33.766,23.1,47.7c4.121,14.783,15.769,23.31-1.369,93.919,0,0-20.625,52.1-40.448,52.1,0,0,31.393-28.95,38.392-61.016s8.584-51.894,5.085-66.47S730.378,620.694,721.027,613.483Z" transform="translate(-655.165 -542.316)"/>
      </g>
      <g id="Group_266" data-name="Group 266" transform="translate(270.151)">
        <path id="Path_941" data-name="Path 941" class="cls-22" d="M691.836,270.767s27.836-23.438,28.919-34.606,5.406-26.669-.722-24.864-15.857,12.613-18.019,12.613-6.846-4.323-6.846-4.323l-54.417,37.838s-12.974,6.485-20.541,9.007,13.335,13.335,13.335,13.335,9.368-1.083,9.729,5.767-4.684,7.568-2.161,9.368,35.72,4.028,41.285-19.066Z" transform="translate(-618.56 -200.699)"/>
        <path id="Path_942" data-name="Path 942" class="cls-20" d="M783.085,620.33l14.7-42.438A148.3,148.3,0,0,0,804.3,543.58l3.073-44.2a60.5,60.5,0,0,0-.277-11.362c-2.386-20.07-10.548-86.58-14.822-94.83-5.045-9.729-22.43-43.05-22.43-43.05v-4.147l-6.216-.462-3.223,5.525,4.776,1.541c27.4,30.622,25.353,73.6,35.025,122.753,0,0,3.456,120.3-30.134,150.461S783.085,620.33,783.085,620.33Z" transform="translate(-696.558 -275.92)"/>
        <path id="Path_943" data-name="Path 943" class="cls-20" d="M642.14,1085.9" transform="translate(-631.759 -690.357)"/>
        <path id="Path_944" data-name="Path 944" class="cls-24" d="M687.8,217.966s-2.883-12.613,0-15.5c2.848-2.848,12.252,4.323,17.3,10.09S687.8,217.966,687.8,217.966Z" transform="translate(-656.601 -195.478)"/>
        <path id="Path_945" data-name="Path 945" class="cls-24" d="M645.962,234.042s-9.729-11.534-6.485-14.057,28.47,2.162,28.47,2.162l14.774-6.128,8.29-24.5s3.962-7.568,7.206-2.162,11.534,18.38,11.534,22.7-44.688,28.47-50.094,28.47S645.962,234.042,645.962,234.042Z" transform="translate(-629.898 -187.408)"/>
        <path id="Path_946" data-name="Path 946" class="cls-24" d="M653.392,320.4s-15.135,0-12.613-4.323,7.929-8.651,7.929-8.651l-3.245-6.128,91.893-42.165s10.451-6.128,8.65,1.083-2.161,11.534-4.323,15.135-18.38,16.218-18.38,16.218l-28.47-1.083-16.579,19.1Z" transform="translate(-630.839 -226.197)"/>
        <path id="Path_947" data-name="Path 947" class="cls-18" d="M664.653,276c-1.44.722-5.045,6.846-2.522,11.173s3.605,7.568,1.44,8.651.722,4.684.722,4.684,29.909,9.007,39.643-5.767,11.807-5.393,11.807-5.393A32.4,32.4,0,0,0,741.416,267c6.485-20.18,0-15.135,0-15.135s-13.7,1.8-14.774-3.962-10.09,2.883-10.09,2.883Z" transform="translate(-642.461 -220.159)"/>
        <path id="Path_948" data-name="Path 948" class="cls-18" d="M691.2,234.758c-.185-.792-3.513-10.02-.722-12.252,1.8-1.44,9.729-5.045,11.534-2.883s7.929,5.045,7.929,5.045l-9.729,10.451Z" transform="translate(-658.196 -205.064)"/>
        <path id="Path_949" data-name="Path 949" class="cls-18" d="M715.595,223.931s-4.323-9.007-12.613-2.884-11.173,12.613-11.173,12.613-15.135,9.368-23.425,9.007-12.613-1.083-12.974,3.962l-.361,5.045,2.883,5.406,50.094-22.7Z" transform="translate(-638.986 -205.044)"/>
        <path id="Path_950" data-name="Path 950" class="cls-11" d="M663.224,256.252s-5.045,3.605-2.523,7.207,13.7,20.18,24.147,21.624a176.646,176.646,0,0,0,20.744,1.475l3.222-5.525,6.216.462s8.378-10.464,10.178-20.911-5.406-30.631-6.846-30.27c-.744.185-3.588,1.325-6.172,2.39a13.374,13.374,0,0,0-6.859,6.37l-.665,1.329s-6.846,8.29-30.27,11.173C674.4,251.568,664.668,255.174,663.224,256.252Z" transform="translate(-641.754 -211.423)"/>
        <path id="Path_951" data-name="Path 951" class="cls-19" d="M693.215,241.322s8.65,34.237,21.624,38.56,16.579-2.883,16.218-6.846S732.5,253.217,718.083,237s-14.413,3.962-20.541,3.244S693.215,241.322,693.215,241.322Z" transform="translate(-660.211 -211.627)"/>
        <path id="Path_952" data-name="Path 952" class="cls-10" d="M838.789,411.078s2.351,1.88,7.281-6.344,5.4-23.257,11.279-24.9,21.849-3.055,24.671-1.88,15.271-1.409,15.743-2.817,2.584-.938,2.584-.938l-3.76-2.351-34.065-.7-13.449,6.344-8.4,26.313s0,2.817-1.646,3.526l-1.646.7Z" transform="translate(-741.049 -290.256)"/>
        <path id="Path_953" data-name="Path 953" class="cls-25" d="M835.96,404.558s2.034,3.557,1.8-7.955,15.038-33.127,22.086-30.543c0,0,27.488-.233,35.945,2.817s-21.378,2.817-21.378,2.817-16.914-3.289-20.207,1.409-11.041,20.911-11.279,23.728-1.409,7.752-3.055,8.695S835.96,404.558,835.96,404.558Z" transform="translate(-740.254 -287.293)"/>
      </g>
    </g>
    <path id="Path_954" data-name="Path 954" class="cls-11" d="M251.73,892.43" transform="translate(-140.912 -499.556)"/>
  </g>
</svg>
