<svg id="button_Download_App_Store" data-name="button Download App Store" xmlns="http://www.w3.org/2000/svg" viewBox="0 0 255.998 75.852">
  <defs>
    <style>
      .cls-1 {
        fill: #fff;
      }

      .cls-2 {
        fill: #a6a6a6;
      }
    </style>
  </defs>
  <path id="Path_33" data-name="Path 33" class="cls-1" d="M256.175,68.77a7.266,7.266,0,0,1-7.274,7.265H10.846A7.275,7.275,0,0,1,3.562,68.77V10.835a7.285,7.285,0,0,1,7.284-7.274H248.9a7.273,7.273,0,0,1,7.274,7.274l0,57.935Z" transform="translate(-1.873 -1.873)"/>
  <path id="Path_34" data-name="Path 34" class="cls-2" d="M247.028,75.852H8.972A8.973,8.973,0,0,1,0,66.9V8.964A8.979,8.979,0,0,1,8.972,0H247.026A8.983,8.983,0,0,1,256,8.964V66.9a8.972,8.972,0,0,1-8.971,8.955Z"/>
  <path id="Path_35" data-name="Path 35" d="M256.175,68.77a7.266,7.266,0,0,1-7.274,7.265H10.846A7.275,7.275,0,0,1,3.562,68.77V10.835a7.285,7.285,0,0,1,7.284-7.274H248.9a7.273,7.273,0,0,1,7.274,7.274l0,57.935Z" transform="translate(-1.873 -1.873)"/>
  <path id="Path_36" data-name="Path 36" class="cls-1" d="M84.087,50.609a11,11,0,0,1,5.239-9.226,11.266,11.266,0,0,0-8.872-4.8C76.722,36.2,73.1,38.82,71.2,38.82c-1.939,0-4.867-2.195-8.022-2.13a11.812,11.812,0,0,0-9.942,6.062c-4.3,7.441-1.093,18.376,3.026,24.391,2.06,2.948,4.468,6.235,7.62,6.119,3.083-.125,4.235-1.963,7.955-1.963,3.686,0,4.768,1.963,7.982,1.889,3.309-.051,5.392-2.959,7.381-5.931a24.312,24.312,0,0,0,3.375-6.872,10.638,10.638,0,0,1-6.489-9.776ZM78.016,32.631a10.821,10.821,0,0,0,2.478-7.756,11.029,11.029,0,0,0-7.13,3.687,10.3,10.3,0,0,0-2.542,7.47A9.11,9.11,0,0,0,78.016,32.631Z" transform="translate(-26.925 -13.082)"/>
  <g id="Group_12" data-name="Group 12" transform="translate(80.503 34.141)">
    <path id="Path_38" data-name="Path 38" class="cls-1" d="M191.128,97.632h-4.309l-2.36-7.415h-8.2l-2.248,7.415h-4.195l8.13-25.243h5.02Zm-7.381-10.525-2.134-6.591q-.339-1.01-1.273-4.755h-.076q-.376,1.61-1.2,4.755l-2.1,6.591Zm28.247,1.2a10.306,10.306,0,0,1-2.523,7.339,7.4,7.4,0,0,1-5.612,2.4,5.619,5.619,0,0,1-5.2-2.582v9.55h-4.045v-19.6q0-2.916-.15-5.983h3.557l.226,2.885h.076a7.2,7.2,0,0,1,11.519-.715,10.063,10.063,0,0,1,2.152,6.707Zm-4.121.148a7.5,7.5,0,0,0-1.2-4.384,4.145,4.145,0,0,0-3.521-1.8,4.207,4.207,0,0,0-2.715.992,4.6,4.6,0,0,0-1.592,2.6,5.28,5.28,0,0,0-.188,1.231V90.14a4.869,4.869,0,0,0,1.218,3.354,4.044,4.044,0,0,0,3.165,1.368A4.146,4.146,0,0,0,206.6,93.1,7.746,7.746,0,0,0,207.874,88.456Zm25.062-.148a10.306,10.306,0,0,1-2.523,7.339,7.4,7.4,0,0,1-5.614,2.4,5.618,5.618,0,0,1-5.2-2.582v9.55h-4.045v-19.6q0-2.916-.15-5.983h3.557l.226,2.885h.076a7.2,7.2,0,0,1,11.521-.715,10.073,10.073,0,0,1,2.152,6.707Zm-4.123.148a7.5,7.5,0,0,0-1.2-4.384,4.138,4.138,0,0,0-3.518-1.8,4.225,4.225,0,0,0-2.719.992,4.6,4.6,0,0,0-1.59,2.6,5.4,5.4,0,0,0-.19,1.231V90.14a4.885,4.885,0,0,0,1.216,3.354,4.053,4.053,0,0,0,3.169,1.368,4.142,4.142,0,0,0,3.557-1.76A7.746,7.746,0,0,0,228.813,88.456Zm27.536,2.1A6.742,6.742,0,0,1,254.1,95.8a9.95,9.95,0,0,1-6.878,2.21,12.008,12.008,0,0,1-6.538-1.572l.935-3.371a11.256,11.256,0,0,0,5.844,1.574,5.515,5.515,0,0,0,3.557-1.03,3.364,3.364,0,0,0,1.277-2.75,3.525,3.525,0,0,0-1.051-2.585,9.745,9.745,0,0,0-3.483-1.946q-6.631-2.472-6.633-7.231A6.384,6.384,0,0,1,243.475,74a9.26,9.26,0,0,1,6.2-1.986,12.255,12.255,0,0,1,5.732,1.2l-1.015,3.3a10.024,10.024,0,0,0-4.851-1.161,4.934,4.934,0,0,0-3.347,1.049,3,3,0,0,0-1.015,2.288,3.091,3.091,0,0,0,1.163,2.472,13.1,13.1,0,0,0,3.669,1.946,12.44,12.44,0,0,1,4.795,3.069,6.4,6.4,0,0,1,1.543,4.378Zm13.408-8.086H265.3V91.3q0,3.372,2.36,3.369a7.107,7.107,0,0,0,1.8-.188l.112,3.071a9.167,9.167,0,0,1-3.146.448,4.849,4.849,0,0,1-3.747-1.462q-1.346-1.462-1.349-4.907V82.458h-2.656V79.423h2.656V76.09l3.973-1.2v4.532h4.459Zm20.077,5.916a9.983,9.983,0,0,1-2.4,6.891,8.55,8.55,0,0,1-6.667,2.771,8.15,8.15,0,0,1-6.388-2.656,9.68,9.68,0,0,1-2.379-6.7,9.9,9.9,0,0,1,2.453-6.927,8.505,8.505,0,0,1,6.614-2.7,8.321,8.321,0,0,1,6.441,2.659A9.554,9.554,0,0,1,289.834,88.382Zm-4.193.093a8.149,8.149,0,0,0-1.083-4.294,4,4,0,0,0-3.635-2.168,4.062,4.062,0,0,0-3.709,2.168,8.283,8.283,0,0,0-1.085,4.37,8.125,8.125,0,0,0,1.085,4.3,4.149,4.149,0,0,0,7.31-.036,8.181,8.181,0,0,0,1.117-4.336Zm17.347-5.487a7.041,7.041,0,0,0-1.275-.112,3.818,3.818,0,0,0-3.3,1.612,6.071,6.071,0,0,0-1.009,3.594v9.55h-4.045V85.163q.005-2.866-.118-5.73h3.523l.148,3.483h.112a6.244,6.244,0,0,1,2.023-2.885,4.892,4.892,0,0,1,2.924-.975,6.5,6.5,0,0,1,1.011.074Zm18.091,4.683a9.483,9.483,0,0,1-.148,1.834H308.8a5.278,5.278,0,0,0,1.761,4.124,6.022,6.022,0,0,0,3.969,1.271,13.425,13.425,0,0,0,4.91-.859l.634,2.805a15.184,15.184,0,0,1-6.1,1.125,8.85,8.85,0,0,1-6.652-2.489A9.2,9.2,0,0,1,304.9,88.8a10.424,10.424,0,0,1,2.25-6.851,7.753,7.753,0,0,1,6.366-2.919,6.785,6.785,0,0,1,5.959,2.919,9.822,9.822,0,0,1,1.605,5.725Zm-3.857-1.049a5.474,5.474,0,0,0-.785-3.109,3.533,3.533,0,0,0-3.222-1.688A3.835,3.835,0,0,0,310,83.473a6.04,6.04,0,0,0-1.2,3.145l8.424,0Z" transform="translate(-169.812 -72.016)"/>
  </g>
  <g id="Group_13" data-name="Group 13" transform="translate(82.871 12.43)">
    <path id="Path_39" data-name="Path 39" class="cls-1" d="M177.715,39.379a25.837,25.837,0,0,1-2.909-.148v-12.2a22.026,22.026,0,0,1,3.425-.258c4.639,0,6.775,2.282,6.775,6C185.006,37.061,182.483,39.379,177.715,39.379Zm.679-11.045a8.117,8.117,0,0,0-1.6.129V37.74a10.5,10.5,0,0,0,1.343.055c3.04,0,4.77-1.73,4.77-4.97C182.906,29.937,181.341,28.334,178.394,28.334Zm13.27,11.138c-2.615,0-4.309-1.952-4.309-4.6,0-2.762,1.73-4.731,4.457-4.731,2.577,0,4.309,1.859,4.309,4.585C196.121,37.52,194.335,39.472,191.664,39.472Zm.076-7.879c-1.436,0-2.356,1.343-2.356,3.221,0,1.842.939,3.185,2.338,3.185s2.337-1.436,2.337-3.223C194.058,32.955,193.138,31.593,191.74,31.593Zm19.29-1.269-2.8,8.945h-1.823l-1.159-3.885a29.444,29.444,0,0,1-.719-2.889h-.038a19.361,19.361,0,0,1-.717,2.889l-1.233,3.885H200.7l-2.633-8.945h2.043l1.013,4.253q.359,1.519.607,2.872h.038c.146-.753.385-1.694.736-2.853l1.271-4.27h1.62l1.216,4.179c.294,1.013.533,2.007.719,2.946h.053a25.746,25.746,0,0,1,.607-2.946l1.087-4.179,1.952,0Zm10.3,8.945h-1.988V34.133c0-1.582-.607-2.375-1.8-2.375a2.065,2.065,0,0,0-1.988,2.191v5.321h-1.988V32.881c0-.791-.019-1.639-.074-2.559h1.749l.093,1.381h.055a3.214,3.214,0,0,1,2.837-1.563c1.878,0,3.112,1.436,3.112,3.773l0,5.357Zm5.483,0h-1.99V26.219h1.99Zm7.25.2c-2.613,0-4.309-1.952-4.309-4.6,0-2.762,1.73-4.731,4.455-4.731,2.578,0,4.309,1.859,4.309,4.585C238.522,37.52,236.735,39.472,234.065,39.472Zm.074-7.879c-1.436,0-2.356,1.343-2.356,3.221,0,1.842.941,3.185,2.336,3.185s2.338-1.436,2.338-3.223C236.458,32.955,235.54,31.593,234.139,31.593Zm12.221,7.676-.144-1.03h-.053a3.055,3.055,0,0,1-2.616,1.233A2.6,2.6,0,0,1,240.8,36.84c0-2.208,1.914-3.35,5.229-3.35v-.165c0-1.178-.624-1.768-1.857-1.768a4.188,4.188,0,0,0-2.338.664l-.4-1.307a5.72,5.72,0,0,1,3.072-.774c2.338,0,3.518,1.233,3.518,3.7v3.295a13.509,13.509,0,0,0,.129,2.136l-1.793,0Zm-.273-4.456c-2.209,0-3.317.535-3.317,1.8a1.268,1.268,0,0,0,1.364,1.4,1.9,1.9,0,0,0,1.952-1.821Zm11.593,4.456-.093-1.436h-.055a3,3,0,0,1-2.873,1.639c-2.157,0-3.755-1.9-3.755-4.566,0-2.8,1.656-4.769,3.918-4.769a2.689,2.689,0,0,1,2.523,1.216h.04V26.219h1.99V36.858c0,.865.021,1.675.074,2.411h-1.77Zm-.294-5.264a2.164,2.164,0,0,0-2.095-2.32c-1.474,0-2.375,1.307-2.375,3.147,0,1.8.935,3.039,2.336,3.039a2.232,2.232,0,0,0,2.134-2.375Zm14.609,5.467c-2.613,0-4.307-1.952-4.307-4.6,0-2.762,1.73-4.731,4.455-4.731,2.578,0,4.309,1.859,4.309,4.585C276.454,37.52,274.668,39.472,271.995,39.472Zm.074-7.879c-1.434,0-2.355,1.343-2.355,3.221,0,1.842.939,3.185,2.336,3.185s2.338-1.436,2.338-3.223C274.391,32.955,273.471,31.593,272.069,31.593Zm15.076,7.676h-1.99V34.133c0-1.582-.607-2.375-1.8-2.375a2.063,2.063,0,0,0-1.986,2.191v5.321h-1.99V32.881c0-.791-.019-1.639-.074-2.559h1.749l.093,1.381h.055a3.213,3.213,0,0,1,2.835-1.565c1.878,0,3.114,1.436,3.114,3.773Zm13.378-7.454h-2.188v4.344c0,1.106.383,1.658,1.157,1.658a3.917,3.917,0,0,0,.882-.093l.055,1.51a4.406,4.406,0,0,1-1.543.222c-1.567,0-2.5-.865-2.5-3.13V31.815h-1.305V30.324h1.305V28.685l1.952-.59v2.227h2.188v1.493Zm10.526,7.454h-1.986v-5.1c0-1.6-.605-2.411-1.8-2.411a1.95,1.95,0,0,0-1.99,2.117v5.393h-1.987V26.219h1.987v5.374h.04A3.017,3.017,0,0,1,308,30.138c1.894,0,3.051,1.472,3.051,3.811v5.321Zm10.784-3.995h-5.967a2.568,2.568,0,0,0,2.819,2.65A6.721,6.721,0,0,0,321.1,37.5l.309,1.381a7.471,7.471,0,0,1-3,.552,4.153,4.153,0,0,1-4.455-4.509c0-2.743,1.7-4.8,4.231-4.8,2.286,0,3.721,1.694,3.721,4.253A3.83,3.83,0,0,1,321.834,35.275Zm-1.823-1.417c0-1.381-.7-2.356-1.968-2.356a2.358,2.358,0,0,0-2.174,2.356h4.142Z" transform="translate(-174.806 -26.219)"/>
  </g>
</svg>
