<svg xmlns="http://www.w3.org/2000/svg" xmlns:xlink="http://www.w3.org/1999/xlink" viewBox="0 0 490.69 338.18"><defs><style>.cls-1{fill:#475563;}.cls-2{fill:#f09d28;}.cls-3{fill:#ddd7cb;}.cls-4{fill:#c62527;}.cls-5{clip-path:url(#clip-path);}.cls-6{fill:none;stroke:#fff;stroke-miterlimit:10;stroke-width:1px;}.cls-7{fill:#262626;}.cls-8{fill:#f6c47e;}</style><clipPath id="clip-path"><path class="cls-1" d="M340.1,218.49,325.67,226c-1.13.58-2.24-.51-2-2l4.89-26.3a1.85,1.85,0,0,1,1.37-1.59c2-.26,2.6,2.07,2.75,2.87a1.77,1.77,0,0,0,.17.52l8.06,16.21A2.18,2.18,0,0,1,340.1,218.49Z"/></clipPath></defs><title>labut4</title><g id="Layer_9" data-name="Layer 9"><g id="labut"><polygon class="cls-2" points="303.99 58.63 315.61 59.42 301.79 63.64 303.99 58.63"/><path class="cls-3" d="M220.57,78.63s4.67-2.2,14.73-7.63,22.28-3.91,26.45-3.72,26.49-6,33.91-8.24,10.95,2.22,10.95,2.22,1.52,3.41-14.91,4-45.8,19-47.64,21.66-18.09,6.84-30,9.84-18.41-5.49-18.51-8.69,10.61-2.32,13.65-3.31,2.22-11-.32-12.34c-1.68-.92-7.2-13.54-10.77-22a18.36,18.36,0,0,0-11.64-10.49,49,49,0,0,0-7.8-1.51,13.39,13.39,0,0,1-11.13-9.2c-1.46-4.51-2.53-9-.81-8.63,3.35.79,23.72-.12,28.35,1.93,6.74,3,18.34-2.76,24,8.64s10.16,31.75,18.2,33.09,7.11,4,7.11,4"/><path class="cls-3" d="M251.6,72.27l-8,6.47s3.59,20.49,6.34,20.47S248.38,88,248.38,88s10.51,20.66,11.9,18.12-6.34-20.47-6.34-20.47,8.6,15,10.07,12.93-2.94-14.18-2.94-14.18,4.68,8.37,5.78,6.79-2.17-20.28-2.17-20.28"/><path class="cls-2" d="M207.3,90l-23.6,2.5,4.92,6.24,4.74-4.11S209.79,91.71,207.3,90Z"/><polygon class="cls-2" points="214.21 92.03 198.81 100.74 197.63 97.12 214.21 92.03"/></g><g id="labut-2" data-name="labut"><polygon class="cls-2" points="126.46 134.01 114.52 136.58 113.98 131.55 126.46 134.01"/><path class="cls-3" d="M9.18,124.94c-3.71-1,.56-7,4.4-6.76h.13c4.38.42,35.22,1.77,35.22,1.77s12.81,16.18,14.13,19.63,18.21-11,23.58-9.32c7.49,2.27,6.59,6.17,2.76,5.8s-16.09,6.18-16.09,6.18c-1.58,4.82-.43,4.38,5.32,2.17,3.29-1.26,28.39-13.27,32.78-12.84h.13c3,.31,7.51,2.12,5,3.81l-4.7,2.86S71.64,153.7,57.43,163.37c0,0-19.89-.27-23.12-1.14-1.58-.42.95-2.55,4-4.62,3.89-2.67,6.33-8.92,2.74-12-5.72-4.88-10.52-17.16-14.95-17.94C22,127,13.09,126,9.18,124.94Z"/><path class="cls-2" d="M37.34,160.87l-11.9,3.81L24.77,158l11.5,1.12C38,159.25,38.73,160.43,37.34,160.87Z"/></g></g><g id="Layer_10" data-name="Layer 10"><g id="labut2"><polygon class="cls-2" points="384.98 215.96 365.79 217 366.83 212.85 384.98 215.96"/><path class="cls-3" d="M242.36,237.22s-14,7.78-11.93,11.41,16.08-.51,16.6,4.15S261.55,260,265.18,258s43.56-15.56,47.19-14,30.37,6.69,34.23,8.29c6.23,2.6,32.16,25.94,39.42,26.45s32.67,10.38,34.75,18.67,1.55,17.12,3.63,13.49,3.11-15.56,6.22-10.37,7.26,16.59,8.3,11.92-6.23-19.18,4.15-9.33,26.45,12.45,27.48,10.37-10.89-5.7-10.89-5.7,16.08,0,16.6-2.6-14-2.07-14-2.07,18.68-2.08,18.16-5.19-24.9,1.56-28.53-2.07A113.09,113.09,0,0,0,441,287s6.74-3.11,9.86-4.67,0-3.11-15-3.11-25.94-14-28.53-17.11-51.34-32.16-69-33.71,24.38-6.74,27-7.78c1.07-.43,3.17-1.2,5.29-2a3.22,3.22,0,0,0,.32-5.93l-1.3-.59a18.14,18.14,0,0,0-16.67,1.09,44.38,44.38,0,0,1-7.86,3.76c-9.86,3.63-30.6,5.7-30.6,5.7s2.59-3.11-15-11.41c0,0-25.93,1-39.42-5.18s-87.13-6.75-99.57-4.67-20.75-16.08-23.34-15.56,3.11,8.82,3.11,8.82-15.56-6.74-13.48-2.6,11.93,6.23,11.93,6.23-19.19,5.7-13.49,6.22,17.63-2.07,17.63-2.07l46.65,11.33a82.86,82.86,0,0,0,14.93,2.26C215.42,216.71,238.08,220.11,242.36,237.22Z"/><path class="cls-2" d="M243.77,250.37l-9.19,7.6-7.78-5.19,15.58-4.95A1.48,1.48,0,0,1,243.77,250.37Z"/><path class="cls-2" d="M229.31,244.66l-8.21,1.9,1.55,7.26L230.5,247A1.35,1.35,0,0,0,229.31,244.66Z"/><g id="baba"><path class="cls-4" d="M339,225.33l-8.4-4.56,4.07-4.77,5.87,7.52A1.21,1.21,0,0,1,339,225.33Z"/><path class="cls-1" d="M340.1,218.49,325.67,226c-1.13.58-2.24-.51-2-2l4.89-26.3a1.85,1.85,0,0,1,1.37-1.59c2-.26,2.6,2.07,2.75,2.87a1.77,1.77,0,0,0,.17.52l8.06,16.21A2.18,2.18,0,0,1,340.1,218.49Z"/><g class="cls-5"><line class="cls-6" x1="323.45" y1="208.28" x2="338.78" y2="201.09"/><line class="cls-6" x1="318.86" y1="217.16" x2="345.3" y2="205.15"/><line class="cls-6" x1="315.74" y1="229" x2="348.79" y2="208.55"/></g><path class="cls-7" d="M332.79,189.85s-7.79,3.32-5.77,5.64a16.87,16.87,0,0,0,5.73,3.77Z"/><path class="cls-8" d="M332.79,189.85l0,9.41h0c2.33-2.14,2.73-6.13.85-8.43Z"/></g></g></g></svg>