<svg xmlns="http://www.w3.org/2000/svg" viewBox="0 0 312.931 254.383">
  <defs>
    <style>
      .cls-1 {
        fill: #fcfcf9;
      }

      .cls-1, .cls-2, .cls-3 {
        opacity: 0.5;
      }

      .cls-2 {
        fill: #f09d28;
      }
    </style>
  </defs>
  <g id="wdontslldata" transform="matrix(0.999, 0.035, -0.035, 0.999, 7.685, -1.983)">
    <path id="Path_266" data-name="Path 266" class="cls-1" d="M25.354,38.092l115.5-4.985a12.728,12.728,0,0,1,13.295,12.187l4.985,115.5c.554,11.356-13.018,17.726-21.6,9.971L17.322,60.527C8.736,52.771,14,38.646,25.354,38.092Z" transform="translate(23.082 58.571)"/>
    <g id="Group_134" data-name="Group 134" transform="translate(0.019 0)">
      <path id="Path_267" data-name="Path 267" class="cls-1" d="M1.552,107.265,28.141,77.352a4.431,4.431,0,0,1,6.37-.277L64.7,103.942a4.4,4.4,0,0,1-2.77,7.755L5.153,114.744A4.483,4.483,0,0,1,1.552,107.265Z" transform="translate(0.611 134.254)"/>
      <path id="Path_268" data-name="Path 268" class="cls-1" d="M1.352,99.065,27.941,69.152a4.431,4.431,0,0,1,6.37-.277L64.5,95.742a4.4,4.4,0,0,1-2.77,7.755L4.953,106.544C1.075,106.544-1.418,101.835,1.352,99.065Z" transform="translate(0.257 119.742)"/>
      <path id="Path_269" data-name="Path 269" class="cls-1" d="M1.074,91.265,27.663,61.353a4.431,4.431,0,0,1,6.37-.277l30.19,26.866a4.4,4.4,0,0,1-2.77,7.755L4.675,98.744C.8,99.021-1.419,94.312,1.074,91.265Z" transform="translate(-0.019 105.938)"/>
      <path id="Path_270" data-name="Path 270" class="cls-1" d="M15.338,161.772,10.907,50.983a12.183,12.183,0,0,1,11.91-12.741l110.789-4.432c11.079-.554,16.9,12.464,9.694,20.773L36.665,169.527C29.464,177.559,15.892,172.574,15.338,161.772Z" transform="translate(19.23 59.806)"/>
      <path id="Path_271" data-name="Path 271" class="cls-1" d="M141.625,54.789l4.155,101.649a11.43,11.43,0,0,1-10.8,11.91L33.33,172.5c-10.248.277-15.787-11.91-8.863-19.111l97.494-105.8C128.608,40.11,141.072,44.541,141.625,54.789Z" transform="translate(37.799 77.603)"/>
      <path id="Path_272" data-name="Path 272" class="cls-1" d="M11.281,75.7,75.538,3.965a10.878,10.878,0,0,1,15.233-.831L162.23,67.669a10.579,10.579,0,0,1-6.647,18.557l-135.716,7.2A10.594,10.594,0,0,1,11.281,75.7Z" transform="translate(14.979 0.743)"/>
      <g id="Group_132" data-name="Group 132" transform="translate(229.936 110.583)">
        <path id="Path_273" data-name="Path 273" class="cls-2" d="M108.039,77.169l17.449,6.924a2.023,2.023,0,0,1,1.108,2.77l-6.924,17.172c-.554,1.662-3.047,1.662-3.878,0l-10.525-24.1A2.22,2.22,0,0,1,108.039,77.169Z" transform="translate(-43.884 25.793)"/>
        <path id="Path_274" data-name="Path 274" class="cls-2" d="M102.516,62.569l18.557,7.478a2.023,2.023,0,0,1,1.108,2.77L114.7,91.374a2.211,2.211,0,0,1-4.155,0L99.469,65.616A2.416,2.416,0,0,1,102.516,62.569Z" transform="translate(-54.147 -0.044)"/>
        <path id="Path_275" data-name="Path 275" class="cls-2" d="M104.366,70.894l10.8,4.432c.554.277,1.108,1.108.831,1.662l-4.432,10.8a1.35,1.35,0,0,1-2.493,0l-6.647-15.233A1.41,1.41,0,0,1,104.366,70.894Z" transform="translate(-48.797 14.619)"/>
        <path id="Path_276" data-name="Path 276" class="cls-2" d="M106.1,73.88,121.052,79.7a1.884,1.884,0,0,1,1.108,2.216l-5.816,14.68a1.849,1.849,0,0,1-3.324,0l-9.14-20.5A1.708,1.708,0,0,1,106.1,73.88Z" transform="translate(-46.372 19.943)"/>
        <g id="Group_131" data-name="Group 131">
          <path id="Path_277" data-name="Path 277" class="cls-2" d="M121.711,99.295,110.078,73.537l-9.417,4.432a2.621,2.621,0,0,1-3.6-3.324l6.093-16.618L99,48.886a6.624,6.624,0,0,1,2.77-8.586,7.1,7.1,0,0,0-4.155,3.878L83.489,81.015a6.361,6.361,0,0,0,3.878,8.309l37.391,13.849a6.437,6.437,0,0,0,5.539-.277A6.83,6.83,0,0,1,121.711,99.295Z" transform="translate(-83.037 -39.263)"/>
          <path id="Path_278" data-name="Path 278" class="cls-2" d="M132.908,54.534,95.516,40.409a6.1,6.1,0,0,0-5.816.554,6.515,6.515,0,0,1,8.309,3.6l3.6,8.032,18.28,6.647a2.7,2.7,0,0,1,.277,4.985l-10.8,4.985,11.91,25.758a6.307,6.307,0,0,1-3.047,8.586,6.675,6.675,0,0,0,3.878-3.878l14.4-36.56A6.131,6.131,0,0,0,132.908,54.534Z" transform="translate(-71.245 -39.926)"/>
          <path id="Path_279" data-name="Path 279" class="cls-2" d="M89.224,49.132l4.155,9.14,2.216-6.37a2.881,2.881,0,0,1,3.6-1.662L103.9,51.9l-3.6-8.032a7.079,7.079,0,0,0-8.309-3.6C89.224,42.208,87.562,45.808,89.224,49.132Z" transform="translate(-73.261 -39.786)"/>
          <path id="Path_280" data-name="Path 280" class="cls-2" d="M89.224,49.132l4.155,9.14,2.216-6.37a2.881,2.881,0,0,1,3.6-1.662L103.9,51.9l-3.6-8.032a7.079,7.079,0,0,0-8.309-3.6C89.224,42.208,87.562,45.808,89.224,49.132Z" transform="translate(-73.261 -39.786)"/>
          <path id="Path_281" data-name="Path 281" class="cls-2" d="M115.789,76.158,103.879,50.4,92.8,55.385l11.633,25.758a6.83,6.83,0,0,0,8.586,3.6A6.442,6.442,0,0,0,115.789,76.158Z" transform="translate(-65.759 -21.389)"/>
          <path id="Path_282" data-name="Path 282" class="cls-2" d="M115.789,76.158,103.879,50.4,92.8,55.385l11.633,25.758a6.83,6.83,0,0,0,8.586,3.6A6.442,6.442,0,0,0,115.789,76.158Z" transform="translate(-65.759 -21.389)"/>
        </g>
      </g>
      <path id="Path_283" data-name="Path 283" class="cls-1" d="M116.7,157.709,31.12,165.464c-5.262.554-9.971-3.878-10.525-9.694L11.732,59.938C10.9,50.52,20.6,44.7,27.242,50.8l94.724,88.077C128.614,144.968,125.29,156.878,116.7,157.709Z" transform="translate(20.621 85.473)"/>
      <path id="Path_284" data-name="Path 284" class="cls-1" d="M50.912,26.866,53.128,2.493A2.945,2.945,0,0,1,55.9,0L78.333,2.216a2.747,2.747,0,0,1,1.385,4.709L55.067,29.359A2.619,2.619,0,0,1,50.912,26.866Z" transform="translate(90.013 0)"/>
      <g id="Group_133" data-name="Group 133" transform="translate(91.779 170.03)">
        <path id="Path_285" data-name="Path 285" class="cls-3" d="M56.356,76.083l-10.8-9.417a1.685,1.685,0,0,0-2.216,0l-9.694,10.8a1.684,1.684,0,0,0,1.385,2.77l20.219-1.108C56.633,78.852,57.464,76.913,56.356,76.083Z" transform="translate(-32.967 -52.786)"/>
        <path id="Path_286" data-name="Path 286" class="cls-3" d="M33.556,65.02l9.417,9.417a1.685,1.685,0,0,0,2.216,0L55.436,63.912a1.4,1.4,0,0,0-1.108-2.493L34.387,62.527C33.279,62.251,32.725,64.189,33.556,65.02Z" transform="translate(-33.156 -61.389)"/>
      </g>
    </g>
  </g>
</svg>
